%TF.GenerationSoftware,KiCad,Pcbnew,9.0.0*%
%TF.CreationDate,2025-09-02T15:48:47+09:00*%
%TF.ProjectId,MistFarm_PCB,4d697374-4661-4726-9d5f-5043422e6b69,rev?*%
%TF.SameCoordinates,Original*%
%TF.FileFunction,Copper,L3,Inr*%
%TF.FilePolarity,Positive*%
%FSLAX46Y46*%
G04 Gerber Fmt 4.6, Leading zero omitted, Abs format (unit mm)*
G04 Created by KiCad (PCBNEW 9.0.0) date 2025-09-02 15:48:47*
%MOMM*%
%LPD*%
G01*
G04 APERTURE LIST*
%TA.AperFunction,ComponentPad*%
%ADD10C,1.650000*%
%TD*%
%TA.AperFunction,ComponentPad*%
%ADD11R,1.050000X1.050000*%
%TD*%
%TA.AperFunction,ComponentPad*%
%ADD12C,1.050000*%
%TD*%
%TA.AperFunction,ComponentPad*%
%ADD13O,2.100000X1.050000*%
%TD*%
%TA.AperFunction,ComponentPad*%
%ADD14O,1.800000X0.900000*%
%TD*%
%TA.AperFunction,ComponentPad*%
%ADD15R,1.370000X1.370000*%
%TD*%
%TA.AperFunction,ComponentPad*%
%ADD16C,1.370000*%
%TD*%
%TA.AperFunction,HeatsinkPad*%
%ADD17C,0.600000*%
%TD*%
%TA.AperFunction,ViaPad*%
%ADD18C,0.600000*%
%TD*%
%TA.AperFunction,ViaPad*%
%ADD19C,1.400000*%
%TD*%
G04 APERTURE END LIST*
D10*
%TO.N,3.3V OUT*%
%TO.C,J4*%
X27830000Y-118320000D03*
%TO.N,GND*%
X27830000Y-120860000D03*
%TO.N,/ESP32 WROOM 32E/Temp_Sensor*%
X27830000Y-123400000D03*
%TO.N,/ESP32 WROOM 32E/I2C_SCL*%
X27830000Y-125940000D03*
%TO.N,/ESP32 WROOM 32E/I2C_SDL*%
X27830000Y-128480000D03*
%TD*%
D11*
%TO.N,3.3V OUT*%
%TO.C,J1*%
X86030000Y-21950000D03*
D12*
%TO.N,Net-(C3-Pad1)*%
X87300000Y-21950000D03*
%TO.N,GND*%
X86030000Y-23220000D03*
%TO.N,Net-(C4-Pad1)*%
X87300000Y-23220000D03*
%TO.N,GND*%
X86030000Y-24490000D03*
%TO.N,Net-(C5-Pad1)*%
X87300000Y-24490000D03*
%TO.N,unconnected-(J1-Pad7)*%
X86030000Y-25760000D03*
%TO.N,Net-(C6-Pad1)*%
X87300000Y-25760000D03*
%TO.N,GND*%
X86030000Y-27030000D03*
%TO.N,/ESP32 WROOM 32E/EN*%
X87300000Y-27030000D03*
%TD*%
D13*
%TO.N,GND*%
%TO.C,UART1*%
X83600000Y-52220000D03*
X83600000Y-43580000D03*
D14*
X87780000Y-52220000D03*
X87780000Y-43580000D03*
%TD*%
D15*
%TO.N,GND*%
%TO.C,J2*%
X84800000Y-109450000D03*
D16*
%TO.N,3.3V OUT*%
X82260000Y-109450000D03*
%TO.N,/ESP32 WROOM 32E/I2C_SCL*%
X79720000Y-109450000D03*
%TO.N,/ESP32 WROOM 32E/I2C_SDL*%
X77180000Y-109450000D03*
%TD*%
D17*
%TO.N,GND*%
%TO.C,U1*%
X47290000Y-49747900D03*
X47290000Y-51147900D03*
X47990000Y-49047900D03*
X47990000Y-50447900D03*
X47990000Y-51847900D03*
X48690000Y-49747900D03*
X48690000Y-51147900D03*
X49390000Y-49047900D03*
X49390000Y-50447900D03*
X49390000Y-51847900D03*
X50090000Y-49747900D03*
X50090000Y-51147900D03*
%TD*%
D10*
%TO.N,3.3V OUT*%
%TO.C,J3*%
X89090000Y-95130000D03*
%TO.N,GND*%
X89090000Y-92590000D03*
%TO.N,/ESP32 WROOM 32E/Temp_Sensor*%
X89090000Y-90050000D03*
%TO.N,/ESP32 WROOM 32E/I2C_SCL*%
X89090000Y-87510000D03*
%TO.N,/ESP32 WROOM 32E/I2C_SDL*%
X89090000Y-84970000D03*
%TD*%
D18*
%TO.N,GND*%
X81500000Y-44720000D03*
X39450000Y-42720000D03*
X29290000Y-58270000D03*
X77820000Y-59550000D03*
X73100000Y-55860000D03*
X72860000Y-43130000D03*
X73080000Y-57430000D03*
X54450000Y-46220000D03*
X69180803Y-50977401D03*
X72930000Y-61270000D03*
X81793908Y-51308137D03*
X26260000Y-42330000D03*
X77850000Y-60800000D03*
X72850000Y-59390000D03*
X44040000Y-64590000D03*
X65560000Y-53900000D03*
X79450000Y-47580000D03*
X61130000Y-42750000D03*
X73030000Y-63130000D03*
X84010000Y-26970000D03*
X65120000Y-48920000D03*
X29240000Y-56470000D03*
X84060000Y-24510000D03*
%TO.N,3.3V OUT*%
X39310000Y-43990000D03*
X72860000Y-49520000D03*
X31340000Y-54570000D03*
X77080000Y-61200000D03*
X83950000Y-21950000D03*
X80010000Y-56450000D03*
X46070000Y-68790000D03*
%TO.N,Net-(C3-Pad1)*%
X89843000Y-21450000D03*
%TO.N,Net-(C4-Pad1)*%
X89843000Y-23670000D03*
%TO.N,Net-(C5-Pad1)*%
X89843000Y-25820000D03*
%TO.N,/ESP32 WROOM 32E/I2C_SCL*%
X18860000Y-126780000D03*
X58940000Y-45267900D03*
%TO.N,/ESP32 WROOM 32E/I2C_SDL*%
X58940000Y-49077900D03*
X20620000Y-127770000D03*
%TO.N,Net-(C6-Pad1)*%
X89843000Y-27970000D03*
%TO.N,/ESP32 WROOM 32E/EN*%
X39410000Y-45190000D03*
X65775000Y-53090000D03*
%TO.N,Net-(U2-REGIN)*%
X74450000Y-48340000D03*
X75650000Y-48340000D03*
X74039737Y-51709210D03*
X71857500Y-48837500D03*
%TO.N,/ESP32 WROOM 32E/AC_TRIAC_Switching*%
X60420000Y-55430000D03*
X41290000Y-85290900D03*
D19*
%TO.N,Net-(D4-K)*%
X51940000Y-73737900D03*
X51950000Y-87557900D03*
D18*
%TO.N,/ESP32 WROOM 32E/Temp_Sensor*%
X37708000Y-54230000D03*
X25220000Y-123440000D03*
%TO.N,/ESP32 WROOM 32E/RTS*%
X68075000Y-56125000D03*
X66975000Y-46237500D03*
X65666948Y-58383392D03*
%TO.N,/ESP32 WROOM 32E/JTAG_MTDI*%
X83660000Y-36730000D03*
X41440000Y-59237900D03*
%TO.N,/ESP32 WROOM 32E/JTAG_MTDO*%
X85410000Y-36690000D03*
X54635000Y-60487900D03*
%TO.N,/ESP32 WROOM 32E/JTAG_MTCK*%
X45745000Y-60487900D03*
X87160000Y-36580000D03*
%TO.N,/ESP32 WROOM 32E/JTAG_MTMS*%
X88970000Y-36670000D03*
X41440000Y-57967900D03*
%TO.N,Net-(Q1A-B1)*%
X66375000Y-50970000D03*
X67065065Y-55963595D03*
%TO.N,Net-(U2-~{RST})*%
X75884265Y-49954265D03*
X73640000Y-47737500D03*
%TO.N,Net-(UART1-CC2)*%
X81751510Y-46070080D03*
X80636189Y-47627296D03*
%TO.N,Net-(U3-I{slash}O1-Pad1)*%
X79170000Y-48360000D03*
X81768699Y-48154624D03*
X81740000Y-46870000D03*
%TO.N,5A OUT*%
X79510000Y-52100000D03*
X81691859Y-50514670D03*
%TD*%
%TA.AperFunction,Conductor*%
%TO.N,GND*%
G36*
X91282539Y-19630185D02*
G01*
X91328294Y-19682989D01*
X91339500Y-19734500D01*
X91339500Y-40519122D01*
X91336761Y-40545038D01*
X91297085Y-40730680D01*
X91292667Y-40746282D01*
X91219018Y-40953549D01*
X91212601Y-40968442D01*
X91112531Y-41164332D01*
X91104226Y-41178259D01*
X90979448Y-41359419D01*
X90969396Y-41372143D01*
X90822052Y-41535465D01*
X90810426Y-41546769D01*
X90643028Y-41689468D01*
X90630026Y-41699158D01*
X90445433Y-41818796D01*
X90431276Y-41826708D01*
X90341415Y-41869472D01*
X90292768Y-41881417D01*
X90114387Y-41888092D01*
X90114381Y-41888092D01*
X89882451Y-41932874D01*
X89882447Y-41932875D01*
X89660063Y-42012563D01*
X89452463Y-42125281D01*
X89264512Y-42268391D01*
X89100629Y-42438525D01*
X88964652Y-42631701D01*
X88916897Y-42728089D01*
X88869497Y-42779421D01*
X88801869Y-42796977D01*
X88736896Y-42776141D01*
X88680000Y-42738124D01*
X88679991Y-42738119D01*
X88507105Y-42666508D01*
X88507097Y-42666506D01*
X88323570Y-42630000D01*
X88030000Y-42630000D01*
X88030000Y-43280000D01*
X87530000Y-43280000D01*
X87530000Y-42630000D01*
X87236430Y-42630000D01*
X87052902Y-42666506D01*
X87052894Y-42666508D01*
X86880008Y-42738119D01*
X86879999Y-42738124D01*
X86724410Y-42842086D01*
X86724406Y-42842089D01*
X86592089Y-42974406D01*
X86592086Y-42974410D01*
X86488124Y-43129999D01*
X86488119Y-43130008D01*
X86416507Y-43302896D01*
X86416506Y-43302899D01*
X86411115Y-43329999D01*
X86411116Y-43330000D01*
X87213012Y-43330000D01*
X87195795Y-43339940D01*
X87139940Y-43395795D01*
X87100444Y-43464204D01*
X87080000Y-43540504D01*
X87080000Y-43619496D01*
X87100444Y-43695796D01*
X87139940Y-43764205D01*
X87195795Y-43820060D01*
X87213012Y-43830000D01*
X86411116Y-43830000D01*
X86416506Y-43857100D01*
X86416507Y-43857103D01*
X86488119Y-44029991D01*
X86488124Y-44030000D01*
X86592086Y-44185589D01*
X86592089Y-44185593D01*
X86724406Y-44317910D01*
X86724410Y-44317913D01*
X86879999Y-44421875D01*
X86880008Y-44421880D01*
X87052894Y-44493491D01*
X87052902Y-44493493D01*
X87236428Y-44529999D01*
X87236431Y-44530000D01*
X87530000Y-44530000D01*
X87530000Y-43880000D01*
X88030000Y-43880000D01*
X88030000Y-44530000D01*
X88323569Y-44530000D01*
X88323571Y-44529999D01*
X88507097Y-44493493D01*
X88507105Y-44493491D01*
X88580960Y-44462900D01*
X88650430Y-44455431D01*
X88712909Y-44486706D01*
X88748561Y-44546795D01*
X88752413Y-44577459D01*
X88752514Y-51222578D01*
X88732830Y-51289618D01*
X88680027Y-51335374D01*
X88610869Y-51345318D01*
X88581062Y-51337141D01*
X88507109Y-51306509D01*
X88507097Y-51306506D01*
X88323570Y-51270000D01*
X88030000Y-51270000D01*
X88030000Y-51920000D01*
X87530000Y-51920000D01*
X87530000Y-51270000D01*
X87236430Y-51270000D01*
X87052902Y-51306506D01*
X87052894Y-51306508D01*
X86880008Y-51378119D01*
X86879999Y-51378124D01*
X86724410Y-51482086D01*
X86724406Y-51482089D01*
X86592089Y-51614406D01*
X86592086Y-51614410D01*
X86488124Y-51769999D01*
X86488119Y-51770008D01*
X86416507Y-51942896D01*
X86416506Y-51942899D01*
X86411115Y-51969999D01*
X86411116Y-51970000D01*
X87213012Y-51970000D01*
X87195795Y-51979940D01*
X87139940Y-52035795D01*
X87100444Y-52104204D01*
X87080000Y-52180504D01*
X87080000Y-52259496D01*
X87100444Y-52335796D01*
X87139940Y-52404205D01*
X87195795Y-52460060D01*
X87213012Y-52470000D01*
X86411116Y-52470000D01*
X86416506Y-52497100D01*
X86416507Y-52497103D01*
X86488119Y-52669991D01*
X86488124Y-52670000D01*
X86592086Y-52825589D01*
X86592089Y-52825593D01*
X86724406Y-52957910D01*
X86724410Y-52957913D01*
X86879999Y-53061875D01*
X86880008Y-53061880D01*
X87052894Y-53133491D01*
X87052902Y-53133493D01*
X87236428Y-53169999D01*
X87236431Y-53170000D01*
X87530000Y-53170000D01*
X87530000Y-52520000D01*
X88030000Y-52520000D01*
X88030000Y-53170000D01*
X88323569Y-53170000D01*
X88323571Y-53169999D01*
X88507097Y-53133493D01*
X88507105Y-53133491D01*
X88679991Y-53061880D01*
X88680001Y-53061874D01*
X88744410Y-53018837D01*
X88811087Y-52997958D01*
X88878467Y-53016442D01*
X88924410Y-53066884D01*
X88964814Y-53148428D01*
X88964816Y-53148430D01*
X89100785Y-53341584D01*
X89100787Y-53341585D01*
X89100790Y-53341589D01*
X89264676Y-53511715D01*
X89452624Y-53654812D01*
X89660223Y-53767522D01*
X89660229Y-53767524D01*
X89660231Y-53767525D01*
X89751602Y-53800263D01*
X89882602Y-53847200D01*
X90114543Y-53891976D01*
X90293138Y-53898651D01*
X90302173Y-53900868D01*
X90308060Y-53900115D01*
X90341765Y-53910583D01*
X90431083Y-53953064D01*
X90445231Y-53960967D01*
X90629896Y-54080595D01*
X90642897Y-54090282D01*
X90810360Y-54232985D01*
X90821990Y-54244289D01*
X90969386Y-54407618D01*
X90979442Y-54420345D01*
X91104263Y-54601523D01*
X91112572Y-54615452D01*
X91212677Y-54811371D01*
X91219097Y-54826267D01*
X91292774Y-55033579D01*
X91297194Y-55049185D01*
X91336888Y-55234899D01*
X91339627Y-55260817D01*
X91339501Y-113725500D01*
X91319816Y-113792540D01*
X91267012Y-113838294D01*
X91215501Y-113849500D01*
X31464108Y-113849500D01*
X31336812Y-113883608D01*
X31222686Y-113949500D01*
X31222683Y-113949502D01*
X31129502Y-114042683D01*
X31129500Y-114042686D01*
X31063608Y-114156812D01*
X31036471Y-114258093D01*
X31000106Y-114317754D01*
X30937259Y-114348283D01*
X30916696Y-114350000D01*
X18104500Y-114350000D01*
X18037461Y-114330315D01*
X17991706Y-114277511D01*
X17980500Y-114226000D01*
X17980500Y-109356699D01*
X75994500Y-109356699D01*
X75994500Y-109543300D01*
X76023691Y-109727606D01*
X76023691Y-109727609D01*
X76081352Y-109905071D01*
X76081354Y-109905074D01*
X76166069Y-110071338D01*
X76275751Y-110222302D01*
X76407698Y-110354249D01*
X76558662Y-110463931D01*
X76724926Y-110548646D01*
X76724928Y-110548647D01*
X76902391Y-110606308D01*
X76902392Y-110606308D01*
X76902395Y-110606309D01*
X77086699Y-110635500D01*
X77086700Y-110635500D01*
X77273300Y-110635500D01*
X77273301Y-110635500D01*
X77457605Y-110606309D01*
X77457608Y-110606308D01*
X77457609Y-110606308D01*
X77635071Y-110548647D01*
X77635071Y-110548646D01*
X77635074Y-110548646D01*
X77801338Y-110463931D01*
X77952302Y-110354249D01*
X78084249Y-110222302D01*
X78193931Y-110071338D01*
X78278646Y-109905074D01*
X78293908Y-109858102D01*
X78332069Y-109740656D01*
X78371506Y-109682980D01*
X78435865Y-109655782D01*
X78504711Y-109667697D01*
X78556187Y-109714941D01*
X78567931Y-109740656D01*
X78621352Y-109905071D01*
X78621354Y-109905074D01*
X78706069Y-110071338D01*
X78815751Y-110222302D01*
X78947698Y-110354249D01*
X79098662Y-110463931D01*
X79264926Y-110548646D01*
X79264928Y-110548647D01*
X79442391Y-110606308D01*
X79442392Y-110606308D01*
X79442395Y-110606309D01*
X79626699Y-110635500D01*
X79626700Y-110635500D01*
X79813300Y-110635500D01*
X79813301Y-110635500D01*
X79997605Y-110606309D01*
X79997608Y-110606308D01*
X79997609Y-110606308D01*
X80175071Y-110548647D01*
X80175071Y-110548646D01*
X80175074Y-110548646D01*
X80341338Y-110463931D01*
X80492302Y-110354249D01*
X80624249Y-110222302D01*
X80733931Y-110071338D01*
X80818646Y-109905074D01*
X80833908Y-109858102D01*
X80872069Y-109740656D01*
X80911506Y-109682980D01*
X80975865Y-109655782D01*
X81044711Y-109667697D01*
X81096187Y-109714941D01*
X81107931Y-109740656D01*
X81161352Y-109905071D01*
X81161354Y-109905074D01*
X81246069Y-110071338D01*
X81355751Y-110222302D01*
X81487698Y-110354249D01*
X81638662Y-110463931D01*
X81804926Y-110548646D01*
X81804928Y-110548647D01*
X81982391Y-110606308D01*
X81982392Y-110606308D01*
X81982395Y-110606309D01*
X82166699Y-110635500D01*
X82166700Y-110635500D01*
X82353300Y-110635500D01*
X82353301Y-110635500D01*
X82537605Y-110606309D01*
X82537608Y-110606308D01*
X82537609Y-110606308D01*
X82715071Y-110548647D01*
X82715071Y-110548646D01*
X82715074Y-110548646D01*
X82881338Y-110463931D01*
X83032302Y-110354249D01*
X83164249Y-110222302D01*
X83273931Y-110071338D01*
X83358646Y-109905074D01*
X83373069Y-109860685D01*
X83412506Y-109803010D01*
X83476865Y-109775811D01*
X83545711Y-109787725D01*
X83597187Y-109834969D01*
X83615000Y-109899003D01*
X83615000Y-110182844D01*
X83621401Y-110242372D01*
X83621403Y-110242379D01*
X83671645Y-110377086D01*
X83671649Y-110377093D01*
X83757809Y-110492187D01*
X83757812Y-110492190D01*
X83872906Y-110578350D01*
X83872913Y-110578354D01*
X84007620Y-110628596D01*
X84007627Y-110628598D01*
X84067155Y-110634999D01*
X84067172Y-110635000D01*
X84550000Y-110635000D01*
X84550000Y-109894560D01*
X84603147Y-109925245D01*
X84732857Y-109960000D01*
X84867143Y-109960000D01*
X84996853Y-109925245D01*
X85050000Y-109894560D01*
X85050000Y-110635000D01*
X85532828Y-110635000D01*
X85532844Y-110634999D01*
X85592372Y-110628598D01*
X85592379Y-110628596D01*
X85727086Y-110578354D01*
X85727093Y-110578350D01*
X85842187Y-110492190D01*
X85842190Y-110492187D01*
X85928350Y-110377093D01*
X85928354Y-110377086D01*
X85978596Y-110242379D01*
X85978598Y-110242372D01*
X85984999Y-110182844D01*
X85985000Y-110182827D01*
X85985000Y-109700000D01*
X85244560Y-109700000D01*
X85275245Y-109646853D01*
X85310000Y-109517143D01*
X85310000Y-109382857D01*
X85275245Y-109253147D01*
X85244560Y-109200000D01*
X85985000Y-109200000D01*
X85985000Y-108717172D01*
X85984999Y-108717155D01*
X85978598Y-108657627D01*
X85978596Y-108657620D01*
X85928354Y-108522913D01*
X85928350Y-108522906D01*
X85842190Y-108407812D01*
X85842187Y-108407809D01*
X85727093Y-108321649D01*
X85727086Y-108321645D01*
X85592379Y-108271403D01*
X85592372Y-108271401D01*
X85532844Y-108265000D01*
X85050000Y-108265000D01*
X85050000Y-109005439D01*
X84996853Y-108974755D01*
X84867143Y-108940000D01*
X84732857Y-108940000D01*
X84603147Y-108974755D01*
X84550000Y-109005439D01*
X84550000Y-108265000D01*
X84067155Y-108265000D01*
X84007627Y-108271401D01*
X84007620Y-108271403D01*
X83872913Y-108321645D01*
X83872906Y-108321649D01*
X83757812Y-108407809D01*
X83757809Y-108407812D01*
X83671649Y-108522906D01*
X83671645Y-108522913D01*
X83621403Y-108657620D01*
X83621401Y-108657627D01*
X83615000Y-108717155D01*
X83615000Y-109000996D01*
X83595315Y-109068035D01*
X83542511Y-109113790D01*
X83473353Y-109123734D01*
X83409797Y-109094709D01*
X83373069Y-109039314D01*
X83358647Y-108994928D01*
X83358645Y-108994925D01*
X83273930Y-108828661D01*
X83164249Y-108677698D01*
X83032302Y-108545751D01*
X82881338Y-108436069D01*
X82715074Y-108351354D01*
X82715071Y-108351352D01*
X82537608Y-108293691D01*
X82396872Y-108271401D01*
X82353301Y-108264500D01*
X82166699Y-108264500D01*
X82105264Y-108274230D01*
X81982393Y-108293691D01*
X81982390Y-108293691D01*
X81804928Y-108351352D01*
X81804925Y-108351354D01*
X81638661Y-108436069D01*
X81552531Y-108498646D01*
X81487698Y-108545751D01*
X81487696Y-108545753D01*
X81487695Y-108545753D01*
X81355753Y-108677695D01*
X81355753Y-108677696D01*
X81355751Y-108677698D01*
X81308646Y-108742531D01*
X81246069Y-108828661D01*
X81161354Y-108994925D01*
X81161352Y-108994928D01*
X81107931Y-109159343D01*
X81068493Y-109217019D01*
X81004135Y-109244217D01*
X80935288Y-109232302D01*
X80883813Y-109185058D01*
X80872069Y-109159343D01*
X80818647Y-108994928D01*
X80818645Y-108994925D01*
X80733930Y-108828661D01*
X80624249Y-108677698D01*
X80492302Y-108545751D01*
X80341338Y-108436069D01*
X80175074Y-108351354D01*
X80175071Y-108351352D01*
X79997608Y-108293691D01*
X79856872Y-108271401D01*
X79813301Y-108264500D01*
X79626699Y-108264500D01*
X79565264Y-108274230D01*
X79442393Y-108293691D01*
X79442390Y-108293691D01*
X79264928Y-108351352D01*
X79264925Y-108351354D01*
X79098661Y-108436069D01*
X79012531Y-108498646D01*
X78947698Y-108545751D01*
X78947696Y-108545753D01*
X78947695Y-108545753D01*
X78815753Y-108677695D01*
X78815753Y-108677696D01*
X78815751Y-108677698D01*
X78768646Y-108742531D01*
X78706069Y-108828661D01*
X78621354Y-108994925D01*
X78621352Y-108994928D01*
X78567931Y-109159343D01*
X78528493Y-109217019D01*
X78464135Y-109244217D01*
X78395288Y-109232302D01*
X78343813Y-109185058D01*
X78332069Y-109159343D01*
X78278647Y-108994928D01*
X78278645Y-108994925D01*
X78193930Y-108828661D01*
X78084249Y-108677698D01*
X77952302Y-108545751D01*
X77801338Y-108436069D01*
X77635074Y-108351354D01*
X77635071Y-108351352D01*
X77457608Y-108293691D01*
X77316872Y-108271401D01*
X77273301Y-108264500D01*
X77086699Y-108264500D01*
X77025264Y-108274230D01*
X76902393Y-108293691D01*
X76902390Y-108293691D01*
X76724928Y-108351352D01*
X76724925Y-108351354D01*
X76558661Y-108436069D01*
X76472531Y-108498646D01*
X76407698Y-108545751D01*
X76407696Y-108545753D01*
X76407695Y-108545753D01*
X76275753Y-108677695D01*
X76275753Y-108677696D01*
X76275751Y-108677698D01*
X76228646Y-108742531D01*
X76166069Y-108828661D01*
X76081354Y-108994925D01*
X76081352Y-108994928D01*
X76023691Y-109172390D01*
X76023691Y-109172393D01*
X75994500Y-109356699D01*
X17980500Y-109356699D01*
X17980500Y-87463413D01*
X50749500Y-87463413D01*
X50749500Y-87652386D01*
X50779059Y-87839018D01*
X50837454Y-88018736D01*
X50923240Y-88187099D01*
X51034310Y-88339973D01*
X51167927Y-88473590D01*
X51320801Y-88584660D01*
X51400347Y-88625190D01*
X51489163Y-88670445D01*
X51489165Y-88670445D01*
X51489168Y-88670447D01*
X51585497Y-88701746D01*
X51668881Y-88728840D01*
X51855514Y-88758400D01*
X51855519Y-88758400D01*
X52044486Y-88758400D01*
X52231118Y-88728840D01*
X52293548Y-88708555D01*
X52410832Y-88670447D01*
X52579199Y-88584660D01*
X52732073Y-88473590D01*
X52865690Y-88339973D01*
X52976760Y-88187099D01*
X53062547Y-88018732D01*
X53120940Y-87839018D01*
X53123891Y-87820389D01*
X53150500Y-87652386D01*
X53150500Y-87463413D01*
X53120940Y-87276781D01*
X53062545Y-87097063D01*
X52976759Y-86928700D01*
X52865690Y-86775827D01*
X52732073Y-86642210D01*
X52579199Y-86531140D01*
X52410836Y-86445354D01*
X52231118Y-86386959D01*
X52044486Y-86357400D01*
X52044481Y-86357400D01*
X51855519Y-86357400D01*
X51855514Y-86357400D01*
X51668881Y-86386959D01*
X51489163Y-86445354D01*
X51320800Y-86531140D01*
X51233579Y-86594510D01*
X51167927Y-86642210D01*
X51167925Y-86642212D01*
X51167924Y-86642212D01*
X51034312Y-86775824D01*
X51034312Y-86775825D01*
X51034310Y-86775827D01*
X51005642Y-86815285D01*
X50923240Y-86928700D01*
X50837454Y-87097063D01*
X50779059Y-87276781D01*
X50749500Y-87463413D01*
X17980500Y-87463413D01*
X17980500Y-85212053D01*
X40489500Y-85212053D01*
X40489500Y-85369746D01*
X40520261Y-85524389D01*
X40520264Y-85524401D01*
X40580602Y-85670072D01*
X40580609Y-85670085D01*
X40668210Y-85801188D01*
X40668213Y-85801192D01*
X40779707Y-85912686D01*
X40779711Y-85912689D01*
X40910814Y-86000290D01*
X40910827Y-86000297D01*
X41056498Y-86060635D01*
X41056503Y-86060637D01*
X41211153Y-86091399D01*
X41211156Y-86091400D01*
X41211158Y-86091400D01*
X41368844Y-86091400D01*
X41368845Y-86091399D01*
X41523497Y-86060637D01*
X41669179Y-86000294D01*
X41800289Y-85912689D01*
X41911789Y-85801189D01*
X41999394Y-85670079D01*
X42059737Y-85524397D01*
X42090500Y-85369742D01*
X42090500Y-85212058D01*
X42090500Y-85212055D01*
X42090499Y-85212053D01*
X42059737Y-85057403D01*
X42059735Y-85057398D01*
X41999395Y-84911723D01*
X41999390Y-84911714D01*
X41968627Y-84865675D01*
X87764500Y-84865675D01*
X87764500Y-85074324D01*
X87797137Y-85280389D01*
X87861612Y-85478820D01*
X87956330Y-85664714D01*
X88078965Y-85833505D01*
X88226495Y-85981035D01*
X88395286Y-86103670D01*
X88442271Y-86127610D01*
X88446010Y-86129515D01*
X88496806Y-86177490D01*
X88513601Y-86245310D01*
X88491064Y-86311445D01*
X88446010Y-86350485D01*
X88395285Y-86376330D01*
X88226493Y-86498966D01*
X88078966Y-86646493D01*
X87956330Y-86815285D01*
X87861612Y-87001179D01*
X87797137Y-87199610D01*
X87764500Y-87405675D01*
X87764500Y-87614324D01*
X87797137Y-87820389D01*
X87861612Y-88018820D01*
X87947355Y-88187099D01*
X87956330Y-88204714D01*
X88078965Y-88373505D01*
X88226495Y-88521035D01*
X88395286Y-88643670D01*
X88442271Y-88667610D01*
X88446010Y-88669515D01*
X88496806Y-88717490D01*
X88513601Y-88785310D01*
X88491064Y-88851445D01*
X88446010Y-88890485D01*
X88395285Y-88916330D01*
X88226493Y-89038966D01*
X88078966Y-89186493D01*
X87956330Y-89355285D01*
X87861612Y-89541179D01*
X87797137Y-89739610D01*
X87764500Y-89945675D01*
X87764500Y-90154324D01*
X87797137Y-90360389D01*
X87861612Y-90558820D01*
X87956330Y-90744714D01*
X88078965Y-90913505D01*
X88226495Y-91061035D01*
X88339022Y-91142791D01*
X88395287Y-91183671D01*
X88446561Y-91209796D01*
X88497358Y-91257770D01*
X88514153Y-91325591D01*
X88491616Y-91391726D01*
X88446563Y-91430765D01*
X88395555Y-91456755D01*
X88346180Y-91492627D01*
X88919766Y-92066212D01*
X88877708Y-92077482D01*
X88752292Y-92149890D01*
X88649890Y-92252292D01*
X88577482Y-92377708D01*
X88566212Y-92419765D01*
X87992627Y-91846180D01*
X87956757Y-91895552D01*
X87862075Y-92081372D01*
X87797626Y-92279727D01*
X87765000Y-92485720D01*
X87765000Y-92694279D01*
X87797626Y-92900272D01*
X87862075Y-93098627D01*
X87956759Y-93284451D01*
X87992627Y-93333818D01*
X87992627Y-93333819D01*
X88566212Y-92760233D01*
X88577482Y-92802292D01*
X88649890Y-92927708D01*
X88752292Y-93030110D01*
X88877708Y-93102518D01*
X88919765Y-93113787D01*
X88346179Y-93687371D01*
X88346180Y-93687372D01*
X88395543Y-93723236D01*
X88395561Y-93723247D01*
X88446561Y-93749233D01*
X88497358Y-93797207D01*
X88514153Y-93865028D01*
X88491616Y-93931163D01*
X88446563Y-93970202D01*
X88395288Y-93996328D01*
X88226493Y-94118966D01*
X88078966Y-94266493D01*
X87956330Y-94435285D01*
X87861612Y-94621179D01*
X87797137Y-94819610D01*
X87764500Y-95025675D01*
X87764500Y-95234324D01*
X87797137Y-95440389D01*
X87861612Y-95638820D01*
X87956330Y-95824714D01*
X88078965Y-95993505D01*
X88226495Y-96141035D01*
X88395286Y-96263670D01*
X88483116Y-96308421D01*
X88581179Y-96358387D01*
X88581181Y-96358387D01*
X88581184Y-96358389D01*
X88687545Y-96392948D01*
X88779610Y-96422862D01*
X88985676Y-96455500D01*
X88985681Y-96455500D01*
X89194324Y-96455500D01*
X89400389Y-96422862D01*
X89598816Y-96358389D01*
X89784714Y-96263670D01*
X89953505Y-96141035D01*
X90101035Y-95993505D01*
X90223670Y-95824714D01*
X90318389Y-95638816D01*
X90382862Y-95440389D01*
X90415500Y-95234324D01*
X90415500Y-95025675D01*
X90382862Y-94819610D01*
X90318387Y-94621179D01*
X90223669Y-94435285D01*
X90101035Y-94266495D01*
X89953505Y-94118965D01*
X89784714Y-93996330D01*
X89784710Y-93996328D01*
X89733437Y-93970203D01*
X89682641Y-93922228D01*
X89665846Y-93854407D01*
X89688384Y-93788272D01*
X89733438Y-93749233D01*
X89784448Y-93723242D01*
X89784449Y-93723242D01*
X89833818Y-93687372D01*
X89833818Y-93687371D01*
X89260234Y-93113787D01*
X89302292Y-93102518D01*
X89427708Y-93030110D01*
X89530110Y-92927708D01*
X89602518Y-92802292D01*
X89613787Y-92760234D01*
X90187371Y-93333818D01*
X90187372Y-93333818D01*
X90223240Y-93284451D01*
X90317924Y-93098627D01*
X90382373Y-92900272D01*
X90415000Y-92694279D01*
X90415000Y-92485720D01*
X90382373Y-92279727D01*
X90317924Y-92081372D01*
X90223244Y-91895556D01*
X90223236Y-91895543D01*
X90187372Y-91846180D01*
X90187371Y-91846179D01*
X89613787Y-92419764D01*
X89602518Y-92377708D01*
X89530110Y-92252292D01*
X89427708Y-92149890D01*
X89302292Y-92077482D01*
X89260233Y-92066212D01*
X89833819Y-91492627D01*
X89784451Y-91456759D01*
X89733437Y-91430766D01*
X89682641Y-91382791D01*
X89665846Y-91314970D01*
X89688384Y-91248835D01*
X89733438Y-91209796D01*
X89784712Y-91183671D01*
X89784711Y-91183671D01*
X89784714Y-91183670D01*
X89953505Y-91061035D01*
X90101035Y-90913505D01*
X90223670Y-90744714D01*
X90318389Y-90558816D01*
X90382862Y-90360389D01*
X90415500Y-90154324D01*
X90415500Y-89945675D01*
X90382862Y-89739610D01*
X90318387Y-89541179D01*
X90223669Y-89355285D01*
X90101035Y-89186495D01*
X89953505Y-89038965D01*
X89897241Y-88998086D01*
X89784712Y-88916328D01*
X89733990Y-88890485D01*
X89683194Y-88842511D01*
X89666398Y-88774690D01*
X89688935Y-88708555D01*
X89733990Y-88669515D01*
X89784712Y-88643671D01*
X89784711Y-88643671D01*
X89784714Y-88643670D01*
X89953505Y-88521035D01*
X90101035Y-88373505D01*
X90223670Y-88204714D01*
X90318389Y-88018816D01*
X90382862Y-87820389D01*
X90409472Y-87652381D01*
X90415500Y-87614324D01*
X90415500Y-87405675D01*
X90382862Y-87199610D01*
X90318387Y-87001179D01*
X90223669Y-86815285D01*
X90195001Y-86775827D01*
X90101035Y-86646495D01*
X89953505Y-86498965D01*
X89897241Y-86458086D01*
X89784712Y-86376328D01*
X89733990Y-86350485D01*
X89683194Y-86302511D01*
X89666398Y-86234690D01*
X89688935Y-86168555D01*
X89733990Y-86129515D01*
X89784712Y-86103671D01*
X89784711Y-86103671D01*
X89784714Y-86103670D01*
X89953505Y-85981035D01*
X90101035Y-85833505D01*
X90223670Y-85664714D01*
X90318389Y-85478816D01*
X90382862Y-85280389D01*
X90415500Y-85074324D01*
X90415500Y-84865675D01*
X90382862Y-84659610D01*
X90318387Y-84461179D01*
X90223669Y-84275285D01*
X90101035Y-84106495D01*
X89953505Y-83958965D01*
X89784714Y-83836330D01*
X89598820Y-83741612D01*
X89400389Y-83677137D01*
X89194324Y-83644500D01*
X89194319Y-83644500D01*
X88985681Y-83644500D01*
X88985676Y-83644500D01*
X88779610Y-83677137D01*
X88581179Y-83741612D01*
X88395285Y-83836330D01*
X88226493Y-83958966D01*
X88078966Y-84106493D01*
X87956330Y-84275285D01*
X87861612Y-84461179D01*
X87797137Y-84659610D01*
X87764500Y-84865675D01*
X41968627Y-84865675D01*
X41911789Y-84780611D01*
X41911786Y-84780607D01*
X41800292Y-84669113D01*
X41800288Y-84669110D01*
X41669185Y-84581509D01*
X41669172Y-84581502D01*
X41523501Y-84521164D01*
X41523489Y-84521161D01*
X41368845Y-84490400D01*
X41368842Y-84490400D01*
X41211158Y-84490400D01*
X41211155Y-84490400D01*
X41056510Y-84521161D01*
X41056498Y-84521164D01*
X40910827Y-84581502D01*
X40910814Y-84581509D01*
X40779711Y-84669110D01*
X40779707Y-84669113D01*
X40668213Y-84780607D01*
X40668210Y-84780611D01*
X40580609Y-84911714D01*
X40580602Y-84911727D01*
X40520264Y-85057398D01*
X40520261Y-85057410D01*
X40489500Y-85212053D01*
X17980500Y-85212053D01*
X17980500Y-73643413D01*
X50739500Y-73643413D01*
X50739500Y-73832386D01*
X50769059Y-74019018D01*
X50827454Y-74198736D01*
X50913240Y-74367099D01*
X51024310Y-74519973D01*
X51157927Y-74653590D01*
X51310801Y-74764660D01*
X51390347Y-74805190D01*
X51479163Y-74850445D01*
X51479165Y-74850445D01*
X51479168Y-74850447D01*
X51575497Y-74881746D01*
X51658881Y-74908840D01*
X51845514Y-74938400D01*
X51845519Y-74938400D01*
X52034486Y-74938400D01*
X52221118Y-74908840D01*
X52400832Y-74850447D01*
X52569199Y-74764660D01*
X52722073Y-74653590D01*
X52855690Y-74519973D01*
X52966760Y-74367099D01*
X53052547Y-74198732D01*
X53110940Y-74019018D01*
X53140500Y-73832386D01*
X53140500Y-73643413D01*
X53110940Y-73456781D01*
X53052545Y-73277063D01*
X52966759Y-73108700D01*
X52855690Y-72955827D01*
X52722073Y-72822210D01*
X52569199Y-72711140D01*
X52400836Y-72625354D01*
X52221118Y-72566959D01*
X52034486Y-72537400D01*
X52034481Y-72537400D01*
X51845519Y-72537400D01*
X51845514Y-72537400D01*
X51658881Y-72566959D01*
X51479163Y-72625354D01*
X51310800Y-72711140D01*
X51223579Y-72774510D01*
X51157927Y-72822210D01*
X51157925Y-72822212D01*
X51157924Y-72822212D01*
X51024312Y-72955824D01*
X51024312Y-72955825D01*
X51024310Y-72955827D01*
X50976610Y-73021479D01*
X50913240Y-73108700D01*
X50827454Y-73277063D01*
X50769059Y-73456781D01*
X50739500Y-73643413D01*
X17980500Y-73643413D01*
X17980500Y-68711153D01*
X45269500Y-68711153D01*
X45269500Y-68868846D01*
X45300261Y-69023489D01*
X45300264Y-69023501D01*
X45360602Y-69169172D01*
X45360609Y-69169185D01*
X45448210Y-69300288D01*
X45448213Y-69300292D01*
X45559707Y-69411786D01*
X45559711Y-69411789D01*
X45690814Y-69499390D01*
X45690827Y-69499397D01*
X45836498Y-69559735D01*
X45836503Y-69559737D01*
X45991153Y-69590499D01*
X45991156Y-69590500D01*
X45991158Y-69590500D01*
X46148844Y-69590500D01*
X46148845Y-69590499D01*
X46303497Y-69559737D01*
X46449179Y-69499394D01*
X46580289Y-69411789D01*
X46691789Y-69300289D01*
X46779394Y-69169179D01*
X46839737Y-69023497D01*
X46870500Y-68868842D01*
X46870500Y-68711158D01*
X46870500Y-68711155D01*
X46870499Y-68711153D01*
X46839738Y-68556510D01*
X46839737Y-68556503D01*
X46839735Y-68556498D01*
X46779397Y-68410827D01*
X46779390Y-68410814D01*
X46691789Y-68279711D01*
X46691786Y-68279707D01*
X46580292Y-68168213D01*
X46580288Y-68168210D01*
X46449185Y-68080609D01*
X46449172Y-68080602D01*
X46303501Y-68020264D01*
X46303489Y-68020261D01*
X46148845Y-67989500D01*
X46148842Y-67989500D01*
X45991158Y-67989500D01*
X45991155Y-67989500D01*
X45836510Y-68020261D01*
X45836498Y-68020264D01*
X45690827Y-68080602D01*
X45690814Y-68080609D01*
X45559711Y-68168210D01*
X45559707Y-68168213D01*
X45448213Y-68279707D01*
X45448210Y-68279711D01*
X45360609Y-68410814D01*
X45360602Y-68410827D01*
X45300264Y-68556498D01*
X45300261Y-68556510D01*
X45269500Y-68711153D01*
X17980500Y-68711153D01*
X17980500Y-60409053D01*
X44944500Y-60409053D01*
X44944500Y-60566746D01*
X44975261Y-60721389D01*
X44975264Y-60721401D01*
X45035602Y-60867072D01*
X45035609Y-60867085D01*
X45123210Y-60998188D01*
X45123213Y-60998192D01*
X45234707Y-61109686D01*
X45234711Y-61109689D01*
X45365814Y-61197290D01*
X45365827Y-61197297D01*
X45511498Y-61257635D01*
X45511503Y-61257637D01*
X45666153Y-61288399D01*
X45666156Y-61288400D01*
X45666158Y-61288400D01*
X45823844Y-61288400D01*
X45823845Y-61288399D01*
X45978497Y-61257637D01*
X46124179Y-61197294D01*
X46255289Y-61109689D01*
X46366789Y-60998189D01*
X46454394Y-60867079D01*
X46514737Y-60721397D01*
X46545500Y-60566742D01*
X46545500Y-60409058D01*
X46545500Y-60409055D01*
X46545499Y-60409053D01*
X53834500Y-60409053D01*
X53834500Y-60566746D01*
X53865261Y-60721389D01*
X53865264Y-60721401D01*
X53925602Y-60867072D01*
X53925609Y-60867085D01*
X54013210Y-60998188D01*
X54013213Y-60998192D01*
X54124707Y-61109686D01*
X54124711Y-61109689D01*
X54255814Y-61197290D01*
X54255827Y-61197297D01*
X54401498Y-61257635D01*
X54401503Y-61257637D01*
X54556153Y-61288399D01*
X54556156Y-61288400D01*
X54556158Y-61288400D01*
X54713844Y-61288400D01*
X54713845Y-61288399D01*
X54868497Y-61257637D01*
X55014179Y-61197294D01*
X55128132Y-61121153D01*
X76279500Y-61121153D01*
X76279500Y-61278846D01*
X76310261Y-61433489D01*
X76310264Y-61433501D01*
X76370602Y-61579172D01*
X76370609Y-61579185D01*
X76458210Y-61710288D01*
X76458213Y-61710292D01*
X76569707Y-61821786D01*
X76569711Y-61821789D01*
X76700814Y-61909390D01*
X76700827Y-61909397D01*
X76846498Y-61969735D01*
X76846503Y-61969737D01*
X77001153Y-62000499D01*
X77001156Y-62000500D01*
X77001158Y-62000500D01*
X77158844Y-62000500D01*
X77158845Y-62000499D01*
X77313497Y-61969737D01*
X77459179Y-61909394D01*
X77590289Y-61821789D01*
X77701789Y-61710289D01*
X77789394Y-61579179D01*
X77849737Y-61433497D01*
X77880500Y-61278842D01*
X77880500Y-61121158D01*
X77880500Y-61121155D01*
X77880499Y-61121153D01*
X77856040Y-60998192D01*
X77849737Y-60966503D01*
X77808552Y-60867072D01*
X77789397Y-60820827D01*
X77789390Y-60820814D01*
X77701789Y-60689711D01*
X77701786Y-60689707D01*
X77590292Y-60578213D01*
X77590288Y-60578210D01*
X77459185Y-60490609D01*
X77459172Y-60490602D01*
X77313501Y-60430264D01*
X77313489Y-60430261D01*
X77158845Y-60399500D01*
X77158842Y-60399500D01*
X77001158Y-60399500D01*
X77001155Y-60399500D01*
X76846510Y-60430261D01*
X76846498Y-60430264D01*
X76700827Y-60490602D01*
X76700814Y-60490609D01*
X76569711Y-60578210D01*
X76569707Y-60578213D01*
X76458213Y-60689707D01*
X76458210Y-60689711D01*
X76370609Y-60820814D01*
X76370602Y-60820827D01*
X76310264Y-60966498D01*
X76310261Y-60966510D01*
X76279500Y-61121153D01*
X55128132Y-61121153D01*
X55145289Y-61109689D01*
X55145292Y-61109686D01*
X55227594Y-61027385D01*
X55256786Y-60998192D01*
X55256789Y-60998189D01*
X55344394Y-60867079D01*
X55404737Y-60721397D01*
X55435500Y-60566742D01*
X55435500Y-60409058D01*
X55435500Y-60409055D01*
X55435499Y-60409053D01*
X55404738Y-60254410D01*
X55404737Y-60254403D01*
X55404735Y-60254398D01*
X55344397Y-60108727D01*
X55344390Y-60108714D01*
X55256789Y-59977611D01*
X55256786Y-59977607D01*
X55145292Y-59866113D01*
X55145288Y-59866110D01*
X55014185Y-59778509D01*
X55014172Y-59778502D01*
X54868501Y-59718164D01*
X54868489Y-59718161D01*
X54713845Y-59687400D01*
X54713842Y-59687400D01*
X54556158Y-59687400D01*
X54556155Y-59687400D01*
X54401510Y-59718161D01*
X54401498Y-59718164D01*
X54255827Y-59778502D01*
X54255814Y-59778509D01*
X54124711Y-59866110D01*
X54124707Y-59866113D01*
X54013213Y-59977607D01*
X54013210Y-59977611D01*
X53925609Y-60108714D01*
X53925602Y-60108727D01*
X53865264Y-60254398D01*
X53865261Y-60254410D01*
X53834500Y-60409053D01*
X46545499Y-60409053D01*
X46514738Y-60254410D01*
X46514737Y-60254403D01*
X46514735Y-60254398D01*
X46454397Y-60108727D01*
X46454390Y-60108714D01*
X46366789Y-59977611D01*
X46366786Y-59977607D01*
X46255292Y-59866113D01*
X46255288Y-59866110D01*
X46124185Y-59778509D01*
X46124172Y-59778502D01*
X45978501Y-59718164D01*
X45978489Y-59718161D01*
X45823845Y-59687400D01*
X45823842Y-59687400D01*
X45666158Y-59687400D01*
X45666155Y-59687400D01*
X45511510Y-59718161D01*
X45511498Y-59718164D01*
X45365827Y-59778502D01*
X45365814Y-59778509D01*
X45234711Y-59866110D01*
X45234707Y-59866113D01*
X45123213Y-59977607D01*
X45123210Y-59977611D01*
X45035609Y-60108714D01*
X45035602Y-60108727D01*
X44975264Y-60254398D01*
X44975261Y-60254410D01*
X44944500Y-60409053D01*
X17980500Y-60409053D01*
X17980500Y-57889053D01*
X40639500Y-57889053D01*
X40639500Y-58046746D01*
X40670261Y-58201389D01*
X40670264Y-58201401D01*
X40730602Y-58347072D01*
X40730609Y-58347085D01*
X40818210Y-58478188D01*
X40818213Y-58478192D01*
X40855240Y-58515219D01*
X40888725Y-58576542D01*
X40883741Y-58646234D01*
X40855240Y-58690581D01*
X40818213Y-58727607D01*
X40818210Y-58727611D01*
X40730609Y-58858714D01*
X40730602Y-58858727D01*
X40670264Y-59004398D01*
X40670261Y-59004410D01*
X40639500Y-59159053D01*
X40639500Y-59316746D01*
X40670261Y-59471389D01*
X40670264Y-59471401D01*
X40730602Y-59617072D01*
X40730609Y-59617085D01*
X40818210Y-59748188D01*
X40818213Y-59748192D01*
X40929707Y-59859686D01*
X40929711Y-59859689D01*
X41060814Y-59947290D01*
X41060827Y-59947297D01*
X41134013Y-59977611D01*
X41206503Y-60007637D01*
X41361153Y-60038399D01*
X41361156Y-60038400D01*
X41361158Y-60038400D01*
X41518844Y-60038400D01*
X41518845Y-60038399D01*
X41673497Y-60007637D01*
X41819179Y-59947294D01*
X41950289Y-59859689D01*
X42061789Y-59748189D01*
X42149394Y-59617079D01*
X42209737Y-59471397D01*
X42240500Y-59316742D01*
X42240500Y-59159058D01*
X42240500Y-59159055D01*
X42240499Y-59159053D01*
X42227318Y-59092789D01*
X42209737Y-59004403D01*
X42163875Y-58893681D01*
X42149397Y-58858727D01*
X42149390Y-58858714D01*
X42061789Y-58727611D01*
X42061786Y-58727607D01*
X42024760Y-58690581D01*
X41991275Y-58629258D01*
X41996259Y-58559566D01*
X42024760Y-58515219D01*
X42061786Y-58478192D01*
X42061789Y-58478189D01*
X42149394Y-58347079D01*
X42167010Y-58304550D01*
X42167012Y-58304545D01*
X64866448Y-58304545D01*
X64866448Y-58462238D01*
X64897209Y-58616881D01*
X64897212Y-58616893D01*
X64957550Y-58762564D01*
X64957557Y-58762577D01*
X65045158Y-58893680D01*
X65045161Y-58893684D01*
X65156655Y-59005178D01*
X65156659Y-59005181D01*
X65287762Y-59092782D01*
X65287775Y-59092789D01*
X65433446Y-59153127D01*
X65433451Y-59153129D01*
X65588101Y-59183891D01*
X65588104Y-59183892D01*
X65588106Y-59183892D01*
X65745792Y-59183892D01*
X65745793Y-59183891D01*
X65900445Y-59153129D01*
X66046127Y-59092786D01*
X66177237Y-59005181D01*
X66288737Y-58893681D01*
X66376342Y-58762571D01*
X66436685Y-58616889D01*
X66467448Y-58462234D01*
X66467448Y-58304550D01*
X66467448Y-58304547D01*
X66467447Y-58304545D01*
X66436686Y-58149902D01*
X66436685Y-58149895D01*
X66393958Y-58046742D01*
X66376345Y-58004219D01*
X66376338Y-58004206D01*
X66288737Y-57873103D01*
X66288734Y-57873099D01*
X66177240Y-57761605D01*
X66177236Y-57761602D01*
X66046133Y-57674001D01*
X66046120Y-57673994D01*
X65900449Y-57613656D01*
X65900437Y-57613653D01*
X65745793Y-57582892D01*
X65745790Y-57582892D01*
X65588106Y-57582892D01*
X65588103Y-57582892D01*
X65433458Y-57613653D01*
X65433446Y-57613656D01*
X65287775Y-57673994D01*
X65287762Y-57674001D01*
X65156659Y-57761602D01*
X65156655Y-57761605D01*
X65045161Y-57873099D01*
X65045158Y-57873103D01*
X64957557Y-58004206D01*
X64957550Y-58004219D01*
X64897212Y-58149890D01*
X64897209Y-58149902D01*
X64866448Y-58304545D01*
X42167012Y-58304545D01*
X42189189Y-58251006D01*
X42209735Y-58201401D01*
X42209737Y-58201397D01*
X42240500Y-58046742D01*
X42240500Y-57889058D01*
X42240500Y-57889055D01*
X42240499Y-57889053D01*
X42237326Y-57873103D01*
X42209737Y-57734403D01*
X42184715Y-57673994D01*
X42149397Y-57588727D01*
X42149390Y-57588714D01*
X42061789Y-57457611D01*
X42061786Y-57457607D01*
X41950292Y-57346113D01*
X41950288Y-57346110D01*
X41819185Y-57258509D01*
X41819172Y-57258502D01*
X41673501Y-57198164D01*
X41673489Y-57198161D01*
X41518845Y-57167400D01*
X41518842Y-57167400D01*
X41361158Y-57167400D01*
X41361155Y-57167400D01*
X41206510Y-57198161D01*
X41206498Y-57198164D01*
X41060827Y-57258502D01*
X41060814Y-57258509D01*
X40929711Y-57346110D01*
X40929707Y-57346113D01*
X40818213Y-57457607D01*
X40818210Y-57457611D01*
X40730609Y-57588714D01*
X40730602Y-57588727D01*
X40670264Y-57734398D01*
X40670261Y-57734410D01*
X40639500Y-57889053D01*
X17980500Y-57889053D01*
X17980500Y-54491153D01*
X30539500Y-54491153D01*
X30539500Y-54648846D01*
X30570261Y-54803489D01*
X30570264Y-54803501D01*
X30630602Y-54949172D01*
X30630609Y-54949185D01*
X30718210Y-55080288D01*
X30718213Y-55080292D01*
X30829707Y-55191786D01*
X30829711Y-55191789D01*
X30960814Y-55279390D01*
X30960827Y-55279397D01*
X31069717Y-55324500D01*
X31106503Y-55339737D01*
X31261153Y-55370499D01*
X31261156Y-55370500D01*
X31261158Y-55370500D01*
X31418844Y-55370500D01*
X31418845Y-55370499D01*
X31516105Y-55351153D01*
X59619500Y-55351153D01*
X59619500Y-55508846D01*
X59650261Y-55663489D01*
X59650264Y-55663501D01*
X59710602Y-55809172D01*
X59710609Y-55809185D01*
X59798210Y-55940288D01*
X59798213Y-55940292D01*
X59909707Y-56051786D01*
X59909711Y-56051789D01*
X60040814Y-56139390D01*
X60040827Y-56139397D01*
X60180098Y-56197084D01*
X60186503Y-56199737D01*
X60341153Y-56230499D01*
X60341156Y-56230500D01*
X60341158Y-56230500D01*
X60498844Y-56230500D01*
X60498845Y-56230499D01*
X60653497Y-56199737D01*
X60799179Y-56139394D01*
X60930289Y-56051789D01*
X61041789Y-55940289D01*
X61078900Y-55884748D01*
X66264565Y-55884748D01*
X66264565Y-56042441D01*
X66295326Y-56197084D01*
X66295329Y-56197096D01*
X66355667Y-56342767D01*
X66355674Y-56342780D01*
X66443275Y-56473883D01*
X66443278Y-56473887D01*
X66554772Y-56585381D01*
X66554776Y-56585384D01*
X66685879Y-56672985D01*
X66685892Y-56672992D01*
X66831563Y-56733330D01*
X66831568Y-56733332D01*
X66986218Y-56764094D01*
X66986221Y-56764095D01*
X66986223Y-56764095D01*
X67143909Y-56764095D01*
X67143910Y-56764094D01*
X67298562Y-56733332D01*
X67400696Y-56691026D01*
X67470165Y-56683558D01*
X67532644Y-56714833D01*
X67535802Y-56717880D01*
X67551252Y-56733330D01*
X67564712Y-56746790D01*
X67695814Y-56834390D01*
X67695827Y-56834397D01*
X67841498Y-56894735D01*
X67841503Y-56894737D01*
X67996153Y-56925499D01*
X67996156Y-56925500D01*
X67996158Y-56925500D01*
X68153844Y-56925500D01*
X68153845Y-56925499D01*
X68308497Y-56894737D01*
X68454179Y-56834394D01*
X68585289Y-56746789D01*
X68696789Y-56635289D01*
X68784394Y-56504179D01*
X68839495Y-56371153D01*
X79209500Y-56371153D01*
X79209500Y-56528846D01*
X79240261Y-56683489D01*
X79240264Y-56683501D01*
X79300602Y-56829172D01*
X79300609Y-56829185D01*
X79388210Y-56960288D01*
X79388213Y-56960292D01*
X79499707Y-57071786D01*
X79499711Y-57071789D01*
X79630814Y-57159390D01*
X79630827Y-57159397D01*
X79776498Y-57219735D01*
X79776503Y-57219737D01*
X79931153Y-57250499D01*
X79931156Y-57250500D01*
X79931158Y-57250500D01*
X80088844Y-57250500D01*
X80088845Y-57250499D01*
X80243497Y-57219737D01*
X80389179Y-57159394D01*
X80520289Y-57071789D01*
X80631789Y-56960289D01*
X80719394Y-56829179D01*
X80779737Y-56683497D01*
X80810500Y-56528842D01*
X80810500Y-56371158D01*
X80810500Y-56371155D01*
X80810499Y-56371153D01*
X80804476Y-56340873D01*
X80779737Y-56216503D01*
X80772792Y-56199735D01*
X80719397Y-56070827D01*
X80719390Y-56070814D01*
X80631789Y-55939711D01*
X80631786Y-55939707D01*
X80520292Y-55828213D01*
X80520288Y-55828210D01*
X80389185Y-55740609D01*
X80389172Y-55740602D01*
X80243501Y-55680264D01*
X80243489Y-55680261D01*
X80088845Y-55649500D01*
X80088842Y-55649500D01*
X79931158Y-55649500D01*
X79931155Y-55649500D01*
X79776510Y-55680261D01*
X79776498Y-55680264D01*
X79630827Y-55740602D01*
X79630814Y-55740609D01*
X79499711Y-55828210D01*
X79499707Y-55828213D01*
X79388213Y-55939707D01*
X79388210Y-55939711D01*
X79300609Y-56070814D01*
X79300602Y-56070827D01*
X79240264Y-56216498D01*
X79240261Y-56216510D01*
X79209500Y-56371153D01*
X68839495Y-56371153D01*
X68844737Y-56358497D01*
X68847340Y-56345408D01*
X68848243Y-56340873D01*
X68848243Y-56340871D01*
X68870197Y-56230500D01*
X68875500Y-56203842D01*
X68875500Y-56046158D01*
X68875500Y-56046155D01*
X68875499Y-56046153D01*
X68844738Y-55891510D01*
X68844737Y-55891503D01*
X68818521Y-55828211D01*
X68784397Y-55745827D01*
X68784390Y-55745814D01*
X68696789Y-55614711D01*
X68696786Y-55614707D01*
X68585292Y-55503213D01*
X68585288Y-55503210D01*
X68454185Y-55415609D01*
X68454172Y-55415602D01*
X68308501Y-55355264D01*
X68308489Y-55355261D01*
X68153845Y-55324500D01*
X68153842Y-55324500D01*
X67996158Y-55324500D01*
X67996155Y-55324500D01*
X67841510Y-55355261D01*
X67841498Y-55355264D01*
X67739369Y-55397567D01*
X67669899Y-55405036D01*
X67607420Y-55373760D01*
X67604236Y-55370687D01*
X67575357Y-55341808D01*
X67575353Y-55341805D01*
X67444250Y-55254204D01*
X67444237Y-55254197D01*
X67298566Y-55193859D01*
X67298554Y-55193856D01*
X67143910Y-55163095D01*
X67143907Y-55163095D01*
X66986223Y-55163095D01*
X66986220Y-55163095D01*
X66831575Y-55193856D01*
X66831563Y-55193859D01*
X66685892Y-55254197D01*
X66685879Y-55254204D01*
X66554776Y-55341805D01*
X66554772Y-55341808D01*
X66443278Y-55453302D01*
X66443275Y-55453306D01*
X66355674Y-55584409D01*
X66355667Y-55584422D01*
X66295329Y-55730093D01*
X66295326Y-55730105D01*
X66264565Y-55884748D01*
X61078900Y-55884748D01*
X61079090Y-55884463D01*
X61129000Y-55809770D01*
X61129000Y-55809769D01*
X61129389Y-55809186D01*
X61129390Y-55809185D01*
X61129394Y-55809179D01*
X61189737Y-55663497D01*
X61220500Y-55508842D01*
X61220500Y-55351158D01*
X61220500Y-55351155D01*
X61220499Y-55351153D01*
X61202530Y-55260817D01*
X61189737Y-55196503D01*
X61163882Y-55134083D01*
X61129397Y-55050827D01*
X61129390Y-55050814D01*
X61041789Y-54919711D01*
X61041786Y-54919707D01*
X60930292Y-54808213D01*
X60930288Y-54808210D01*
X60799185Y-54720609D01*
X60799172Y-54720602D01*
X60653501Y-54660264D01*
X60653489Y-54660261D01*
X60498845Y-54629500D01*
X60498842Y-54629500D01*
X60341158Y-54629500D01*
X60341155Y-54629500D01*
X60186510Y-54660261D01*
X60186498Y-54660264D01*
X60040827Y-54720602D01*
X60040814Y-54720609D01*
X59909711Y-54808210D01*
X59909707Y-54808213D01*
X59798213Y-54919707D01*
X59798210Y-54919711D01*
X59710609Y-55050814D01*
X59710602Y-55050827D01*
X59650264Y-55196498D01*
X59650261Y-55196510D01*
X59619500Y-55351153D01*
X31516105Y-55351153D01*
X31573497Y-55339737D01*
X31719179Y-55279394D01*
X31719185Y-55279390D01*
X31775198Y-55241964D01*
X31814691Y-55215574D01*
X31850289Y-55191789D01*
X31961789Y-55080289D01*
X32049394Y-54949179D01*
X32109737Y-54803497D01*
X32140500Y-54648842D01*
X32140500Y-54491158D01*
X32140500Y-54491155D01*
X32140499Y-54491153D01*
X32109738Y-54336510D01*
X32109737Y-54336503D01*
X32049394Y-54190821D01*
X32049393Y-54190819D01*
X32049390Y-54190814D01*
X32022889Y-54151153D01*
X36907500Y-54151153D01*
X36907500Y-54308846D01*
X36938261Y-54463489D01*
X36938264Y-54463501D01*
X36998602Y-54609172D01*
X36998609Y-54609185D01*
X37086210Y-54740288D01*
X37086213Y-54740292D01*
X37197707Y-54851786D01*
X37197711Y-54851789D01*
X37328814Y-54939390D01*
X37328827Y-54939397D01*
X37474498Y-54999735D01*
X37474503Y-54999737D01*
X37629153Y-55030499D01*
X37629156Y-55030500D01*
X37629158Y-55030500D01*
X37786844Y-55030500D01*
X37786845Y-55030499D01*
X37941497Y-54999737D01*
X38087179Y-54939394D01*
X38218289Y-54851789D01*
X38329789Y-54740289D01*
X38417394Y-54609179D01*
X38477737Y-54463497D01*
X38508500Y-54308842D01*
X38508500Y-54151158D01*
X38508500Y-54151155D01*
X38508499Y-54151153D01*
X38477738Y-53996510D01*
X38477737Y-53996503D01*
X38457734Y-53948210D01*
X38417397Y-53850827D01*
X38417390Y-53850814D01*
X38329789Y-53719711D01*
X38329786Y-53719707D01*
X38218292Y-53608213D01*
X38218288Y-53608210D01*
X38087185Y-53520609D01*
X38087172Y-53520602D01*
X37941501Y-53460264D01*
X37941489Y-53460261D01*
X37786845Y-53429500D01*
X37786842Y-53429500D01*
X37629158Y-53429500D01*
X37629155Y-53429500D01*
X37474510Y-53460261D01*
X37474498Y-53460264D01*
X37328827Y-53520602D01*
X37328814Y-53520609D01*
X37197711Y-53608210D01*
X37197707Y-53608213D01*
X37086213Y-53719707D01*
X37086210Y-53719711D01*
X36998609Y-53850814D01*
X36998602Y-53850827D01*
X36938264Y-53996498D01*
X36938261Y-53996510D01*
X36907500Y-54151153D01*
X32022889Y-54151153D01*
X31961789Y-54059711D01*
X31961786Y-54059707D01*
X31850292Y-53948213D01*
X31850288Y-53948210D01*
X31719185Y-53860609D01*
X31719172Y-53860602D01*
X31573501Y-53800264D01*
X31573489Y-53800261D01*
X31418845Y-53769500D01*
X31418842Y-53769500D01*
X31261158Y-53769500D01*
X31261155Y-53769500D01*
X31106510Y-53800261D01*
X31106498Y-53800264D01*
X30960827Y-53860602D01*
X30960814Y-53860609D01*
X30829711Y-53948210D01*
X30829707Y-53948213D01*
X30718213Y-54059707D01*
X30718210Y-54059711D01*
X30630609Y-54190814D01*
X30630602Y-54190827D01*
X30570264Y-54336498D01*
X30570261Y-54336510D01*
X30539500Y-54491153D01*
X17980500Y-54491153D01*
X17980500Y-53011153D01*
X64974500Y-53011153D01*
X64974500Y-53168846D01*
X65005261Y-53323489D01*
X65005264Y-53323501D01*
X65065602Y-53469172D01*
X65065609Y-53469185D01*
X65153210Y-53600288D01*
X65153213Y-53600292D01*
X65264707Y-53711786D01*
X65264711Y-53711789D01*
X65395814Y-53799390D01*
X65395827Y-53799397D01*
X65519992Y-53850827D01*
X65541503Y-53859737D01*
X65696153Y-53890499D01*
X65696156Y-53890500D01*
X65696158Y-53890500D01*
X65853844Y-53890500D01*
X65853845Y-53890499D01*
X66008497Y-53859737D01*
X66154179Y-53799394D01*
X66285289Y-53711789D01*
X66396789Y-53600289D01*
X66484394Y-53469179D01*
X66544737Y-53323497D01*
X66575500Y-53168842D01*
X66575500Y-53011158D01*
X66575500Y-53011155D01*
X66575499Y-53011153D01*
X66564908Y-52957910D01*
X66544737Y-52856503D01*
X66525224Y-52809394D01*
X66484397Y-52710827D01*
X66484390Y-52710814D01*
X66396789Y-52579711D01*
X66396786Y-52579707D01*
X66285292Y-52468213D01*
X66285288Y-52468210D01*
X66154185Y-52380609D01*
X66154172Y-52380602D01*
X66008501Y-52320264D01*
X66008489Y-52320261D01*
X65853845Y-52289500D01*
X65853842Y-52289500D01*
X65696158Y-52289500D01*
X65696155Y-52289500D01*
X65541510Y-52320261D01*
X65541498Y-52320264D01*
X65395827Y-52380602D01*
X65395814Y-52380609D01*
X65264711Y-52468210D01*
X65264707Y-52468213D01*
X65153213Y-52579707D01*
X65153210Y-52579711D01*
X65065609Y-52710814D01*
X65065602Y-52710827D01*
X65005264Y-52856498D01*
X65005261Y-52856510D01*
X64974500Y-53011153D01*
X17980500Y-53011153D01*
X17980500Y-50891153D01*
X65574500Y-50891153D01*
X65574500Y-51048846D01*
X65605261Y-51203489D01*
X65605264Y-51203501D01*
X65665602Y-51349172D01*
X65665609Y-51349185D01*
X65753210Y-51480288D01*
X65753213Y-51480292D01*
X65864707Y-51591786D01*
X65864711Y-51591789D01*
X65995814Y-51679390D01*
X65995827Y-51679397D01*
X66128794Y-51734473D01*
X66141503Y-51739737D01*
X66293639Y-51769999D01*
X66296153Y-51770499D01*
X66296156Y-51770500D01*
X66296158Y-51770500D01*
X66453844Y-51770500D01*
X66453845Y-51770499D01*
X66608497Y-51739737D01*
X66754179Y-51679394D01*
X66827559Y-51630363D01*
X73239237Y-51630363D01*
X73239237Y-51788056D01*
X73269998Y-51942699D01*
X73270001Y-51942711D01*
X73330339Y-52088382D01*
X73330346Y-52088395D01*
X73417947Y-52219498D01*
X73417950Y-52219502D01*
X73529444Y-52330996D01*
X73529448Y-52330999D01*
X73660551Y-52418600D01*
X73660564Y-52418607D01*
X73784640Y-52470000D01*
X73806240Y-52478947D01*
X73909848Y-52499556D01*
X73960890Y-52509709D01*
X73960893Y-52509710D01*
X73960895Y-52509710D01*
X74118581Y-52509710D01*
X74118582Y-52509709D01*
X74273234Y-52478947D01*
X74401188Y-52425947D01*
X74418909Y-52418607D01*
X74418909Y-52418606D01*
X74418916Y-52418604D01*
X74550026Y-52330999D01*
X74661526Y-52219499D01*
X74749131Y-52088389D01*
X74776981Y-52021153D01*
X78709500Y-52021153D01*
X78709500Y-52178846D01*
X78740261Y-52333489D01*
X78740264Y-52333501D01*
X78800602Y-52479172D01*
X78800609Y-52479185D01*
X78888210Y-52610288D01*
X78888213Y-52610292D01*
X78999707Y-52721786D01*
X78999711Y-52721789D01*
X79130814Y-52809390D01*
X79130827Y-52809397D01*
X79244541Y-52856498D01*
X79276503Y-52869737D01*
X79397214Y-52893748D01*
X79431153Y-52900499D01*
X79431156Y-52900500D01*
X79431158Y-52900500D01*
X79588844Y-52900500D01*
X79588845Y-52900499D01*
X79743497Y-52869737D01*
X79889179Y-52809394D01*
X80020289Y-52721789D01*
X80131789Y-52610289D01*
X80219394Y-52479179D01*
X80223937Y-52468211D01*
X80256657Y-52389218D01*
X80268759Y-52360000D01*
X80279737Y-52333497D01*
X80310500Y-52178842D01*
X80310500Y-52021158D01*
X80300324Y-51970000D01*
X82079647Y-51970000D01*
X82883012Y-51970000D01*
X82865795Y-51979940D01*
X82809940Y-52035795D01*
X82770444Y-52104204D01*
X82750000Y-52180504D01*
X82750000Y-52259496D01*
X82770444Y-52335796D01*
X82809940Y-52404205D01*
X82865795Y-52460060D01*
X82883012Y-52470000D01*
X82079647Y-52470000D01*
X82089387Y-52518974D01*
X82089390Y-52518983D01*
X82166652Y-52705513D01*
X82166659Y-52705526D01*
X82278829Y-52873399D01*
X82278832Y-52873403D01*
X82421596Y-53016167D01*
X82421600Y-53016170D01*
X82589473Y-53128340D01*
X82589486Y-53128347D01*
X82776016Y-53205609D01*
X82776025Y-53205612D01*
X82974041Y-53244999D01*
X82974045Y-53245000D01*
X83350000Y-53245000D01*
X83350000Y-52520000D01*
X83850000Y-52520000D01*
X83850000Y-53245000D01*
X84225955Y-53245000D01*
X84225958Y-53244999D01*
X84423974Y-53205612D01*
X84423983Y-53205609D01*
X84610513Y-53128347D01*
X84610526Y-53128340D01*
X84778399Y-53016170D01*
X84778403Y-53016167D01*
X84921167Y-52873403D01*
X84921170Y-52873399D01*
X85033340Y-52705526D01*
X85033347Y-52705513D01*
X85110609Y-52518983D01*
X85110612Y-52518974D01*
X85120353Y-52470000D01*
X84316988Y-52470000D01*
X84334205Y-52460060D01*
X84390060Y-52404205D01*
X84429556Y-52335796D01*
X84450000Y-52259496D01*
X84450000Y-52180504D01*
X84429556Y-52104204D01*
X84390060Y-52035795D01*
X84334205Y-51979940D01*
X84316988Y-51970000D01*
X85120354Y-51970000D01*
X85120353Y-51969999D01*
X85110612Y-51921025D01*
X85110609Y-51921016D01*
X85033347Y-51734486D01*
X85033340Y-51734473D01*
X84921170Y-51566600D01*
X84921167Y-51566596D01*
X84778403Y-51423832D01*
X84778399Y-51423829D01*
X84605455Y-51308271D01*
X84606193Y-51307166D01*
X84561210Y-51262978D01*
X84545750Y-51194840D01*
X84562120Y-51140584D01*
X84636281Y-51012135D01*
X84675500Y-50865766D01*
X84675500Y-50714234D01*
X84636281Y-50567865D01*
X84560515Y-50436635D01*
X84453365Y-50329485D01*
X84387750Y-50291602D01*
X84322136Y-50253719D01*
X84231337Y-50229390D01*
X84175766Y-50214500D01*
X84024234Y-50214500D01*
X83877863Y-50253719D01*
X83746635Y-50329485D01*
X83746632Y-50329487D01*
X83639487Y-50436632D01*
X83639485Y-50436635D01*
X83563719Y-50567863D01*
X83524500Y-50714234D01*
X83524500Y-50865766D01*
X83560418Y-50999816D01*
X83563720Y-51012137D01*
X83566831Y-51019649D01*
X83564706Y-51020528D01*
X83578380Y-51076910D01*
X83555523Y-51142935D01*
X83500598Y-51186121D01*
X83454521Y-51195000D01*
X82974041Y-51195000D01*
X82776025Y-51234387D01*
X82776016Y-51234390D01*
X82589486Y-51311652D01*
X82589473Y-51311659D01*
X82421600Y-51423829D01*
X82421596Y-51423832D01*
X82278832Y-51566596D01*
X82278829Y-51566600D01*
X82166659Y-51734473D01*
X82166652Y-51734486D01*
X82089390Y-51921016D01*
X82089387Y-51921025D01*
X82079647Y-51970000D01*
X80300324Y-51970000D01*
X80279737Y-51866503D01*
X80279735Y-51866498D01*
X80219397Y-51720827D01*
X80219390Y-51720814D01*
X80131789Y-51589711D01*
X80131786Y-51589707D01*
X80020292Y-51478213D01*
X80020288Y-51478210D01*
X79889185Y-51390609D01*
X79889172Y-51390602D01*
X79743501Y-51330264D01*
X79743489Y-51330261D01*
X79588845Y-51299500D01*
X79588842Y-51299500D01*
X79431158Y-51299500D01*
X79431155Y-51299500D01*
X79276510Y-51330261D01*
X79276498Y-51330264D01*
X79130827Y-51390602D01*
X79130814Y-51390609D01*
X78999711Y-51478210D01*
X78999707Y-51478213D01*
X78888213Y-51589707D01*
X78888210Y-51589711D01*
X78800609Y-51720814D01*
X78800602Y-51720827D01*
X78740264Y-51866498D01*
X78740261Y-51866510D01*
X78709500Y-52021153D01*
X74776981Y-52021153D01*
X74798169Y-51970000D01*
X74799158Y-51967613D01*
X74801684Y-51961513D01*
X74809474Y-51942707D01*
X74840237Y-51788052D01*
X74840237Y-51630368D01*
X74840237Y-51630365D01*
X74840236Y-51630363D01*
X74832563Y-51591789D01*
X74809474Y-51475713D01*
X74809472Y-51475708D01*
X74749134Y-51330037D01*
X74749127Y-51330024D01*
X74661526Y-51198921D01*
X74661523Y-51198917D01*
X74550029Y-51087423D01*
X74550025Y-51087420D01*
X74418922Y-50999819D01*
X74418909Y-50999812D01*
X74273238Y-50939474D01*
X74273226Y-50939471D01*
X74118582Y-50908710D01*
X74118579Y-50908710D01*
X73960895Y-50908710D01*
X73960892Y-50908710D01*
X73806247Y-50939471D01*
X73806235Y-50939474D01*
X73660564Y-50999812D01*
X73660551Y-50999819D01*
X73529448Y-51087420D01*
X73529444Y-51087423D01*
X73417950Y-51198917D01*
X73417947Y-51198921D01*
X73330346Y-51330024D01*
X73330339Y-51330037D01*
X73270001Y-51475708D01*
X73269998Y-51475720D01*
X73239237Y-51630363D01*
X66827559Y-51630363D01*
X66885289Y-51591789D01*
X66910482Y-51566596D01*
X66940484Y-51536595D01*
X66996786Y-51480292D01*
X66996789Y-51480289D01*
X67084394Y-51349179D01*
X67144737Y-51203497D01*
X67175500Y-51048842D01*
X67175500Y-50891158D01*
X67175500Y-50891155D01*
X67175499Y-50891153D01*
X67170449Y-50865764D01*
X67144737Y-50736503D01*
X67135513Y-50714234D01*
X67084397Y-50590827D01*
X67084390Y-50590814D01*
X66996789Y-50459711D01*
X66996786Y-50459707D01*
X66885292Y-50348213D01*
X66885288Y-50348210D01*
X66754185Y-50260609D01*
X66754172Y-50260602D01*
X66608501Y-50200264D01*
X66608489Y-50200261D01*
X66453845Y-50169500D01*
X66453842Y-50169500D01*
X66296158Y-50169500D01*
X66296155Y-50169500D01*
X66141510Y-50200261D01*
X66141498Y-50200264D01*
X65995827Y-50260602D01*
X65995814Y-50260609D01*
X65864711Y-50348210D01*
X65864707Y-50348213D01*
X65753213Y-50459707D01*
X65753210Y-50459711D01*
X65665609Y-50590814D01*
X65665602Y-50590827D01*
X65605264Y-50736498D01*
X65605261Y-50736510D01*
X65574500Y-50891153D01*
X17980500Y-50891153D01*
X17980500Y-48999053D01*
X58139500Y-48999053D01*
X58139500Y-49156746D01*
X58170261Y-49311389D01*
X58170264Y-49311401D01*
X58230602Y-49457072D01*
X58230609Y-49457085D01*
X58318210Y-49588188D01*
X58318213Y-49588192D01*
X58429707Y-49699686D01*
X58429711Y-49699689D01*
X58560814Y-49787290D01*
X58560827Y-49787297D01*
X58706498Y-49847635D01*
X58706503Y-49847637D01*
X58846167Y-49875418D01*
X58861153Y-49878399D01*
X58861156Y-49878400D01*
X58861158Y-49878400D01*
X59018844Y-49878400D01*
X59018845Y-49878399D01*
X59173497Y-49847637D01*
X59319179Y-49787294D01*
X59450289Y-49699689D01*
X59561789Y-49588189D01*
X59649394Y-49457079D01*
X59709737Y-49311397D01*
X59740500Y-49156742D01*
X59740500Y-48999058D01*
X59740500Y-48999055D01*
X59740499Y-48999053D01*
X59727013Y-48931255D01*
X59709737Y-48844403D01*
X59674218Y-48758653D01*
X71057000Y-48758653D01*
X71057000Y-48916346D01*
X71087761Y-49070989D01*
X71087764Y-49071001D01*
X71148102Y-49216672D01*
X71148109Y-49216685D01*
X71235710Y-49347788D01*
X71235713Y-49347792D01*
X71347207Y-49459286D01*
X71347211Y-49459289D01*
X71478314Y-49546890D01*
X71478327Y-49546897D01*
X71603740Y-49598844D01*
X71624003Y-49607237D01*
X71774314Y-49637136D01*
X71778653Y-49637999D01*
X71778656Y-49638000D01*
X71778658Y-49638000D01*
X71936342Y-49638000D01*
X71940685Y-49637136D01*
X72010277Y-49643362D01*
X72065455Y-49686224D01*
X72086496Y-49734561D01*
X72090261Y-49753491D01*
X72090264Y-49753501D01*
X72150602Y-49899172D01*
X72150609Y-49899185D01*
X72238210Y-50030288D01*
X72238213Y-50030292D01*
X72349707Y-50141786D01*
X72349711Y-50141789D01*
X72480814Y-50229390D01*
X72480827Y-50229397D01*
X72605844Y-50281180D01*
X72626503Y-50289737D01*
X72781153Y-50320499D01*
X72781156Y-50320500D01*
X72781158Y-50320500D01*
X72938844Y-50320500D01*
X72938845Y-50320499D01*
X73093497Y-50289737D01*
X73239179Y-50229394D01*
X73370289Y-50141789D01*
X73481789Y-50030289D01*
X73569394Y-49899179D01*
X73629737Y-49753497D01*
X73660500Y-49598842D01*
X73660500Y-49441158D01*
X73660500Y-49441155D01*
X73660499Y-49441153D01*
X73641928Y-49347792D01*
X73629737Y-49286503D01*
X73600815Y-49216679D01*
X73569397Y-49140827D01*
X73569390Y-49140814D01*
X73481789Y-49009711D01*
X73481786Y-49009707D01*
X73370292Y-48898213D01*
X73370288Y-48898210D01*
X73239185Y-48810609D01*
X73239172Y-48810602D01*
X73093501Y-48750264D01*
X73093489Y-48750261D01*
X72938845Y-48719500D01*
X72938842Y-48719500D01*
X72781158Y-48719500D01*
X72781151Y-48719500D01*
X72776798Y-48720366D01*
X72707207Y-48714131D01*
X72652034Y-48671262D01*
X72631003Y-48622938D01*
X72627237Y-48604003D01*
X72599898Y-48538000D01*
X72566897Y-48458327D01*
X72566890Y-48458314D01*
X72479289Y-48327211D01*
X72479286Y-48327207D01*
X72367792Y-48215713D01*
X72367788Y-48215710D01*
X72236685Y-48128109D01*
X72236672Y-48128102D01*
X72091001Y-48067764D01*
X72090989Y-48067761D01*
X71936345Y-48037000D01*
X71936342Y-48037000D01*
X71778658Y-48037000D01*
X71778655Y-48037000D01*
X71624010Y-48067761D01*
X71623998Y-48067764D01*
X71478327Y-48128102D01*
X71478314Y-48128109D01*
X71347211Y-48215710D01*
X71347207Y-48215713D01*
X71235713Y-48327207D01*
X71235710Y-48327211D01*
X71148109Y-48458314D01*
X71148102Y-48458327D01*
X71087764Y-48603998D01*
X71087761Y-48604010D01*
X71057000Y-48758653D01*
X59674218Y-48758653D01*
X59655777Y-48714131D01*
X59649395Y-48698723D01*
X59649390Y-48698714D01*
X59561789Y-48567611D01*
X59561786Y-48567607D01*
X59450292Y-48456113D01*
X59450288Y-48456110D01*
X59319185Y-48368509D01*
X59319172Y-48368502D01*
X59173501Y-48308164D01*
X59173489Y-48308161D01*
X59018845Y-48277400D01*
X59018842Y-48277400D01*
X58861158Y-48277400D01*
X58861155Y-48277400D01*
X58706510Y-48308161D01*
X58706498Y-48308164D01*
X58560827Y-48368502D01*
X58560814Y-48368509D01*
X58429711Y-48456110D01*
X58429707Y-48456113D01*
X58318213Y-48567607D01*
X58318210Y-48567611D01*
X58230609Y-48698714D01*
X58230602Y-48698727D01*
X58170264Y-48844398D01*
X58170261Y-48844410D01*
X58139500Y-48999053D01*
X17980500Y-48999053D01*
X17980500Y-47658653D01*
X72839500Y-47658653D01*
X72839500Y-47816346D01*
X72870261Y-47970989D01*
X72870264Y-47971001D01*
X72930602Y-48116672D01*
X72930609Y-48116685D01*
X73018210Y-48247788D01*
X73018213Y-48247792D01*
X73129707Y-48359286D01*
X73129711Y-48359289D01*
X73260814Y-48446890D01*
X73260827Y-48446897D01*
X73406498Y-48507235D01*
X73406503Y-48507237D01*
X73540089Y-48533809D01*
X73561153Y-48537999D01*
X73561156Y-48538000D01*
X73561158Y-48538000D01*
X73582705Y-48538000D01*
X73649744Y-48557685D01*
X73695499Y-48610489D01*
X73697266Y-48614547D01*
X73740604Y-48719176D01*
X73740609Y-48719185D01*
X73828210Y-48850288D01*
X73828213Y-48850292D01*
X73939707Y-48961786D01*
X73939711Y-48961789D01*
X74070814Y-49049390D01*
X74070827Y-49049397D01*
X74181704Y-49095323D01*
X74216503Y-49109737D01*
X74371153Y-49140499D01*
X74371156Y-49140500D01*
X74371158Y-49140500D01*
X74528844Y-49140500D01*
X74528845Y-49140499D01*
X74683497Y-49109737D01*
X74829179Y-49049394D01*
X74960289Y-48961789D01*
X74962312Y-48959766D01*
X74963634Y-48959043D01*
X74964999Y-48957924D01*
X74965211Y-48958182D01*
X75023632Y-48926276D01*
X75093324Y-48931255D01*
X75134939Y-48957999D01*
X75135001Y-48957924D01*
X75135648Y-48958454D01*
X75137688Y-48959766D01*
X75139711Y-48961789D01*
X75270814Y-49049390D01*
X75270827Y-49049397D01*
X75381704Y-49095323D01*
X75436108Y-49139163D01*
X75458173Y-49205457D01*
X75440894Y-49273157D01*
X75403145Y-49312985D01*
X75373974Y-49332476D01*
X75262478Y-49443972D01*
X75262475Y-49443976D01*
X75174874Y-49575079D01*
X75174867Y-49575092D01*
X75114529Y-49720763D01*
X75114526Y-49720775D01*
X75083765Y-49875418D01*
X75083765Y-50033111D01*
X75114526Y-50187754D01*
X75114529Y-50187766D01*
X75174867Y-50333437D01*
X75174874Y-50333450D01*
X75262475Y-50464553D01*
X75262478Y-50464557D01*
X75373972Y-50576051D01*
X75373976Y-50576054D01*
X75505079Y-50663655D01*
X75505092Y-50663662D01*
X75650763Y-50724000D01*
X75650768Y-50724002D01*
X75772213Y-50748159D01*
X75805418Y-50754764D01*
X75805421Y-50754765D01*
X75805423Y-50754765D01*
X75963109Y-50754765D01*
X75963110Y-50754764D01*
X76117762Y-50724002D01*
X76263444Y-50663659D01*
X76394554Y-50576054D01*
X76506054Y-50464554D01*
X76525251Y-50435823D01*
X80891359Y-50435823D01*
X80891359Y-50593516D01*
X80922120Y-50748159D01*
X80922123Y-50748171D01*
X80982461Y-50893842D01*
X80982468Y-50893855D01*
X81070069Y-51024958D01*
X81070072Y-51024962D01*
X81181566Y-51136456D01*
X81181570Y-51136459D01*
X81312673Y-51224060D01*
X81312686Y-51224067D01*
X81406627Y-51262978D01*
X81458362Y-51284407D01*
X81578334Y-51308271D01*
X81613012Y-51315169D01*
X81613015Y-51315170D01*
X81613017Y-51315170D01*
X81770703Y-51315170D01*
X81770704Y-51315169D01*
X81925356Y-51284407D01*
X82071038Y-51224064D01*
X82202148Y-51136459D01*
X82313648Y-51024959D01*
X82401253Y-50893849D01*
X82461596Y-50748167D01*
X82492359Y-50593512D01*
X82492359Y-50435828D01*
X82492359Y-50435825D01*
X82492358Y-50435823D01*
X82474931Y-50348211D01*
X82461596Y-50281173D01*
X82440147Y-50229390D01*
X82401256Y-50135497D01*
X82401249Y-50135484D01*
X82313648Y-50004381D01*
X82313645Y-50004377D01*
X82202151Y-49892883D01*
X82202147Y-49892880D01*
X82071044Y-49805279D01*
X82071031Y-49805272D01*
X81925360Y-49744934D01*
X81925348Y-49744931D01*
X81770704Y-49714170D01*
X81770701Y-49714170D01*
X81613017Y-49714170D01*
X81613014Y-49714170D01*
X81458369Y-49744931D01*
X81458357Y-49744934D01*
X81312686Y-49805272D01*
X81312673Y-49805279D01*
X81181570Y-49892880D01*
X81181566Y-49892883D01*
X81070072Y-50004377D01*
X81070069Y-50004381D01*
X80982468Y-50135484D01*
X80982461Y-50135497D01*
X80922123Y-50281168D01*
X80922120Y-50281180D01*
X80891359Y-50435823D01*
X76525251Y-50435823D01*
X76537949Y-50416818D01*
X76575351Y-50360845D01*
X76593655Y-50333450D01*
X76593655Y-50333449D01*
X76593659Y-50333444D01*
X76654002Y-50187762D01*
X76684765Y-50033107D01*
X76684765Y-49875423D01*
X76684765Y-49875420D01*
X76684764Y-49875418D01*
X76670811Y-49805272D01*
X76654002Y-49720768D01*
X76619719Y-49638000D01*
X76593662Y-49575092D01*
X76593655Y-49575079D01*
X76506054Y-49443976D01*
X76506051Y-49443972D01*
X76394557Y-49332478D01*
X76394553Y-49332475D01*
X76263450Y-49244874D01*
X76263441Y-49244869D01*
X76152559Y-49198941D01*
X76098156Y-49155100D01*
X76076091Y-49088806D01*
X76093370Y-49021107D01*
X76131123Y-48981277D01*
X76160289Y-48961789D01*
X76271789Y-48850289D01*
X76359394Y-48719179D01*
X76419737Y-48573497D01*
X76450500Y-48418842D01*
X76450500Y-48281153D01*
X78369500Y-48281153D01*
X78369500Y-48438846D01*
X78400261Y-48593489D01*
X78400264Y-48593501D01*
X78460602Y-48739172D01*
X78460609Y-48739185D01*
X78548210Y-48870288D01*
X78548213Y-48870292D01*
X78659707Y-48981786D01*
X78659711Y-48981789D01*
X78790814Y-49069390D01*
X78790827Y-49069397D01*
X78936498Y-49129735D01*
X78936503Y-49129737D01*
X79091153Y-49160499D01*
X79091156Y-49160500D01*
X79091158Y-49160500D01*
X79248844Y-49160500D01*
X79248845Y-49160499D01*
X79403497Y-49129737D01*
X79516166Y-49083067D01*
X79549172Y-49069397D01*
X79549172Y-49069396D01*
X79549179Y-49069394D01*
X79680289Y-48981789D01*
X79791789Y-48870289D01*
X79879394Y-48739179D01*
X79939737Y-48593497D01*
X79970500Y-48438842D01*
X79970500Y-48377238D01*
X79990185Y-48310199D01*
X80042989Y-48264444D01*
X80112147Y-48254500D01*
X80163391Y-48274136D01*
X80257003Y-48336686D01*
X80257016Y-48336693D01*
X80401864Y-48396690D01*
X80402692Y-48397033D01*
X80512333Y-48418842D01*
X80557342Y-48427795D01*
X80557345Y-48427796D01*
X80557347Y-48427796D01*
X80715033Y-48427796D01*
X80715034Y-48427795D01*
X80869686Y-48397033D01*
X80869698Y-48397027D01*
X80875513Y-48395265D01*
X80875945Y-48396690D01*
X80938071Y-48390002D01*
X81000555Y-48421268D01*
X81030633Y-48464583D01*
X81059301Y-48533796D01*
X81059308Y-48533809D01*
X81146909Y-48664912D01*
X81146912Y-48664916D01*
X81258406Y-48776410D01*
X81258410Y-48776413D01*
X81389513Y-48864014D01*
X81389526Y-48864021D01*
X81515842Y-48916342D01*
X81535202Y-48924361D01*
X81689852Y-48955123D01*
X81689855Y-48955124D01*
X81689857Y-48955124D01*
X81847543Y-48955124D01*
X81847544Y-48955123D01*
X82002196Y-48924361D01*
X82147878Y-48864018D01*
X82278988Y-48776413D01*
X82390488Y-48664913D01*
X82478093Y-48533803D01*
X82489097Y-48507238D01*
X82514090Y-48446897D01*
X82538436Y-48388121D01*
X82569199Y-48233466D01*
X82569199Y-48075782D01*
X82569199Y-48075779D01*
X82569198Y-48075777D01*
X82567604Y-48067763D01*
X82538436Y-47921127D01*
X82495033Y-47816342D01*
X82478096Y-47775451D01*
X82478089Y-47775438D01*
X82390488Y-47644335D01*
X82390485Y-47644331D01*
X82331797Y-47585643D01*
X82298312Y-47524320D01*
X82303296Y-47454628D01*
X82331796Y-47410281D01*
X82361789Y-47380289D01*
X82449394Y-47249179D01*
X82449832Y-47248123D01*
X82504141Y-47117007D01*
X82509737Y-47103497D01*
X82540500Y-46948842D01*
X82540500Y-46791158D01*
X82540500Y-46791155D01*
X82540499Y-46791153D01*
X82509738Y-46636510D01*
X82509738Y-46636508D01*
X82509737Y-46636503D01*
X82466195Y-46531384D01*
X82458727Y-46461918D01*
X82466194Y-46436487D01*
X82521247Y-46303577D01*
X82552010Y-46148922D01*
X82552010Y-45991238D01*
X82552010Y-45991235D01*
X82552009Y-45991233D01*
X82545744Y-45959735D01*
X82521247Y-45836583D01*
X82475944Y-45727211D01*
X82460907Y-45690907D01*
X82460900Y-45690894D01*
X82373299Y-45559791D01*
X82373296Y-45559787D01*
X82261802Y-45448293D01*
X82261798Y-45448290D01*
X82130695Y-45360689D01*
X82130682Y-45360682D01*
X81985011Y-45300344D01*
X81984999Y-45300341D01*
X81830355Y-45269580D01*
X81830352Y-45269580D01*
X81672668Y-45269580D01*
X81672665Y-45269580D01*
X81518020Y-45300341D01*
X81518008Y-45300344D01*
X81372337Y-45360682D01*
X81372324Y-45360689D01*
X81241221Y-45448290D01*
X81241217Y-45448293D01*
X81129723Y-45559787D01*
X81129720Y-45559791D01*
X81042119Y-45690894D01*
X81042112Y-45690907D01*
X80981774Y-45836578D01*
X80981771Y-45836590D01*
X80951010Y-45991233D01*
X80951010Y-46148926D01*
X80981771Y-46303569D01*
X80981774Y-46303581D01*
X81025313Y-46408694D01*
X81032782Y-46478163D01*
X81025313Y-46503598D01*
X80970264Y-46636498D01*
X80970261Y-46636508D01*
X80948328Y-46746773D01*
X80915943Y-46808684D01*
X80855227Y-46843258D01*
X80802520Y-46844198D01*
X80715034Y-46826796D01*
X80715031Y-46826796D01*
X80557347Y-46826796D01*
X80557344Y-46826796D01*
X80402699Y-46857557D01*
X80402687Y-46857560D01*
X80257016Y-46917898D01*
X80257003Y-46917905D01*
X80125900Y-47005506D01*
X80125896Y-47005509D01*
X80014402Y-47117003D01*
X80014399Y-47117007D01*
X79926798Y-47248110D01*
X79926791Y-47248123D01*
X79866453Y-47393794D01*
X79866450Y-47393806D01*
X79835689Y-47548449D01*
X79835689Y-47610057D01*
X79816004Y-47677096D01*
X79763200Y-47722851D01*
X79694042Y-47732795D01*
X79642799Y-47713159D01*
X79549190Y-47650612D01*
X79549172Y-47650602D01*
X79403501Y-47590264D01*
X79403489Y-47590261D01*
X79248845Y-47559500D01*
X79248842Y-47559500D01*
X79091158Y-47559500D01*
X79091155Y-47559500D01*
X78936510Y-47590261D01*
X78936498Y-47590264D01*
X78790827Y-47650602D01*
X78790814Y-47650609D01*
X78659711Y-47738210D01*
X78659707Y-47738213D01*
X78548213Y-47849707D01*
X78548210Y-47849711D01*
X78460609Y-47980814D01*
X78460602Y-47980827D01*
X78400264Y-48126498D01*
X78400261Y-48126510D01*
X78369500Y-48281153D01*
X76450500Y-48281153D01*
X76450500Y-48261158D01*
X76450500Y-48261155D01*
X76450499Y-48261153D01*
X76449176Y-48254500D01*
X76419737Y-48106503D01*
X76403691Y-48067764D01*
X76359397Y-47960827D01*
X76359390Y-47960814D01*
X76271789Y-47829711D01*
X76271786Y-47829707D01*
X76160292Y-47718213D01*
X76160288Y-47718210D01*
X76029185Y-47630609D01*
X76029172Y-47630602D01*
X75883501Y-47570264D01*
X75883489Y-47570261D01*
X75728845Y-47539500D01*
X75728842Y-47539500D01*
X75571158Y-47539500D01*
X75571155Y-47539500D01*
X75416510Y-47570261D01*
X75416498Y-47570264D01*
X75270827Y-47630602D01*
X75270814Y-47630609D01*
X75139711Y-47718210D01*
X75139707Y-47718213D01*
X75137681Y-47720240D01*
X75136357Y-47720962D01*
X75135001Y-47722076D01*
X75134789Y-47721818D01*
X75076358Y-47753725D01*
X75006666Y-47748741D01*
X74965060Y-47722001D01*
X74964999Y-47722076D01*
X74964360Y-47721552D01*
X74962319Y-47720240D01*
X74960292Y-47718213D01*
X74960288Y-47718210D01*
X74829185Y-47630609D01*
X74829172Y-47630602D01*
X74683501Y-47570264D01*
X74683489Y-47570261D01*
X74528845Y-47539500D01*
X74528842Y-47539500D01*
X74507295Y-47539500D01*
X74440256Y-47519815D01*
X74394501Y-47467011D01*
X74392734Y-47462953D01*
X74349395Y-47358323D01*
X74349390Y-47358314D01*
X74261789Y-47227211D01*
X74261786Y-47227207D01*
X74150292Y-47115713D01*
X74150288Y-47115710D01*
X74019185Y-47028109D01*
X74019172Y-47028102D01*
X73873501Y-46967764D01*
X73873489Y-46967761D01*
X73718845Y-46937000D01*
X73718842Y-46937000D01*
X73561158Y-46937000D01*
X73561155Y-46937000D01*
X73406510Y-46967761D01*
X73406498Y-46967764D01*
X73260827Y-47028102D01*
X73260814Y-47028109D01*
X73129711Y-47115710D01*
X73129707Y-47115713D01*
X73018213Y-47227207D01*
X73018210Y-47227211D01*
X72930609Y-47358314D01*
X72930602Y-47358327D01*
X72870264Y-47503998D01*
X72870261Y-47504010D01*
X72839500Y-47658653D01*
X17980500Y-47658653D01*
X17980500Y-46158653D01*
X66174500Y-46158653D01*
X66174500Y-46316346D01*
X66205261Y-46470989D01*
X66205264Y-46471001D01*
X66265602Y-46616672D01*
X66265609Y-46616685D01*
X66353210Y-46747788D01*
X66353213Y-46747792D01*
X66464707Y-46859286D01*
X66464711Y-46859289D01*
X66595814Y-46946890D01*
X66595827Y-46946897D01*
X66737324Y-47005506D01*
X66741503Y-47007237D01*
X66896153Y-47037999D01*
X66896156Y-47038000D01*
X66896158Y-47038000D01*
X67053844Y-47038000D01*
X67053845Y-47037999D01*
X67208497Y-47007237D01*
X67321166Y-46960567D01*
X67354172Y-46946897D01*
X67354172Y-46946896D01*
X67354179Y-46946894D01*
X67485289Y-46859289D01*
X67596789Y-46747789D01*
X67684394Y-46616679D01*
X67744737Y-46470997D01*
X67775500Y-46316342D01*
X67775500Y-46158658D01*
X67775500Y-46158655D01*
X67775499Y-46158653D01*
X67744738Y-46004010D01*
X67744737Y-46004003D01*
X67701407Y-45899394D01*
X67684397Y-45858327D01*
X67684390Y-45858314D01*
X67596789Y-45727211D01*
X67596786Y-45727207D01*
X67485292Y-45615713D01*
X67485288Y-45615710D01*
X67354185Y-45528109D01*
X67354172Y-45528102D01*
X67208501Y-45467764D01*
X67208489Y-45467761D01*
X67053845Y-45437000D01*
X67053842Y-45437000D01*
X66896158Y-45437000D01*
X66896155Y-45437000D01*
X66741510Y-45467761D01*
X66741498Y-45467764D01*
X66595827Y-45528102D01*
X66595814Y-45528109D01*
X66464711Y-45615710D01*
X66464707Y-45615713D01*
X66353213Y-45727207D01*
X66353210Y-45727211D01*
X66265609Y-45858314D01*
X66265602Y-45858327D01*
X66205264Y-46003998D01*
X66205261Y-46004010D01*
X66174500Y-46158653D01*
X17980500Y-46158653D01*
X17980500Y-43911153D01*
X38509500Y-43911153D01*
X38509500Y-44068846D01*
X38540261Y-44223489D01*
X38540264Y-44223501D01*
X38600602Y-44369172D01*
X38600609Y-44369185D01*
X38688210Y-44500288D01*
X38688213Y-44500292D01*
X38748064Y-44560143D01*
X38781549Y-44621466D01*
X38776565Y-44691158D01*
X38763485Y-44716715D01*
X38700609Y-44810814D01*
X38700602Y-44810827D01*
X38640264Y-44956498D01*
X38640261Y-44956510D01*
X38609500Y-45111153D01*
X38609500Y-45268846D01*
X38640261Y-45423489D01*
X38640264Y-45423501D01*
X38700602Y-45569172D01*
X38700609Y-45569185D01*
X38788210Y-45700288D01*
X38788213Y-45700292D01*
X38899707Y-45811786D01*
X38899711Y-45811789D01*
X39030814Y-45899390D01*
X39030827Y-45899397D01*
X39176498Y-45959735D01*
X39176503Y-45959737D01*
X39331153Y-45990499D01*
X39331156Y-45990500D01*
X39331158Y-45990500D01*
X39488844Y-45990500D01*
X39488845Y-45990499D01*
X39643497Y-45959737D01*
X39789179Y-45899394D01*
X39920289Y-45811789D01*
X40031789Y-45700289D01*
X40119394Y-45569179D01*
X40179737Y-45423497D01*
X40210500Y-45268842D01*
X40210500Y-45189053D01*
X58139500Y-45189053D01*
X58139500Y-45346746D01*
X58170261Y-45501389D01*
X58170264Y-45501401D01*
X58230602Y-45647072D01*
X58230609Y-45647085D01*
X58318210Y-45778188D01*
X58318213Y-45778192D01*
X58429707Y-45889686D01*
X58429711Y-45889689D01*
X58560814Y-45977290D01*
X58560827Y-45977297D01*
X58706498Y-46037635D01*
X58706503Y-46037637D01*
X58861153Y-46068399D01*
X58861156Y-46068400D01*
X58861158Y-46068400D01*
X59018844Y-46068400D01*
X59018845Y-46068399D01*
X59173497Y-46037637D01*
X59319179Y-45977294D01*
X59450289Y-45889689D01*
X59561789Y-45778189D01*
X59649394Y-45647079D01*
X59709737Y-45501397D01*
X59740500Y-45346742D01*
X59740500Y-45189058D01*
X59740500Y-45189055D01*
X59740499Y-45189053D01*
X59709737Y-45034403D01*
X59667304Y-44931960D01*
X59649397Y-44888727D01*
X59649390Y-44888714D01*
X59561789Y-44757611D01*
X59561786Y-44757607D01*
X59450292Y-44646113D01*
X59450288Y-44646110D01*
X59319185Y-44558509D01*
X59319172Y-44558502D01*
X59173501Y-44498164D01*
X59173489Y-44498161D01*
X59018845Y-44467400D01*
X59018842Y-44467400D01*
X58861158Y-44467400D01*
X58861155Y-44467400D01*
X58706510Y-44498161D01*
X58706498Y-44498164D01*
X58560827Y-44558502D01*
X58560814Y-44558509D01*
X58429711Y-44646110D01*
X58429707Y-44646113D01*
X58318213Y-44757607D01*
X58318210Y-44757611D01*
X58230609Y-44888714D01*
X58230602Y-44888727D01*
X58170264Y-45034398D01*
X58170261Y-45034410D01*
X58139500Y-45189053D01*
X40210500Y-45189053D01*
X40210500Y-45111158D01*
X40210500Y-45111155D01*
X40210499Y-45111153D01*
X40179737Y-44956503D01*
X40171876Y-44937525D01*
X40119397Y-44810827D01*
X40119390Y-44810814D01*
X40031789Y-44679711D01*
X40031786Y-44679707D01*
X39971935Y-44619856D01*
X39938450Y-44558533D01*
X39943434Y-44488841D01*
X39956512Y-44463287D01*
X40019394Y-44369179D01*
X40079737Y-44223497D01*
X40110500Y-44068842D01*
X40110500Y-43911158D01*
X40110500Y-43911155D01*
X40092539Y-43820862D01*
X40092539Y-43820861D01*
X40079738Y-43756510D01*
X40079737Y-43756503D01*
X40054592Y-43695796D01*
X40019397Y-43610827D01*
X40019390Y-43610814D01*
X39931789Y-43479711D01*
X39931786Y-43479707D01*
X39820292Y-43368213D01*
X39820288Y-43368210D01*
X39763103Y-43330000D01*
X82079647Y-43330000D01*
X82883012Y-43330000D01*
X82865795Y-43339940D01*
X82809940Y-43395795D01*
X82770444Y-43464204D01*
X82750000Y-43540504D01*
X82750000Y-43619496D01*
X82770444Y-43695796D01*
X82809940Y-43764205D01*
X82865795Y-43820060D01*
X82883012Y-43830000D01*
X82079647Y-43830000D01*
X82089387Y-43878974D01*
X82089390Y-43878983D01*
X82166652Y-44065513D01*
X82166659Y-44065526D01*
X82278829Y-44233399D01*
X82278832Y-44233403D01*
X82421596Y-44376167D01*
X82421600Y-44376170D01*
X82589473Y-44488340D01*
X82589486Y-44488347D01*
X82776016Y-44565609D01*
X82776025Y-44565612D01*
X82974041Y-44604999D01*
X82974045Y-44605000D01*
X83350000Y-44605000D01*
X83350000Y-43880000D01*
X83850000Y-43880000D01*
X83850000Y-44447084D01*
X83830315Y-44514123D01*
X83788002Y-44554470D01*
X83768709Y-44565609D01*
X83761985Y-44569491D01*
X83761982Y-44569493D01*
X83659493Y-44671982D01*
X83659488Y-44671988D01*
X83587017Y-44797511D01*
X83583451Y-44810821D01*
X83549500Y-44937525D01*
X83549500Y-45082475D01*
X83587016Y-45222485D01*
X83587017Y-45222488D01*
X83659488Y-45348011D01*
X83659490Y-45348013D01*
X83659491Y-45348015D01*
X83761985Y-45450509D01*
X83761986Y-45450510D01*
X83761988Y-45450511D01*
X83887511Y-45522982D01*
X83887512Y-45522982D01*
X83887515Y-45522984D01*
X84027525Y-45560500D01*
X84027528Y-45560500D01*
X84172472Y-45560500D01*
X84172475Y-45560500D01*
X84312485Y-45522984D01*
X84438015Y-45450509D01*
X84540509Y-45348015D01*
X84612984Y-45222485D01*
X84650500Y-45082475D01*
X84650500Y-44937525D01*
X84612984Y-44797515D01*
X84540509Y-44671985D01*
X84540506Y-44671982D01*
X84539154Y-44669640D01*
X84522681Y-44601740D01*
X84545533Y-44535713D01*
X84599094Y-44493075D01*
X84610523Y-44488341D01*
X84610525Y-44488340D01*
X84778400Y-44376170D01*
X84921167Y-44233403D01*
X84921170Y-44233399D01*
X85033340Y-44065526D01*
X85033347Y-44065513D01*
X85110609Y-43878983D01*
X85110612Y-43878974D01*
X85120353Y-43830000D01*
X84316988Y-43830000D01*
X84334205Y-43820060D01*
X84390060Y-43764205D01*
X84429556Y-43695796D01*
X84450000Y-43619496D01*
X84450000Y-43540504D01*
X84429556Y-43464204D01*
X84390060Y-43395795D01*
X84334205Y-43339940D01*
X84316988Y-43330000D01*
X85120354Y-43330000D01*
X85120353Y-43329999D01*
X85110612Y-43281025D01*
X85110609Y-43281016D01*
X85033347Y-43094486D01*
X85033340Y-43094473D01*
X84921170Y-42926600D01*
X84921167Y-42926596D01*
X84778403Y-42783832D01*
X84778399Y-42783829D01*
X84610526Y-42671659D01*
X84610513Y-42671652D01*
X84423983Y-42594390D01*
X84423974Y-42594387D01*
X84225958Y-42555000D01*
X83850000Y-42555000D01*
X83850000Y-43280000D01*
X83350000Y-43280000D01*
X83350000Y-42555000D01*
X82974041Y-42555000D01*
X82776025Y-42594387D01*
X82776016Y-42594390D01*
X82589486Y-42671652D01*
X82589473Y-42671659D01*
X82421600Y-42783829D01*
X82421596Y-42783832D01*
X82278832Y-42926596D01*
X82278829Y-42926600D01*
X82166659Y-43094473D01*
X82166652Y-43094486D01*
X82089390Y-43281016D01*
X82089387Y-43281025D01*
X82079647Y-43330000D01*
X39763103Y-43330000D01*
X39689185Y-43280609D01*
X39689172Y-43280602D01*
X39543501Y-43220264D01*
X39543489Y-43220261D01*
X39388845Y-43189500D01*
X39388842Y-43189500D01*
X39231158Y-43189500D01*
X39231155Y-43189500D01*
X39076510Y-43220261D01*
X39076498Y-43220264D01*
X38930827Y-43280602D01*
X38930814Y-43280609D01*
X38799711Y-43368210D01*
X38799707Y-43368213D01*
X38688213Y-43479707D01*
X38688210Y-43479711D01*
X38600609Y-43610814D01*
X38600602Y-43610827D01*
X38540264Y-43756498D01*
X38540261Y-43756510D01*
X38509500Y-43911153D01*
X17980500Y-43911153D01*
X17980500Y-36651153D01*
X82859500Y-36651153D01*
X82859500Y-36808846D01*
X82890261Y-36963489D01*
X82890264Y-36963501D01*
X82950602Y-37109172D01*
X82950609Y-37109185D01*
X83038210Y-37240288D01*
X83038213Y-37240292D01*
X83149707Y-37351786D01*
X83149711Y-37351789D01*
X83280814Y-37439390D01*
X83280827Y-37439397D01*
X83426498Y-37499735D01*
X83426503Y-37499737D01*
X83581153Y-37530499D01*
X83581156Y-37530500D01*
X83581158Y-37530500D01*
X83738844Y-37530500D01*
X83738845Y-37530499D01*
X83893497Y-37499737D01*
X84039179Y-37439394D01*
X84170289Y-37351789D01*
X84281789Y-37240289D01*
X84369394Y-37109179D01*
X84377219Y-37090289D01*
X84428723Y-36965945D01*
X84472563Y-36911541D01*
X84538857Y-36889476D01*
X84606557Y-36906755D01*
X84654168Y-36957892D01*
X84657845Y-36965945D01*
X84700602Y-37069172D01*
X84700609Y-37069185D01*
X84788210Y-37200288D01*
X84788213Y-37200292D01*
X84899707Y-37311786D01*
X84899711Y-37311789D01*
X85030814Y-37399390D01*
X85030827Y-37399397D01*
X85176498Y-37459735D01*
X85176503Y-37459737D01*
X85331153Y-37490499D01*
X85331156Y-37490500D01*
X85331158Y-37490500D01*
X85488844Y-37490500D01*
X85488845Y-37490499D01*
X85643497Y-37459737D01*
X85789179Y-37399394D01*
X85920289Y-37311789D01*
X86031789Y-37200289D01*
X86119394Y-37069179D01*
X86179737Y-36923497D01*
X86182115Y-36911541D01*
X86183071Y-36906738D01*
X86215455Y-36844827D01*
X86276171Y-36810253D01*
X86345941Y-36813992D01*
X86402613Y-36854858D01*
X86419249Y-36883477D01*
X86450602Y-36959172D01*
X86450609Y-36959185D01*
X86538210Y-37090288D01*
X86538213Y-37090292D01*
X86649707Y-37201786D01*
X86649711Y-37201789D01*
X86780814Y-37289390D01*
X86780827Y-37289397D01*
X86926498Y-37349735D01*
X86926503Y-37349737D01*
X87075578Y-37379390D01*
X87081153Y-37380499D01*
X87081156Y-37380500D01*
X87081158Y-37380500D01*
X87238844Y-37380500D01*
X87238845Y-37380499D01*
X87393497Y-37349737D01*
X87539179Y-37289394D01*
X87670289Y-37201789D01*
X87781789Y-37090289D01*
X87869394Y-36959179D01*
X87929737Y-36813497D01*
X87934432Y-36789896D01*
X87966813Y-36727988D01*
X88027528Y-36693412D01*
X88097298Y-36697150D01*
X88153971Y-36738015D01*
X88177665Y-36789896D01*
X88200261Y-36903491D01*
X88200264Y-36903501D01*
X88260602Y-37049172D01*
X88260609Y-37049185D01*
X88348210Y-37180288D01*
X88348213Y-37180292D01*
X88459707Y-37291786D01*
X88459711Y-37291789D01*
X88590814Y-37379390D01*
X88590827Y-37379397D01*
X88735665Y-37439390D01*
X88736503Y-37439737D01*
X88891153Y-37470499D01*
X88891156Y-37470500D01*
X88891158Y-37470500D01*
X89048844Y-37470500D01*
X89048845Y-37470499D01*
X89203497Y-37439737D01*
X89349179Y-37379394D01*
X89480289Y-37291789D01*
X89591789Y-37180289D01*
X89679394Y-37049179D01*
X89739737Y-36903497D01*
X89770500Y-36748842D01*
X89770500Y-36591158D01*
X89770500Y-36591155D01*
X89770499Y-36591153D01*
X89739737Y-36436503D01*
X89730887Y-36415136D01*
X89679397Y-36290827D01*
X89679390Y-36290814D01*
X89591789Y-36159711D01*
X89591786Y-36159707D01*
X89480292Y-36048213D01*
X89480288Y-36048210D01*
X89349185Y-35960609D01*
X89349172Y-35960602D01*
X89203501Y-35900264D01*
X89203489Y-35900261D01*
X89048845Y-35869500D01*
X89048842Y-35869500D01*
X88891158Y-35869500D01*
X88891155Y-35869500D01*
X88736510Y-35900261D01*
X88736498Y-35900264D01*
X88590827Y-35960602D01*
X88590814Y-35960609D01*
X88459711Y-36048210D01*
X88459707Y-36048213D01*
X88348213Y-36159707D01*
X88348210Y-36159711D01*
X88260609Y-36290814D01*
X88260602Y-36290827D01*
X88200264Y-36436498D01*
X88200261Y-36436507D01*
X88195568Y-36460104D01*
X88163182Y-36522014D01*
X88102466Y-36556588D01*
X88032697Y-36552847D01*
X87976025Y-36511980D01*
X87952334Y-36460102D01*
X87937697Y-36386522D01*
X87929737Y-36346503D01*
X87929735Y-36346498D01*
X87869397Y-36200827D01*
X87869390Y-36200814D01*
X87781789Y-36069711D01*
X87781786Y-36069707D01*
X87670292Y-35958213D01*
X87670288Y-35958210D01*
X87539185Y-35870609D01*
X87539172Y-35870602D01*
X87393501Y-35810264D01*
X87393489Y-35810261D01*
X87238845Y-35779500D01*
X87238842Y-35779500D01*
X87081158Y-35779500D01*
X87081155Y-35779500D01*
X86926510Y-35810261D01*
X86926498Y-35810264D01*
X86780827Y-35870602D01*
X86780814Y-35870609D01*
X86649711Y-35958210D01*
X86649707Y-35958213D01*
X86538213Y-36069707D01*
X86538210Y-36069711D01*
X86450609Y-36200814D01*
X86450602Y-36200827D01*
X86390264Y-36346498D01*
X86390260Y-36346511D01*
X86386927Y-36363267D01*
X86354539Y-36425176D01*
X86293822Y-36459748D01*
X86224053Y-36456005D01*
X86167382Y-36415136D01*
X86150752Y-36386528D01*
X86119394Y-36310821D01*
X86119392Y-36310818D01*
X86119390Y-36310814D01*
X86031789Y-36179711D01*
X86031786Y-36179707D01*
X85920292Y-36068213D01*
X85920288Y-36068210D01*
X85789185Y-35980609D01*
X85789172Y-35980602D01*
X85643501Y-35920264D01*
X85643489Y-35920261D01*
X85488845Y-35889500D01*
X85488842Y-35889500D01*
X85331158Y-35889500D01*
X85331155Y-35889500D01*
X85176510Y-35920261D01*
X85176498Y-35920264D01*
X85030827Y-35980602D01*
X85030814Y-35980609D01*
X84899711Y-36068210D01*
X84899707Y-36068213D01*
X84788213Y-36179707D01*
X84788210Y-36179711D01*
X84700609Y-36310814D01*
X84700604Y-36310824D01*
X84641276Y-36454055D01*
X84597435Y-36508458D01*
X84531141Y-36530523D01*
X84463441Y-36513244D01*
X84415831Y-36462106D01*
X84412155Y-36454058D01*
X84384182Y-36386522D01*
X84369397Y-36350826D01*
X84369390Y-36350814D01*
X84281789Y-36219711D01*
X84281786Y-36219707D01*
X84170292Y-36108213D01*
X84170288Y-36108210D01*
X84039185Y-36020609D01*
X84039172Y-36020602D01*
X83893501Y-35960264D01*
X83893489Y-35960261D01*
X83738845Y-35929500D01*
X83738842Y-35929500D01*
X83581158Y-35929500D01*
X83581155Y-35929500D01*
X83426510Y-35960261D01*
X83426498Y-35960264D01*
X83280827Y-36020602D01*
X83280814Y-36020609D01*
X83149711Y-36108210D01*
X83149707Y-36108213D01*
X83038213Y-36219707D01*
X83038210Y-36219711D01*
X82950609Y-36350814D01*
X82950602Y-36350827D01*
X82890264Y-36496498D01*
X82890261Y-36496510D01*
X82859500Y-36651153D01*
X17980500Y-36651153D01*
X17980500Y-21871153D01*
X83149500Y-21871153D01*
X83149500Y-22028846D01*
X83180261Y-22183489D01*
X83180264Y-22183501D01*
X83240602Y-22329172D01*
X83240609Y-22329185D01*
X83328210Y-22460288D01*
X83328213Y-22460292D01*
X83439707Y-22571786D01*
X83439711Y-22571789D01*
X83570814Y-22659390D01*
X83570827Y-22659397D01*
X83710687Y-22717328D01*
X83716503Y-22719737D01*
X83871153Y-22750499D01*
X83871156Y-22750500D01*
X83871158Y-22750500D01*
X84028844Y-22750500D01*
X84028845Y-22750499D01*
X84183497Y-22719737D01*
X84329179Y-22659394D01*
X84460289Y-22571789D01*
X84571789Y-22460289D01*
X84659394Y-22329179D01*
X84719737Y-22183497D01*
X84750500Y-22028842D01*
X84750500Y-21871158D01*
X84750500Y-21871155D01*
X84750499Y-21871153D01*
X84719738Y-21716510D01*
X84719737Y-21716503D01*
X84706062Y-21683489D01*
X84659397Y-21570827D01*
X84659390Y-21570814D01*
X84573785Y-21442697D01*
X84573784Y-21442696D01*
X84571792Y-21439715D01*
X84571786Y-21439707D01*
X84509211Y-21377132D01*
X85004500Y-21377132D01*
X85004500Y-22522870D01*
X85004501Y-22522876D01*
X85010908Y-22582483D01*
X85061202Y-22717328D01*
X85061203Y-22717330D01*
X85061204Y-22717331D01*
X85062377Y-22718898D01*
X85063062Y-22720733D01*
X85065454Y-22725114D01*
X85064824Y-22725457D01*
X85086796Y-22784361D01*
X85077674Y-22840662D01*
X85044389Y-22921021D01*
X85044387Y-22921025D01*
X85005000Y-23119041D01*
X85005000Y-23320958D01*
X85044387Y-23518974D01*
X85044390Y-23518983D01*
X85121654Y-23705516D01*
X85175504Y-23786110D01*
X85196381Y-23852788D01*
X85177896Y-23920168D01*
X85175504Y-23923890D01*
X85121654Y-24004483D01*
X85044390Y-24191016D01*
X85044387Y-24191025D01*
X85005000Y-24389041D01*
X85005000Y-24590958D01*
X85044387Y-24788974D01*
X85044390Y-24788983D01*
X85121652Y-24975513D01*
X85121659Y-24975526D01*
X85175203Y-25055659D01*
X85196081Y-25122336D01*
X85177597Y-25189716D01*
X85175204Y-25193439D01*
X85121214Y-25274243D01*
X85043909Y-25460872D01*
X85043907Y-25460880D01*
X85004500Y-25658992D01*
X85004500Y-25861007D01*
X85043907Y-26059119D01*
X85043909Y-26059127D01*
X85121212Y-26245754D01*
X85175204Y-26326558D01*
X85196081Y-26393235D01*
X85177596Y-26460615D01*
X85175204Y-26464337D01*
X85121655Y-26544479D01*
X85121654Y-26544481D01*
X85044390Y-26731016D01*
X85044387Y-26731025D01*
X85005000Y-26929041D01*
X85005000Y-27130958D01*
X85044387Y-27328974D01*
X85044390Y-27328983D01*
X85121652Y-27515513D01*
X85149402Y-27557043D01*
X85655000Y-27051445D01*
X85655000Y-27079370D01*
X85680556Y-27174745D01*
X85729925Y-27260255D01*
X85799745Y-27330075D01*
X85885255Y-27379444D01*
X85980630Y-27405000D01*
X86008552Y-27405000D01*
X85502954Y-27910596D01*
X85502955Y-27910597D01*
X85544475Y-27938341D01*
X85544484Y-27938346D01*
X85731016Y-28015609D01*
X85731025Y-28015612D01*
X85929041Y-28054999D01*
X85929045Y-28055000D01*
X86130955Y-28055000D01*
X86130958Y-28054999D01*
X86328974Y-28015612D01*
X86328983Y-28015609D01*
X86515515Y-27938346D01*
X86515518Y-27938344D01*
X86595658Y-27884796D01*
X86662335Y-27863917D01*
X86729716Y-27882401D01*
X86733422Y-27884783D01*
X86814244Y-27938786D01*
X87000873Y-28016091D01*
X87165525Y-28048842D01*
X87198992Y-28055499D01*
X87198996Y-28055500D01*
X87198997Y-28055500D01*
X87401004Y-28055500D01*
X87401005Y-28055499D01*
X87599127Y-28016091D01*
X87785756Y-27938786D01*
X87857044Y-27891153D01*
X89042500Y-27891153D01*
X89042500Y-28048846D01*
X89073261Y-28203489D01*
X89073264Y-28203501D01*
X89133602Y-28349172D01*
X89133609Y-28349185D01*
X89221210Y-28480288D01*
X89221213Y-28480292D01*
X89332707Y-28591786D01*
X89332711Y-28591789D01*
X89463814Y-28679390D01*
X89463827Y-28679397D01*
X89609498Y-28739735D01*
X89609503Y-28739737D01*
X89764153Y-28770499D01*
X89764156Y-28770500D01*
X89764158Y-28770500D01*
X89921844Y-28770500D01*
X89921845Y-28770499D01*
X90076497Y-28739737D01*
X90222179Y-28679394D01*
X90353289Y-28591789D01*
X90464789Y-28480289D01*
X90552394Y-28349179D01*
X90612737Y-28203497D01*
X90643500Y-28048842D01*
X90643500Y-27891158D01*
X90643500Y-27891155D01*
X90643499Y-27891153D01*
X90612737Y-27736503D01*
X90590873Y-27683718D01*
X90552397Y-27590827D01*
X90552390Y-27590814D01*
X90464789Y-27459711D01*
X90464786Y-27459707D01*
X90353292Y-27348213D01*
X90353288Y-27348210D01*
X90222185Y-27260609D01*
X90222172Y-27260602D01*
X90076501Y-27200264D01*
X90076489Y-27200261D01*
X89921845Y-27169500D01*
X89921842Y-27169500D01*
X89764158Y-27169500D01*
X89764155Y-27169500D01*
X89609510Y-27200261D01*
X89609498Y-27200264D01*
X89463827Y-27260602D01*
X89463814Y-27260609D01*
X89332711Y-27348210D01*
X89332707Y-27348213D01*
X89221213Y-27459707D01*
X89221210Y-27459711D01*
X89133609Y-27590814D01*
X89133602Y-27590827D01*
X89073264Y-27736498D01*
X89073261Y-27736510D01*
X89042500Y-27891153D01*
X87857044Y-27891153D01*
X87953718Y-27826558D01*
X87953721Y-27826555D01*
X87982892Y-27797385D01*
X88096555Y-27683721D01*
X88096558Y-27683718D01*
X88208782Y-27515762D01*
X88208782Y-27515761D01*
X88208786Y-27515756D01*
X88286091Y-27329127D01*
X88325500Y-27131003D01*
X88325500Y-26928997D01*
X88286091Y-26730873D01*
X88208884Y-26544481D01*
X88208787Y-26544246D01*
X88208786Y-26544244D01*
X88155094Y-26463889D01*
X88134217Y-26397214D01*
X88152701Y-26329834D01*
X88155078Y-26326134D01*
X88208786Y-26245756D01*
X88286091Y-26059127D01*
X88325500Y-25861003D01*
X88325500Y-25741153D01*
X89042500Y-25741153D01*
X89042500Y-25898846D01*
X89073261Y-26053489D01*
X89073264Y-26053499D01*
X89133602Y-26199172D01*
X89133609Y-26199185D01*
X89221210Y-26330288D01*
X89221213Y-26330292D01*
X89332707Y-26441786D01*
X89332711Y-26441789D01*
X89463814Y-26529390D01*
X89463827Y-26529397D01*
X89609498Y-26589735D01*
X89609503Y-26589737D01*
X89764153Y-26620499D01*
X89764156Y-26620500D01*
X89764158Y-26620500D01*
X89921844Y-26620500D01*
X89921845Y-26620499D01*
X90076497Y-26589737D01*
X90222179Y-26529394D01*
X90353289Y-26441789D01*
X90464789Y-26330289D01*
X90552394Y-26199179D01*
X90612737Y-26053497D01*
X90643500Y-25898842D01*
X90643500Y-25741158D01*
X90643500Y-25741155D01*
X90643499Y-25741153D01*
X90612738Y-25586510D01*
X90612737Y-25586503D01*
X90560700Y-25460873D01*
X90552397Y-25440827D01*
X90552390Y-25440814D01*
X90464789Y-25309711D01*
X90464786Y-25309707D01*
X90353292Y-25198213D01*
X90353288Y-25198210D01*
X90222185Y-25110609D01*
X90222172Y-25110602D01*
X90076501Y-25050264D01*
X90076489Y-25050261D01*
X89921845Y-25019500D01*
X89921842Y-25019500D01*
X89764158Y-25019500D01*
X89764155Y-25019500D01*
X89609510Y-25050261D01*
X89609498Y-25050264D01*
X89463827Y-25110602D01*
X89463814Y-25110609D01*
X89332711Y-25198210D01*
X89332707Y-25198213D01*
X89221213Y-25309707D01*
X89221210Y-25309711D01*
X89133609Y-25440814D01*
X89133602Y-25440827D01*
X89073264Y-25586498D01*
X89073261Y-25586510D01*
X89042500Y-25741153D01*
X88325500Y-25741153D01*
X88325500Y-25658997D01*
X88286091Y-25460873D01*
X88208786Y-25274244D01*
X88155094Y-25193889D01*
X88134217Y-25127214D01*
X88152701Y-25059834D01*
X88155078Y-25056134D01*
X88208786Y-24975756D01*
X88286091Y-24789127D01*
X88325500Y-24591003D01*
X88325500Y-24388997D01*
X88286091Y-24190873D01*
X88208786Y-24004244D01*
X88155094Y-23923889D01*
X88134217Y-23857214D01*
X88152701Y-23789834D01*
X88155078Y-23786134D01*
X88208786Y-23705756D01*
X88254663Y-23595000D01*
X88256257Y-23591153D01*
X89042500Y-23591153D01*
X89042500Y-23748846D01*
X89073261Y-23903489D01*
X89073264Y-23903501D01*
X89133602Y-24049172D01*
X89133609Y-24049185D01*
X89221210Y-24180288D01*
X89221213Y-24180292D01*
X89332707Y-24291786D01*
X89332711Y-24291789D01*
X89463814Y-24379390D01*
X89463827Y-24379397D01*
X89609498Y-24439735D01*
X89609503Y-24439737D01*
X89764153Y-24470499D01*
X89764156Y-24470500D01*
X89764158Y-24470500D01*
X89921844Y-24470500D01*
X89921845Y-24470499D01*
X90076497Y-24439737D01*
X90222179Y-24379394D01*
X90353289Y-24291789D01*
X90464789Y-24180289D01*
X90552394Y-24049179D01*
X90612737Y-23903497D01*
X90643500Y-23748842D01*
X90643500Y-23591158D01*
X90643500Y-23591155D01*
X90643499Y-23591153D01*
X90632849Y-23537613D01*
X90612737Y-23436503D01*
X90583014Y-23364745D01*
X90552397Y-23290827D01*
X90552390Y-23290814D01*
X90464789Y-23159711D01*
X90464786Y-23159707D01*
X90353292Y-23048213D01*
X90353288Y-23048210D01*
X90222185Y-22960609D01*
X90222172Y-22960602D01*
X90076501Y-22900264D01*
X90076489Y-22900261D01*
X89921845Y-22869500D01*
X89921842Y-22869500D01*
X89764158Y-22869500D01*
X89764155Y-22869500D01*
X89609510Y-22900261D01*
X89609498Y-22900264D01*
X89463827Y-22960602D01*
X89463814Y-22960609D01*
X89332711Y-23048210D01*
X89332707Y-23048213D01*
X89221213Y-23159707D01*
X89221210Y-23159711D01*
X89133609Y-23290814D01*
X89133602Y-23290827D01*
X89073264Y-23436498D01*
X89073261Y-23436510D01*
X89042500Y-23591153D01*
X88256257Y-23591153D01*
X88278434Y-23537613D01*
X88279484Y-23535076D01*
X88286091Y-23519127D01*
X88325500Y-23321003D01*
X88325500Y-23118997D01*
X88286091Y-22920873D01*
X88208786Y-22734244D01*
X88155094Y-22653889D01*
X88134217Y-22587214D01*
X88152701Y-22519834D01*
X88155078Y-22516134D01*
X88208786Y-22435756D01*
X88286091Y-22249127D01*
X88325500Y-22051003D01*
X88325500Y-21848997D01*
X88286091Y-21650873D01*
X88208786Y-21464244D01*
X88194389Y-21442697D01*
X88188549Y-21433956D01*
X88188548Y-21433955D01*
X88146585Y-21371153D01*
X89042500Y-21371153D01*
X89042500Y-21528846D01*
X89073261Y-21683489D01*
X89073264Y-21683501D01*
X89133602Y-21829172D01*
X89133609Y-21829185D01*
X89221210Y-21960288D01*
X89221213Y-21960292D01*
X89332707Y-22071786D01*
X89332711Y-22071789D01*
X89463814Y-22159390D01*
X89463827Y-22159397D01*
X89609498Y-22219735D01*
X89609503Y-22219737D01*
X89757215Y-22249119D01*
X89764153Y-22250499D01*
X89764156Y-22250500D01*
X89764158Y-22250500D01*
X89921844Y-22250500D01*
X89921845Y-22250499D01*
X90076497Y-22219737D01*
X90222179Y-22159394D01*
X90353289Y-22071789D01*
X90464789Y-21960289D01*
X90552394Y-21829179D01*
X90612737Y-21683497D01*
X90643500Y-21528842D01*
X90643500Y-21371158D01*
X90643500Y-21371155D01*
X90643499Y-21371153D01*
X90617531Y-21240606D01*
X90612737Y-21216503D01*
X90612735Y-21216498D01*
X90552397Y-21070827D01*
X90552390Y-21070814D01*
X90464789Y-20939711D01*
X90464786Y-20939707D01*
X90353292Y-20828213D01*
X90353288Y-20828210D01*
X90222185Y-20740609D01*
X90222172Y-20740602D01*
X90076501Y-20680264D01*
X90076489Y-20680261D01*
X89921845Y-20649500D01*
X89921842Y-20649500D01*
X89764158Y-20649500D01*
X89764155Y-20649500D01*
X89609510Y-20680261D01*
X89609498Y-20680264D01*
X89463827Y-20740602D01*
X89463814Y-20740609D01*
X89332711Y-20828210D01*
X89332707Y-20828213D01*
X89221213Y-20939707D01*
X89221210Y-20939711D01*
X89133609Y-21070814D01*
X89133602Y-21070827D01*
X89073264Y-21216498D01*
X89073261Y-21216510D01*
X89042500Y-21371153D01*
X88146585Y-21371153D01*
X88096558Y-21296282D01*
X88096555Y-21296278D01*
X87953718Y-21153441D01*
X87785762Y-21041217D01*
X87785752Y-21041212D01*
X87599127Y-20963909D01*
X87599119Y-20963907D01*
X87401007Y-20924500D01*
X87401003Y-20924500D01*
X87198997Y-20924500D01*
X87198992Y-20924500D01*
X87000880Y-20963907D01*
X87000868Y-20963910D01*
X86920198Y-20997325D01*
X86850729Y-21004794D01*
X86805342Y-20985036D01*
X86805114Y-20985454D01*
X86800447Y-20982905D01*
X86798432Y-20982028D01*
X86797331Y-20981204D01*
X86797330Y-20981203D01*
X86797328Y-20981202D01*
X86662482Y-20930908D01*
X86662483Y-20930908D01*
X86602883Y-20924501D01*
X86602881Y-20924500D01*
X86602873Y-20924500D01*
X86602864Y-20924500D01*
X85457129Y-20924500D01*
X85457123Y-20924501D01*
X85397516Y-20930908D01*
X85262671Y-20981202D01*
X85262664Y-20981206D01*
X85147455Y-21067452D01*
X85147452Y-21067455D01*
X85061206Y-21182664D01*
X85061202Y-21182671D01*
X85010908Y-21317517D01*
X85004501Y-21377116D01*
X85004500Y-21377132D01*
X84509211Y-21377132D01*
X84460292Y-21328213D01*
X84460288Y-21328210D01*
X84329185Y-21240609D01*
X84329172Y-21240602D01*
X84183501Y-21180264D01*
X84183489Y-21180261D01*
X84028845Y-21149500D01*
X84028842Y-21149500D01*
X83871158Y-21149500D01*
X83871155Y-21149500D01*
X83716510Y-21180261D01*
X83716498Y-21180264D01*
X83570827Y-21240602D01*
X83570814Y-21240609D01*
X83439711Y-21328210D01*
X83439707Y-21328213D01*
X83328213Y-21439707D01*
X83328210Y-21439711D01*
X83240609Y-21570814D01*
X83240602Y-21570827D01*
X83180264Y-21716498D01*
X83180261Y-21716510D01*
X83149500Y-21871153D01*
X17980500Y-21871153D01*
X17980500Y-19734500D01*
X18000185Y-19667461D01*
X18052989Y-19621706D01*
X18104500Y-19610500D01*
X91215500Y-19610500D01*
X91282539Y-19630185D01*
G37*
%TD.AperFunction*%
%TD*%
M02*
