%TF.GenerationSoftware,KiCad,Pcbnew,9.0.0*%
%TF.CreationDate,2025-09-02T15:48:47+09:00*%
%TF.ProjectId,MistFarm_PCB,4d697374-4661-4726-9d5f-5043422e6b69,rev?*%
%TF.SameCoordinates,Original*%
%TF.FileFunction,Copper,L4,Bot*%
%TF.FilePolarity,Positive*%
%FSLAX46Y46*%
G04 Gerber Fmt 4.6, Leading zero omitted, Abs format (unit mm)*
G04 Created by KiCad (PCBNEW 9.0.0) date 2025-09-02 15:48:47*
%MOMM*%
%LPD*%
G01*
G04 APERTURE LIST*
%TA.AperFunction,ComponentPad*%
%ADD10C,1.650000*%
%TD*%
%TA.AperFunction,ComponentPad*%
%ADD11R,1.050000X1.050000*%
%TD*%
%TA.AperFunction,ComponentPad*%
%ADD12C,1.050000*%
%TD*%
%TA.AperFunction,ComponentPad*%
%ADD13O,2.100000X1.050000*%
%TD*%
%TA.AperFunction,ComponentPad*%
%ADD14O,1.800000X0.900000*%
%TD*%
%TA.AperFunction,ComponentPad*%
%ADD15R,1.370000X1.370000*%
%TD*%
%TA.AperFunction,ComponentPad*%
%ADD16C,1.370000*%
%TD*%
%TA.AperFunction,HeatsinkPad*%
%ADD17C,0.600000*%
%TD*%
%TA.AperFunction,ViaPad*%
%ADD18C,0.600000*%
%TD*%
%TA.AperFunction,ViaPad*%
%ADD19C,1.400000*%
%TD*%
%TA.AperFunction,Conductor*%
%ADD20C,0.200000*%
%TD*%
%TA.AperFunction,Conductor*%
%ADD21C,1.000000*%
%TD*%
G04 APERTURE END LIST*
D10*
%TO.P,J4,1*%
%TO.N,3.3V OUT*%
X27830000Y-118320000D03*
%TO.P,J4,2*%
%TO.N,GND*%
X27830000Y-120860000D03*
%TO.P,J4,3*%
%TO.N,/ESP32 WROOM 32E/Temp_Sensor*%
X27830000Y-123400000D03*
%TO.P,J4,4*%
%TO.N,/ESP32 WROOM 32E/I2C_SCL*%
X27830000Y-125940000D03*
%TO.P,J4,5*%
%TO.N,/ESP32 WROOM 32E/I2C_SDL*%
X27830000Y-128480000D03*
%TD*%
D11*
%TO.P,J1,1,1*%
%TO.N,3.3V OUT*%
X86030000Y-21950000D03*
D12*
%TO.P,J1,2,2*%
%TO.N,Net-(C3-Pad1)*%
X87300000Y-21950000D03*
%TO.P,J1,3,3*%
%TO.N,GND*%
X86030000Y-23220000D03*
%TO.P,J1,4,4*%
%TO.N,Net-(C4-Pad1)*%
X87300000Y-23220000D03*
%TO.P,J1,5,5*%
%TO.N,GND*%
X86030000Y-24490000D03*
%TO.P,J1,6,6*%
%TO.N,Net-(C5-Pad1)*%
X87300000Y-24490000D03*
%TO.P,J1,7,7*%
%TO.N,unconnected-(J1-Pad7)*%
X86030000Y-25760000D03*
%TO.P,J1,8,8*%
%TO.N,Net-(C6-Pad1)*%
X87300000Y-25760000D03*
%TO.P,J1,9,9*%
%TO.N,GND*%
X86030000Y-27030000D03*
%TO.P,J1,10,10*%
%TO.N,/ESP32 WROOM 32E/EN*%
X87300000Y-27030000D03*
%TD*%
D13*
%TO.P,UART1,SH1,SHIELD*%
%TO.N,GND*%
X83600000Y-52220000D03*
%TO.P,UART1,SH2,SHIELD*%
X83600000Y-43580000D03*
D14*
%TO.P,UART1,SH3,SHIELD*%
X87780000Y-52220000D03*
%TO.P,UART1,SH4,SHIELD*%
X87780000Y-43580000D03*
%TD*%
D15*
%TO.P,J2,01,01*%
%TO.N,GND*%
X84800000Y-109450000D03*
D16*
%TO.P,J2,02,02*%
%TO.N,3.3V OUT*%
X82260000Y-109450000D03*
%TO.P,J2,03,03*%
%TO.N,/ESP32 WROOM 32E/I2C_SCL*%
X79720000Y-109450000D03*
%TO.P,J2,04,04*%
%TO.N,/ESP32 WROOM 32E/I2C_SDL*%
X77180000Y-109450000D03*
%TD*%
D17*
%TO.P,U1,39,GND*%
%TO.N,GND*%
X47290000Y-49747900D03*
X47290000Y-51147900D03*
X47990000Y-49047900D03*
X47990000Y-50447900D03*
X47990000Y-51847900D03*
X48690000Y-49747900D03*
X48690000Y-51147900D03*
X49390000Y-49047900D03*
X49390000Y-50447900D03*
X49390000Y-51847900D03*
X50090000Y-49747900D03*
X50090000Y-51147900D03*
%TD*%
D10*
%TO.P,J3,1*%
%TO.N,3.3V OUT*%
X89090000Y-95130000D03*
%TO.P,J3,2*%
%TO.N,GND*%
X89090000Y-92590000D03*
%TO.P,J3,3*%
%TO.N,/ESP32 WROOM 32E/Temp_Sensor*%
X89090000Y-90050000D03*
%TO.P,J3,4*%
%TO.N,/ESP32 WROOM 32E/I2C_SCL*%
X89090000Y-87510000D03*
%TO.P,J3,5*%
%TO.N,/ESP32 WROOM 32E/I2C_SDL*%
X89090000Y-84970000D03*
%TD*%
D18*
%TO.N,GND*%
X81500000Y-44720000D03*
X39450000Y-42720000D03*
X29290000Y-58270000D03*
X77820000Y-59550000D03*
X73100000Y-55860000D03*
X72860000Y-43130000D03*
X73080000Y-57430000D03*
X54450000Y-46220000D03*
X69180803Y-50977401D03*
X72930000Y-61270000D03*
X81793908Y-51308137D03*
X26260000Y-42330000D03*
X77850000Y-60800000D03*
X72850000Y-59390000D03*
X44040000Y-64590000D03*
X65560000Y-53900000D03*
X79450000Y-47580000D03*
X61130000Y-42750000D03*
X73030000Y-63130000D03*
X84010000Y-26970000D03*
X65120000Y-48920000D03*
X29240000Y-56470000D03*
X84060000Y-24510000D03*
%TO.N,3.3V OUT*%
X39310000Y-43990000D03*
X72860000Y-49520000D03*
X31340000Y-54570000D03*
X77080000Y-61200000D03*
X83950000Y-21950000D03*
X80010000Y-56450000D03*
X46070000Y-68790000D03*
%TO.N,Net-(C3-Pad1)*%
X89843000Y-21450000D03*
%TO.N,Net-(C4-Pad1)*%
X89843000Y-23670000D03*
%TO.N,Net-(C5-Pad1)*%
X89843000Y-25820000D03*
%TO.N,/ESP32 WROOM 32E/I2C_SCL*%
X18860000Y-126780000D03*
X58940000Y-45267900D03*
%TO.N,/ESP32 WROOM 32E/I2C_SDL*%
X58940000Y-49077900D03*
X20620000Y-127770000D03*
%TO.N,Net-(C6-Pad1)*%
X89843000Y-27970000D03*
%TO.N,/ESP32 WROOM 32E/EN*%
X39410000Y-45190000D03*
X65775000Y-53090000D03*
%TO.N,Net-(U2-REGIN)*%
X74450000Y-48340000D03*
X75650000Y-48340000D03*
X74039737Y-51709210D03*
X71857500Y-48837500D03*
%TO.N,/ESP32 WROOM 32E/AC_TRIAC_Switching*%
X60420000Y-55430000D03*
X41290000Y-85290900D03*
D19*
%TO.N,Net-(D4-K)*%
X51940000Y-73737900D03*
X51950000Y-87557900D03*
D18*
%TO.N,/ESP32 WROOM 32E/Temp_Sensor*%
X37708000Y-54230000D03*
X25220000Y-123440000D03*
%TO.N,/ESP32 WROOM 32E/RTS*%
X68075000Y-56125000D03*
X66975000Y-46237500D03*
X65666948Y-58383392D03*
%TO.N,/ESP32 WROOM 32E/JTAG_MTDI*%
X83660000Y-36730000D03*
X41440000Y-59237900D03*
%TO.N,/ESP32 WROOM 32E/JTAG_MTDO*%
X85410000Y-36690000D03*
X54635000Y-60487900D03*
%TO.N,/ESP32 WROOM 32E/JTAG_MTCK*%
X45745000Y-60487900D03*
X87160000Y-36580000D03*
%TO.N,/ESP32 WROOM 32E/JTAG_MTMS*%
X88970000Y-36670000D03*
X41440000Y-57967900D03*
%TO.N,Net-(Q1A-B1)*%
X66375000Y-50970000D03*
X67065065Y-55963595D03*
%TO.N,Net-(U2-~{RST})*%
X75884265Y-49954265D03*
X73640000Y-47737500D03*
%TO.N,Net-(UART1-CC2)*%
X81751510Y-46070080D03*
X80636189Y-47627296D03*
%TO.N,Net-(U3-I{slash}O1-Pad1)*%
X79170000Y-48360000D03*
X81768699Y-48154624D03*
X81740000Y-46870000D03*
%TO.N,5A OUT*%
X79510000Y-52100000D03*
X81691859Y-50514670D03*
%TD*%
D20*
%TO.N,GND*%
X65120000Y-46740000D02*
X65120000Y-48920000D01*
X26580000Y-122110000D02*
X27830000Y-120860000D01*
X61130000Y-42750000D02*
X65120000Y-46740000D01*
%TO.N,Net-(C3-Pad1)*%
X89350000Y-21950000D02*
X89843000Y-21457000D01*
X89873000Y-21420000D02*
X89843000Y-21450000D01*
X87300000Y-21950000D02*
X89350000Y-21950000D01*
X89843000Y-21450000D02*
X89843000Y-21457000D01*
%TO.N,Net-(C4-Pad1)*%
X89393000Y-23220000D02*
X89843000Y-23670000D01*
X87300000Y-23220000D02*
X89393000Y-23220000D01*
%TO.N,Net-(C5-Pad1)*%
X89840000Y-25790000D02*
X89840000Y-25817000D01*
X88540000Y-24490000D02*
X89840000Y-25790000D01*
X89840000Y-25817000D02*
X89843000Y-25820000D01*
X87300000Y-24490000D02*
X88540000Y-24490000D01*
%TO.N,/ESP32 WROOM 32E/I2C_SCL*%
X65018057Y-110436000D02*
X38308000Y-83725943D01*
X38308000Y-43012057D02*
X39201057Y-42119000D01*
X20868943Y-127169000D02*
X21221000Y-127521057D01*
X39201057Y-42119000D02*
X55791100Y-42119000D01*
X21496100Y-128079000D02*
X25691000Y-128079000D01*
X89090000Y-87510000D02*
X79720000Y-96880000D01*
X18860000Y-126780000D02*
X20019000Y-127939000D01*
X78734000Y-110436000D02*
X65018057Y-110436000D01*
X79720000Y-96880000D02*
X79720000Y-109450000D01*
X38308000Y-83725943D02*
X38308000Y-43012057D01*
X21221000Y-127803900D02*
X21496100Y-128079000D01*
X20019000Y-127521057D02*
X20371057Y-127169000D01*
X25691000Y-128079000D02*
X27830000Y-125940000D01*
X20371057Y-127169000D02*
X20868943Y-127169000D01*
X79720000Y-109450000D02*
X78734000Y-110436000D01*
X21221000Y-127521057D02*
X21221000Y-127803900D01*
X55791100Y-42119000D02*
X58940000Y-45267900D01*
X20019000Y-127939000D02*
X20019000Y-127521057D01*
%TO.N,/ESP32 WROOM 32E/I2C_SDL*%
X21330000Y-128480000D02*
X27830000Y-128480000D01*
X20620000Y-127770000D02*
X21330000Y-128480000D01*
X64599157Y-109450000D02*
X38709000Y-83559843D01*
X89090000Y-84970000D02*
X77180000Y-96880000D01*
X53251100Y-43389000D02*
X58940000Y-49077900D01*
X38709000Y-43741057D02*
X39061057Y-43389000D01*
X77180000Y-109450000D02*
X64599157Y-109450000D01*
X39061057Y-43389000D02*
X53251100Y-43389000D01*
X77180000Y-96880000D02*
X77180000Y-109450000D01*
X38709000Y-83559843D02*
X38709000Y-43741057D01*
%TO.N,Net-(C6-Pad1)*%
X87300000Y-25760000D02*
X89480000Y-27940000D01*
X89480000Y-27940000D02*
X89813000Y-27940000D01*
X89813000Y-27940000D02*
X89843000Y-27970000D01*
%TO.N,/ESP32 WROOM 32E/EN*%
X47310000Y-53090000D02*
X39410000Y-45190000D01*
X87300000Y-28460736D02*
X74231836Y-41528900D01*
X87300000Y-27030000D02*
X87300000Y-28460736D01*
X65775000Y-46587557D02*
X65775000Y-53090000D01*
X74231836Y-41528900D02*
X70833657Y-41528900D01*
X65775000Y-53090000D02*
X47310000Y-53090000D01*
X70833657Y-41528900D02*
X65775000Y-46587557D01*
%TO.N,Net-(U2-REGIN)*%
X74039737Y-51709210D02*
X74039737Y-49837237D01*
X74039737Y-49837237D02*
X73040000Y-48837500D01*
X73040000Y-48837500D02*
X71857500Y-48837500D01*
X74450000Y-48340000D02*
X75650000Y-48340000D01*
%TO.N,/ESP32 WROOM 32E/AC_TRIAC_Switching*%
X40438000Y-84438900D02*
X41290000Y-85290900D01*
X40438000Y-58119957D02*
X40438000Y-84438900D01*
X60420000Y-55430000D02*
X43127957Y-55430000D01*
X43127957Y-55430000D02*
X40438000Y-58119957D01*
D21*
%TO.N,Net-(D4-K)*%
X51950000Y-87557900D02*
X51950000Y-73557900D01*
D20*
%TO.N,/ESP32 WROOM 32E/Temp_Sensor*%
X64851957Y-110837000D02*
X37708000Y-83693043D01*
X25220000Y-123440000D02*
X25260000Y-123400000D01*
X89090000Y-90050000D02*
X80706000Y-98434000D01*
X25260000Y-123400000D02*
X27830000Y-123400000D01*
X37708000Y-83693043D02*
X37708000Y-54230000D01*
X80706000Y-98434000D02*
X80706000Y-109858415D01*
X80706000Y-109858415D02*
X79727415Y-110837000D01*
X79727415Y-110837000D02*
X64851957Y-110837000D01*
%TO.N,/ESP32 WROOM 32E/RTS*%
X66975000Y-46237500D02*
X66975000Y-55025000D01*
X66975000Y-55025000D02*
X67400000Y-55450000D01*
X67675545Y-56374795D02*
X65666948Y-58383392D01*
X67400000Y-55450000D02*
X68075000Y-56125000D01*
X67675545Y-55725545D02*
X67675545Y-56374795D01*
X67400000Y-55450000D02*
X67675545Y-55725545D01*
%TO.N,/ESP32 WROOM 32E/JTAG_MTDI*%
X70999757Y-41929900D02*
X70999757Y-54050186D01*
X78460100Y-41929900D02*
X70999757Y-41929900D01*
X65812043Y-59237900D02*
X41440000Y-59237900D01*
X70999757Y-54050186D02*
X65812043Y-59237900D01*
X83660000Y-36730000D02*
X78460100Y-41929900D01*
%TO.N,/ESP32 WROOM 32E/JTAG_MTDO*%
X76485265Y-50203208D02*
X66200573Y-60487900D01*
X85410000Y-36690000D02*
X76485265Y-45614735D01*
X76485265Y-45614735D02*
X76485265Y-50203208D01*
X66200573Y-60487900D02*
X54635000Y-60487900D01*
%TO.N,/ESP32 WROOM 32E/JTAG_MTCK*%
X66166673Y-61088900D02*
X46346000Y-61088900D01*
X87160000Y-36580000D02*
X76886265Y-46853735D01*
X46346000Y-61088900D02*
X45745000Y-60487900D01*
X76886265Y-46853735D02*
X76886265Y-50369308D01*
X76886265Y-50369308D02*
X66166673Y-61088900D01*
%TO.N,/ESP32 WROOM 32E/JTAG_MTMS*%
X88970000Y-36670000D02*
X88459000Y-37181000D01*
X87126100Y-37181000D02*
X77287265Y-47019835D01*
X77287265Y-47019835D02*
X77287265Y-50535408D01*
X40839000Y-59486843D02*
X40839000Y-58568900D01*
X77287265Y-50535408D02*
X66332773Y-61489900D01*
X40839000Y-58568900D02*
X41440000Y-57967900D01*
X42842057Y-61489900D02*
X40839000Y-59486843D01*
X88459000Y-37181000D02*
X87126100Y-37181000D01*
X66332773Y-61489900D02*
X42842057Y-61489900D01*
%TO.N,Net-(Q1A-B1)*%
X66375000Y-55273530D02*
X66375000Y-50970000D01*
X67065065Y-55963595D02*
X66375000Y-55273530D01*
%TO.N,Net-(U2-~{RST})*%
X75884265Y-49954265D02*
X75204265Y-49954265D01*
X73640000Y-48390000D02*
X73640000Y-47737500D01*
X75204265Y-49954265D02*
X73640000Y-48390000D01*
%TO.N,Net-(UART1-CC2)*%
X80636189Y-47123868D02*
X81689977Y-46070080D01*
X80636189Y-47627296D02*
X80636189Y-47123868D01*
X81689977Y-46070080D02*
X81751510Y-46070080D01*
%TO.N,Net-(U3-I{slash}O1-Pad1)*%
X81768699Y-48154624D02*
X81768699Y-46898699D01*
X79180000Y-48370000D02*
X79170000Y-48360000D01*
X81553323Y-48370000D02*
X79180000Y-48370000D01*
X81768699Y-48154624D02*
X81553323Y-48370000D01*
X81768699Y-46898699D02*
X81740000Y-46870000D01*
%TO.N,5A OUT*%
X81095330Y-50514670D02*
X79510000Y-52100000D01*
X81691859Y-50514670D02*
X81095330Y-50514670D01*
%TD*%
%TA.AperFunction,Conductor*%
%TO.N,GND*%
G36*
X24217674Y-114350000D02*
G01*
X30909092Y-114543758D01*
X30915976Y-114545997D01*
X30923147Y-114544967D01*
X30948759Y-114556663D01*
X30975531Y-114565374D01*
X30980113Y-114570982D01*
X30986703Y-114573992D01*
X31001925Y-114597678D01*
X31019738Y-114619480D01*
X31021486Y-114628116D01*
X31024477Y-114632770D01*
X31029500Y-114667705D01*
X31029500Y-114669534D01*
X31015071Y-122778602D01*
X31000610Y-130905721D01*
X30980806Y-130972725D01*
X30927921Y-131018386D01*
X30876610Y-131029500D01*
X18104500Y-131029500D01*
X18037461Y-131009815D01*
X17991706Y-130957011D01*
X17980500Y-130905500D01*
X17980500Y-127313371D01*
X18000185Y-127246332D01*
X18052989Y-127200577D01*
X18122147Y-127190633D01*
X18185703Y-127219658D01*
X18207602Y-127244480D01*
X18238210Y-127290288D01*
X18238213Y-127290292D01*
X18349707Y-127401786D01*
X18349711Y-127401789D01*
X18480814Y-127489390D01*
X18480827Y-127489397D01*
X18626498Y-127549735D01*
X18626503Y-127549737D01*
X18691147Y-127562595D01*
X18781849Y-127580638D01*
X18843760Y-127613023D01*
X18845336Y-127614571D01*
X19650284Y-128419520D01*
X19650286Y-128419521D01*
X19650290Y-128419524D01*
X19772031Y-128489810D01*
X19787216Y-128498577D01*
X19939943Y-128539501D01*
X19939945Y-128539501D01*
X20098056Y-128539501D01*
X20098058Y-128539501D01*
X20232199Y-128503557D01*
X20302048Y-128505220D01*
X20311737Y-128508768D01*
X20386503Y-128539737D01*
X20541158Y-128570500D01*
X20541847Y-128570637D01*
X20603758Y-128603022D01*
X20605337Y-128604573D01*
X20961284Y-128960520D01*
X20961286Y-128960521D01*
X20961290Y-128960524D01*
X21010301Y-128988820D01*
X21098216Y-129039577D01*
X21250943Y-129080501D01*
X21250945Y-129080501D01*
X21416654Y-129080501D01*
X21416670Y-129080500D01*
X26572338Y-129080500D01*
X26639377Y-129100185D01*
X26682823Y-129148205D01*
X26696330Y-129174714D01*
X26818965Y-129343505D01*
X26966495Y-129491035D01*
X27135286Y-129613670D01*
X27223116Y-129658421D01*
X27321179Y-129708387D01*
X27321181Y-129708387D01*
X27321184Y-129708389D01*
X27427545Y-129742948D01*
X27519610Y-129772862D01*
X27725676Y-129805500D01*
X27725681Y-129805500D01*
X27934324Y-129805500D01*
X28140389Y-129772862D01*
X28338816Y-129708389D01*
X28524714Y-129613670D01*
X28693505Y-129491035D01*
X28841035Y-129343505D01*
X28963670Y-129174714D01*
X29058389Y-128988816D01*
X29122862Y-128790389D01*
X29155500Y-128584324D01*
X29155500Y-128375675D01*
X29122862Y-128169610D01*
X29058387Y-127971179D01*
X28963669Y-127785285D01*
X28841035Y-127616495D01*
X28693505Y-127468965D01*
X28580132Y-127386594D01*
X28524712Y-127346328D01*
X28473990Y-127320485D01*
X28423194Y-127272511D01*
X28406398Y-127204690D01*
X28428935Y-127138555D01*
X28473990Y-127099515D01*
X28524712Y-127073671D01*
X28524711Y-127073671D01*
X28524714Y-127073670D01*
X28693505Y-126951035D01*
X28841035Y-126803505D01*
X28963670Y-126634714D01*
X29058389Y-126448816D01*
X29122862Y-126250389D01*
X29137461Y-126158213D01*
X29155500Y-126044324D01*
X29155500Y-125835675D01*
X29122862Y-125629610D01*
X29058387Y-125431179D01*
X28963669Y-125245285D01*
X28841035Y-125076495D01*
X28693505Y-124928965D01*
X28637241Y-124888086D01*
X28524712Y-124806328D01*
X28473990Y-124780485D01*
X28423194Y-124732511D01*
X28406398Y-124664690D01*
X28428935Y-124598555D01*
X28473990Y-124559515D01*
X28524712Y-124533671D01*
X28524711Y-124533671D01*
X28524714Y-124533670D01*
X28693505Y-124411035D01*
X28841035Y-124263505D01*
X28963670Y-124094714D01*
X29058389Y-123908816D01*
X29122862Y-123710389D01*
X29155500Y-123504324D01*
X29155500Y-123295675D01*
X29122862Y-123089610D01*
X29058387Y-122891179D01*
X29008421Y-122793116D01*
X28963670Y-122705286D01*
X28841035Y-122536495D01*
X28693505Y-122388965D01*
X28524714Y-122266330D01*
X28524710Y-122266328D01*
X28473437Y-122240203D01*
X28422641Y-122192228D01*
X28405846Y-122124407D01*
X28428384Y-122058272D01*
X28473438Y-122019233D01*
X28524448Y-121993242D01*
X28524449Y-121993242D01*
X28573818Y-121957372D01*
X28573818Y-121957371D01*
X28000234Y-121383787D01*
X28042292Y-121372518D01*
X28167708Y-121300110D01*
X28270110Y-121197708D01*
X28342518Y-121072292D01*
X28353787Y-121030234D01*
X28927371Y-121603818D01*
X28927372Y-121603818D01*
X28963240Y-121554451D01*
X29057924Y-121368627D01*
X29122373Y-121170272D01*
X29155000Y-120964279D01*
X29155000Y-120755720D01*
X29122373Y-120549727D01*
X29057924Y-120351372D01*
X28963244Y-120165556D01*
X28963236Y-120165543D01*
X28927372Y-120116180D01*
X28927371Y-120116179D01*
X28353787Y-120689764D01*
X28342518Y-120647708D01*
X28270110Y-120522292D01*
X28167708Y-120419890D01*
X28042292Y-120347482D01*
X28000233Y-120336212D01*
X28573819Y-119762627D01*
X28524451Y-119726759D01*
X28473437Y-119700766D01*
X28422641Y-119652791D01*
X28405846Y-119584970D01*
X28428384Y-119518835D01*
X28473438Y-119479796D01*
X28524712Y-119453671D01*
X28524711Y-119453671D01*
X28524714Y-119453670D01*
X28693505Y-119331035D01*
X28841035Y-119183505D01*
X28963670Y-119014714D01*
X29058389Y-118828816D01*
X29122862Y-118630389D01*
X29155500Y-118424324D01*
X29155500Y-118215675D01*
X29122862Y-118009610D01*
X29058387Y-117811179D01*
X28963669Y-117625285D01*
X28841035Y-117456495D01*
X28693505Y-117308965D01*
X28524714Y-117186330D01*
X28338820Y-117091612D01*
X28140389Y-117027137D01*
X27934324Y-116994500D01*
X27934319Y-116994500D01*
X27725681Y-116994500D01*
X27725676Y-116994500D01*
X27519610Y-117027137D01*
X27321179Y-117091612D01*
X27135285Y-117186330D01*
X26966493Y-117308966D01*
X26818966Y-117456493D01*
X26696330Y-117625285D01*
X26601612Y-117811179D01*
X26537137Y-118009610D01*
X26504500Y-118215675D01*
X26504500Y-118424324D01*
X26537137Y-118630389D01*
X26601612Y-118828820D01*
X26696330Y-119014714D01*
X26818965Y-119183505D01*
X26966495Y-119331035D01*
X27079022Y-119412791D01*
X27135287Y-119453671D01*
X27186561Y-119479796D01*
X27237358Y-119527770D01*
X27254153Y-119595591D01*
X27231616Y-119661726D01*
X27186563Y-119700765D01*
X27135555Y-119726755D01*
X27086180Y-119762627D01*
X27659766Y-120336212D01*
X27617708Y-120347482D01*
X27492292Y-120419890D01*
X27389890Y-120522292D01*
X27317482Y-120647708D01*
X27306212Y-120689765D01*
X26732627Y-120116180D01*
X26696757Y-120165552D01*
X26602075Y-120351372D01*
X26537626Y-120549727D01*
X26505000Y-120755720D01*
X26505000Y-120964279D01*
X26537626Y-121170272D01*
X26602075Y-121368627D01*
X26696759Y-121554451D01*
X26732627Y-121603818D01*
X26732627Y-121603819D01*
X27306212Y-121030234D01*
X27317482Y-121072292D01*
X27389890Y-121197708D01*
X27492292Y-121300110D01*
X27617708Y-121372518D01*
X27659765Y-121383787D01*
X27086179Y-121957371D01*
X27086180Y-121957372D01*
X27135543Y-121993236D01*
X27135561Y-121993247D01*
X27186561Y-122019233D01*
X27237358Y-122067207D01*
X27254153Y-122135028D01*
X27231616Y-122201163D01*
X27186563Y-122240202D01*
X27135288Y-122266328D01*
X26966493Y-122388966D01*
X26818966Y-122536493D01*
X26696330Y-122705285D01*
X26682823Y-122731795D01*
X26634848Y-122782591D01*
X26572338Y-122799500D01*
X25739901Y-122799500D01*
X25672862Y-122779815D01*
X25671010Y-122778602D01*
X25599184Y-122730609D01*
X25599172Y-122730602D01*
X25453501Y-122670264D01*
X25453489Y-122670261D01*
X25298845Y-122639500D01*
X25298842Y-122639500D01*
X25141158Y-122639500D01*
X25141155Y-122639500D01*
X24986510Y-122670261D01*
X24986498Y-122670264D01*
X24840827Y-122730602D01*
X24840814Y-122730609D01*
X24709711Y-122818210D01*
X24709707Y-122818213D01*
X24598213Y-122929707D01*
X24598210Y-122929711D01*
X24510609Y-123060814D01*
X24510602Y-123060827D01*
X24450264Y-123206498D01*
X24450261Y-123206510D01*
X24419500Y-123361153D01*
X24419500Y-123518846D01*
X24450261Y-123673489D01*
X24450264Y-123673501D01*
X24510602Y-123819172D01*
X24510609Y-123819185D01*
X24598210Y-123950288D01*
X24598213Y-123950292D01*
X24709707Y-124061786D01*
X24709711Y-124061789D01*
X24840814Y-124149390D01*
X24840827Y-124149397D01*
X24986498Y-124209735D01*
X24986503Y-124209737D01*
X25141153Y-124240499D01*
X25141156Y-124240500D01*
X25141158Y-124240500D01*
X25298844Y-124240500D01*
X25298845Y-124240499D01*
X25453497Y-124209737D01*
X25599179Y-124149394D01*
X25730289Y-124061789D01*
X25730292Y-124061786D01*
X25755260Y-124036819D01*
X25816583Y-124003334D01*
X25842941Y-124000500D01*
X26572338Y-124000500D01*
X26639377Y-124020185D01*
X26682823Y-124068205D01*
X26696330Y-124094714D01*
X26818965Y-124263505D01*
X26966495Y-124411035D01*
X27135286Y-124533670D01*
X27182271Y-124557610D01*
X27186010Y-124559515D01*
X27236806Y-124607490D01*
X27253601Y-124675310D01*
X27231064Y-124741445D01*
X27186010Y-124780485D01*
X27135285Y-124806330D01*
X26966493Y-124928966D01*
X26818966Y-125076493D01*
X26696330Y-125245285D01*
X26601612Y-125431179D01*
X26537137Y-125629610D01*
X26504500Y-125835675D01*
X26504500Y-126044324D01*
X26537138Y-126250389D01*
X26537138Y-126250392D01*
X26546331Y-126278683D01*
X26548326Y-126348524D01*
X26516081Y-126404682D01*
X25478584Y-127442181D01*
X25417261Y-127475666D01*
X25390903Y-127478500D01*
X21926429Y-127478500D01*
X21859390Y-127458815D01*
X21813635Y-127406011D01*
X21806657Y-127386602D01*
X21780577Y-127289272D01*
X21701520Y-127152341D01*
X21349464Y-126800285D01*
X21349463Y-126800284D01*
X21237659Y-126688480D01*
X21237657Y-126688479D01*
X21237652Y-126688475D01*
X21144534Y-126634714D01*
X21144532Y-126634713D01*
X21100733Y-126609425D01*
X21100732Y-126609424D01*
X21088206Y-126606067D01*
X20948000Y-126568499D01*
X20789886Y-126568499D01*
X20782290Y-126568499D01*
X20782274Y-126568500D01*
X20457727Y-126568500D01*
X20457711Y-126568499D01*
X20450115Y-126568499D01*
X20292000Y-126568499D01*
X20151793Y-126606067D01*
X20139268Y-126609424D01*
X20002344Y-126688477D01*
X20002341Y-126688480D01*
X19897707Y-126793112D01*
X19889762Y-126797451D01*
X19884338Y-126804697D01*
X19859580Y-126813931D01*
X19836386Y-126826596D01*
X19827356Y-126825950D01*
X19818874Y-126829114D01*
X19793053Y-126823497D01*
X19766694Y-126821612D01*
X19757640Y-126815793D01*
X19750601Y-126814262D01*
X19722347Y-126793111D01*
X19694573Y-126765337D01*
X19661088Y-126704014D01*
X19660637Y-126701847D01*
X19657978Y-126688480D01*
X19629737Y-126546503D01*
X19589274Y-126448816D01*
X19569397Y-126400827D01*
X19569390Y-126400814D01*
X19481789Y-126269711D01*
X19481786Y-126269707D01*
X19370292Y-126158213D01*
X19370288Y-126158210D01*
X19239185Y-126070609D01*
X19239172Y-126070602D01*
X19093501Y-126010264D01*
X19093489Y-126010261D01*
X18938845Y-125979500D01*
X18938842Y-125979500D01*
X18781158Y-125979500D01*
X18781155Y-125979500D01*
X18626510Y-126010261D01*
X18626498Y-126010264D01*
X18480827Y-126070602D01*
X18480814Y-126070609D01*
X18349711Y-126158210D01*
X18349707Y-126158213D01*
X18238213Y-126269707D01*
X18207602Y-126315520D01*
X18153989Y-126360324D01*
X18084664Y-126369031D01*
X18021637Y-126338876D01*
X17984918Y-126279432D01*
X17980500Y-126246628D01*
X17980500Y-114169394D01*
X24217674Y-114350000D01*
G37*
%TD.AperFunction*%
%TD*%
%TA.AperFunction,Conductor*%
%TO.N,GND*%
G36*
X39514703Y-46144384D02*
G01*
X39521181Y-46150416D01*
X46825139Y-53454374D01*
X46825149Y-53454385D01*
X46829479Y-53458715D01*
X46829480Y-53458716D01*
X46941284Y-53570520D01*
X47006572Y-53608213D01*
X47028095Y-53620639D01*
X47028097Y-53620641D01*
X47066151Y-53642611D01*
X47078215Y-53649577D01*
X47230943Y-53690500D01*
X65195234Y-53690500D01*
X65262273Y-53710185D01*
X65264125Y-53711398D01*
X65395814Y-53799390D01*
X65395827Y-53799397D01*
X65519992Y-53850827D01*
X65541503Y-53859737D01*
X65651987Y-53881713D01*
X65674691Y-53886230D01*
X65736602Y-53918615D01*
X65771176Y-53979330D01*
X65774500Y-54007847D01*
X65774500Y-55186860D01*
X65774499Y-55186878D01*
X65774499Y-55352584D01*
X65774498Y-55352584D01*
X65779299Y-55370500D01*
X65815423Y-55505315D01*
X65829131Y-55529057D01*
X65894479Y-55642244D01*
X65894481Y-55642247D01*
X66013349Y-55761115D01*
X66013355Y-55761120D01*
X66230490Y-55978255D01*
X66263975Y-56039578D01*
X66264426Y-56041744D01*
X66295326Y-56197086D01*
X66295329Y-56197096D01*
X66355667Y-56342767D01*
X66355674Y-56342780D01*
X66443275Y-56473883D01*
X66443278Y-56473887D01*
X66497566Y-56528175D01*
X66531051Y-56589498D01*
X66526067Y-56659190D01*
X66497566Y-56703537D01*
X65652287Y-57548817D01*
X65590964Y-57582302D01*
X65588798Y-57582753D01*
X65433456Y-57613653D01*
X65433446Y-57613656D01*
X65287775Y-57673994D01*
X65287762Y-57674001D01*
X65156659Y-57761602D01*
X65156657Y-57761604D01*
X65045161Y-57873099D01*
X65045158Y-57873103D01*
X64957557Y-58004206D01*
X64957550Y-58004219D01*
X64897212Y-58149890D01*
X64897209Y-58149902D01*
X64866448Y-58304545D01*
X64866448Y-58462238D01*
X64871813Y-58489209D01*
X64865586Y-58558800D01*
X64822723Y-58613978D01*
X64756833Y-58637222D01*
X64750196Y-58637400D01*
X42187396Y-58637400D01*
X42120357Y-58617715D01*
X42074602Y-58564911D01*
X42064658Y-58495753D01*
X42084294Y-58444509D01*
X42149390Y-58347085D01*
X42149390Y-58347084D01*
X42149394Y-58347079D01*
X42209737Y-58201397D01*
X42240500Y-58046742D01*
X42240500Y-57889058D01*
X42240500Y-57889055D01*
X42240499Y-57889053D01*
X42237326Y-57873103D01*
X42209737Y-57734403D01*
X42170401Y-57639437D01*
X42149397Y-57588727D01*
X42149390Y-57588714D01*
X42073382Y-57474960D01*
X42052504Y-57408282D01*
X42070989Y-57340902D01*
X42088798Y-57318393D01*
X43340374Y-56066819D01*
X43401697Y-56033334D01*
X43428055Y-56030500D01*
X59840234Y-56030500D01*
X59907273Y-56050185D01*
X59909125Y-56051398D01*
X60040814Y-56139390D01*
X60040827Y-56139397D01*
X60180103Y-56197086D01*
X60186503Y-56199737D01*
X60341153Y-56230499D01*
X60341156Y-56230500D01*
X60341158Y-56230500D01*
X60498844Y-56230500D01*
X60498845Y-56230499D01*
X60653497Y-56199737D01*
X60799179Y-56139394D01*
X60930289Y-56051789D01*
X61041789Y-55940289D01*
X61129394Y-55809179D01*
X61189737Y-55663497D01*
X61220500Y-55508842D01*
X61220500Y-55351158D01*
X61220500Y-55351155D01*
X61220499Y-55351153D01*
X61202530Y-55260817D01*
X61189737Y-55196503D01*
X61188896Y-55194473D01*
X61129397Y-55050827D01*
X61129390Y-55050814D01*
X61041789Y-54919711D01*
X61041786Y-54919707D01*
X60930292Y-54808213D01*
X60930288Y-54808210D01*
X60799185Y-54720609D01*
X60799172Y-54720602D01*
X60653501Y-54660264D01*
X60653489Y-54660261D01*
X60498845Y-54629500D01*
X60498842Y-54629500D01*
X60341158Y-54629500D01*
X60341155Y-54629500D01*
X60186510Y-54660261D01*
X60186498Y-54660264D01*
X60040827Y-54720602D01*
X60040814Y-54720609D01*
X59909125Y-54808602D01*
X59842447Y-54829480D01*
X59840234Y-54829500D01*
X43214627Y-54829500D01*
X43214611Y-54829499D01*
X43207015Y-54829499D01*
X43048900Y-54829499D01*
X42972536Y-54849961D01*
X42896171Y-54870423D01*
X42896166Y-54870426D01*
X42759247Y-54949475D01*
X42759239Y-54949481D01*
X40070879Y-57637841D01*
X40070865Y-57637855D01*
X40069286Y-57639435D01*
X40069284Y-57639437D01*
X39957480Y-57751241D01*
X39951498Y-57761603D01*
X39878423Y-57888172D01*
X39837499Y-58040900D01*
X39837499Y-58040902D01*
X39837499Y-58209003D01*
X39837500Y-58209016D01*
X39837500Y-83539746D01*
X39817815Y-83606785D01*
X39765011Y-83652540D01*
X39695853Y-83662484D01*
X39632297Y-83633459D01*
X39625819Y-83627427D01*
X39345819Y-83347427D01*
X39312334Y-83286104D01*
X39309500Y-83259746D01*
X39309500Y-46238097D01*
X39329185Y-46171058D01*
X39381989Y-46125303D01*
X39451147Y-46115359D01*
X39514703Y-46144384D01*
G37*
%TD.AperFunction*%
%TA.AperFunction,Conductor*%
G36*
X70318591Y-42995715D02*
G01*
X70374524Y-43037587D01*
X70398941Y-43103051D01*
X70399257Y-43111897D01*
X70399257Y-53750089D01*
X70379572Y-53817128D01*
X70362938Y-53837770D01*
X68724511Y-55476196D01*
X68663188Y-55509681D01*
X68593496Y-55504697D01*
X68567939Y-55491617D01*
X68454185Y-55415609D01*
X68454172Y-55415602D01*
X68308501Y-55355264D01*
X68308491Y-55355261D01*
X68153151Y-55324362D01*
X68136396Y-55315597D01*
X68117917Y-55311578D01*
X68092878Y-55292833D01*
X68091241Y-55291977D01*
X68089663Y-55290427D01*
X68078626Y-55279390D01*
X68044261Y-55245025D01*
X68044258Y-55245023D01*
X67887590Y-55088355D01*
X67887588Y-55088352D01*
X67611819Y-54812583D01*
X67578334Y-54751260D01*
X67575500Y-54724902D01*
X67575500Y-46817265D01*
X67595185Y-46750226D01*
X67596398Y-46748374D01*
X67684390Y-46616685D01*
X67684390Y-46616684D01*
X67684394Y-46616679D01*
X67744737Y-46470997D01*
X67775500Y-46316342D01*
X67775500Y-46158658D01*
X67775500Y-46158655D01*
X67775499Y-46158653D01*
X67744738Y-46004010D01*
X67744737Y-46004003D01*
X67697386Y-45889686D01*
X67684397Y-45858327D01*
X67684390Y-45858314D01*
X67608382Y-45744560D01*
X67587504Y-45677882D01*
X67605989Y-45610502D01*
X67623799Y-45587992D01*
X70187576Y-43024216D01*
X70248899Y-42990731D01*
X70318591Y-42995715D01*
G37*
%TD.AperFunction*%
%TA.AperFunction,Conductor*%
G36*
X69853099Y-41447585D02*
G01*
X69898854Y-41500389D01*
X69908798Y-41569547D01*
X69879773Y-41633103D01*
X69873741Y-41639580D01*
X67634347Y-43878974D01*
X65406286Y-46107035D01*
X65294481Y-46218839D01*
X65294477Y-46218844D01*
X65274624Y-46253233D01*
X65274623Y-46253235D01*
X65215423Y-46355772D01*
X65174499Y-46508500D01*
X65174499Y-46508502D01*
X65174499Y-46676603D01*
X65174500Y-46676616D01*
X65174500Y-52365500D01*
X65154815Y-52432539D01*
X65102011Y-52478294D01*
X65050500Y-52489500D01*
X47610097Y-52489500D01*
X47543058Y-52469815D01*
X47522416Y-52453181D01*
X40244574Y-45175339D01*
X40211089Y-45114016D01*
X40210638Y-45111849D01*
X40179738Y-44956510D01*
X40179737Y-44956503D01*
X40171876Y-44937525D01*
X40119397Y-44810827D01*
X40119390Y-44810814D01*
X40031789Y-44679711D01*
X40031786Y-44679707D01*
X39971935Y-44619856D01*
X39938450Y-44558533D01*
X39943434Y-44488841D01*
X39956512Y-44463287D01*
X40019394Y-44369179D01*
X40079737Y-44223497D01*
X40106429Y-44089309D01*
X40138814Y-44027398D01*
X40199529Y-43992824D01*
X40228046Y-43989500D01*
X52951003Y-43989500D01*
X53018042Y-44009185D01*
X53038684Y-44025819D01*
X58105425Y-49092560D01*
X58138910Y-49153883D01*
X58139361Y-49156049D01*
X58170261Y-49311391D01*
X58170264Y-49311401D01*
X58230602Y-49457072D01*
X58230609Y-49457085D01*
X58318210Y-49588188D01*
X58318213Y-49588192D01*
X58429707Y-49699686D01*
X58429711Y-49699689D01*
X58560814Y-49787290D01*
X58560827Y-49787297D01*
X58706498Y-49847635D01*
X58706503Y-49847637D01*
X58861153Y-49878399D01*
X58861156Y-49878400D01*
X58861158Y-49878400D01*
X59018844Y-49878400D01*
X59018845Y-49878399D01*
X59173497Y-49847637D01*
X59319179Y-49787294D01*
X59450289Y-49699689D01*
X59561789Y-49588189D01*
X59649394Y-49457079D01*
X59709737Y-49311397D01*
X59740500Y-49156742D01*
X59740500Y-48999058D01*
X59740500Y-48999055D01*
X59740499Y-48999053D01*
X59725641Y-48924359D01*
X59709737Y-48844403D01*
X59666155Y-48739185D01*
X59649397Y-48698727D01*
X59649390Y-48698714D01*
X59561789Y-48567611D01*
X59561786Y-48567607D01*
X59450292Y-48456113D01*
X59450288Y-48456110D01*
X59319185Y-48368509D01*
X59319172Y-48368502D01*
X59173501Y-48308164D01*
X59173491Y-48308161D01*
X59018151Y-48277262D01*
X58956241Y-48244877D01*
X58954662Y-48243326D01*
X53738690Y-43027355D01*
X53731621Y-43020286D01*
X53731620Y-43020284D01*
X53642514Y-42931178D01*
X53620596Y-42891036D01*
X53609032Y-42869858D01*
X53614016Y-42800166D01*
X53629546Y-42779421D01*
X53655888Y-42744232D01*
X53706622Y-42725310D01*
X53721352Y-42719816D01*
X53730198Y-42719500D01*
X55491003Y-42719500D01*
X55558042Y-42739185D01*
X55578684Y-42755819D01*
X58105425Y-45282560D01*
X58138910Y-45343883D01*
X58139361Y-45346049D01*
X58170261Y-45501391D01*
X58170264Y-45501401D01*
X58230602Y-45647072D01*
X58230609Y-45647085D01*
X58318210Y-45778188D01*
X58318213Y-45778192D01*
X58429707Y-45889686D01*
X58429711Y-45889689D01*
X58560814Y-45977290D01*
X58560827Y-45977297D01*
X58706498Y-46037635D01*
X58706503Y-46037637D01*
X58861153Y-46068399D01*
X58861156Y-46068400D01*
X58861158Y-46068400D01*
X59018844Y-46068400D01*
X59018845Y-46068399D01*
X59173497Y-46037637D01*
X59319179Y-45977294D01*
X59450289Y-45889689D01*
X59561789Y-45778189D01*
X59649394Y-45647079D01*
X59709737Y-45501397D01*
X59740500Y-45346742D01*
X59740500Y-45189058D01*
X59740500Y-45189055D01*
X59740499Y-45189053D01*
X59729591Y-45134215D01*
X59709737Y-45034403D01*
X59669609Y-44937525D01*
X59649397Y-44888727D01*
X59649390Y-44888714D01*
X59561789Y-44757611D01*
X59561786Y-44757607D01*
X59450292Y-44646113D01*
X59450288Y-44646110D01*
X59319185Y-44558509D01*
X59319172Y-44558502D01*
X59173501Y-44498164D01*
X59173491Y-44498161D01*
X59018149Y-44467261D01*
X58956238Y-44434876D01*
X58954660Y-44433325D01*
X56278690Y-41757355D01*
X56271621Y-41750286D01*
X56271620Y-41750284D01*
X56160914Y-41639578D01*
X56127432Y-41578258D01*
X56132416Y-41508566D01*
X56174288Y-41452633D01*
X56239752Y-41428216D01*
X56248598Y-41427900D01*
X69786060Y-41427900D01*
X69853099Y-41447585D01*
G37*
%TD.AperFunction*%
%TA.AperFunction,Conductor*%
G36*
X78373447Y-42530401D02*
G01*
X78421001Y-42530401D01*
X78488040Y-42550086D01*
X78533795Y-42602890D01*
X78543739Y-42672048D01*
X78514714Y-42735604D01*
X78508682Y-42742082D01*
X76004746Y-45246017D01*
X76004740Y-45246025D01*
X75955122Y-45331968D01*
X75955122Y-45331969D01*
X75925688Y-45382950D01*
X75884764Y-45535678D01*
X75884764Y-45535680D01*
X75884764Y-45703781D01*
X75884765Y-45703794D01*
X75884765Y-47419420D01*
X75865080Y-47486459D01*
X75812276Y-47532214D01*
X75743118Y-47542158D01*
X75736576Y-47541038D01*
X75728843Y-47539500D01*
X75728842Y-47539500D01*
X75571158Y-47539500D01*
X75571155Y-47539500D01*
X75416510Y-47570261D01*
X75416498Y-47570264D01*
X75270827Y-47630602D01*
X75270814Y-47630609D01*
X75139125Y-47718602D01*
X75121078Y-47724252D01*
X75105169Y-47734477D01*
X75074207Y-47738928D01*
X75072447Y-47739480D01*
X75070234Y-47739500D01*
X75029766Y-47739500D01*
X74962727Y-47719815D01*
X74960875Y-47718602D01*
X74829185Y-47630609D01*
X74829172Y-47630602D01*
X74683501Y-47570264D01*
X74683489Y-47570261D01*
X74528845Y-47539500D01*
X74528842Y-47539500D01*
X74507295Y-47539500D01*
X74440256Y-47519815D01*
X74394501Y-47467011D01*
X74392734Y-47462953D01*
X74349395Y-47358323D01*
X74349390Y-47358314D01*
X74261789Y-47227211D01*
X74261786Y-47227207D01*
X74150292Y-47115713D01*
X74150288Y-47115710D01*
X74019185Y-47028109D01*
X74019172Y-47028102D01*
X73873501Y-46967764D01*
X73873489Y-46967761D01*
X73718845Y-46937000D01*
X73718842Y-46937000D01*
X73561158Y-46937000D01*
X73561155Y-46937000D01*
X73406510Y-46967761D01*
X73406498Y-46967764D01*
X73260827Y-47028102D01*
X73260814Y-47028109D01*
X73129711Y-47115710D01*
X73129707Y-47115713D01*
X73018213Y-47227207D01*
X73018210Y-47227211D01*
X72930609Y-47358314D01*
X72930602Y-47358327D01*
X72870264Y-47503998D01*
X72870261Y-47504010D01*
X72839500Y-47658653D01*
X72839500Y-47816346D01*
X72870261Y-47970989D01*
X72870263Y-47970997D01*
X72909427Y-48065547D01*
X72916896Y-48135017D01*
X72885621Y-48197496D01*
X72825532Y-48233148D01*
X72794866Y-48237000D01*
X72437266Y-48237000D01*
X72370227Y-48217315D01*
X72368375Y-48216102D01*
X72236685Y-48128109D01*
X72236672Y-48128102D01*
X72091001Y-48067764D01*
X72090989Y-48067761D01*
X71936345Y-48037000D01*
X71936342Y-48037000D01*
X71778658Y-48037000D01*
X71748447Y-48043009D01*
X71678855Y-48036780D01*
X71623678Y-47993917D01*
X71600435Y-47928027D01*
X71600257Y-47921391D01*
X71600257Y-42654400D01*
X71619942Y-42587361D01*
X71672746Y-42541606D01*
X71724257Y-42530400D01*
X78373431Y-42530400D01*
X78373447Y-42530401D01*
G37*
%TD.AperFunction*%
%TA.AperFunction,Conductor*%
G36*
X91282539Y-19630185D02*
G01*
X91328294Y-19682989D01*
X91339500Y-19734500D01*
X91339500Y-40519122D01*
X91336761Y-40545038D01*
X91297085Y-40730680D01*
X91292667Y-40746282D01*
X91219018Y-40953549D01*
X91212601Y-40968442D01*
X91112531Y-41164332D01*
X91104226Y-41178259D01*
X90979448Y-41359419D01*
X90969396Y-41372143D01*
X90822052Y-41535465D01*
X90810426Y-41546769D01*
X90643028Y-41689468D01*
X90630026Y-41699158D01*
X90445433Y-41818796D01*
X90431276Y-41826708D01*
X90341415Y-41869472D01*
X90292768Y-41881417D01*
X90114387Y-41888092D01*
X90114381Y-41888092D01*
X89882451Y-41932874D01*
X89882447Y-41932875D01*
X89660063Y-42012563D01*
X89452463Y-42125281D01*
X89264512Y-42268391D01*
X89100629Y-42438525D01*
X88964652Y-42631701D01*
X88916897Y-42728089D01*
X88869497Y-42779421D01*
X88801869Y-42796977D01*
X88736896Y-42776141D01*
X88680000Y-42738124D01*
X88679991Y-42738119D01*
X88507105Y-42666508D01*
X88507097Y-42666506D01*
X88323570Y-42630000D01*
X88030000Y-42630000D01*
X88030000Y-43280000D01*
X87530000Y-43280000D01*
X87530000Y-42630000D01*
X87236430Y-42630000D01*
X87052902Y-42666506D01*
X87052894Y-42666508D01*
X86880008Y-42738119D01*
X86879999Y-42738124D01*
X86724410Y-42842086D01*
X86724406Y-42842089D01*
X86592089Y-42974406D01*
X86592086Y-42974410D01*
X86488124Y-43129999D01*
X86488119Y-43130008D01*
X86416507Y-43302896D01*
X86416506Y-43302899D01*
X86411115Y-43329999D01*
X86411116Y-43330000D01*
X87213012Y-43330000D01*
X87195795Y-43339940D01*
X87139940Y-43395795D01*
X87100444Y-43464204D01*
X87080000Y-43540504D01*
X87080000Y-43619496D01*
X87100444Y-43695796D01*
X87139940Y-43764205D01*
X87195795Y-43820060D01*
X87213012Y-43830000D01*
X86411116Y-43830000D01*
X86416506Y-43857100D01*
X86416507Y-43857103D01*
X86488119Y-44029991D01*
X86488124Y-44030000D01*
X86592086Y-44185589D01*
X86592089Y-44185593D01*
X86724406Y-44317910D01*
X86724410Y-44317913D01*
X86879999Y-44421875D01*
X86880008Y-44421880D01*
X87052894Y-44493491D01*
X87052902Y-44493493D01*
X87236428Y-44529999D01*
X87236431Y-44530000D01*
X87530000Y-44530000D01*
X87530000Y-43880000D01*
X88030000Y-43880000D01*
X88030000Y-44530000D01*
X88323569Y-44530000D01*
X88323571Y-44529999D01*
X88507097Y-44493493D01*
X88507105Y-44493491D01*
X88580960Y-44462900D01*
X88650430Y-44455431D01*
X88712909Y-44486706D01*
X88748561Y-44546795D01*
X88752413Y-44577459D01*
X88752514Y-51222578D01*
X88732830Y-51289618D01*
X88680027Y-51335374D01*
X88610869Y-51345318D01*
X88581062Y-51337141D01*
X88507109Y-51306509D01*
X88507097Y-51306506D01*
X88323570Y-51270000D01*
X88030000Y-51270000D01*
X88030000Y-51920000D01*
X87530000Y-51920000D01*
X87530000Y-51270000D01*
X87236430Y-51270000D01*
X87052902Y-51306506D01*
X87052894Y-51306508D01*
X86880008Y-51378119D01*
X86879999Y-51378124D01*
X86724410Y-51482086D01*
X86724406Y-51482089D01*
X86592089Y-51614406D01*
X86592086Y-51614410D01*
X86488124Y-51769999D01*
X86488119Y-51770008D01*
X86416507Y-51942896D01*
X86416506Y-51942899D01*
X86411115Y-51969999D01*
X86411116Y-51970000D01*
X87213012Y-51970000D01*
X87195795Y-51979940D01*
X87139940Y-52035795D01*
X87100444Y-52104204D01*
X87080000Y-52180504D01*
X87080000Y-52259496D01*
X87100444Y-52335796D01*
X87139940Y-52404205D01*
X87195795Y-52460060D01*
X87213012Y-52470000D01*
X86411116Y-52470000D01*
X86416506Y-52497100D01*
X86416507Y-52497103D01*
X86488119Y-52669991D01*
X86488124Y-52670000D01*
X86592086Y-52825589D01*
X86592089Y-52825593D01*
X86724406Y-52957910D01*
X86724410Y-52957913D01*
X86879999Y-53061875D01*
X86880008Y-53061880D01*
X87052894Y-53133491D01*
X87052902Y-53133493D01*
X87236428Y-53169999D01*
X87236431Y-53170000D01*
X87530000Y-53170000D01*
X87530000Y-52520000D01*
X88030000Y-52520000D01*
X88030000Y-53170000D01*
X88323569Y-53170000D01*
X88323571Y-53169999D01*
X88507097Y-53133493D01*
X88507105Y-53133491D01*
X88679991Y-53061880D01*
X88680001Y-53061874D01*
X88744410Y-53018837D01*
X88811087Y-52997958D01*
X88878467Y-53016442D01*
X88924410Y-53066884D01*
X88964814Y-53148428D01*
X88964816Y-53148430D01*
X89100785Y-53341584D01*
X89100787Y-53341585D01*
X89100790Y-53341589D01*
X89264676Y-53511715D01*
X89452624Y-53654812D01*
X89660223Y-53767522D01*
X89660229Y-53767524D01*
X89660231Y-53767525D01*
X89751602Y-53800263D01*
X89882602Y-53847200D01*
X90114543Y-53891976D01*
X90293138Y-53898651D01*
X90302173Y-53900868D01*
X90308060Y-53900115D01*
X90341765Y-53910583D01*
X90431083Y-53953064D01*
X90445231Y-53960967D01*
X90629896Y-54080595D01*
X90642897Y-54090282D01*
X90810360Y-54232985D01*
X90821990Y-54244289D01*
X90969386Y-54407618D01*
X90979442Y-54420345D01*
X91104263Y-54601523D01*
X91112572Y-54615452D01*
X91212677Y-54811371D01*
X91219097Y-54826267D01*
X91292774Y-55033579D01*
X91297194Y-55049185D01*
X91336888Y-55234899D01*
X91339627Y-55260817D01*
X91339501Y-113725500D01*
X91319816Y-113792540D01*
X91267012Y-113838294D01*
X91215501Y-113849500D01*
X31464108Y-113849500D01*
X31336812Y-113883608D01*
X31222686Y-113949500D01*
X31222683Y-113949502D01*
X31129502Y-114042683D01*
X31129500Y-114042686D01*
X31063608Y-114156812D01*
X31036471Y-114258093D01*
X31000106Y-114317754D01*
X30937259Y-114348283D01*
X30916696Y-114350000D01*
X24217674Y-114350000D01*
X17980500Y-114169394D01*
X17980500Y-54491153D01*
X30539500Y-54491153D01*
X30539500Y-54648846D01*
X30570261Y-54803489D01*
X30570264Y-54803501D01*
X30630602Y-54949172D01*
X30630609Y-54949185D01*
X30718210Y-55080288D01*
X30718213Y-55080292D01*
X30829707Y-55191786D01*
X30829711Y-55191789D01*
X30960814Y-55279390D01*
X30960827Y-55279397D01*
X31048223Y-55315597D01*
X31106503Y-55339737D01*
X31261153Y-55370499D01*
X31261156Y-55370500D01*
X31261158Y-55370500D01*
X31418844Y-55370500D01*
X31418845Y-55370499D01*
X31573497Y-55339737D01*
X31719179Y-55279394D01*
X31850289Y-55191789D01*
X31961789Y-55080289D01*
X32049394Y-54949179D01*
X32109737Y-54803497D01*
X32140500Y-54648842D01*
X32140500Y-54491158D01*
X32140500Y-54491155D01*
X32140499Y-54491153D01*
X32109738Y-54336510D01*
X32109737Y-54336503D01*
X32071541Y-54244289D01*
X32049397Y-54190827D01*
X32049390Y-54190814D01*
X31961789Y-54059711D01*
X31961786Y-54059707D01*
X31850292Y-53948213D01*
X31850288Y-53948210D01*
X31719185Y-53860609D01*
X31719172Y-53860602D01*
X31573501Y-53800264D01*
X31573489Y-53800261D01*
X31418845Y-53769500D01*
X31418842Y-53769500D01*
X31261158Y-53769500D01*
X31261155Y-53769500D01*
X31106510Y-53800261D01*
X31106498Y-53800264D01*
X30960827Y-53860602D01*
X30960814Y-53860609D01*
X30829711Y-53948210D01*
X30829707Y-53948213D01*
X30718213Y-54059707D01*
X30718210Y-54059711D01*
X30630609Y-54190814D01*
X30630602Y-54190827D01*
X30570264Y-54336498D01*
X30570261Y-54336510D01*
X30539500Y-54491153D01*
X17980500Y-54491153D01*
X17980500Y-41427900D01*
X26190000Y-41427900D01*
X38743559Y-41427900D01*
X38810598Y-41447585D01*
X38856353Y-41500389D01*
X38866297Y-41569547D01*
X38837272Y-41633103D01*
X38831240Y-41639581D01*
X37827481Y-42643339D01*
X37827477Y-42643344D01*
X37811135Y-42671652D01*
X37807137Y-42678577D01*
X37748423Y-42780272D01*
X37707499Y-42933000D01*
X37707499Y-42933002D01*
X37707499Y-43101103D01*
X37707500Y-43101116D01*
X37707500Y-53312152D01*
X37687815Y-53379191D01*
X37635011Y-53424946D01*
X37607692Y-53433769D01*
X37474508Y-53460261D01*
X37474498Y-53460264D01*
X37328827Y-53520602D01*
X37328814Y-53520609D01*
X37197711Y-53608210D01*
X37197707Y-53608213D01*
X37086213Y-53719707D01*
X37086210Y-53719711D01*
X36998609Y-53850814D01*
X36998602Y-53850827D01*
X36938264Y-53996498D01*
X36938261Y-53996510D01*
X36907500Y-54151153D01*
X36907500Y-54308846D01*
X36938261Y-54463489D01*
X36938264Y-54463501D01*
X36998602Y-54609172D01*
X36998609Y-54609185D01*
X37086602Y-54740874D01*
X37107480Y-54807551D01*
X37107500Y-54809765D01*
X37107500Y-83606373D01*
X37107499Y-83606391D01*
X37107499Y-83772097D01*
X37107498Y-83772097D01*
X37148424Y-83924830D01*
X37167417Y-83957726D01*
X37167418Y-83957729D01*
X37227475Y-84061752D01*
X37227481Y-84061760D01*
X37346349Y-84180628D01*
X37346355Y-84180633D01*
X64367096Y-111201374D01*
X64367106Y-111201385D01*
X64371436Y-111205715D01*
X64371437Y-111205716D01*
X64483241Y-111317520D01*
X64570052Y-111367639D01*
X64570054Y-111367641D01*
X64608108Y-111389611D01*
X64620172Y-111396577D01*
X64772900Y-111437500D01*
X79640746Y-111437500D01*
X79640762Y-111437501D01*
X79648358Y-111437501D01*
X79806469Y-111437501D01*
X79806472Y-111437501D01*
X79959200Y-111396577D01*
X80009319Y-111367639D01*
X80096131Y-111317520D01*
X80207935Y-111205716D01*
X80207935Y-111205714D01*
X80218143Y-111195507D01*
X80218145Y-111195504D01*
X81074713Y-110338936D01*
X81074716Y-110338935D01*
X81185870Y-110227781D01*
X81247193Y-110194296D01*
X81284531Y-110196967D01*
X81316884Y-110199281D01*
X81361231Y-110227782D01*
X81487698Y-110354249D01*
X81638662Y-110463931D01*
X81804926Y-110548646D01*
X81804928Y-110548647D01*
X81982391Y-110606308D01*
X81982392Y-110606308D01*
X81982395Y-110606309D01*
X82166699Y-110635500D01*
X82166700Y-110635500D01*
X82353300Y-110635500D01*
X82353301Y-110635500D01*
X82537605Y-110606309D01*
X82537608Y-110606308D01*
X82537609Y-110606308D01*
X82715071Y-110548647D01*
X82715071Y-110548646D01*
X82715074Y-110548646D01*
X82881338Y-110463931D01*
X83032302Y-110354249D01*
X83164249Y-110222302D01*
X83273931Y-110071338D01*
X83358646Y-109905074D01*
X83373069Y-109860685D01*
X83412506Y-109803010D01*
X83476865Y-109775811D01*
X83545711Y-109787725D01*
X83597187Y-109834969D01*
X83615000Y-109899003D01*
X83615000Y-110182844D01*
X83621401Y-110242372D01*
X83621403Y-110242379D01*
X83671645Y-110377086D01*
X83671649Y-110377093D01*
X83757809Y-110492187D01*
X83757812Y-110492190D01*
X83872906Y-110578350D01*
X83872913Y-110578354D01*
X84007620Y-110628596D01*
X84007627Y-110628598D01*
X84067155Y-110634999D01*
X84067172Y-110635000D01*
X84550000Y-110635000D01*
X84550000Y-109894560D01*
X84603147Y-109925245D01*
X84732857Y-109960000D01*
X84867143Y-109960000D01*
X84996853Y-109925245D01*
X85050000Y-109894560D01*
X85050000Y-110635000D01*
X85532828Y-110635000D01*
X85532844Y-110634999D01*
X85592372Y-110628598D01*
X85592379Y-110628596D01*
X85727086Y-110578354D01*
X85727093Y-110578350D01*
X85842187Y-110492190D01*
X85842190Y-110492187D01*
X85928350Y-110377093D01*
X85928354Y-110377086D01*
X85978596Y-110242379D01*
X85978598Y-110242372D01*
X85984999Y-110182844D01*
X85985000Y-110182827D01*
X85985000Y-109700000D01*
X85244560Y-109700000D01*
X85275245Y-109646853D01*
X85310000Y-109517143D01*
X85310000Y-109382857D01*
X85275245Y-109253147D01*
X85244560Y-109200000D01*
X85985000Y-109200000D01*
X85985000Y-108717172D01*
X85984999Y-108717155D01*
X85978598Y-108657627D01*
X85978596Y-108657620D01*
X85928354Y-108522913D01*
X85928350Y-108522906D01*
X85842190Y-108407812D01*
X85842187Y-108407809D01*
X85727093Y-108321649D01*
X85727086Y-108321645D01*
X85592379Y-108271403D01*
X85592372Y-108271401D01*
X85532844Y-108265000D01*
X85050000Y-108265000D01*
X85050000Y-109005439D01*
X84996853Y-108974755D01*
X84867143Y-108940000D01*
X84732857Y-108940000D01*
X84603147Y-108974755D01*
X84550000Y-109005439D01*
X84550000Y-108265000D01*
X84067155Y-108265000D01*
X84007627Y-108271401D01*
X84007620Y-108271403D01*
X83872913Y-108321645D01*
X83872906Y-108321649D01*
X83757812Y-108407809D01*
X83757809Y-108407812D01*
X83671649Y-108522906D01*
X83671645Y-108522913D01*
X83621403Y-108657620D01*
X83621401Y-108657627D01*
X83615000Y-108717155D01*
X83615000Y-109000996D01*
X83595315Y-109068035D01*
X83542511Y-109113790D01*
X83473353Y-109123734D01*
X83409797Y-109094709D01*
X83373069Y-109039314D01*
X83358647Y-108994928D01*
X83358645Y-108994925D01*
X83273930Y-108828661D01*
X83251933Y-108798385D01*
X83164249Y-108677698D01*
X83032302Y-108545751D01*
X82881338Y-108436069D01*
X82715074Y-108351354D01*
X82715071Y-108351352D01*
X82537608Y-108293691D01*
X82396872Y-108271401D01*
X82353301Y-108264500D01*
X82166699Y-108264500D01*
X82105264Y-108274230D01*
X81982393Y-108293691D01*
X81982390Y-108293691D01*
X81804928Y-108351352D01*
X81804925Y-108351354D01*
X81638658Y-108436071D01*
X81503385Y-108534353D01*
X81437579Y-108557833D01*
X81369525Y-108542008D01*
X81320830Y-108491902D01*
X81306500Y-108434035D01*
X81306500Y-98734096D01*
X81326185Y-98667057D01*
X81342814Y-98646420D01*
X87553321Y-92435913D01*
X87614642Y-92402430D01*
X87684334Y-92407414D01*
X87740267Y-92449286D01*
X87764684Y-92514750D01*
X87765000Y-92523596D01*
X87765000Y-92694279D01*
X87797626Y-92900272D01*
X87862075Y-93098627D01*
X87956759Y-93284451D01*
X87992627Y-93333818D01*
X87992627Y-93333819D01*
X88566212Y-92760233D01*
X88577482Y-92802292D01*
X88649890Y-92927708D01*
X88752292Y-93030110D01*
X88877708Y-93102518D01*
X88919765Y-93113787D01*
X88346179Y-93687371D01*
X88346180Y-93687372D01*
X88395543Y-93723236D01*
X88395561Y-93723247D01*
X88446561Y-93749233D01*
X88497358Y-93797207D01*
X88514153Y-93865028D01*
X88491616Y-93931163D01*
X88446563Y-93970202D01*
X88395288Y-93996328D01*
X88226493Y-94118966D01*
X88078966Y-94266493D01*
X87956330Y-94435285D01*
X87861612Y-94621179D01*
X87797137Y-94819610D01*
X87764500Y-95025675D01*
X87764500Y-95234324D01*
X87797137Y-95440389D01*
X87861612Y-95638820D01*
X87956330Y-95824714D01*
X88078965Y-95993505D01*
X88226495Y-96141035D01*
X88395286Y-96263670D01*
X88483116Y-96308421D01*
X88581179Y-96358387D01*
X88581181Y-96358387D01*
X88581184Y-96358389D01*
X88687545Y-96392948D01*
X88779610Y-96422862D01*
X88985676Y-96455500D01*
X88985681Y-96455500D01*
X89194324Y-96455500D01*
X89400389Y-96422862D01*
X89598816Y-96358389D01*
X89784714Y-96263670D01*
X89953505Y-96141035D01*
X90101035Y-95993505D01*
X90223670Y-95824714D01*
X90318389Y-95638816D01*
X90382862Y-95440389D01*
X90415500Y-95234324D01*
X90415500Y-95025675D01*
X90382862Y-94819610D01*
X90318387Y-94621179D01*
X90223669Y-94435285D01*
X90101035Y-94266495D01*
X89953505Y-94118965D01*
X89784714Y-93996330D01*
X89784710Y-93996328D01*
X89733437Y-93970203D01*
X89682641Y-93922228D01*
X89665846Y-93854407D01*
X89688384Y-93788272D01*
X89733438Y-93749233D01*
X89784448Y-93723242D01*
X89784449Y-93723242D01*
X89833818Y-93687372D01*
X89833818Y-93687371D01*
X89260234Y-93113787D01*
X89302292Y-93102518D01*
X89427708Y-93030110D01*
X89530110Y-92927708D01*
X89602518Y-92802292D01*
X89613787Y-92760234D01*
X90187371Y-93333818D01*
X90187372Y-93333818D01*
X90223240Y-93284451D01*
X90317924Y-93098627D01*
X90382373Y-92900272D01*
X90415000Y-92694279D01*
X90415000Y-92485720D01*
X90382373Y-92279727D01*
X90317924Y-92081372D01*
X90223244Y-91895556D01*
X90223236Y-91895543D01*
X90187372Y-91846180D01*
X90187371Y-91846179D01*
X89613787Y-92419764D01*
X89602518Y-92377708D01*
X89530110Y-92252292D01*
X89427708Y-92149890D01*
X89302292Y-92077482D01*
X89260233Y-92066212D01*
X89833819Y-91492627D01*
X89784451Y-91456759D01*
X89733437Y-91430766D01*
X89682641Y-91382791D01*
X89665846Y-91314970D01*
X89688384Y-91248835D01*
X89733438Y-91209796D01*
X89784712Y-91183671D01*
X89784711Y-91183671D01*
X89784714Y-91183670D01*
X89953505Y-91061035D01*
X90101035Y-90913505D01*
X90223670Y-90744714D01*
X90318389Y-90558816D01*
X90382862Y-90360389D01*
X90415500Y-90154324D01*
X90415500Y-89945675D01*
X90382862Y-89739610D01*
X90352948Y-89647545D01*
X90318389Y-89541184D01*
X90318387Y-89541181D01*
X90318387Y-89541179D01*
X90223669Y-89355285D01*
X90101035Y-89186495D01*
X89953505Y-89038965D01*
X89897241Y-88998086D01*
X89784712Y-88916328D01*
X89733990Y-88890485D01*
X89683194Y-88842511D01*
X89666398Y-88774690D01*
X89688935Y-88708555D01*
X89733990Y-88669515D01*
X89784712Y-88643671D01*
X89784711Y-88643671D01*
X89784714Y-88643670D01*
X89953505Y-88521035D01*
X90101035Y-88373505D01*
X90223670Y-88204714D01*
X90318389Y-88018816D01*
X90382862Y-87820389D01*
X90409472Y-87652381D01*
X90415500Y-87614324D01*
X90415500Y-87405675D01*
X90382862Y-87199610D01*
X90318387Y-87001179D01*
X90223669Y-86815285D01*
X90101035Y-86646495D01*
X89953505Y-86498965D01*
X89897241Y-86458086D01*
X89784712Y-86376328D01*
X89733990Y-86350485D01*
X89683194Y-86302511D01*
X89666398Y-86234690D01*
X89688935Y-86168555D01*
X89733990Y-86129515D01*
X89784712Y-86103671D01*
X89784711Y-86103671D01*
X89784714Y-86103670D01*
X89953505Y-85981035D01*
X90101035Y-85833505D01*
X90223670Y-85664714D01*
X90318389Y-85478816D01*
X90382862Y-85280389D01*
X90415500Y-85074324D01*
X90415500Y-84865675D01*
X90382862Y-84659610D01*
X90327882Y-84490400D01*
X90318389Y-84461184D01*
X90318387Y-84461181D01*
X90318387Y-84461179D01*
X90223669Y-84275285D01*
X90161825Y-84190165D01*
X90101035Y-84106495D01*
X89953505Y-83958965D01*
X89784714Y-83836330D01*
X89598820Y-83741612D01*
X89400389Y-83677137D01*
X89194324Y-83644500D01*
X89194319Y-83644500D01*
X88985681Y-83644500D01*
X88985676Y-83644500D01*
X88779610Y-83677137D01*
X88581179Y-83741612D01*
X88395285Y-83836330D01*
X88226493Y-83958966D01*
X88078966Y-84106493D01*
X87956330Y-84275285D01*
X87861612Y-84461179D01*
X87797137Y-84659610D01*
X87764500Y-84865675D01*
X87764500Y-85074324D01*
X87797138Y-85280390D01*
X87806331Y-85308686D01*
X87808324Y-85378527D01*
X87776080Y-85434682D01*
X76811286Y-96399478D01*
X76699481Y-96511282D01*
X76699479Y-96511285D01*
X76649361Y-96598094D01*
X76649359Y-96598096D01*
X76620425Y-96648209D01*
X76620424Y-96648210D01*
X76620423Y-96648215D01*
X76579499Y-96800943D01*
X76579499Y-96800945D01*
X76579499Y-96969046D01*
X76579500Y-96969059D01*
X76579500Y-108357748D01*
X76559815Y-108424787D01*
X76528386Y-108458065D01*
X76407698Y-108545751D01*
X76407696Y-108545753D01*
X76407695Y-108545753D01*
X76275753Y-108677695D01*
X76275748Y-108677701D01*
X76188067Y-108798385D01*
X76132737Y-108841051D01*
X76087749Y-108849500D01*
X64899254Y-108849500D01*
X64832215Y-108829815D01*
X64811573Y-108813181D01*
X41938803Y-85940411D01*
X41905318Y-85879088D01*
X41910302Y-85809396D01*
X41923382Y-85783839D01*
X41999390Y-85670085D01*
X41999390Y-85670084D01*
X41999394Y-85670079D01*
X42059737Y-85524397D01*
X42090500Y-85369742D01*
X42090500Y-85212058D01*
X42090500Y-85212055D01*
X42090499Y-85212053D01*
X42059737Y-85057403D01*
X42059735Y-85057398D01*
X41999397Y-84911727D01*
X41999390Y-84911714D01*
X41911789Y-84780611D01*
X41911786Y-84780607D01*
X41800292Y-84669113D01*
X41800288Y-84669110D01*
X41669185Y-84581509D01*
X41669172Y-84581502D01*
X41523501Y-84521164D01*
X41523491Y-84521161D01*
X41368149Y-84490261D01*
X41306238Y-84457876D01*
X41304660Y-84456325D01*
X41074819Y-84226484D01*
X41041334Y-84165161D01*
X41038500Y-84138803D01*
X41038500Y-73643413D01*
X50739500Y-73643413D01*
X50739500Y-73832386D01*
X50769059Y-74019018D01*
X50827454Y-74198736D01*
X50913241Y-74367101D01*
X50925816Y-74384408D01*
X50949298Y-74450214D01*
X50949500Y-74457296D01*
X50949500Y-86852266D01*
X50929815Y-86919305D01*
X50925821Y-86925147D01*
X50923242Y-86928696D01*
X50837454Y-87097063D01*
X50779059Y-87276781D01*
X50749500Y-87463413D01*
X50749500Y-87652386D01*
X50779059Y-87839018D01*
X50837454Y-88018736D01*
X50923240Y-88187099D01*
X51034310Y-88339973D01*
X51167927Y-88473590D01*
X51320801Y-88584660D01*
X51400347Y-88625190D01*
X51489163Y-88670445D01*
X51489165Y-88670445D01*
X51489168Y-88670447D01*
X51585497Y-88701746D01*
X51668881Y-88728840D01*
X51855514Y-88758400D01*
X51855519Y-88758400D01*
X52044486Y-88758400D01*
X52231118Y-88728840D01*
X52293548Y-88708555D01*
X52410832Y-88670447D01*
X52579199Y-88584660D01*
X52732073Y-88473590D01*
X52865690Y-88339973D01*
X52976760Y-88187099D01*
X53062547Y-88018732D01*
X53120940Y-87839018D01*
X53123891Y-87820389D01*
X53150500Y-87652386D01*
X53150500Y-87463413D01*
X53120940Y-87276781D01*
X53062545Y-87097063D01*
X52976757Y-86928696D01*
X52974179Y-86925147D01*
X52950702Y-86859339D01*
X52950500Y-86852266D01*
X52950500Y-74428604D01*
X52966371Y-74372369D01*
X52964548Y-74371440D01*
X53052545Y-74198736D01*
X53052545Y-74198735D01*
X53052547Y-74198732D01*
X53110940Y-74019018D01*
X53140500Y-73832386D01*
X53140500Y-73643413D01*
X53110940Y-73456781D01*
X53052545Y-73277063D01*
X52966759Y-73108700D01*
X52855690Y-72955827D01*
X52722073Y-72822210D01*
X52569199Y-72711140D01*
X52400836Y-72625354D01*
X52221118Y-72566959D01*
X52034486Y-72537400D01*
X52034481Y-72537400D01*
X51845519Y-72537400D01*
X51845514Y-72537400D01*
X51658881Y-72566959D01*
X51479163Y-72625354D01*
X51310800Y-72711140D01*
X51223579Y-72774510D01*
X51157927Y-72822210D01*
X51157925Y-72822212D01*
X51157924Y-72822212D01*
X51024312Y-72955824D01*
X51024312Y-72955825D01*
X51024310Y-72955827D01*
X50976610Y-73021479D01*
X50913240Y-73108700D01*
X50827454Y-73277063D01*
X50769059Y-73456781D01*
X50739500Y-73643413D01*
X41038500Y-73643413D01*
X41038500Y-68711153D01*
X45269500Y-68711153D01*
X45269500Y-68868846D01*
X45300261Y-69023489D01*
X45300264Y-69023501D01*
X45360602Y-69169172D01*
X45360609Y-69169185D01*
X45448210Y-69300288D01*
X45448213Y-69300292D01*
X45559707Y-69411786D01*
X45559711Y-69411789D01*
X45690814Y-69499390D01*
X45690827Y-69499397D01*
X45836498Y-69559735D01*
X45836503Y-69559737D01*
X45991153Y-69590499D01*
X45991156Y-69590500D01*
X45991158Y-69590500D01*
X46148844Y-69590500D01*
X46148845Y-69590499D01*
X46303497Y-69559737D01*
X46449179Y-69499394D01*
X46580289Y-69411789D01*
X46691789Y-69300289D01*
X46779394Y-69169179D01*
X46839737Y-69023497D01*
X46870500Y-68868842D01*
X46870500Y-68711158D01*
X46870500Y-68711155D01*
X46870499Y-68711153D01*
X46839738Y-68556510D01*
X46839737Y-68556503D01*
X46839735Y-68556498D01*
X46779397Y-68410827D01*
X46779390Y-68410814D01*
X46691789Y-68279711D01*
X46691786Y-68279707D01*
X46580292Y-68168213D01*
X46580288Y-68168210D01*
X46449185Y-68080609D01*
X46449172Y-68080602D01*
X46303501Y-68020264D01*
X46303489Y-68020261D01*
X46148845Y-67989500D01*
X46148842Y-67989500D01*
X45991158Y-67989500D01*
X45991155Y-67989500D01*
X45836510Y-68020261D01*
X45836498Y-68020264D01*
X45690827Y-68080602D01*
X45690814Y-68080609D01*
X45559711Y-68168210D01*
X45559707Y-68168213D01*
X45448213Y-68279707D01*
X45448210Y-68279711D01*
X45360609Y-68410814D01*
X45360602Y-68410827D01*
X45300264Y-68556498D01*
X45300261Y-68556510D01*
X45269500Y-68711153D01*
X41038500Y-68711153D01*
X41038500Y-60834940D01*
X41058185Y-60767901D01*
X41110989Y-60722146D01*
X41180147Y-60712202D01*
X41243703Y-60741227D01*
X41250181Y-60747259D01*
X42357196Y-61854274D01*
X42357206Y-61854285D01*
X42361536Y-61858615D01*
X42361537Y-61858616D01*
X42473341Y-61970420D01*
X42473343Y-61970421D01*
X42473347Y-61970424D01*
X42525443Y-62000501D01*
X42610273Y-62049477D01*
X42722076Y-62079434D01*
X42762999Y-62090400D01*
X42763000Y-62090400D01*
X66246104Y-62090400D01*
X66246120Y-62090401D01*
X66253716Y-62090401D01*
X66411827Y-62090401D01*
X66411830Y-62090401D01*
X66564558Y-62049477D01*
X66649388Y-62000500D01*
X66701489Y-61970420D01*
X66813293Y-61858616D01*
X66813293Y-61858614D01*
X66823497Y-61848411D01*
X66823501Y-61848406D01*
X67550754Y-61121153D01*
X76279500Y-61121153D01*
X76279500Y-61278846D01*
X76310261Y-61433489D01*
X76310264Y-61433501D01*
X76370602Y-61579172D01*
X76370609Y-61579185D01*
X76458210Y-61710288D01*
X76458213Y-61710292D01*
X76569707Y-61821786D01*
X76569711Y-61821789D01*
X76700814Y-61909390D01*
X76700827Y-61909397D01*
X76846498Y-61969735D01*
X76846503Y-61969737D01*
X77001153Y-62000499D01*
X77001156Y-62000500D01*
X77001158Y-62000500D01*
X77158844Y-62000500D01*
X77158845Y-62000499D01*
X77313497Y-61969737D01*
X77459179Y-61909394D01*
X77590289Y-61821789D01*
X77701789Y-61710289D01*
X77789394Y-61579179D01*
X77849737Y-61433497D01*
X77880500Y-61278842D01*
X77880500Y-61121158D01*
X77880500Y-61121155D01*
X77880499Y-61121153D01*
X77849738Y-60966510D01*
X77849737Y-60966503D01*
X77817800Y-60889400D01*
X77789397Y-60820827D01*
X77789390Y-60820814D01*
X77701789Y-60689711D01*
X77701786Y-60689707D01*
X77590292Y-60578213D01*
X77590288Y-60578210D01*
X77459185Y-60490609D01*
X77459172Y-60490602D01*
X77313501Y-60430264D01*
X77313489Y-60430261D01*
X77158845Y-60399500D01*
X77158842Y-60399500D01*
X77001158Y-60399500D01*
X77001155Y-60399500D01*
X76846510Y-60430261D01*
X76846498Y-60430264D01*
X76700827Y-60490602D01*
X76700814Y-60490609D01*
X76569711Y-60578210D01*
X76569707Y-60578213D01*
X76458213Y-60689707D01*
X76458210Y-60689711D01*
X76370609Y-60820814D01*
X76370602Y-60820827D01*
X76310264Y-60966498D01*
X76310261Y-60966510D01*
X76279500Y-61121153D01*
X67550754Y-61121153D01*
X72300754Y-56371153D01*
X79209500Y-56371153D01*
X79209500Y-56528846D01*
X79240261Y-56683489D01*
X79240264Y-56683501D01*
X79300602Y-56829172D01*
X79300609Y-56829185D01*
X79388210Y-56960288D01*
X79388213Y-56960292D01*
X79499707Y-57071786D01*
X79499711Y-57071789D01*
X79630814Y-57159390D01*
X79630827Y-57159397D01*
X79776498Y-57219735D01*
X79776503Y-57219737D01*
X79931153Y-57250499D01*
X79931156Y-57250500D01*
X79931158Y-57250500D01*
X80088844Y-57250500D01*
X80088845Y-57250499D01*
X80243497Y-57219737D01*
X80389179Y-57159394D01*
X80520289Y-57071789D01*
X80631789Y-56960289D01*
X80719394Y-56829179D01*
X80779737Y-56683497D01*
X80810500Y-56528842D01*
X80810500Y-56371158D01*
X80810500Y-56371155D01*
X80810499Y-56371153D01*
X80779738Y-56216510D01*
X80779737Y-56216503D01*
X80772792Y-56199735D01*
X80719397Y-56070827D01*
X80719390Y-56070814D01*
X80631789Y-55939711D01*
X80631786Y-55939707D01*
X80520292Y-55828213D01*
X80520288Y-55828210D01*
X80389185Y-55740609D01*
X80389172Y-55740602D01*
X80243501Y-55680264D01*
X80243489Y-55680261D01*
X80088845Y-55649500D01*
X80088842Y-55649500D01*
X79931158Y-55649500D01*
X79931155Y-55649500D01*
X79776510Y-55680261D01*
X79776498Y-55680264D01*
X79630827Y-55740602D01*
X79630814Y-55740609D01*
X79499711Y-55828210D01*
X79499707Y-55828213D01*
X79388213Y-55939707D01*
X79388210Y-55939711D01*
X79300609Y-56070814D01*
X79300602Y-56070827D01*
X79240264Y-56216498D01*
X79240261Y-56216510D01*
X79209500Y-56371153D01*
X72300754Y-56371153D01*
X76650754Y-52021153D01*
X78709500Y-52021153D01*
X78709500Y-52178846D01*
X78740261Y-52333489D01*
X78740264Y-52333501D01*
X78800602Y-52479172D01*
X78800609Y-52479185D01*
X78888210Y-52610288D01*
X78888213Y-52610292D01*
X78999707Y-52721786D01*
X78999711Y-52721789D01*
X79130814Y-52809390D01*
X79130827Y-52809397D01*
X79255272Y-52860943D01*
X79276503Y-52869737D01*
X79397214Y-52893748D01*
X79431153Y-52900499D01*
X79431156Y-52900500D01*
X79431158Y-52900500D01*
X79588844Y-52900500D01*
X79588845Y-52900499D01*
X79743497Y-52869737D01*
X79889179Y-52809394D01*
X80020289Y-52721789D01*
X80131789Y-52610289D01*
X80219394Y-52479179D01*
X80279737Y-52333497D01*
X80310500Y-52178842D01*
X80310500Y-52177837D01*
X80312259Y-52171085D01*
X80328446Y-52144105D01*
X80343023Y-52116239D01*
X80344520Y-52114714D01*
X80489234Y-51970000D01*
X82079647Y-51970000D01*
X82883012Y-51970000D01*
X82865795Y-51979940D01*
X82809940Y-52035795D01*
X82770444Y-52104204D01*
X82750000Y-52180504D01*
X82750000Y-52259496D01*
X82770444Y-52335796D01*
X82809940Y-52404205D01*
X82865795Y-52460060D01*
X82883012Y-52470000D01*
X82079647Y-52470000D01*
X82089387Y-52518974D01*
X82089390Y-52518983D01*
X82166652Y-52705513D01*
X82166659Y-52705526D01*
X82278829Y-52873399D01*
X82278832Y-52873403D01*
X82421596Y-53016167D01*
X82421600Y-53016170D01*
X82589473Y-53128340D01*
X82589486Y-53128347D01*
X82776016Y-53205609D01*
X82776025Y-53205612D01*
X82974041Y-53244999D01*
X82974045Y-53245000D01*
X83350000Y-53245000D01*
X83350000Y-52520000D01*
X83850000Y-52520000D01*
X83850000Y-53245000D01*
X84225955Y-53245000D01*
X84225958Y-53244999D01*
X84423974Y-53205612D01*
X84423983Y-53205609D01*
X84610513Y-53128347D01*
X84610526Y-53128340D01*
X84778399Y-53016170D01*
X84778403Y-53016167D01*
X84921167Y-52873403D01*
X84921170Y-52873399D01*
X85033340Y-52705526D01*
X85033347Y-52705513D01*
X85110609Y-52518983D01*
X85110612Y-52518974D01*
X85120353Y-52470000D01*
X84316988Y-52470000D01*
X84334205Y-52460060D01*
X84390060Y-52404205D01*
X84429556Y-52335796D01*
X84450000Y-52259496D01*
X84450000Y-52180504D01*
X84429556Y-52104204D01*
X84390060Y-52035795D01*
X84334205Y-51979940D01*
X84316988Y-51970000D01*
X85120354Y-51970000D01*
X85120353Y-51969999D01*
X85110612Y-51921025D01*
X85110609Y-51921016D01*
X85033347Y-51734486D01*
X85033340Y-51734473D01*
X84921170Y-51566600D01*
X84921167Y-51566596D01*
X84778403Y-51423832D01*
X84778399Y-51423829D01*
X84605455Y-51308271D01*
X84606193Y-51307166D01*
X84561210Y-51262978D01*
X84545750Y-51194840D01*
X84562120Y-51140584D01*
X84636281Y-51012135D01*
X84675500Y-50865766D01*
X84675500Y-50714234D01*
X84636281Y-50567865D01*
X84560515Y-50436635D01*
X84453365Y-50329485D01*
X84387750Y-50291602D01*
X84322136Y-50253719D01*
X84213490Y-50224608D01*
X84175766Y-50214500D01*
X84024234Y-50214500D01*
X83877863Y-50253719D01*
X83746635Y-50329485D01*
X83746632Y-50329487D01*
X83639487Y-50436632D01*
X83639485Y-50436635D01*
X83563719Y-50567863D01*
X83527933Y-50701422D01*
X83524500Y-50714234D01*
X83524500Y-50865766D01*
X83532026Y-50893855D01*
X83563720Y-51012137D01*
X83566831Y-51019649D01*
X83564706Y-51020528D01*
X83578380Y-51076910D01*
X83555523Y-51142935D01*
X83500598Y-51186121D01*
X83454521Y-51195000D01*
X82974041Y-51195000D01*
X82776025Y-51234387D01*
X82776016Y-51234390D01*
X82589486Y-51311652D01*
X82589473Y-51311659D01*
X82421600Y-51423829D01*
X82421596Y-51423832D01*
X82278832Y-51566596D01*
X82278829Y-51566600D01*
X82166659Y-51734473D01*
X82166652Y-51734486D01*
X82089390Y-51921016D01*
X82089387Y-51921025D01*
X82079647Y-51970000D01*
X80489234Y-51970000D01*
X81199287Y-51259946D01*
X81260608Y-51226463D01*
X81330299Y-51231447D01*
X81334393Y-51233058D01*
X81458362Y-51284407D01*
X81578334Y-51308271D01*
X81613012Y-51315169D01*
X81613015Y-51315170D01*
X81613017Y-51315170D01*
X81770703Y-51315170D01*
X81770704Y-51315169D01*
X81925356Y-51284407D01*
X82071038Y-51224064D01*
X82202148Y-51136459D01*
X82313648Y-51024959D01*
X82401253Y-50893849D01*
X82461596Y-50748167D01*
X82492359Y-50593512D01*
X82492359Y-50435828D01*
X82492359Y-50435825D01*
X82492358Y-50435823D01*
X82470852Y-50327707D01*
X82461596Y-50281173D01*
X82461594Y-50281168D01*
X82401256Y-50135497D01*
X82401249Y-50135484D01*
X82313648Y-50004381D01*
X82313645Y-50004377D01*
X82202151Y-49892883D01*
X82202147Y-49892880D01*
X82071044Y-49805279D01*
X82071031Y-49805272D01*
X81925360Y-49744934D01*
X81925348Y-49744931D01*
X81770704Y-49714170D01*
X81770701Y-49714170D01*
X81613017Y-49714170D01*
X81613014Y-49714170D01*
X81458369Y-49744931D01*
X81458357Y-49744934D01*
X81312686Y-49805272D01*
X81312673Y-49805279D01*
X81180984Y-49893272D01*
X81114306Y-49914150D01*
X81112093Y-49914170D01*
X81016273Y-49914170D01*
X80863543Y-49955093D01*
X80835261Y-49971423D01*
X80835260Y-49971423D01*
X80726617Y-50034147D01*
X80726612Y-50034151D01*
X79495339Y-51265425D01*
X79434016Y-51298910D01*
X79431850Y-51299361D01*
X79276508Y-51330261D01*
X79276498Y-51330264D01*
X79130827Y-51390602D01*
X79130814Y-51390609D01*
X78999711Y-51478210D01*
X78999707Y-51478213D01*
X78888213Y-51589707D01*
X78888210Y-51589711D01*
X78800609Y-51720814D01*
X78800602Y-51720827D01*
X78740264Y-51866498D01*
X78740261Y-51866510D01*
X78709500Y-52021153D01*
X76650754Y-52021153D01*
X77645771Y-51026136D01*
X77645776Y-51026132D01*
X77655979Y-51015928D01*
X77655981Y-51015928D01*
X77767785Y-50904124D01*
X77839300Y-50780256D01*
X77846842Y-50767193D01*
X77887765Y-50614465D01*
X77887765Y-50456351D01*
X77887765Y-48281153D01*
X78369500Y-48281153D01*
X78369500Y-48438846D01*
X78400261Y-48593489D01*
X78400264Y-48593501D01*
X78460602Y-48739172D01*
X78460609Y-48739185D01*
X78548210Y-48870288D01*
X78548213Y-48870292D01*
X78659707Y-48981786D01*
X78659711Y-48981789D01*
X78790814Y-49069390D01*
X78790827Y-49069397D01*
X78886948Y-49109211D01*
X78936503Y-49129737D01*
X79091153Y-49160499D01*
X79091156Y-49160500D01*
X79091158Y-49160500D01*
X79248844Y-49160500D01*
X79248845Y-49160499D01*
X79403497Y-49129737D01*
X79549179Y-49069394D01*
X79579111Y-49049394D01*
X79665909Y-48991398D01*
X79732587Y-48970520D01*
X79734800Y-48970500D01*
X81474262Y-48970500D01*
X81474266Y-48970501D01*
X81632380Y-48970501D01*
X81685871Y-48956167D01*
X81698143Y-48955379D01*
X81700360Y-48955878D01*
X81706090Y-48955124D01*
X81847543Y-48955124D01*
X81847544Y-48955123D01*
X82002196Y-48924361D01*
X82147878Y-48864018D01*
X82278988Y-48776413D01*
X82390488Y-48664913D01*
X82478093Y-48533803D01*
X82538436Y-48388121D01*
X82569199Y-48233466D01*
X82569199Y-48075782D01*
X82569199Y-48075779D01*
X82569198Y-48075777D01*
X82567604Y-48067763D01*
X82538436Y-47921127D01*
X82495033Y-47816342D01*
X82478096Y-47775451D01*
X82478089Y-47775438D01*
X82390097Y-47643749D01*
X82384446Y-47625702D01*
X82374222Y-47609793D01*
X82369770Y-47578831D01*
X82369219Y-47577071D01*
X82369199Y-47574858D01*
X82369199Y-47406814D01*
X82388884Y-47339775D01*
X82390097Y-47337923D01*
X82446912Y-47252893D01*
X82449394Y-47249179D01*
X82449832Y-47248123D01*
X82509735Y-47103501D01*
X82509737Y-47103497D01*
X82540500Y-46948842D01*
X82540500Y-46791158D01*
X82540500Y-46791155D01*
X82540499Y-46791153D01*
X82515726Y-46666614D01*
X82509737Y-46636503D01*
X82466195Y-46531384D01*
X82458727Y-46461918D01*
X82466194Y-46436487D01*
X82521247Y-46303577D01*
X82552010Y-46148922D01*
X82552010Y-45991238D01*
X82552010Y-45991235D01*
X82552009Y-45991233D01*
X82536868Y-45915116D01*
X82521247Y-45836583D01*
X82475944Y-45727211D01*
X82460907Y-45690907D01*
X82460900Y-45690894D01*
X82373299Y-45559791D01*
X82373296Y-45559787D01*
X82261802Y-45448293D01*
X82261798Y-45448290D01*
X82130695Y-45360689D01*
X82130682Y-45360682D01*
X81985011Y-45300344D01*
X81984999Y-45300341D01*
X81830355Y-45269580D01*
X81830352Y-45269580D01*
X81672668Y-45269580D01*
X81672665Y-45269580D01*
X81518020Y-45300341D01*
X81518008Y-45300344D01*
X81372337Y-45360682D01*
X81372324Y-45360689D01*
X81241221Y-45448290D01*
X81241217Y-45448293D01*
X81129723Y-45559787D01*
X81129720Y-45559791D01*
X81042119Y-45690894D01*
X81042112Y-45690907D01*
X80981774Y-45836578D01*
X80981771Y-45836588D01*
X80966151Y-45915116D01*
X80933766Y-45977027D01*
X80932215Y-45978605D01*
X80270922Y-46639898D01*
X80270916Y-46639904D01*
X80267475Y-46643346D01*
X80267473Y-46643348D01*
X80155669Y-46755152D01*
X80126352Y-46805931D01*
X80076612Y-46892083D01*
X80035688Y-47044811D01*
X80035688Y-47044813D01*
X80035688Y-47047531D01*
X80035039Y-47049740D01*
X80034627Y-47052871D01*
X80034138Y-47052806D01*
X80016003Y-47114570D01*
X80014790Y-47116422D01*
X79926798Y-47248110D01*
X79926791Y-47248123D01*
X79866453Y-47393794D01*
X79866450Y-47393806D01*
X79835689Y-47548449D01*
X79835689Y-47610057D01*
X79816004Y-47677096D01*
X79763200Y-47722851D01*
X79694042Y-47732795D01*
X79642799Y-47713159D01*
X79549190Y-47650612D01*
X79549172Y-47650602D01*
X79403501Y-47590264D01*
X79403489Y-47590261D01*
X79248845Y-47559500D01*
X79248842Y-47559500D01*
X79091158Y-47559500D01*
X79091155Y-47559500D01*
X78936510Y-47590261D01*
X78936498Y-47590264D01*
X78790827Y-47650602D01*
X78790814Y-47650609D01*
X78659711Y-47738210D01*
X78659707Y-47738213D01*
X78548213Y-47849707D01*
X78548210Y-47849711D01*
X78460609Y-47980814D01*
X78460602Y-47980827D01*
X78400264Y-48126498D01*
X78400261Y-48126510D01*
X78369500Y-48281153D01*
X77887765Y-48281153D01*
X77887765Y-47319932D01*
X77907450Y-47252893D01*
X77924084Y-47232251D01*
X79118700Y-46037635D01*
X81868725Y-43287609D01*
X81930046Y-43254126D01*
X81999738Y-43259110D01*
X82052257Y-43296626D01*
X82079647Y-43330000D01*
X82883012Y-43330000D01*
X82865795Y-43339940D01*
X82809940Y-43395795D01*
X82770444Y-43464204D01*
X82750000Y-43540504D01*
X82750000Y-43619496D01*
X82770444Y-43695796D01*
X82809940Y-43764205D01*
X82865795Y-43820060D01*
X82883012Y-43830000D01*
X82079647Y-43830000D01*
X82089387Y-43878974D01*
X82089390Y-43878983D01*
X82166652Y-44065513D01*
X82166659Y-44065526D01*
X82278829Y-44233399D01*
X82278832Y-44233403D01*
X82421596Y-44376167D01*
X82421600Y-44376170D01*
X82589473Y-44488340D01*
X82589486Y-44488347D01*
X82776016Y-44565609D01*
X82776025Y-44565612D01*
X82974041Y-44604999D01*
X82974045Y-44605000D01*
X83350000Y-44605000D01*
X83350000Y-43880000D01*
X83850000Y-43880000D01*
X83850000Y-44447084D01*
X83830315Y-44514123D01*
X83788002Y-44554470D01*
X83780965Y-44558533D01*
X83761985Y-44569491D01*
X83761982Y-44569493D01*
X83659493Y-44671982D01*
X83659488Y-44671988D01*
X83587017Y-44797511D01*
X83583451Y-44810821D01*
X83549500Y-44937525D01*
X83549500Y-45082475D01*
X83587016Y-45222485D01*
X83587017Y-45222488D01*
X83659488Y-45348011D01*
X83659490Y-45348013D01*
X83659491Y-45348015D01*
X83761985Y-45450509D01*
X83761986Y-45450510D01*
X83761988Y-45450511D01*
X83887511Y-45522982D01*
X83887512Y-45522982D01*
X83887515Y-45522984D01*
X84027525Y-45560500D01*
X84027528Y-45560500D01*
X84172472Y-45560500D01*
X84172475Y-45560500D01*
X84312485Y-45522984D01*
X84438015Y-45450509D01*
X84540509Y-45348015D01*
X84612984Y-45222485D01*
X84650500Y-45082475D01*
X84650500Y-44937525D01*
X84612984Y-44797515D01*
X84540509Y-44671985D01*
X84540506Y-44671982D01*
X84539154Y-44669640D01*
X84522681Y-44601740D01*
X84545533Y-44535713D01*
X84599094Y-44493075D01*
X84610523Y-44488341D01*
X84610525Y-44488340D01*
X84778400Y-44376170D01*
X84921167Y-44233403D01*
X84921170Y-44233399D01*
X85033340Y-44065526D01*
X85033347Y-44065513D01*
X85110609Y-43878983D01*
X85110612Y-43878974D01*
X85120353Y-43830000D01*
X84316988Y-43830000D01*
X84334205Y-43820060D01*
X84390060Y-43764205D01*
X84429556Y-43695796D01*
X84450000Y-43619496D01*
X84450000Y-43540504D01*
X84429556Y-43464204D01*
X84390060Y-43395795D01*
X84334205Y-43339940D01*
X84316988Y-43330000D01*
X85120354Y-43330000D01*
X85120353Y-43329999D01*
X85110612Y-43281025D01*
X85110609Y-43281016D01*
X85033347Y-43094486D01*
X85033340Y-43094473D01*
X84921170Y-42926600D01*
X84921167Y-42926596D01*
X84778403Y-42783832D01*
X84778399Y-42783829D01*
X84610526Y-42671659D01*
X84610513Y-42671652D01*
X84423983Y-42594390D01*
X84423974Y-42594387D01*
X84225958Y-42555000D01*
X83850000Y-42555000D01*
X83850000Y-43280000D01*
X83350000Y-43280000D01*
X83350000Y-42555000D01*
X82974041Y-42555000D01*
X82909707Y-42567797D01*
X82840115Y-42561570D01*
X82784938Y-42518706D01*
X82761694Y-42452816D01*
X82777762Y-42384820D01*
X82797831Y-42358503D01*
X87338516Y-37817819D01*
X87399839Y-37784334D01*
X87426197Y-37781500D01*
X88372331Y-37781500D01*
X88372347Y-37781501D01*
X88379943Y-37781501D01*
X88538054Y-37781501D01*
X88538057Y-37781501D01*
X88690785Y-37740577D01*
X88740904Y-37711639D01*
X88827716Y-37661520D01*
X88939520Y-37549716D01*
X88939520Y-37549714D01*
X88949728Y-37539507D01*
X88949731Y-37539503D01*
X88984662Y-37504573D01*
X89045986Y-37471088D01*
X89048151Y-37470638D01*
X89123052Y-37455738D01*
X89203497Y-37439737D01*
X89349179Y-37379394D01*
X89480289Y-37291789D01*
X89591789Y-37180289D01*
X89679394Y-37049179D01*
X89739737Y-36903497D01*
X89770500Y-36748842D01*
X89770500Y-36591158D01*
X89770500Y-36591155D01*
X89770499Y-36591153D01*
X89768380Y-36580500D01*
X89739737Y-36436503D01*
X89730887Y-36415136D01*
X89679397Y-36290827D01*
X89679390Y-36290814D01*
X89591789Y-36159711D01*
X89591786Y-36159707D01*
X89480292Y-36048213D01*
X89480288Y-36048210D01*
X89349185Y-35960609D01*
X89349172Y-35960602D01*
X89203501Y-35900264D01*
X89203489Y-35900261D01*
X89048845Y-35869500D01*
X89048842Y-35869500D01*
X88891158Y-35869500D01*
X88891155Y-35869500D01*
X88736510Y-35900261D01*
X88736498Y-35900264D01*
X88590827Y-35960602D01*
X88590814Y-35960609D01*
X88459711Y-36048210D01*
X88459707Y-36048213D01*
X88348213Y-36159707D01*
X88348210Y-36159711D01*
X88260609Y-36290814D01*
X88260602Y-36290827D01*
X88200264Y-36436498D01*
X88200261Y-36436507D01*
X88195568Y-36460104D01*
X88163182Y-36522014D01*
X88102466Y-36556588D01*
X88032697Y-36552847D01*
X87976025Y-36511980D01*
X87952334Y-36460102D01*
X87937697Y-36386522D01*
X87929737Y-36346503D01*
X87929735Y-36346498D01*
X87869397Y-36200827D01*
X87869390Y-36200814D01*
X87781789Y-36069711D01*
X87781786Y-36069707D01*
X87670292Y-35958213D01*
X87670288Y-35958210D01*
X87539185Y-35870609D01*
X87539172Y-35870602D01*
X87393501Y-35810264D01*
X87393489Y-35810261D01*
X87238845Y-35779500D01*
X87238842Y-35779500D01*
X87081158Y-35779500D01*
X87081155Y-35779500D01*
X86926510Y-35810261D01*
X86926498Y-35810264D01*
X86780827Y-35870602D01*
X86780814Y-35870609D01*
X86649711Y-35958210D01*
X86649707Y-35958213D01*
X86538213Y-36069707D01*
X86538210Y-36069711D01*
X86450609Y-36200814D01*
X86450602Y-36200827D01*
X86390264Y-36346498D01*
X86390260Y-36346511D01*
X86386927Y-36363267D01*
X86354539Y-36425176D01*
X86293822Y-36459748D01*
X86224053Y-36456005D01*
X86167382Y-36415136D01*
X86150752Y-36386528D01*
X86119394Y-36310821D01*
X86119392Y-36310818D01*
X86119390Y-36310814D01*
X86031789Y-36179711D01*
X86031786Y-36179707D01*
X85920292Y-36068213D01*
X85920288Y-36068210D01*
X85789185Y-35980609D01*
X85789172Y-35980602D01*
X85643501Y-35920264D01*
X85643489Y-35920261D01*
X85488845Y-35889500D01*
X85488842Y-35889500D01*
X85331158Y-35889500D01*
X85331155Y-35889500D01*
X85176510Y-35920261D01*
X85176498Y-35920264D01*
X85030827Y-35980602D01*
X85030814Y-35980609D01*
X84899711Y-36068210D01*
X84899707Y-36068213D01*
X84788213Y-36179707D01*
X84788210Y-36179711D01*
X84700609Y-36310814D01*
X84700604Y-36310824D01*
X84641276Y-36454055D01*
X84597435Y-36508458D01*
X84531141Y-36530523D01*
X84463441Y-36513244D01*
X84415831Y-36462106D01*
X84412155Y-36454058D01*
X84384182Y-36386522D01*
X84369397Y-36350826D01*
X84369390Y-36350814D01*
X84281789Y-36219711D01*
X84281786Y-36219707D01*
X84170292Y-36108213D01*
X84170288Y-36108210D01*
X84039185Y-36020609D01*
X84039172Y-36020602D01*
X83893501Y-35960264D01*
X83893489Y-35960261D01*
X83738845Y-35929500D01*
X83738842Y-35929500D01*
X83581158Y-35929500D01*
X83581155Y-35929500D01*
X83426510Y-35960261D01*
X83426498Y-35960264D01*
X83280827Y-36020602D01*
X83280814Y-36020609D01*
X83149711Y-36108210D01*
X83149707Y-36108213D01*
X83038213Y-36219707D01*
X83038210Y-36219711D01*
X82950609Y-36350814D01*
X82950602Y-36350827D01*
X82890264Y-36496498D01*
X82890261Y-36496508D01*
X82859361Y-36651850D01*
X82826976Y-36713761D01*
X82825425Y-36715339D01*
X78247684Y-41293081D01*
X78186361Y-41326566D01*
X78160003Y-41329400D01*
X75579933Y-41329400D01*
X75512894Y-41309715D01*
X75467139Y-41256911D01*
X75457195Y-41187753D01*
X75486220Y-41124197D01*
X75492252Y-41117719D01*
X80830471Y-35779500D01*
X87780520Y-28829452D01*
X87859577Y-28692520D01*
X87900501Y-28539793D01*
X87900501Y-28381678D01*
X87900501Y-28374083D01*
X87900500Y-28374065D01*
X87900500Y-27928397D01*
X87920185Y-27861358D01*
X87949715Y-27831295D01*
X87949003Y-27830428D01*
X87953712Y-27826562D01*
X87953711Y-27826562D01*
X87953718Y-27826558D01*
X88096558Y-27683718D01*
X88123936Y-27642743D01*
X88177546Y-27597940D01*
X88246871Y-27589231D01*
X88309899Y-27619386D01*
X88314718Y-27623954D01*
X89111284Y-28420520D01*
X89215820Y-28480873D01*
X89241495Y-28500573D01*
X89332708Y-28591786D01*
X89332712Y-28591790D01*
X89463814Y-28679390D01*
X89463827Y-28679397D01*
X89609498Y-28739735D01*
X89609503Y-28739737D01*
X89764153Y-28770499D01*
X89764156Y-28770500D01*
X89764158Y-28770500D01*
X89921844Y-28770500D01*
X89921845Y-28770499D01*
X90076497Y-28739737D01*
X90222179Y-28679394D01*
X90353289Y-28591789D01*
X90464789Y-28480289D01*
X90552394Y-28349179D01*
X90612737Y-28203497D01*
X90643500Y-28048842D01*
X90643500Y-27891158D01*
X90643500Y-27891155D01*
X90643499Y-27891153D01*
X90612738Y-27736510D01*
X90612737Y-27736503D01*
X90590873Y-27683718D01*
X90552397Y-27590827D01*
X90552390Y-27590814D01*
X90464789Y-27459711D01*
X90464786Y-27459707D01*
X90353292Y-27348213D01*
X90353288Y-27348210D01*
X90222185Y-27260609D01*
X90222172Y-27260602D01*
X90076501Y-27200264D01*
X90076489Y-27200261D01*
X89921845Y-27169500D01*
X89921842Y-27169500D01*
X89764158Y-27169500D01*
X89764155Y-27169500D01*
X89657822Y-27190651D01*
X89588231Y-27184424D01*
X89545950Y-27156715D01*
X88359880Y-25970645D01*
X88326395Y-25909322D01*
X88326019Y-25867177D01*
X88324903Y-25867068D01*
X88325500Y-25861005D01*
X88325500Y-25658996D01*
X88325499Y-25658992D01*
X88286091Y-25460873D01*
X88259098Y-25395708D01*
X88251630Y-25326241D01*
X88282905Y-25263762D01*
X88342993Y-25228109D01*
X88412819Y-25230602D01*
X88461341Y-25260576D01*
X89006181Y-25805416D01*
X89039666Y-25866739D01*
X89042500Y-25893097D01*
X89042500Y-25898846D01*
X89073261Y-26053489D01*
X89073264Y-26053499D01*
X89133602Y-26199172D01*
X89133609Y-26199185D01*
X89221210Y-26330288D01*
X89221213Y-26330292D01*
X89332707Y-26441786D01*
X89332711Y-26441789D01*
X89463814Y-26529390D01*
X89463827Y-26529397D01*
X89609498Y-26589735D01*
X89609503Y-26589737D01*
X89764153Y-26620499D01*
X89764156Y-26620500D01*
X89764158Y-26620500D01*
X89921844Y-26620500D01*
X89921845Y-26620499D01*
X90076497Y-26589737D01*
X90222179Y-26529394D01*
X90353289Y-26441789D01*
X90464789Y-26330289D01*
X90552394Y-26199179D01*
X90612737Y-26053497D01*
X90643500Y-25898842D01*
X90643500Y-25741158D01*
X90643500Y-25741155D01*
X90643499Y-25741153D01*
X90612738Y-25586510D01*
X90612737Y-25586503D01*
X90560700Y-25460873D01*
X90552397Y-25440827D01*
X90552390Y-25440814D01*
X90464789Y-25309711D01*
X90464786Y-25309707D01*
X90353292Y-25198213D01*
X90353288Y-25198210D01*
X90222185Y-25110609D01*
X90222172Y-25110602D01*
X90076501Y-25050264D01*
X90076491Y-25050261D01*
X89954855Y-25026066D01*
X89892944Y-24993681D01*
X89891366Y-24992130D01*
X89560845Y-24661609D01*
X89527360Y-24600286D01*
X89532344Y-24530594D01*
X89574216Y-24474661D01*
X89639680Y-24450244D01*
X89672715Y-24452310D01*
X89714193Y-24460561D01*
X89764156Y-24470500D01*
X89764158Y-24470500D01*
X89921844Y-24470500D01*
X89921845Y-24470499D01*
X90076497Y-24439737D01*
X90222179Y-24379394D01*
X90353289Y-24291789D01*
X90464789Y-24180289D01*
X90552394Y-24049179D01*
X90612737Y-23903497D01*
X90643500Y-23748842D01*
X90643500Y-23591158D01*
X90643500Y-23591155D01*
X90643499Y-23591153D01*
X90639181Y-23569444D01*
X90612737Y-23436503D01*
X90564877Y-23320958D01*
X90552397Y-23290827D01*
X90552390Y-23290814D01*
X90464789Y-23159711D01*
X90464786Y-23159707D01*
X90353292Y-23048213D01*
X90353288Y-23048210D01*
X90222185Y-22960609D01*
X90222172Y-22960602D01*
X90076501Y-22900264D01*
X90076491Y-22900261D01*
X89921151Y-22869362D01*
X89859241Y-22836977D01*
X89857662Y-22835426D01*
X89761717Y-22739481D01*
X89761716Y-22739480D01*
X89674904Y-22689360D01*
X89674904Y-22689359D01*
X89674899Y-22689357D01*
X89658643Y-22679971D01*
X89610429Y-22629403D01*
X89597208Y-22560796D01*
X89623178Y-22495932D01*
X89658644Y-22465201D01*
X89718716Y-22430520D01*
X89830520Y-22318716D01*
X89830520Y-22318714D01*
X89840728Y-22308507D01*
X89840730Y-22308504D01*
X89866400Y-22282834D01*
X89927722Y-22249350D01*
X89929851Y-22248906D01*
X90076497Y-22219737D01*
X90222179Y-22159394D01*
X90353289Y-22071789D01*
X90464789Y-21960289D01*
X90552394Y-21829179D01*
X90612737Y-21683497D01*
X90643500Y-21528842D01*
X90643500Y-21371158D01*
X90643500Y-21371155D01*
X90643499Y-21371153D01*
X90631653Y-21311602D01*
X90612737Y-21216503D01*
X90612735Y-21216498D01*
X90552397Y-21070827D01*
X90552390Y-21070814D01*
X90464789Y-20939711D01*
X90464786Y-20939707D01*
X90353292Y-20828213D01*
X90353288Y-20828210D01*
X90222185Y-20740609D01*
X90222172Y-20740602D01*
X90076501Y-20680264D01*
X90076489Y-20680261D01*
X89921845Y-20649500D01*
X89921842Y-20649500D01*
X89764158Y-20649500D01*
X89764155Y-20649500D01*
X89609510Y-20680261D01*
X89609498Y-20680264D01*
X89463827Y-20740602D01*
X89463814Y-20740609D01*
X89332711Y-20828210D01*
X89332707Y-20828213D01*
X89221213Y-20939707D01*
X89221210Y-20939711D01*
X89133609Y-21070814D01*
X89133602Y-21070827D01*
X89073264Y-21216498D01*
X89073261Y-21216510D01*
X89066661Y-21249691D01*
X89034276Y-21311602D01*
X88973561Y-21346176D01*
X88945044Y-21349500D01*
X88198397Y-21349500D01*
X88131358Y-21329815D01*
X88101288Y-21300279D01*
X88100422Y-21300990D01*
X88096555Y-21296278D01*
X87953718Y-21153441D01*
X87785762Y-21041217D01*
X87785752Y-21041212D01*
X87599127Y-20963909D01*
X87599119Y-20963907D01*
X87401007Y-20924500D01*
X87401003Y-20924500D01*
X87198997Y-20924500D01*
X87198992Y-20924500D01*
X87000880Y-20963907D01*
X87000868Y-20963910D01*
X86920198Y-20997325D01*
X86850729Y-21004794D01*
X86805342Y-20985036D01*
X86805114Y-20985454D01*
X86800447Y-20982905D01*
X86798432Y-20982028D01*
X86797331Y-20981204D01*
X86797330Y-20981203D01*
X86797328Y-20981202D01*
X86662482Y-20930908D01*
X86662483Y-20930908D01*
X86602883Y-20924501D01*
X86602881Y-20924500D01*
X86602873Y-20924500D01*
X86602864Y-20924500D01*
X85457129Y-20924500D01*
X85457123Y-20924501D01*
X85397516Y-20930908D01*
X85262671Y-20981202D01*
X85262664Y-20981206D01*
X85147455Y-21067452D01*
X85147452Y-21067455D01*
X85061206Y-21182664D01*
X85061202Y-21182671D01*
X85010908Y-21317517D01*
X85004501Y-21377116D01*
X85004500Y-21377132D01*
X85004500Y-22522870D01*
X85004501Y-22522876D01*
X85010908Y-22582483D01*
X85061202Y-22717328D01*
X85061203Y-22717330D01*
X85061204Y-22717331D01*
X85062377Y-22718898D01*
X85063062Y-22720733D01*
X85065454Y-22725114D01*
X85064824Y-22725457D01*
X85086796Y-22784361D01*
X85077674Y-22840662D01*
X85044389Y-22921021D01*
X85044387Y-22921025D01*
X85005000Y-23119041D01*
X85005000Y-23320958D01*
X85044387Y-23518974D01*
X85044390Y-23518983D01*
X85121654Y-23705516D01*
X85175504Y-23786110D01*
X85196381Y-23852788D01*
X85177896Y-23920168D01*
X85175504Y-23923890D01*
X85121654Y-24004483D01*
X85044390Y-24191016D01*
X85044387Y-24191025D01*
X85005000Y-24389041D01*
X85005000Y-24590958D01*
X85044387Y-24788974D01*
X85044390Y-24788983D01*
X85121652Y-24975513D01*
X85121659Y-24975526D01*
X85175203Y-25055659D01*
X85196081Y-25122336D01*
X85177597Y-25189716D01*
X85175204Y-25193439D01*
X85121214Y-25274243D01*
X85043909Y-25460872D01*
X85043907Y-25460880D01*
X85004500Y-25658992D01*
X85004500Y-25861007D01*
X85043907Y-26059119D01*
X85043909Y-26059127D01*
X85121212Y-26245754D01*
X85175204Y-26326558D01*
X85196081Y-26393235D01*
X85177596Y-26460615D01*
X85175204Y-26464337D01*
X85121655Y-26544479D01*
X85121654Y-26544481D01*
X85044390Y-26731016D01*
X85044387Y-26731025D01*
X85005000Y-26929041D01*
X85005000Y-27130958D01*
X85044387Y-27328974D01*
X85044390Y-27328983D01*
X85121652Y-27515513D01*
X85149402Y-27557043D01*
X85655000Y-27051445D01*
X85655000Y-27079370D01*
X85680556Y-27174745D01*
X85729925Y-27260255D01*
X85799745Y-27330075D01*
X85885255Y-27379444D01*
X85980630Y-27405000D01*
X86008552Y-27405000D01*
X85502954Y-27910596D01*
X85502955Y-27910597D01*
X85544475Y-27938341D01*
X85544484Y-27938346D01*
X85731016Y-28015609D01*
X85731025Y-28015612D01*
X85929041Y-28054999D01*
X85929045Y-28055000D01*
X86130955Y-28055000D01*
X86130958Y-28054999D01*
X86328974Y-28015612D01*
X86328983Y-28015609D01*
X86515506Y-27938350D01*
X86517029Y-27937536D01*
X86517920Y-27937350D01*
X86521149Y-27936013D01*
X86521313Y-27936409D01*
X86523989Y-27934091D01*
X86554872Y-27929650D01*
X86585430Y-27923283D01*
X86589176Y-27924717D01*
X86593147Y-27924147D01*
X86621533Y-27937110D01*
X86650678Y-27948273D01*
X86653053Y-27951505D01*
X86656703Y-27953172D01*
X86673576Y-27979428D01*
X86692057Y-28004572D01*
X86692931Y-28009545D01*
X86694477Y-28011950D01*
X86699500Y-28046885D01*
X86699500Y-28160638D01*
X86679815Y-28227677D01*
X86663181Y-28248319D01*
X74401681Y-40509819D01*
X74340358Y-40543304D01*
X74270666Y-40538320D01*
X74214733Y-40496448D01*
X74190316Y-40430984D01*
X74190000Y-40422138D01*
X74190000Y-21871153D01*
X83149500Y-21871153D01*
X83149500Y-22028846D01*
X83180261Y-22183489D01*
X83180264Y-22183501D01*
X83240602Y-22329172D01*
X83240609Y-22329185D01*
X83328210Y-22460288D01*
X83328213Y-22460292D01*
X83439707Y-22571786D01*
X83439711Y-22571789D01*
X83570814Y-22659390D01*
X83570827Y-22659397D01*
X83710687Y-22717328D01*
X83716503Y-22719737D01*
X83871153Y-22750499D01*
X83871156Y-22750500D01*
X83871158Y-22750500D01*
X84028844Y-22750500D01*
X84028845Y-22750499D01*
X84183497Y-22719737D01*
X84329179Y-22659394D01*
X84460289Y-22571789D01*
X84571789Y-22460289D01*
X84659394Y-22329179D01*
X84719737Y-22183497D01*
X84750500Y-22028842D01*
X84750500Y-21871158D01*
X84750500Y-21871155D01*
X84750499Y-21871153D01*
X84719738Y-21716510D01*
X84719737Y-21716503D01*
X84706062Y-21683489D01*
X84659397Y-21570827D01*
X84659390Y-21570814D01*
X84571789Y-21439711D01*
X84571786Y-21439707D01*
X84460292Y-21328213D01*
X84460288Y-21328210D01*
X84329185Y-21240609D01*
X84329172Y-21240602D01*
X84183501Y-21180264D01*
X84183489Y-21180261D01*
X84028845Y-21149500D01*
X84028842Y-21149500D01*
X83871158Y-21149500D01*
X83871155Y-21149500D01*
X83716510Y-21180261D01*
X83716498Y-21180264D01*
X83570827Y-21240602D01*
X83570814Y-21240609D01*
X83439711Y-21328210D01*
X83439707Y-21328213D01*
X83328213Y-21439707D01*
X83328210Y-21439711D01*
X83240609Y-21570814D01*
X83240602Y-21570827D01*
X83180264Y-21716498D01*
X83180261Y-21716510D01*
X83149500Y-21871153D01*
X74190000Y-21871153D01*
X74190000Y-20237900D01*
X26190000Y-20237900D01*
X26190000Y-41427900D01*
X17980500Y-41427900D01*
X17980500Y-19734500D01*
X18000185Y-19667461D01*
X18052989Y-19621706D01*
X18104500Y-19610500D01*
X91215500Y-19610500D01*
X91282539Y-19630185D01*
G37*
%TD.AperFunction*%
%TD*%
M02*
