%TF.GenerationSoftware,KiCad,Pcbnew,9.0.0*%
%TF.CreationDate,2025-10-02T06:46:57+09:00*%
%TF.ProjectId,MistFarm_PCB,4d697374-4661-4726-9d5f-5043422e6b69,rev?*%
%TF.SameCoordinates,Original*%
%TF.FileFunction,Soldermask,Bot*%
%TF.FilePolarity,Negative*%
%FSLAX46Y46*%
G04 Gerber Fmt 4.6, Leading zero omitted, Abs format (unit mm)*
G04 Created by KiCad (PCBNEW 9.0.0) date 2025-10-02 06:46:57*
%MOMM*%
%LPD*%
G01*
G04 APERTURE LIST*
%ADD10C,1.650000*%
%ADD11C,0.650000*%
%ADD12O,2.100000X1.050000*%
%ADD13O,1.800000X0.900000*%
%ADD14C,0.600000*%
G04 APERTURE END LIST*
D10*
%TO.C,J1*%
X28419500Y-122510500D03*
X28419500Y-125050500D03*
X28419500Y-127590500D03*
X28419500Y-130130500D03*
X28419500Y-132670500D03*
%TD*%
%TO.C,J6*%
X70300000Y-110960000D03*
X72840000Y-110960000D03*
X75380000Y-110960000D03*
X77920000Y-110960000D03*
X80460000Y-110960000D03*
X83000000Y-110960000D03*
X85540000Y-110960000D03*
X88080000Y-110960000D03*
%TD*%
%TO.C,J3*%
X88780000Y-39380000D03*
X88780000Y-36840000D03*
X88780000Y-34300000D03*
X88780000Y-31760000D03*
X88780000Y-29220000D03*
X88780000Y-26680000D03*
X88780000Y-24140000D03*
X88780000Y-21600000D03*
%TD*%
%TO.C,J2*%
X88780000Y-76790000D03*
X88780000Y-74250000D03*
X88780000Y-71710000D03*
X88780000Y-69170000D03*
X88780000Y-66630000D03*
X88780000Y-64090000D03*
X88780000Y-61550000D03*
X88780000Y-59010000D03*
%TD*%
D11*
%TO.C,J4*%
X84090000Y-50760000D03*
X84090000Y-44980000D03*
D12*
X83590000Y-52190000D03*
X83590000Y-43550000D03*
D13*
X87770000Y-52190000D03*
X87770000Y-43550000D03*
%TD*%
D14*
%TO.C,U1*%
X47290000Y-49747900D03*
X47290000Y-51147900D03*
X47990000Y-49047900D03*
X47990000Y-50447900D03*
X47990000Y-51847900D03*
X48690000Y-49747900D03*
X48690000Y-51147900D03*
X49390000Y-49047900D03*
X49390000Y-50447900D03*
X49390000Y-51847900D03*
X50090000Y-49747900D03*
X50090000Y-51147900D03*
%TD*%
D10*
%TO.C,J5*%
X89090000Y-95130000D03*
X89090000Y-92590000D03*
X89090000Y-90050000D03*
X89090000Y-87510000D03*
X89090000Y-84970000D03*
%TD*%
M02*
