M48
; DRILL file {KiCad 9.0.0} date 2025-08-26T11:38:57+0900
; FORMAT={-:-/ absolute / metric / decimal}
; #@! TF.CreationDate,2025-08-26T11:38:57+09:00
; #@! TF.GenerationSoftware,Kicad,Pcbnew,9.0.0
; #@! TF.FileFunction,Plated,1,4,PTH
FMAT,2
METRIC
; #@! TA.AperFunction,Plated,PTH,ViaDrill
T1C0.300
; #@! TA.AperFunction,Plated,PTH,ComponentDrill
T2C0.300
; #@! TA.AperFunction,Plated,PTH,ComponentDrill
T3C0.600
; #@! TA.AperFunction,Plated,PTH,ComponentDrill
T4C0.750
; #@! TA.AperFunction,Plated,PTH,ViaDrill
T5C1.000
; #@! TA.AperFunction,Plated,PTH,ComponentDrill
T6C1.020
; #@! TA.AperFunction,Plated,PTH,ComponentDrill
T7C1.100
%
G90
G05
T1
X26.26Y-42.33
X29.24Y-56.47
X29.29Y-58.27
X31.34Y-54.57
X37.708Y-54.23
X39.31Y-43.99
X39.41Y-45.19
X39.45Y-42.72
X41.29Y-85.291
X41.44Y-57.968
X41.44Y-59.238
X44.04Y-64.59
X45.745Y-60.488
X46.07Y-68.79
X54.45Y-46.22
X54.635Y-60.488
X58.94Y-45.268
X58.94Y-49.078
X60.42Y-55.43
X61.13Y-42.75
X65.12Y-48.92
X65.56Y-53.9
X65.667Y-58.383
X65.775Y-53.09
X66.375Y-50.97
X66.975Y-46.237
X67.065Y-55.964
X68.075Y-56.125
X69.181Y-50.977
X71.858Y-48.837
X72.85Y-59.39
X72.86Y-43.13
X72.86Y-49.52
X72.93Y-61.27
X73.03Y-63.13
X73.08Y-57.43
X73.1Y-55.86
X73.64Y-47.737
X74.04Y-51.709
X74.45Y-48.34
X75.65Y-48.34
X75.884Y-49.954
X77.08Y-61.2
X77.82Y-59.55
X77.85Y-60.8
X79.17Y-48.36
X79.45Y-47.58
X79.51Y-52.1
X80.01Y-56.45
X80.636Y-47.627
X81.5Y-44.72
X81.692Y-50.515
X81.74Y-46.87
X81.752Y-46.07
X81.769Y-48.155
X81.794Y-51.308
X83.66Y-36.73
X83.95Y-21.95
X84.01Y-26.97
X84.06Y-24.51
X85.41Y-36.69
X87.16Y-36.58
X88.97Y-36.67
X89.843Y-21.45
X89.843Y-23.67
X89.843Y-25.82
X89.843Y-27.97
X112.8Y-26.58
X116.14Y-32.94
X117.13Y-31.18
T2
X47.29Y-49.748
X47.29Y-51.148
X47.99Y-49.048
X47.99Y-50.448
X47.99Y-51.848
X48.69Y-49.748
X48.69Y-51.148
X49.39Y-49.048
X49.39Y-50.448
X49.39Y-51.848
X50.09Y-49.748
X50.09Y-51.148
T4
X86.03Y-21.95
X86.03Y-23.22
X86.03Y-24.49
X86.03Y-25.76
X86.03Y-27.03
X87.3Y-21.95
X87.3Y-23.22
X87.3Y-24.49
X87.3Y-25.76
X87.3Y-27.03
T5
X51.94Y-73.738
X51.95Y-87.558
T6
X77.18Y-109.45
X79.72Y-109.45
X82.26Y-109.45
X84.8Y-109.45
T7
X89.09Y-84.97
X89.09Y-87.51
X89.09Y-90.05
X89.09Y-92.59
X89.09Y-95.13
X107.68Y-23.97
X110.22Y-23.97
X112.76Y-23.97
X115.3Y-23.97
X117.84Y-23.97
T3
G00X83.05Y-43.58
M15
G01X84.15Y-43.58
M16
G05
G00X83.05Y-52.22
M15
G01X84.15Y-52.22
M16
G05
G00X87.38Y-43.58
M15
G01X88.18Y-43.58
M16
G05
G00X87.38Y-52.22
M15
G01X88.18Y-52.22
M16
G05
M30
