M48
; DRILL file {KiCad 9.0.0} date 2025-10-02T06:47:04+0900
; FORMAT={-:-/ absolute / metric / decimal}
; #@! TF.CreationDate,2025-10-02T06:47:04+09:00
; #@! TF.GenerationSoftware,Kicad,Pcbnew,9.0.0
; #@! TF.FileFunction,Plated,1,2,PTH
FMAT,2
METRIC
; #@! TA.AperFunction,Plated,PTH,ViaDrill
T1C0.300
; #@! TA.AperFunction,Plated,PTH,ComponentDrill
T2C0.300
; #@! TA.AperFunction,Plated,PTH,ComponentDrill
T3C0.600
; #@! TA.AperFunction,Plated,PTH,ViaDrill
T4C1.000
; #@! TA.AperFunction,Plated,PTH,ComponentDrill
T5C1.100
%
G90
G05
T1
X19.47Y-130.91
X21.229Y-131.9
X25.829Y-127.57
X26.26Y-42.33
X29.24Y-56.47
X29.29Y-58.27
X31.41Y-51.6
X31.41Y-54.6
X36.86Y-42.73
X37.708Y-54.23
X39.41Y-45.19
X39.51Y-50.09
X39.78Y-66.86
X39.838Y-64.2
X40.12Y-53.4
X40.19Y-56.74
X41.038Y-62.57
X41.29Y-85.291
X41.44Y-57.968
X41.44Y-59.238
X41.5Y-63.28
X42.71Y-58.638
X42.892Y-67.252
X43.53Y-58.638
X43.83Y-67.94
X44.04Y-64.59
X44.16Y-62.98
X45.29Y-53.53
X45.31Y-63.88
X45.74Y-54.828
X45.745Y-60.488
X46.52Y-58.35
X46.83Y-55.42
X46.86Y-65.02
X50.8Y-66.47
X54.635Y-60.488
X55.78Y-66.62
X55.905Y-58.638
X56.195Y-44.475
X57.18Y-50.48
X58.94Y-45.268
X58.94Y-49.078
X60.58Y-54.16
X60.886Y-59.838
X63.21Y-62.97
X63.53Y-44.79
X63.683Y-62.325
X63.85Y-74.45
X64.09Y-61.35
X64.58Y-48.98
X64.69Y-53.09
X64.842Y-44.549
X64.87Y-45.37
X65.749Y-45.38
X65.996Y-58.278
X66.23Y-59.043
X66.368Y-45.886
X66.97Y-47.9
X66.97Y-57.63
X67.57Y-53.07
X67.86Y-50.11
X67.87Y-47.39
X68.15Y-56.14
X69.203Y-55.503
X69.28Y-53.83
X69.485Y-94.52
X70.13Y-44.55
X71.681Y-52.581
X72.02Y-103.96
X72.52Y-43.96
X72.56Y-52.55
X72.73Y-55.54
X72.89Y-103.29
X74.26Y-105.31
X74.29Y-43.38
X74.29Y-79.35
X74.3Y-49.02
X74.33Y-46.86
X74.55Y-104.56
X75.05Y-78.75
X75.257Y-50.293
X75.43Y-91.1
X75.43Y-104.96
X75.51Y-48.39
X75.56Y-47.39
X76.555Y-103.305
X77.115Y-38.645
X77.17Y-31.81
X77.31Y-64.17
X77.79Y-29.22
X77.79Y-32.45
X78.37Y-53.27
X78.39Y-26.68
X78.58Y-104.81
X78.59Y-49.92
X78.6Y-102.15
X79.02Y-24.15
X79.4Y-47.79
X80.38Y-50.6
X80.4Y-56.16
X80.56Y-46.52
X81.1Y-52.72
X81.49Y-44.12
X81.7Y-50.49
X81.9Y-29.29
X82.72Y-58.49
X82.83Y-57.03
X82.89Y-89.51
X83.985Y-102.34
X83.985Y-104.82
X84.18Y-58.37
X84.37Y-32.25
X84.38Y-83.13
X84.83Y-86.7
X85.95Y-78.24
X86.42Y-29.25
T2
X47.29Y-49.748
X47.29Y-51.148
X47.99Y-49.048
X47.99Y-50.448
X47.99Y-51.848
X48.69Y-49.748
X48.69Y-51.148
X49.39Y-49.048
X49.39Y-50.448
X49.39Y-51.848
X50.09Y-49.748
X50.09Y-51.148
T4
X51.94Y-73.738
X51.95Y-87.558
X72.91Y-90.64
X74.17Y-98.72
T5
X28.419Y-122.51
X28.419Y-125.05
X28.419Y-127.59
X28.419Y-130.13
X28.419Y-132.671
X70.3Y-110.96
X72.84Y-110.96
X75.38Y-110.96
X77.92Y-110.96
X80.46Y-110.96
X83.0Y-110.96
X85.54Y-110.96
X88.08Y-110.96
X88.78Y-21.6
X88.78Y-24.14
X88.78Y-26.68
X88.78Y-29.22
X88.78Y-31.76
X88.78Y-34.3
X88.78Y-36.84
X88.78Y-39.38
X88.78Y-59.01
X88.78Y-61.55
X88.78Y-64.09
X88.78Y-66.63
X88.78Y-69.17
X88.78Y-71.71
X88.78Y-74.25
X88.78Y-76.79
X89.09Y-84.97
X89.09Y-87.51
X89.09Y-90.05
X89.09Y-92.59
X89.09Y-95.13
T3
G00X83.04Y-43.55
M15
G01X84.14Y-43.55
M16
G05
G00X83.04Y-52.19
M15
G01X84.14Y-52.19
M16
G05
G00X87.37Y-43.55
M15
G01X88.17Y-43.55
M16
G05
G00X87.37Y-52.19
M15
G01X88.17Y-52.19
M16
G05
M30
