%TF.GenerationSoftware,KiCad,Pcbnew,9.0.0*%
%TF.CreationDate,2025-09-02T15:48:47+09:00*%
%TF.ProjectId,MistFarm_PCB,4d697374-4661-4726-9d5f-5043422e6b69,rev?*%
%TF.SameCoordinates,Original*%
%TF.FileFunction,Legend,Top*%
%TF.FilePolarity,Positive*%
%FSLAX46Y46*%
G04 Gerber Fmt 4.6, Leading zero omitted, Abs format (unit mm)*
G04 Created by KiCad (PCBNEW 9.0.0) date 2025-09-02 15:48:47*
%MOMM*%
%LPD*%
G01*
G04 APERTURE LIST*
%ADD10C,0.100000*%
%ADD11C,0.150000*%
%ADD12C,0.098425*%
%ADD13C,0.254000*%
%ADD14C,0.120000*%
%ADD15C,0.152400*%
%ADD16C,0.127000*%
%ADD17C,0.200000*%
G04 APERTURE END LIST*
D10*
X25313200Y-127297618D02*
X25275104Y-127411904D01*
X25275104Y-127411904D02*
X25275104Y-127602380D01*
X25275104Y-127602380D02*
X25313200Y-127678571D01*
X25313200Y-127678571D02*
X25351295Y-127716666D01*
X25351295Y-127716666D02*
X25427485Y-127754761D01*
X25427485Y-127754761D02*
X25503676Y-127754761D01*
X25503676Y-127754761D02*
X25579866Y-127716666D01*
X25579866Y-127716666D02*
X25617961Y-127678571D01*
X25617961Y-127678571D02*
X25656057Y-127602380D01*
X25656057Y-127602380D02*
X25694152Y-127449999D01*
X25694152Y-127449999D02*
X25732247Y-127373809D01*
X25732247Y-127373809D02*
X25770342Y-127335714D01*
X25770342Y-127335714D02*
X25846533Y-127297618D01*
X25846533Y-127297618D02*
X25922723Y-127297618D01*
X25922723Y-127297618D02*
X25998914Y-127335714D01*
X25998914Y-127335714D02*
X26037009Y-127373809D01*
X26037009Y-127373809D02*
X26075104Y-127449999D01*
X26075104Y-127449999D02*
X26075104Y-127640476D01*
X26075104Y-127640476D02*
X26037009Y-127754761D01*
X25275104Y-128097619D02*
X26075104Y-128097619D01*
X26075104Y-128097619D02*
X26075104Y-128288095D01*
X26075104Y-128288095D02*
X26037009Y-128402381D01*
X26037009Y-128402381D02*
X25960819Y-128478571D01*
X25960819Y-128478571D02*
X25884628Y-128516666D01*
X25884628Y-128516666D02*
X25732247Y-128554762D01*
X25732247Y-128554762D02*
X25617961Y-128554762D01*
X25617961Y-128554762D02*
X25465580Y-128516666D01*
X25465580Y-128516666D02*
X25389390Y-128478571D01*
X25389390Y-128478571D02*
X25313200Y-128402381D01*
X25313200Y-128402381D02*
X25275104Y-128288095D01*
X25275104Y-128288095D02*
X25275104Y-128097619D01*
X25275104Y-129278571D02*
X25275104Y-128897619D01*
X25275104Y-128897619D02*
X26075104Y-128897619D01*
X84634895Y-93620476D02*
X84634895Y-93163333D01*
X85434895Y-93391905D02*
X84634895Y-93391905D01*
X85396800Y-92591904D02*
X85434895Y-92668095D01*
X85434895Y-92668095D02*
X85434895Y-92820476D01*
X85434895Y-92820476D02*
X85396800Y-92896666D01*
X85396800Y-92896666D02*
X85320609Y-92934762D01*
X85320609Y-92934762D02*
X85015847Y-92934762D01*
X85015847Y-92934762D02*
X84939657Y-92896666D01*
X84939657Y-92896666D02*
X84901561Y-92820476D01*
X84901561Y-92820476D02*
X84901561Y-92668095D01*
X84901561Y-92668095D02*
X84939657Y-92591904D01*
X84939657Y-92591904D02*
X85015847Y-92553809D01*
X85015847Y-92553809D02*
X85092038Y-92553809D01*
X85092038Y-92553809D02*
X85168228Y-92934762D01*
X85434895Y-92210952D02*
X84901561Y-92210952D01*
X84977752Y-92210952D02*
X84939657Y-92172857D01*
X84939657Y-92172857D02*
X84901561Y-92096667D01*
X84901561Y-92096667D02*
X84901561Y-91982381D01*
X84901561Y-91982381D02*
X84939657Y-91906190D01*
X84939657Y-91906190D02*
X85015847Y-91868095D01*
X85015847Y-91868095D02*
X85434895Y-91868095D01*
X85015847Y-91868095D02*
X84939657Y-91830000D01*
X84939657Y-91830000D02*
X84901561Y-91753809D01*
X84901561Y-91753809D02*
X84901561Y-91639524D01*
X84901561Y-91639524D02*
X84939657Y-91563333D01*
X84939657Y-91563333D02*
X85015847Y-91525238D01*
X85015847Y-91525238D02*
X85434895Y-91525238D01*
X84901561Y-91144285D02*
X85701561Y-91144285D01*
X84939657Y-91144285D02*
X84901561Y-91068095D01*
X84901561Y-91068095D02*
X84901561Y-90915714D01*
X84901561Y-90915714D02*
X84939657Y-90839523D01*
X84939657Y-90839523D02*
X84977752Y-90801428D01*
X84977752Y-90801428D02*
X85053942Y-90763333D01*
X85053942Y-90763333D02*
X85282514Y-90763333D01*
X85282514Y-90763333D02*
X85358704Y-90801428D01*
X85358704Y-90801428D02*
X85396800Y-90839523D01*
X85396800Y-90839523D02*
X85434895Y-90915714D01*
X85434895Y-90915714D02*
X85434895Y-91068095D01*
X85434895Y-91068095D02*
X85396800Y-91144285D01*
X85511085Y-90610952D02*
X85511085Y-90001428D01*
X85396800Y-89849047D02*
X85434895Y-89734761D01*
X85434895Y-89734761D02*
X85434895Y-89544285D01*
X85434895Y-89544285D02*
X85396800Y-89468094D01*
X85396800Y-89468094D02*
X85358704Y-89429999D01*
X85358704Y-89429999D02*
X85282514Y-89391904D01*
X85282514Y-89391904D02*
X85206323Y-89391904D01*
X85206323Y-89391904D02*
X85130133Y-89429999D01*
X85130133Y-89429999D02*
X85092038Y-89468094D01*
X85092038Y-89468094D02*
X85053942Y-89544285D01*
X85053942Y-89544285D02*
X85015847Y-89696666D01*
X85015847Y-89696666D02*
X84977752Y-89772856D01*
X84977752Y-89772856D02*
X84939657Y-89810951D01*
X84939657Y-89810951D02*
X84863466Y-89849047D01*
X84863466Y-89849047D02*
X84787276Y-89849047D01*
X84787276Y-89849047D02*
X84711085Y-89810951D01*
X84711085Y-89810951D02*
X84672990Y-89772856D01*
X84672990Y-89772856D02*
X84634895Y-89696666D01*
X84634895Y-89696666D02*
X84634895Y-89506189D01*
X84634895Y-89506189D02*
X84672990Y-89391904D01*
X85396800Y-88744284D02*
X85434895Y-88820475D01*
X85434895Y-88820475D02*
X85434895Y-88972856D01*
X85434895Y-88972856D02*
X85396800Y-89049046D01*
X85396800Y-89049046D02*
X85320609Y-89087142D01*
X85320609Y-89087142D02*
X85015847Y-89087142D01*
X85015847Y-89087142D02*
X84939657Y-89049046D01*
X84939657Y-89049046D02*
X84901561Y-88972856D01*
X84901561Y-88972856D02*
X84901561Y-88820475D01*
X84901561Y-88820475D02*
X84939657Y-88744284D01*
X84939657Y-88744284D02*
X85015847Y-88706189D01*
X85015847Y-88706189D02*
X85092038Y-88706189D01*
X85092038Y-88706189D02*
X85168228Y-89087142D01*
X84901561Y-88363332D02*
X85434895Y-88363332D01*
X84977752Y-88363332D02*
X84939657Y-88325237D01*
X84939657Y-88325237D02*
X84901561Y-88249047D01*
X84901561Y-88249047D02*
X84901561Y-88134761D01*
X84901561Y-88134761D02*
X84939657Y-88058570D01*
X84939657Y-88058570D02*
X85015847Y-88020475D01*
X85015847Y-88020475D02*
X85434895Y-88020475D01*
X85396800Y-87677618D02*
X85434895Y-87601427D01*
X85434895Y-87601427D02*
X85434895Y-87449046D01*
X85434895Y-87449046D02*
X85396800Y-87372856D01*
X85396800Y-87372856D02*
X85320609Y-87334760D01*
X85320609Y-87334760D02*
X85282514Y-87334760D01*
X85282514Y-87334760D02*
X85206323Y-87372856D01*
X85206323Y-87372856D02*
X85168228Y-87449046D01*
X85168228Y-87449046D02*
X85168228Y-87563332D01*
X85168228Y-87563332D02*
X85130133Y-87639522D01*
X85130133Y-87639522D02*
X85053942Y-87677618D01*
X85053942Y-87677618D02*
X85015847Y-87677618D01*
X85015847Y-87677618D02*
X84939657Y-87639522D01*
X84939657Y-87639522D02*
X84901561Y-87563332D01*
X84901561Y-87563332D02*
X84901561Y-87449046D01*
X84901561Y-87449046D02*
X84939657Y-87372856D01*
X85434895Y-86877618D02*
X85396800Y-86953808D01*
X85396800Y-86953808D02*
X85358704Y-86991903D01*
X85358704Y-86991903D02*
X85282514Y-87029999D01*
X85282514Y-87029999D02*
X85053942Y-87029999D01*
X85053942Y-87029999D02*
X84977752Y-86991903D01*
X84977752Y-86991903D02*
X84939657Y-86953808D01*
X84939657Y-86953808D02*
X84901561Y-86877618D01*
X84901561Y-86877618D02*
X84901561Y-86763332D01*
X84901561Y-86763332D02*
X84939657Y-86687141D01*
X84939657Y-86687141D02*
X84977752Y-86649046D01*
X84977752Y-86649046D02*
X85053942Y-86610951D01*
X85053942Y-86610951D02*
X85282514Y-86610951D01*
X85282514Y-86610951D02*
X85358704Y-86649046D01*
X85358704Y-86649046D02*
X85396800Y-86687141D01*
X85396800Y-86687141D02*
X85434895Y-86763332D01*
X85434895Y-86763332D02*
X85434895Y-86877618D01*
X85434895Y-86268093D02*
X84901561Y-86268093D01*
X85053942Y-86268093D02*
X84977752Y-86229998D01*
X84977752Y-86229998D02*
X84939657Y-86191903D01*
X84939657Y-86191903D02*
X84901561Y-86115712D01*
X84901561Y-86115712D02*
X84901561Y-86039522D01*
X86312990Y-92809523D02*
X86274895Y-92885713D01*
X86274895Y-92885713D02*
X86274895Y-92999999D01*
X86274895Y-92999999D02*
X86312990Y-93114285D01*
X86312990Y-93114285D02*
X86389180Y-93190475D01*
X86389180Y-93190475D02*
X86465371Y-93228570D01*
X86465371Y-93228570D02*
X86617752Y-93266666D01*
X86617752Y-93266666D02*
X86732038Y-93266666D01*
X86732038Y-93266666D02*
X86884419Y-93228570D01*
X86884419Y-93228570D02*
X86960609Y-93190475D01*
X86960609Y-93190475D02*
X87036800Y-93114285D01*
X87036800Y-93114285D02*
X87074895Y-92999999D01*
X87074895Y-92999999D02*
X87074895Y-92923808D01*
X87074895Y-92923808D02*
X87036800Y-92809523D01*
X87036800Y-92809523D02*
X86998704Y-92771427D01*
X86998704Y-92771427D02*
X86732038Y-92771427D01*
X86732038Y-92771427D02*
X86732038Y-92923808D01*
X87074895Y-92428570D02*
X86274895Y-92428570D01*
X86274895Y-92428570D02*
X87074895Y-91971427D01*
X87074895Y-91971427D02*
X86274895Y-91971427D01*
X87074895Y-91590475D02*
X86274895Y-91590475D01*
X86274895Y-91590475D02*
X86274895Y-91399999D01*
X86274895Y-91399999D02*
X86312990Y-91285713D01*
X86312990Y-91285713D02*
X86389180Y-91209523D01*
X86389180Y-91209523D02*
X86465371Y-91171428D01*
X86465371Y-91171428D02*
X86617752Y-91133332D01*
X86617752Y-91133332D02*
X86732038Y-91133332D01*
X86732038Y-91133332D02*
X86884419Y-91171428D01*
X86884419Y-91171428D02*
X86960609Y-91209523D01*
X86960609Y-91209523D02*
X87036800Y-91285713D01*
X87036800Y-91285713D02*
X87074895Y-91399999D01*
X87074895Y-91399999D02*
X87074895Y-91590475D01*
X26035104Y-117117142D02*
X26035104Y-117612380D01*
X26035104Y-117612380D02*
X25730342Y-117345714D01*
X25730342Y-117345714D02*
X25730342Y-117459999D01*
X25730342Y-117459999D02*
X25692247Y-117536190D01*
X25692247Y-117536190D02*
X25654152Y-117574285D01*
X25654152Y-117574285D02*
X25577961Y-117612380D01*
X25577961Y-117612380D02*
X25387485Y-117612380D01*
X25387485Y-117612380D02*
X25311295Y-117574285D01*
X25311295Y-117574285D02*
X25273200Y-117536190D01*
X25273200Y-117536190D02*
X25235104Y-117459999D01*
X25235104Y-117459999D02*
X25235104Y-117231428D01*
X25235104Y-117231428D02*
X25273200Y-117155237D01*
X25273200Y-117155237D02*
X25311295Y-117117142D01*
X25311295Y-117955238D02*
X25273200Y-117993333D01*
X25273200Y-117993333D02*
X25235104Y-117955238D01*
X25235104Y-117955238D02*
X25273200Y-117917142D01*
X25273200Y-117917142D02*
X25311295Y-117955238D01*
X25311295Y-117955238D02*
X25235104Y-117955238D01*
X26035104Y-118259999D02*
X26035104Y-118755237D01*
X26035104Y-118755237D02*
X25730342Y-118488571D01*
X25730342Y-118488571D02*
X25730342Y-118602856D01*
X25730342Y-118602856D02*
X25692247Y-118679047D01*
X25692247Y-118679047D02*
X25654152Y-118717142D01*
X25654152Y-118717142D02*
X25577961Y-118755237D01*
X25577961Y-118755237D02*
X25387485Y-118755237D01*
X25387485Y-118755237D02*
X25311295Y-118717142D01*
X25311295Y-118717142D02*
X25273200Y-118679047D01*
X25273200Y-118679047D02*
X25235104Y-118602856D01*
X25235104Y-118602856D02*
X25235104Y-118374285D01*
X25235104Y-118374285D02*
X25273200Y-118298094D01*
X25273200Y-118298094D02*
X25311295Y-118259999D01*
X25768438Y-119021904D02*
X25235104Y-119212380D01*
X25235104Y-119212380D02*
X25768438Y-119402857D01*
X25313200Y-124917618D02*
X25275104Y-125031904D01*
X25275104Y-125031904D02*
X25275104Y-125222380D01*
X25275104Y-125222380D02*
X25313200Y-125298571D01*
X25313200Y-125298571D02*
X25351295Y-125336666D01*
X25351295Y-125336666D02*
X25427485Y-125374761D01*
X25427485Y-125374761D02*
X25503676Y-125374761D01*
X25503676Y-125374761D02*
X25579866Y-125336666D01*
X25579866Y-125336666D02*
X25617961Y-125298571D01*
X25617961Y-125298571D02*
X25656057Y-125222380D01*
X25656057Y-125222380D02*
X25694152Y-125069999D01*
X25694152Y-125069999D02*
X25732247Y-124993809D01*
X25732247Y-124993809D02*
X25770342Y-124955714D01*
X25770342Y-124955714D02*
X25846533Y-124917618D01*
X25846533Y-124917618D02*
X25922723Y-124917618D01*
X25922723Y-124917618D02*
X25998914Y-124955714D01*
X25998914Y-124955714D02*
X26037009Y-124993809D01*
X26037009Y-124993809D02*
X26075104Y-125069999D01*
X26075104Y-125069999D02*
X26075104Y-125260476D01*
X26075104Y-125260476D02*
X26037009Y-125374761D01*
X25351295Y-126174762D02*
X25313200Y-126136666D01*
X25313200Y-126136666D02*
X25275104Y-126022381D01*
X25275104Y-126022381D02*
X25275104Y-125946190D01*
X25275104Y-125946190D02*
X25313200Y-125831904D01*
X25313200Y-125831904D02*
X25389390Y-125755714D01*
X25389390Y-125755714D02*
X25465580Y-125717619D01*
X25465580Y-125717619D02*
X25617961Y-125679523D01*
X25617961Y-125679523D02*
X25732247Y-125679523D01*
X25732247Y-125679523D02*
X25884628Y-125717619D01*
X25884628Y-125717619D02*
X25960819Y-125755714D01*
X25960819Y-125755714D02*
X26037009Y-125831904D01*
X26037009Y-125831904D02*
X26075104Y-125946190D01*
X26075104Y-125946190D02*
X26075104Y-126022381D01*
X26075104Y-126022381D02*
X26037009Y-126136666D01*
X26037009Y-126136666D02*
X25998914Y-126174762D01*
X25275104Y-126898571D02*
X25275104Y-126517619D01*
X25275104Y-126517619D02*
X26075104Y-126517619D01*
X86996800Y-88192381D02*
X87034895Y-88078095D01*
X87034895Y-88078095D02*
X87034895Y-87887619D01*
X87034895Y-87887619D02*
X86996800Y-87811428D01*
X86996800Y-87811428D02*
X86958704Y-87773333D01*
X86958704Y-87773333D02*
X86882514Y-87735238D01*
X86882514Y-87735238D02*
X86806323Y-87735238D01*
X86806323Y-87735238D02*
X86730133Y-87773333D01*
X86730133Y-87773333D02*
X86692038Y-87811428D01*
X86692038Y-87811428D02*
X86653942Y-87887619D01*
X86653942Y-87887619D02*
X86615847Y-88040000D01*
X86615847Y-88040000D02*
X86577752Y-88116190D01*
X86577752Y-88116190D02*
X86539657Y-88154285D01*
X86539657Y-88154285D02*
X86463466Y-88192381D01*
X86463466Y-88192381D02*
X86387276Y-88192381D01*
X86387276Y-88192381D02*
X86311085Y-88154285D01*
X86311085Y-88154285D02*
X86272990Y-88116190D01*
X86272990Y-88116190D02*
X86234895Y-88040000D01*
X86234895Y-88040000D02*
X86234895Y-87849523D01*
X86234895Y-87849523D02*
X86272990Y-87735238D01*
X86958704Y-86935237D02*
X86996800Y-86973333D01*
X86996800Y-86973333D02*
X87034895Y-87087618D01*
X87034895Y-87087618D02*
X87034895Y-87163809D01*
X87034895Y-87163809D02*
X86996800Y-87278095D01*
X86996800Y-87278095D02*
X86920609Y-87354285D01*
X86920609Y-87354285D02*
X86844419Y-87392380D01*
X86844419Y-87392380D02*
X86692038Y-87430476D01*
X86692038Y-87430476D02*
X86577752Y-87430476D01*
X86577752Y-87430476D02*
X86425371Y-87392380D01*
X86425371Y-87392380D02*
X86349180Y-87354285D01*
X86349180Y-87354285D02*
X86272990Y-87278095D01*
X86272990Y-87278095D02*
X86234895Y-87163809D01*
X86234895Y-87163809D02*
X86234895Y-87087618D01*
X86234895Y-87087618D02*
X86272990Y-86973333D01*
X86272990Y-86973333D02*
X86311085Y-86935237D01*
X87034895Y-86211428D02*
X87034895Y-86592380D01*
X87034895Y-86592380D02*
X86234895Y-86592380D01*
X86996800Y-85812381D02*
X87034895Y-85698095D01*
X87034895Y-85698095D02*
X87034895Y-85507619D01*
X87034895Y-85507619D02*
X86996800Y-85431428D01*
X86996800Y-85431428D02*
X86958704Y-85393333D01*
X86958704Y-85393333D02*
X86882514Y-85355238D01*
X86882514Y-85355238D02*
X86806323Y-85355238D01*
X86806323Y-85355238D02*
X86730133Y-85393333D01*
X86730133Y-85393333D02*
X86692038Y-85431428D01*
X86692038Y-85431428D02*
X86653942Y-85507619D01*
X86653942Y-85507619D02*
X86615847Y-85660000D01*
X86615847Y-85660000D02*
X86577752Y-85736190D01*
X86577752Y-85736190D02*
X86539657Y-85774285D01*
X86539657Y-85774285D02*
X86463466Y-85812381D01*
X86463466Y-85812381D02*
X86387276Y-85812381D01*
X86387276Y-85812381D02*
X86311085Y-85774285D01*
X86311085Y-85774285D02*
X86272990Y-85736190D01*
X86272990Y-85736190D02*
X86234895Y-85660000D01*
X86234895Y-85660000D02*
X86234895Y-85469523D01*
X86234895Y-85469523D02*
X86272990Y-85355238D01*
X87034895Y-85012380D02*
X86234895Y-85012380D01*
X86234895Y-85012380D02*
X86234895Y-84821904D01*
X86234895Y-84821904D02*
X86272990Y-84707618D01*
X86272990Y-84707618D02*
X86349180Y-84631428D01*
X86349180Y-84631428D02*
X86425371Y-84593333D01*
X86425371Y-84593333D02*
X86577752Y-84555237D01*
X86577752Y-84555237D02*
X86692038Y-84555237D01*
X86692038Y-84555237D02*
X86844419Y-84593333D01*
X86844419Y-84593333D02*
X86920609Y-84631428D01*
X86920609Y-84631428D02*
X86996800Y-84707618D01*
X86996800Y-84707618D02*
X87034895Y-84821904D01*
X87034895Y-84821904D02*
X87034895Y-85012380D01*
X87034895Y-83831428D02*
X87034895Y-84212380D01*
X87034895Y-84212380D02*
X86234895Y-84212380D01*
X86274895Y-95992857D02*
X86274895Y-95497619D01*
X86274895Y-95497619D02*
X86579657Y-95764285D01*
X86579657Y-95764285D02*
X86579657Y-95650000D01*
X86579657Y-95650000D02*
X86617752Y-95573809D01*
X86617752Y-95573809D02*
X86655847Y-95535714D01*
X86655847Y-95535714D02*
X86732038Y-95497619D01*
X86732038Y-95497619D02*
X86922514Y-95497619D01*
X86922514Y-95497619D02*
X86998704Y-95535714D01*
X86998704Y-95535714D02*
X87036800Y-95573809D01*
X87036800Y-95573809D02*
X87074895Y-95650000D01*
X87074895Y-95650000D02*
X87074895Y-95878571D01*
X87074895Y-95878571D02*
X87036800Y-95954762D01*
X87036800Y-95954762D02*
X86998704Y-95992857D01*
X86998704Y-95154761D02*
X87036800Y-95116666D01*
X87036800Y-95116666D02*
X87074895Y-95154761D01*
X87074895Y-95154761D02*
X87036800Y-95192857D01*
X87036800Y-95192857D02*
X86998704Y-95154761D01*
X86998704Y-95154761D02*
X87074895Y-95154761D01*
X86274895Y-94850000D02*
X86274895Y-94354762D01*
X86274895Y-94354762D02*
X86579657Y-94621428D01*
X86579657Y-94621428D02*
X86579657Y-94507143D01*
X86579657Y-94507143D02*
X86617752Y-94430952D01*
X86617752Y-94430952D02*
X86655847Y-94392857D01*
X86655847Y-94392857D02*
X86732038Y-94354762D01*
X86732038Y-94354762D02*
X86922514Y-94354762D01*
X86922514Y-94354762D02*
X86998704Y-94392857D01*
X86998704Y-94392857D02*
X87036800Y-94430952D01*
X87036800Y-94430952D02*
X87074895Y-94507143D01*
X87074895Y-94507143D02*
X87074895Y-94735714D01*
X87074895Y-94735714D02*
X87036800Y-94811905D01*
X87036800Y-94811905D02*
X86998704Y-94850000D01*
X86541561Y-94088095D02*
X87074895Y-93897619D01*
X87074895Y-93897619D02*
X86541561Y-93707142D01*
X25997009Y-120300476D02*
X26035104Y-120224286D01*
X26035104Y-120224286D02*
X26035104Y-120110000D01*
X26035104Y-120110000D02*
X25997009Y-119995714D01*
X25997009Y-119995714D02*
X25920819Y-119919524D01*
X25920819Y-119919524D02*
X25844628Y-119881429D01*
X25844628Y-119881429D02*
X25692247Y-119843333D01*
X25692247Y-119843333D02*
X25577961Y-119843333D01*
X25577961Y-119843333D02*
X25425580Y-119881429D01*
X25425580Y-119881429D02*
X25349390Y-119919524D01*
X25349390Y-119919524D02*
X25273200Y-119995714D01*
X25273200Y-119995714D02*
X25235104Y-120110000D01*
X25235104Y-120110000D02*
X25235104Y-120186191D01*
X25235104Y-120186191D02*
X25273200Y-120300476D01*
X25273200Y-120300476D02*
X25311295Y-120338572D01*
X25311295Y-120338572D02*
X25577961Y-120338572D01*
X25577961Y-120338572D02*
X25577961Y-120186191D01*
X25235104Y-120681429D02*
X26035104Y-120681429D01*
X26035104Y-120681429D02*
X25235104Y-121138572D01*
X25235104Y-121138572D02*
X26035104Y-121138572D01*
X25235104Y-121519524D02*
X26035104Y-121519524D01*
X26035104Y-121519524D02*
X26035104Y-121710000D01*
X26035104Y-121710000D02*
X25997009Y-121824286D01*
X25997009Y-121824286D02*
X25920819Y-121900476D01*
X25920819Y-121900476D02*
X25844628Y-121938571D01*
X25844628Y-121938571D02*
X25692247Y-121976667D01*
X25692247Y-121976667D02*
X25577961Y-121976667D01*
X25577961Y-121976667D02*
X25425580Y-121938571D01*
X25425580Y-121938571D02*
X25349390Y-121900476D01*
X25349390Y-121900476D02*
X25273200Y-121824286D01*
X25273200Y-121824286D02*
X25235104Y-121710000D01*
X25235104Y-121710000D02*
X25235104Y-121519524D01*
X30625104Y-119559523D02*
X30625104Y-120016666D01*
X29825104Y-119788094D02*
X30625104Y-119788094D01*
X29863200Y-120588095D02*
X29825104Y-120511904D01*
X29825104Y-120511904D02*
X29825104Y-120359523D01*
X29825104Y-120359523D02*
X29863200Y-120283333D01*
X29863200Y-120283333D02*
X29939390Y-120245237D01*
X29939390Y-120245237D02*
X30244152Y-120245237D01*
X30244152Y-120245237D02*
X30320342Y-120283333D01*
X30320342Y-120283333D02*
X30358438Y-120359523D01*
X30358438Y-120359523D02*
X30358438Y-120511904D01*
X30358438Y-120511904D02*
X30320342Y-120588095D01*
X30320342Y-120588095D02*
X30244152Y-120626190D01*
X30244152Y-120626190D02*
X30167961Y-120626190D01*
X30167961Y-120626190D02*
X30091771Y-120245237D01*
X29825104Y-120969047D02*
X30358438Y-120969047D01*
X30282247Y-120969047D02*
X30320342Y-121007142D01*
X30320342Y-121007142D02*
X30358438Y-121083332D01*
X30358438Y-121083332D02*
X30358438Y-121197618D01*
X30358438Y-121197618D02*
X30320342Y-121273809D01*
X30320342Y-121273809D02*
X30244152Y-121311904D01*
X30244152Y-121311904D02*
X29825104Y-121311904D01*
X30244152Y-121311904D02*
X30320342Y-121349999D01*
X30320342Y-121349999D02*
X30358438Y-121426190D01*
X30358438Y-121426190D02*
X30358438Y-121540475D01*
X30358438Y-121540475D02*
X30320342Y-121616666D01*
X30320342Y-121616666D02*
X30244152Y-121654761D01*
X30244152Y-121654761D02*
X29825104Y-121654761D01*
X30358438Y-122035714D02*
X29558438Y-122035714D01*
X30320342Y-122035714D02*
X30358438Y-122111904D01*
X30358438Y-122111904D02*
X30358438Y-122264285D01*
X30358438Y-122264285D02*
X30320342Y-122340476D01*
X30320342Y-122340476D02*
X30282247Y-122378571D01*
X30282247Y-122378571D02*
X30206057Y-122416666D01*
X30206057Y-122416666D02*
X29977485Y-122416666D01*
X29977485Y-122416666D02*
X29901295Y-122378571D01*
X29901295Y-122378571D02*
X29863200Y-122340476D01*
X29863200Y-122340476D02*
X29825104Y-122264285D01*
X29825104Y-122264285D02*
X29825104Y-122111904D01*
X29825104Y-122111904D02*
X29863200Y-122035714D01*
X29748914Y-122569048D02*
X29748914Y-123178571D01*
X29863200Y-123330952D02*
X29825104Y-123445238D01*
X29825104Y-123445238D02*
X29825104Y-123635714D01*
X29825104Y-123635714D02*
X29863200Y-123711905D01*
X29863200Y-123711905D02*
X29901295Y-123750000D01*
X29901295Y-123750000D02*
X29977485Y-123788095D01*
X29977485Y-123788095D02*
X30053676Y-123788095D01*
X30053676Y-123788095D02*
X30129866Y-123750000D01*
X30129866Y-123750000D02*
X30167961Y-123711905D01*
X30167961Y-123711905D02*
X30206057Y-123635714D01*
X30206057Y-123635714D02*
X30244152Y-123483333D01*
X30244152Y-123483333D02*
X30282247Y-123407143D01*
X30282247Y-123407143D02*
X30320342Y-123369048D01*
X30320342Y-123369048D02*
X30396533Y-123330952D01*
X30396533Y-123330952D02*
X30472723Y-123330952D01*
X30472723Y-123330952D02*
X30548914Y-123369048D01*
X30548914Y-123369048D02*
X30587009Y-123407143D01*
X30587009Y-123407143D02*
X30625104Y-123483333D01*
X30625104Y-123483333D02*
X30625104Y-123673810D01*
X30625104Y-123673810D02*
X30587009Y-123788095D01*
X29863200Y-124435715D02*
X29825104Y-124359524D01*
X29825104Y-124359524D02*
X29825104Y-124207143D01*
X29825104Y-124207143D02*
X29863200Y-124130953D01*
X29863200Y-124130953D02*
X29939390Y-124092857D01*
X29939390Y-124092857D02*
X30244152Y-124092857D01*
X30244152Y-124092857D02*
X30320342Y-124130953D01*
X30320342Y-124130953D02*
X30358438Y-124207143D01*
X30358438Y-124207143D02*
X30358438Y-124359524D01*
X30358438Y-124359524D02*
X30320342Y-124435715D01*
X30320342Y-124435715D02*
X30244152Y-124473810D01*
X30244152Y-124473810D02*
X30167961Y-124473810D01*
X30167961Y-124473810D02*
X30091771Y-124092857D01*
X30358438Y-124816667D02*
X29825104Y-124816667D01*
X30282247Y-124816667D02*
X30320342Y-124854762D01*
X30320342Y-124854762D02*
X30358438Y-124930952D01*
X30358438Y-124930952D02*
X30358438Y-125045238D01*
X30358438Y-125045238D02*
X30320342Y-125121429D01*
X30320342Y-125121429D02*
X30244152Y-125159524D01*
X30244152Y-125159524D02*
X29825104Y-125159524D01*
X29863200Y-125502381D02*
X29825104Y-125578572D01*
X29825104Y-125578572D02*
X29825104Y-125730953D01*
X29825104Y-125730953D02*
X29863200Y-125807143D01*
X29863200Y-125807143D02*
X29939390Y-125845239D01*
X29939390Y-125845239D02*
X29977485Y-125845239D01*
X29977485Y-125845239D02*
X30053676Y-125807143D01*
X30053676Y-125807143D02*
X30091771Y-125730953D01*
X30091771Y-125730953D02*
X30091771Y-125616667D01*
X30091771Y-125616667D02*
X30129866Y-125540477D01*
X30129866Y-125540477D02*
X30206057Y-125502381D01*
X30206057Y-125502381D02*
X30244152Y-125502381D01*
X30244152Y-125502381D02*
X30320342Y-125540477D01*
X30320342Y-125540477D02*
X30358438Y-125616667D01*
X30358438Y-125616667D02*
X30358438Y-125730953D01*
X30358438Y-125730953D02*
X30320342Y-125807143D01*
X29825104Y-126302381D02*
X29863200Y-126226191D01*
X29863200Y-126226191D02*
X29901295Y-126188096D01*
X29901295Y-126188096D02*
X29977485Y-126150000D01*
X29977485Y-126150000D02*
X30206057Y-126150000D01*
X30206057Y-126150000D02*
X30282247Y-126188096D01*
X30282247Y-126188096D02*
X30320342Y-126226191D01*
X30320342Y-126226191D02*
X30358438Y-126302381D01*
X30358438Y-126302381D02*
X30358438Y-126416667D01*
X30358438Y-126416667D02*
X30320342Y-126492858D01*
X30320342Y-126492858D02*
X30282247Y-126530953D01*
X30282247Y-126530953D02*
X30206057Y-126569048D01*
X30206057Y-126569048D02*
X29977485Y-126569048D01*
X29977485Y-126569048D02*
X29901295Y-126530953D01*
X29901295Y-126530953D02*
X29863200Y-126492858D01*
X29863200Y-126492858D02*
X29825104Y-126416667D01*
X29825104Y-126416667D02*
X29825104Y-126302381D01*
X29825104Y-126911906D02*
X30358438Y-126911906D01*
X30206057Y-126911906D02*
X30282247Y-126950001D01*
X30282247Y-126950001D02*
X30320342Y-126988096D01*
X30320342Y-126988096D02*
X30358438Y-127064287D01*
X30358438Y-127064287D02*
X30358438Y-127140477D01*
D11*
X66687142Y-43499580D02*
X66639523Y-43547200D01*
X66639523Y-43547200D02*
X66496666Y-43594819D01*
X66496666Y-43594819D02*
X66401428Y-43594819D01*
X66401428Y-43594819D02*
X66258571Y-43547200D01*
X66258571Y-43547200D02*
X66163333Y-43451961D01*
X66163333Y-43451961D02*
X66115714Y-43356723D01*
X66115714Y-43356723D02*
X66068095Y-43166247D01*
X66068095Y-43166247D02*
X66068095Y-43023390D01*
X66068095Y-43023390D02*
X66115714Y-42832914D01*
X66115714Y-42832914D02*
X66163333Y-42737676D01*
X66163333Y-42737676D02*
X66258571Y-42642438D01*
X66258571Y-42642438D02*
X66401428Y-42594819D01*
X66401428Y-42594819D02*
X66496666Y-42594819D01*
X66496666Y-42594819D02*
X66639523Y-42642438D01*
X66639523Y-42642438D02*
X66687142Y-42690057D01*
X67639523Y-43594819D02*
X67068095Y-43594819D01*
X67353809Y-43594819D02*
X67353809Y-42594819D01*
X67353809Y-42594819D02*
X67258571Y-42737676D01*
X67258571Y-42737676D02*
X67163333Y-42832914D01*
X67163333Y-42832914D02*
X67068095Y-42880533D01*
X68210952Y-43023390D02*
X68115714Y-42975771D01*
X68115714Y-42975771D02*
X68068095Y-42928152D01*
X68068095Y-42928152D02*
X68020476Y-42832914D01*
X68020476Y-42832914D02*
X68020476Y-42785295D01*
X68020476Y-42785295D02*
X68068095Y-42690057D01*
X68068095Y-42690057D02*
X68115714Y-42642438D01*
X68115714Y-42642438D02*
X68210952Y-42594819D01*
X68210952Y-42594819D02*
X68401428Y-42594819D01*
X68401428Y-42594819D02*
X68496666Y-42642438D01*
X68496666Y-42642438D02*
X68544285Y-42690057D01*
X68544285Y-42690057D02*
X68591904Y-42785295D01*
X68591904Y-42785295D02*
X68591904Y-42832914D01*
X68591904Y-42832914D02*
X68544285Y-42928152D01*
X68544285Y-42928152D02*
X68496666Y-42975771D01*
X68496666Y-42975771D02*
X68401428Y-43023390D01*
X68401428Y-43023390D02*
X68210952Y-43023390D01*
X68210952Y-43023390D02*
X68115714Y-43071009D01*
X68115714Y-43071009D02*
X68068095Y-43118628D01*
X68068095Y-43118628D02*
X68020476Y-43213866D01*
X68020476Y-43213866D02*
X68020476Y-43404342D01*
X68020476Y-43404342D02*
X68068095Y-43499580D01*
X68068095Y-43499580D02*
X68115714Y-43547200D01*
X68115714Y-43547200D02*
X68210952Y-43594819D01*
X68210952Y-43594819D02*
X68401428Y-43594819D01*
X68401428Y-43594819D02*
X68496666Y-43547200D01*
X68496666Y-43547200D02*
X68544285Y-43499580D01*
X68544285Y-43499580D02*
X68591904Y-43404342D01*
X68591904Y-43404342D02*
X68591904Y-43213866D01*
X68591904Y-43213866D02*
X68544285Y-43118628D01*
X68544285Y-43118628D02*
X68496666Y-43071009D01*
X68496666Y-43071009D02*
X68401428Y-43023390D01*
D12*
X77639523Y-51825928D02*
X77372857Y-51825928D01*
X77372857Y-52244976D02*
X77372857Y-51444976D01*
X77372857Y-51444976D02*
X77753809Y-51444976D01*
X78439523Y-52244976D02*
X78058571Y-52244976D01*
X78058571Y-52244976D02*
X78058571Y-51444976D01*
X79125237Y-52244976D02*
X78668094Y-52244976D01*
X78896666Y-52244976D02*
X78896666Y-51444976D01*
X78896666Y-51444976D02*
X78820475Y-51559261D01*
X78820475Y-51559261D02*
X78744285Y-51635452D01*
X78744285Y-51635452D02*
X78668094Y-51673547D01*
D11*
X80114819Y-102851666D02*
X79638628Y-103184999D01*
X80114819Y-103423094D02*
X79114819Y-103423094D01*
X79114819Y-103423094D02*
X79114819Y-103042142D01*
X79114819Y-103042142D02*
X79162438Y-102946904D01*
X79162438Y-102946904D02*
X79210057Y-102899285D01*
X79210057Y-102899285D02*
X79305295Y-102851666D01*
X79305295Y-102851666D02*
X79448152Y-102851666D01*
X79448152Y-102851666D02*
X79543390Y-102899285D01*
X79543390Y-102899285D02*
X79591009Y-102946904D01*
X79591009Y-102946904D02*
X79638628Y-103042142D01*
X79638628Y-103042142D02*
X79638628Y-103423094D01*
X79114819Y-102518332D02*
X79114819Y-101851666D01*
X79114819Y-101851666D02*
X80114819Y-102280237D01*
X19174819Y-124902857D02*
X18698628Y-125236190D01*
X19174819Y-125474285D02*
X18174819Y-125474285D01*
X18174819Y-125474285D02*
X18174819Y-125093333D01*
X18174819Y-125093333D02*
X18222438Y-124998095D01*
X18222438Y-124998095D02*
X18270057Y-124950476D01*
X18270057Y-124950476D02*
X18365295Y-124902857D01*
X18365295Y-124902857D02*
X18508152Y-124902857D01*
X18508152Y-124902857D02*
X18603390Y-124950476D01*
X18603390Y-124950476D02*
X18651009Y-124998095D01*
X18651009Y-124998095D02*
X18698628Y-125093333D01*
X18698628Y-125093333D02*
X18698628Y-125474285D01*
X19174819Y-123950476D02*
X19174819Y-124521904D01*
X19174819Y-124236190D02*
X18174819Y-124236190D01*
X18174819Y-124236190D02*
X18317676Y-124331428D01*
X18317676Y-124331428D02*
X18412914Y-124426666D01*
X18412914Y-124426666D02*
X18460533Y-124521904D01*
X18174819Y-123617142D02*
X18174819Y-122950476D01*
X18174819Y-122950476D02*
X19174819Y-123379047D01*
X30591905Y-75684819D02*
X30591905Y-74684819D01*
X30591905Y-74684819D02*
X30830000Y-74684819D01*
X30830000Y-74684819D02*
X30972857Y-74732438D01*
X30972857Y-74732438D02*
X31068095Y-74827676D01*
X31068095Y-74827676D02*
X31115714Y-74922914D01*
X31115714Y-74922914D02*
X31163333Y-75113390D01*
X31163333Y-75113390D02*
X31163333Y-75256247D01*
X31163333Y-75256247D02*
X31115714Y-75446723D01*
X31115714Y-75446723D02*
X31068095Y-75541961D01*
X31068095Y-75541961D02*
X30972857Y-75637200D01*
X30972857Y-75637200D02*
X30830000Y-75684819D01*
X30830000Y-75684819D02*
X30591905Y-75684819D01*
X32115714Y-75684819D02*
X31544286Y-75684819D01*
X31830000Y-75684819D02*
X31830000Y-74684819D01*
X31830000Y-74684819D02*
X31734762Y-74827676D01*
X31734762Y-74827676D02*
X31639524Y-74922914D01*
X31639524Y-74922914D02*
X31544286Y-74970533D01*
X34740000Y-80664819D02*
X34740000Y-80902914D01*
X34501905Y-80807676D02*
X34740000Y-80902914D01*
X34740000Y-80902914D02*
X34978095Y-80807676D01*
X34597143Y-81093390D02*
X34740000Y-80902914D01*
X34740000Y-80902914D02*
X34882857Y-81093390D01*
X34710000Y-81545719D02*
X34710000Y-81783814D01*
X34471905Y-81688576D02*
X34710000Y-81783814D01*
X34710000Y-81783814D02*
X34948095Y-81688576D01*
X34567143Y-81974290D02*
X34710000Y-81783814D01*
X34710000Y-81783814D02*
X34852857Y-81974290D01*
X90256667Y-22876104D02*
X90218571Y-22914200D01*
X90218571Y-22914200D02*
X90104286Y-22952295D01*
X90104286Y-22952295D02*
X90028095Y-22952295D01*
X90028095Y-22952295D02*
X89913809Y-22914200D01*
X89913809Y-22914200D02*
X89837619Y-22838009D01*
X89837619Y-22838009D02*
X89799524Y-22761819D01*
X89799524Y-22761819D02*
X89761428Y-22609438D01*
X89761428Y-22609438D02*
X89761428Y-22495152D01*
X89761428Y-22495152D02*
X89799524Y-22342771D01*
X89799524Y-22342771D02*
X89837619Y-22266580D01*
X89837619Y-22266580D02*
X89913809Y-22190390D01*
X89913809Y-22190390D02*
X90028095Y-22152295D01*
X90028095Y-22152295D02*
X90104286Y-22152295D01*
X90104286Y-22152295D02*
X90218571Y-22190390D01*
X90218571Y-22190390D02*
X90256667Y-22228485D01*
X90942381Y-22418961D02*
X90942381Y-22952295D01*
X90751905Y-22114200D02*
X90561428Y-22685628D01*
X90561428Y-22685628D02*
X91056667Y-22685628D01*
X58240895Y-78178875D02*
X57440895Y-78178875D01*
X57440895Y-78178875D02*
X57440895Y-77988399D01*
X57440895Y-77988399D02*
X57478990Y-77874113D01*
X57478990Y-77874113D02*
X57555180Y-77797923D01*
X57555180Y-77797923D02*
X57631371Y-77759828D01*
X57631371Y-77759828D02*
X57783752Y-77721732D01*
X57783752Y-77721732D02*
X57898038Y-77721732D01*
X57898038Y-77721732D02*
X58050419Y-77759828D01*
X58050419Y-77759828D02*
X58126609Y-77797923D01*
X58126609Y-77797923D02*
X58202800Y-77874113D01*
X58202800Y-77874113D02*
X58240895Y-77988399D01*
X58240895Y-77988399D02*
X58240895Y-78178875D01*
X57517085Y-77416971D02*
X57478990Y-77378875D01*
X57478990Y-77378875D02*
X57440895Y-77302685D01*
X57440895Y-77302685D02*
X57440895Y-77112209D01*
X57440895Y-77112209D02*
X57478990Y-77036018D01*
X57478990Y-77036018D02*
X57517085Y-76997923D01*
X57517085Y-76997923D02*
X57593276Y-76959828D01*
X57593276Y-76959828D02*
X57669466Y-76959828D01*
X57669466Y-76959828D02*
X57783752Y-76997923D01*
X57783752Y-76997923D02*
X58240895Y-77455066D01*
X58240895Y-77455066D02*
X58240895Y-76959828D01*
X71087142Y-56199580D02*
X71039523Y-56247200D01*
X71039523Y-56247200D02*
X70896666Y-56294819D01*
X70896666Y-56294819D02*
X70801428Y-56294819D01*
X70801428Y-56294819D02*
X70658571Y-56247200D01*
X70658571Y-56247200D02*
X70563333Y-56151961D01*
X70563333Y-56151961D02*
X70515714Y-56056723D01*
X70515714Y-56056723D02*
X70468095Y-55866247D01*
X70468095Y-55866247D02*
X70468095Y-55723390D01*
X70468095Y-55723390D02*
X70515714Y-55532914D01*
X70515714Y-55532914D02*
X70563333Y-55437676D01*
X70563333Y-55437676D02*
X70658571Y-55342438D01*
X70658571Y-55342438D02*
X70801428Y-55294819D01*
X70801428Y-55294819D02*
X70896666Y-55294819D01*
X70896666Y-55294819D02*
X71039523Y-55342438D01*
X71039523Y-55342438D02*
X71087142Y-55390057D01*
X72039523Y-56294819D02*
X71468095Y-56294819D01*
X71753809Y-56294819D02*
X71753809Y-55294819D01*
X71753809Y-55294819D02*
X71658571Y-55437676D01*
X71658571Y-55437676D02*
X71563333Y-55532914D01*
X71563333Y-55532914D02*
X71468095Y-55580533D01*
X72372857Y-55294819D02*
X73039523Y-55294819D01*
X73039523Y-55294819D02*
X72610952Y-56294819D01*
X71067142Y-57829580D02*
X71019523Y-57877200D01*
X71019523Y-57877200D02*
X70876666Y-57924819D01*
X70876666Y-57924819D02*
X70781428Y-57924819D01*
X70781428Y-57924819D02*
X70638571Y-57877200D01*
X70638571Y-57877200D02*
X70543333Y-57781961D01*
X70543333Y-57781961D02*
X70495714Y-57686723D01*
X70495714Y-57686723D02*
X70448095Y-57496247D01*
X70448095Y-57496247D02*
X70448095Y-57353390D01*
X70448095Y-57353390D02*
X70495714Y-57162914D01*
X70495714Y-57162914D02*
X70543333Y-57067676D01*
X70543333Y-57067676D02*
X70638571Y-56972438D01*
X70638571Y-56972438D02*
X70781428Y-56924819D01*
X70781428Y-56924819D02*
X70876666Y-56924819D01*
X70876666Y-56924819D02*
X71019523Y-56972438D01*
X71019523Y-56972438D02*
X71067142Y-57020057D01*
X72019523Y-57924819D02*
X71448095Y-57924819D01*
X71733809Y-57924819D02*
X71733809Y-56924819D01*
X71733809Y-56924819D02*
X71638571Y-57067676D01*
X71638571Y-57067676D02*
X71543333Y-57162914D01*
X71543333Y-57162914D02*
X71448095Y-57210533D01*
X72924285Y-56924819D02*
X72448095Y-56924819D01*
X72448095Y-56924819D02*
X72400476Y-57401009D01*
X72400476Y-57401009D02*
X72448095Y-57353390D01*
X72448095Y-57353390D02*
X72543333Y-57305771D01*
X72543333Y-57305771D02*
X72781428Y-57305771D01*
X72781428Y-57305771D02*
X72876666Y-57353390D01*
X72876666Y-57353390D02*
X72924285Y-57401009D01*
X72924285Y-57401009D02*
X72971904Y-57496247D01*
X72971904Y-57496247D02*
X72971904Y-57734342D01*
X72971904Y-57734342D02*
X72924285Y-57829580D01*
X72924285Y-57829580D02*
X72876666Y-57877200D01*
X72876666Y-57877200D02*
X72781428Y-57924819D01*
X72781428Y-57924819D02*
X72543333Y-57924819D01*
X72543333Y-57924819D02*
X72448095Y-57877200D01*
X72448095Y-57877200D02*
X72400476Y-57829580D01*
X55799024Y-79798795D02*
X55799024Y-78998795D01*
X55799024Y-78998795D02*
X55989500Y-78998795D01*
X55989500Y-78998795D02*
X56103786Y-79036890D01*
X56103786Y-79036890D02*
X56179976Y-79113080D01*
X56179976Y-79113080D02*
X56218071Y-79189271D01*
X56218071Y-79189271D02*
X56256167Y-79341652D01*
X56256167Y-79341652D02*
X56256167Y-79455938D01*
X56256167Y-79455938D02*
X56218071Y-79608319D01*
X56218071Y-79608319D02*
X56179976Y-79684509D01*
X56179976Y-79684509D02*
X56103786Y-79760700D01*
X56103786Y-79760700D02*
X55989500Y-79798795D01*
X55989500Y-79798795D02*
X55799024Y-79798795D01*
X56522833Y-78998795D02*
X57018071Y-78998795D01*
X57018071Y-78998795D02*
X56751405Y-79303557D01*
X56751405Y-79303557D02*
X56865690Y-79303557D01*
X56865690Y-79303557D02*
X56941881Y-79341652D01*
X56941881Y-79341652D02*
X56979976Y-79379747D01*
X56979976Y-79379747D02*
X57018071Y-79455938D01*
X57018071Y-79455938D02*
X57018071Y-79646414D01*
X57018071Y-79646414D02*
X56979976Y-79722604D01*
X56979976Y-79722604D02*
X56941881Y-79760700D01*
X56941881Y-79760700D02*
X56865690Y-79798795D01*
X56865690Y-79798795D02*
X56637119Y-79798795D01*
X56637119Y-79798795D02*
X56560928Y-79760700D01*
X56560928Y-79760700D02*
X56522833Y-79722604D01*
X81552142Y-58554819D02*
X81218809Y-58078628D01*
X80980714Y-58554819D02*
X80980714Y-57554819D01*
X80980714Y-57554819D02*
X81361666Y-57554819D01*
X81361666Y-57554819D02*
X81456904Y-57602438D01*
X81456904Y-57602438D02*
X81504523Y-57650057D01*
X81504523Y-57650057D02*
X81552142Y-57745295D01*
X81552142Y-57745295D02*
X81552142Y-57888152D01*
X81552142Y-57888152D02*
X81504523Y-57983390D01*
X81504523Y-57983390D02*
X81456904Y-58031009D01*
X81456904Y-58031009D02*
X81361666Y-58078628D01*
X81361666Y-58078628D02*
X80980714Y-58078628D01*
X82504523Y-58554819D02*
X81933095Y-58554819D01*
X82218809Y-58554819D02*
X82218809Y-57554819D01*
X82218809Y-57554819D02*
X82123571Y-57697676D01*
X82123571Y-57697676D02*
X82028333Y-57792914D01*
X82028333Y-57792914D02*
X81933095Y-57840533D01*
X82837857Y-57554819D02*
X83456904Y-57554819D01*
X83456904Y-57554819D02*
X83123571Y-57935771D01*
X83123571Y-57935771D02*
X83266428Y-57935771D01*
X83266428Y-57935771D02*
X83361666Y-57983390D01*
X83361666Y-57983390D02*
X83409285Y-58031009D01*
X83409285Y-58031009D02*
X83456904Y-58126247D01*
X83456904Y-58126247D02*
X83456904Y-58364342D01*
X83456904Y-58364342D02*
X83409285Y-58459580D01*
X83409285Y-58459580D02*
X83361666Y-58507200D01*
X83361666Y-58507200D02*
X83266428Y-58554819D01*
X83266428Y-58554819D02*
X82980714Y-58554819D01*
X82980714Y-58554819D02*
X82885476Y-58507200D01*
X82885476Y-58507200D02*
X82837857Y-58459580D01*
X77774819Y-103307857D02*
X77298628Y-103641190D01*
X77774819Y-103879285D02*
X76774819Y-103879285D01*
X76774819Y-103879285D02*
X76774819Y-103498333D01*
X76774819Y-103498333D02*
X76822438Y-103403095D01*
X76822438Y-103403095D02*
X76870057Y-103355476D01*
X76870057Y-103355476D02*
X76965295Y-103307857D01*
X76965295Y-103307857D02*
X77108152Y-103307857D01*
X77108152Y-103307857D02*
X77203390Y-103355476D01*
X77203390Y-103355476D02*
X77251009Y-103403095D01*
X77251009Y-103403095D02*
X77298628Y-103498333D01*
X77298628Y-103498333D02*
X77298628Y-103879285D01*
X77774819Y-102355476D02*
X77774819Y-102926904D01*
X77774819Y-102641190D02*
X76774819Y-102641190D01*
X76774819Y-102641190D02*
X76917676Y-102736428D01*
X76917676Y-102736428D02*
X77012914Y-102831666D01*
X77012914Y-102831666D02*
X77060533Y-102926904D01*
X76774819Y-101736428D02*
X76774819Y-101641190D01*
X76774819Y-101641190D02*
X76822438Y-101545952D01*
X76822438Y-101545952D02*
X76870057Y-101498333D01*
X76870057Y-101498333D02*
X76965295Y-101450714D01*
X76965295Y-101450714D02*
X77155771Y-101403095D01*
X77155771Y-101403095D02*
X77393866Y-101403095D01*
X77393866Y-101403095D02*
X77584342Y-101450714D01*
X77584342Y-101450714D02*
X77679580Y-101498333D01*
X77679580Y-101498333D02*
X77727200Y-101545952D01*
X77727200Y-101545952D02*
X77774819Y-101641190D01*
X77774819Y-101641190D02*
X77774819Y-101736428D01*
X77774819Y-101736428D02*
X77727200Y-101831666D01*
X77727200Y-101831666D02*
X77679580Y-101879285D01*
X77679580Y-101879285D02*
X77584342Y-101926904D01*
X77584342Y-101926904D02*
X77393866Y-101974523D01*
X77393866Y-101974523D02*
X77155771Y-101974523D01*
X77155771Y-101974523D02*
X76965295Y-101926904D01*
X76965295Y-101926904D02*
X76870057Y-101879285D01*
X76870057Y-101879285D02*
X76822438Y-101831666D01*
X76822438Y-101831666D02*
X76774819Y-101736428D01*
D13*
X71673571Y-80353365D02*
X71613095Y-80413842D01*
X71613095Y-80413842D02*
X71431666Y-80474318D01*
X71431666Y-80474318D02*
X71310714Y-80474318D01*
X71310714Y-80474318D02*
X71129285Y-80413842D01*
X71129285Y-80413842D02*
X71008333Y-80292889D01*
X71008333Y-80292889D02*
X70947856Y-80171937D01*
X70947856Y-80171937D02*
X70887380Y-79930032D01*
X70887380Y-79930032D02*
X70887380Y-79748603D01*
X70887380Y-79748603D02*
X70947856Y-79506699D01*
X70947856Y-79506699D02*
X71008333Y-79385746D01*
X71008333Y-79385746D02*
X71129285Y-79264794D01*
X71129285Y-79264794D02*
X71310714Y-79204318D01*
X71310714Y-79204318D02*
X71431666Y-79204318D01*
X71431666Y-79204318D02*
X71613095Y-79264794D01*
X71613095Y-79264794D02*
X71673571Y-79325270D01*
X72883095Y-80474318D02*
X72157380Y-80474318D01*
X72520237Y-80474318D02*
X72520237Y-79204318D01*
X72520237Y-79204318D02*
X72399285Y-79385746D01*
X72399285Y-79385746D02*
X72278333Y-79506699D01*
X72278333Y-79506699D02*
X72157380Y-79567175D01*
X73487857Y-80474318D02*
X73729761Y-80474318D01*
X73729761Y-80474318D02*
X73850714Y-80413842D01*
X73850714Y-80413842D02*
X73911190Y-80353365D01*
X73911190Y-80353365D02*
X74032142Y-80171937D01*
X74032142Y-80171937D02*
X74092619Y-79930032D01*
X74092619Y-79930032D02*
X74092619Y-79446222D01*
X74092619Y-79446222D02*
X74032142Y-79325270D01*
X74032142Y-79325270D02*
X73971666Y-79264794D01*
X73971666Y-79264794D02*
X73850714Y-79204318D01*
X73850714Y-79204318D02*
X73608809Y-79204318D01*
X73608809Y-79204318D02*
X73487857Y-79264794D01*
X73487857Y-79264794D02*
X73427380Y-79325270D01*
X73427380Y-79325270D02*
X73366904Y-79446222D01*
X73366904Y-79446222D02*
X73366904Y-79748603D01*
X73366904Y-79748603D02*
X73427380Y-79869556D01*
X73427380Y-79869556D02*
X73487857Y-79930032D01*
X73487857Y-79930032D02*
X73608809Y-79990508D01*
X73608809Y-79990508D02*
X73850714Y-79990508D01*
X73850714Y-79990508D02*
X73971666Y-79930032D01*
X73971666Y-79930032D02*
X74032142Y-79869556D01*
X74032142Y-79869556D02*
X74092619Y-79748603D01*
D11*
X41952295Y-67926666D02*
X41952295Y-67431428D01*
X41952295Y-67431428D02*
X42257057Y-67698094D01*
X42257057Y-67698094D02*
X42257057Y-67583809D01*
X42257057Y-67583809D02*
X42295152Y-67507618D01*
X42295152Y-67507618D02*
X42333247Y-67469523D01*
X42333247Y-67469523D02*
X42409438Y-67431428D01*
X42409438Y-67431428D02*
X42599914Y-67431428D01*
X42599914Y-67431428D02*
X42676104Y-67469523D01*
X42676104Y-67469523D02*
X42714200Y-67507618D01*
X42714200Y-67507618D02*
X42752295Y-67583809D01*
X42752295Y-67583809D02*
X42752295Y-67812380D01*
X42752295Y-67812380D02*
X42714200Y-67888571D01*
X42714200Y-67888571D02*
X42676104Y-67926666D01*
X42676104Y-67088570D02*
X42714200Y-67050475D01*
X42714200Y-67050475D02*
X42752295Y-67088570D01*
X42752295Y-67088570D02*
X42714200Y-67126666D01*
X42714200Y-67126666D02*
X42676104Y-67088570D01*
X42676104Y-67088570D02*
X42752295Y-67088570D01*
X41952295Y-66783809D02*
X41952295Y-66288571D01*
X41952295Y-66288571D02*
X42257057Y-66555237D01*
X42257057Y-66555237D02*
X42257057Y-66440952D01*
X42257057Y-66440952D02*
X42295152Y-66364761D01*
X42295152Y-66364761D02*
X42333247Y-66326666D01*
X42333247Y-66326666D02*
X42409438Y-66288571D01*
X42409438Y-66288571D02*
X42599914Y-66288571D01*
X42599914Y-66288571D02*
X42676104Y-66326666D01*
X42676104Y-66326666D02*
X42714200Y-66364761D01*
X42714200Y-66364761D02*
X42752295Y-66440952D01*
X42752295Y-66440952D02*
X42752295Y-66669523D01*
X42752295Y-66669523D02*
X42714200Y-66745714D01*
X42714200Y-66745714D02*
X42676104Y-66783809D01*
X42218961Y-66021904D02*
X42752295Y-65831428D01*
X42752295Y-65831428D02*
X42218961Y-65640951D01*
X42828485Y-65526666D02*
X42828485Y-64917142D01*
X41952295Y-64574284D02*
X41952295Y-64421903D01*
X41952295Y-64421903D02*
X41990390Y-64345713D01*
X41990390Y-64345713D02*
X42066580Y-64269522D01*
X42066580Y-64269522D02*
X42218961Y-64231427D01*
X42218961Y-64231427D02*
X42485628Y-64231427D01*
X42485628Y-64231427D02*
X42638009Y-64269522D01*
X42638009Y-64269522D02*
X42714200Y-64345713D01*
X42714200Y-64345713D02*
X42752295Y-64421903D01*
X42752295Y-64421903D02*
X42752295Y-64574284D01*
X42752295Y-64574284D02*
X42714200Y-64650475D01*
X42714200Y-64650475D02*
X42638009Y-64726665D01*
X42638009Y-64726665D02*
X42485628Y-64764761D01*
X42485628Y-64764761D02*
X42218961Y-64764761D01*
X42218961Y-64764761D02*
X42066580Y-64726665D01*
X42066580Y-64726665D02*
X41990390Y-64650475D01*
X41990390Y-64650475D02*
X41952295Y-64574284D01*
X42752295Y-63888570D02*
X41952295Y-63888570D01*
X41952295Y-63888570D02*
X42752295Y-63431427D01*
X42752295Y-63431427D02*
X41952295Y-63431427D01*
X42752295Y-62631428D02*
X42752295Y-63088571D01*
X42752295Y-62859999D02*
X41952295Y-62859999D01*
X41952295Y-62859999D02*
X42066580Y-62936190D01*
X42066580Y-62936190D02*
X42142771Y-63012380D01*
X42142771Y-63012380D02*
X42180866Y-63088571D01*
X90226667Y-25066104D02*
X90188571Y-25104200D01*
X90188571Y-25104200D02*
X90074286Y-25142295D01*
X90074286Y-25142295D02*
X89998095Y-25142295D01*
X89998095Y-25142295D02*
X89883809Y-25104200D01*
X89883809Y-25104200D02*
X89807619Y-25028009D01*
X89807619Y-25028009D02*
X89769524Y-24951819D01*
X89769524Y-24951819D02*
X89731428Y-24799438D01*
X89731428Y-24799438D02*
X89731428Y-24685152D01*
X89731428Y-24685152D02*
X89769524Y-24532771D01*
X89769524Y-24532771D02*
X89807619Y-24456580D01*
X89807619Y-24456580D02*
X89883809Y-24380390D01*
X89883809Y-24380390D02*
X89998095Y-24342295D01*
X89998095Y-24342295D02*
X90074286Y-24342295D01*
X90074286Y-24342295D02*
X90188571Y-24380390D01*
X90188571Y-24380390D02*
X90226667Y-24418485D01*
X90950476Y-24342295D02*
X90569524Y-24342295D01*
X90569524Y-24342295D02*
X90531428Y-24723247D01*
X90531428Y-24723247D02*
X90569524Y-24685152D01*
X90569524Y-24685152D02*
X90645714Y-24647057D01*
X90645714Y-24647057D02*
X90836190Y-24647057D01*
X90836190Y-24647057D02*
X90912381Y-24685152D01*
X90912381Y-24685152D02*
X90950476Y-24723247D01*
X90950476Y-24723247D02*
X90988571Y-24799438D01*
X90988571Y-24799438D02*
X90988571Y-24989914D01*
X90988571Y-24989914D02*
X90950476Y-25066104D01*
X90950476Y-25066104D02*
X90912381Y-25104200D01*
X90912381Y-25104200D02*
X90836190Y-25142295D01*
X90836190Y-25142295D02*
X90645714Y-25142295D01*
X90645714Y-25142295D02*
X90569524Y-25104200D01*
X90569524Y-25104200D02*
X90531428Y-25066104D01*
X54412295Y-78151375D02*
X53612295Y-78151375D01*
X53612295Y-78151375D02*
X53612295Y-77960899D01*
X53612295Y-77960899D02*
X53650390Y-77846613D01*
X53650390Y-77846613D02*
X53726580Y-77770423D01*
X53726580Y-77770423D02*
X53802771Y-77732328D01*
X53802771Y-77732328D02*
X53955152Y-77694232D01*
X53955152Y-77694232D02*
X54069438Y-77694232D01*
X54069438Y-77694232D02*
X54221819Y-77732328D01*
X54221819Y-77732328D02*
X54298009Y-77770423D01*
X54298009Y-77770423D02*
X54374200Y-77846613D01*
X54374200Y-77846613D02*
X54412295Y-77960899D01*
X54412295Y-77960899D02*
X54412295Y-78151375D01*
X53612295Y-76970423D02*
X53612295Y-77351375D01*
X53612295Y-77351375D02*
X53993247Y-77389471D01*
X53993247Y-77389471D02*
X53955152Y-77351375D01*
X53955152Y-77351375D02*
X53917057Y-77275185D01*
X53917057Y-77275185D02*
X53917057Y-77084709D01*
X53917057Y-77084709D02*
X53955152Y-77008518D01*
X53955152Y-77008518D02*
X53993247Y-76970423D01*
X53993247Y-76970423D02*
X54069438Y-76932328D01*
X54069438Y-76932328D02*
X54259914Y-76932328D01*
X54259914Y-76932328D02*
X54336104Y-76970423D01*
X54336104Y-76970423D02*
X54374200Y-77008518D01*
X54374200Y-77008518D02*
X54412295Y-77084709D01*
X54412295Y-77084709D02*
X54412295Y-77275185D01*
X54412295Y-77275185D02*
X54374200Y-77351375D01*
X54374200Y-77351375D02*
X54336104Y-77389471D01*
X63587142Y-45804819D02*
X63253809Y-45328628D01*
X63015714Y-45804819D02*
X63015714Y-44804819D01*
X63015714Y-44804819D02*
X63396666Y-44804819D01*
X63396666Y-44804819D02*
X63491904Y-44852438D01*
X63491904Y-44852438D02*
X63539523Y-44900057D01*
X63539523Y-44900057D02*
X63587142Y-44995295D01*
X63587142Y-44995295D02*
X63587142Y-45138152D01*
X63587142Y-45138152D02*
X63539523Y-45233390D01*
X63539523Y-45233390D02*
X63491904Y-45281009D01*
X63491904Y-45281009D02*
X63396666Y-45328628D01*
X63396666Y-45328628D02*
X63015714Y-45328628D01*
X64539523Y-45804819D02*
X63968095Y-45804819D01*
X64253809Y-45804819D02*
X64253809Y-44804819D01*
X64253809Y-44804819D02*
X64158571Y-44947676D01*
X64158571Y-44947676D02*
X64063333Y-45042914D01*
X64063333Y-45042914D02*
X63968095Y-45090533D01*
X65491904Y-45804819D02*
X64920476Y-45804819D01*
X65206190Y-45804819D02*
X65206190Y-44804819D01*
X65206190Y-44804819D02*
X65110952Y-44947676D01*
X65110952Y-44947676D02*
X65015714Y-45042914D01*
X65015714Y-45042914D02*
X64920476Y-45090533D01*
X45684819Y-63922857D02*
X45208628Y-64256190D01*
X45684819Y-64494285D02*
X44684819Y-64494285D01*
X44684819Y-64494285D02*
X44684819Y-64113333D01*
X44684819Y-64113333D02*
X44732438Y-64018095D01*
X44732438Y-64018095D02*
X44780057Y-63970476D01*
X44780057Y-63970476D02*
X44875295Y-63922857D01*
X44875295Y-63922857D02*
X45018152Y-63922857D01*
X45018152Y-63922857D02*
X45113390Y-63970476D01*
X45113390Y-63970476D02*
X45161009Y-64018095D01*
X45161009Y-64018095D02*
X45208628Y-64113333D01*
X45208628Y-64113333D02*
X45208628Y-64494285D01*
X45684819Y-62970476D02*
X45684819Y-63541904D01*
X45684819Y-63256190D02*
X44684819Y-63256190D01*
X44684819Y-63256190D02*
X44827676Y-63351428D01*
X44827676Y-63351428D02*
X44922914Y-63446666D01*
X44922914Y-63446666D02*
X44970533Y-63541904D01*
X44684819Y-62113333D02*
X44684819Y-62303809D01*
X44684819Y-62303809D02*
X44732438Y-62399047D01*
X44732438Y-62399047D02*
X44780057Y-62446666D01*
X44780057Y-62446666D02*
X44922914Y-62541904D01*
X44922914Y-62541904D02*
X45113390Y-62589523D01*
X45113390Y-62589523D02*
X45494342Y-62589523D01*
X45494342Y-62589523D02*
X45589580Y-62541904D01*
X45589580Y-62541904D02*
X45637200Y-62494285D01*
X45637200Y-62494285D02*
X45684819Y-62399047D01*
X45684819Y-62399047D02*
X45684819Y-62208571D01*
X45684819Y-62208571D02*
X45637200Y-62113333D01*
X45637200Y-62113333D02*
X45589580Y-62065714D01*
X45589580Y-62065714D02*
X45494342Y-62018095D01*
X45494342Y-62018095D02*
X45256247Y-62018095D01*
X45256247Y-62018095D02*
X45161009Y-62065714D01*
X45161009Y-62065714D02*
X45113390Y-62113333D01*
X45113390Y-62113333D02*
X45065771Y-62208571D01*
X45065771Y-62208571D02*
X45065771Y-62399047D01*
X45065771Y-62399047D02*
X45113390Y-62494285D01*
X45113390Y-62494285D02*
X45161009Y-62541904D01*
X45161009Y-62541904D02*
X45256247Y-62589523D01*
D10*
X29654895Y-117696666D02*
X30226323Y-117696666D01*
X30226323Y-117696666D02*
X30340609Y-117734761D01*
X30340609Y-117734761D02*
X30416800Y-117810952D01*
X30416800Y-117810952D02*
X30454895Y-117925237D01*
X30454895Y-117925237D02*
X30454895Y-118001428D01*
X29921561Y-116972856D02*
X30454895Y-116972856D01*
X29616800Y-117163332D02*
X30188228Y-117353809D01*
X30188228Y-117353809D02*
X30188228Y-116858570D01*
D11*
X63557142Y-49434819D02*
X63223809Y-48958628D01*
X62985714Y-49434819D02*
X62985714Y-48434819D01*
X62985714Y-48434819D02*
X63366666Y-48434819D01*
X63366666Y-48434819D02*
X63461904Y-48482438D01*
X63461904Y-48482438D02*
X63509523Y-48530057D01*
X63509523Y-48530057D02*
X63557142Y-48625295D01*
X63557142Y-48625295D02*
X63557142Y-48768152D01*
X63557142Y-48768152D02*
X63509523Y-48863390D01*
X63509523Y-48863390D02*
X63461904Y-48911009D01*
X63461904Y-48911009D02*
X63366666Y-48958628D01*
X63366666Y-48958628D02*
X62985714Y-48958628D01*
X64509523Y-49434819D02*
X63938095Y-49434819D01*
X64223809Y-49434819D02*
X64223809Y-48434819D01*
X64223809Y-48434819D02*
X64128571Y-48577676D01*
X64128571Y-48577676D02*
X64033333Y-48672914D01*
X64033333Y-48672914D02*
X63938095Y-48720533D01*
X64890476Y-48530057D02*
X64938095Y-48482438D01*
X64938095Y-48482438D02*
X65033333Y-48434819D01*
X65033333Y-48434819D02*
X65271428Y-48434819D01*
X65271428Y-48434819D02*
X65366666Y-48482438D01*
X65366666Y-48482438D02*
X65414285Y-48530057D01*
X65414285Y-48530057D02*
X65461904Y-48625295D01*
X65461904Y-48625295D02*
X65461904Y-48720533D01*
X65461904Y-48720533D02*
X65414285Y-48863390D01*
X65414285Y-48863390D02*
X64842857Y-49434819D01*
X64842857Y-49434819D02*
X65461904Y-49434819D01*
X55776524Y-75902295D02*
X55776524Y-75102295D01*
X55776524Y-75102295D02*
X55967000Y-75102295D01*
X55967000Y-75102295D02*
X56081286Y-75140390D01*
X56081286Y-75140390D02*
X56157476Y-75216580D01*
X56157476Y-75216580D02*
X56195571Y-75292771D01*
X56195571Y-75292771D02*
X56233667Y-75445152D01*
X56233667Y-75445152D02*
X56233667Y-75559438D01*
X56233667Y-75559438D02*
X56195571Y-75711819D01*
X56195571Y-75711819D02*
X56157476Y-75788009D01*
X56157476Y-75788009D02*
X56081286Y-75864200D01*
X56081286Y-75864200D02*
X55967000Y-75902295D01*
X55967000Y-75902295D02*
X55776524Y-75902295D01*
X56919381Y-75368961D02*
X56919381Y-75902295D01*
X56728905Y-75064200D02*
X56538428Y-75635628D01*
X56538428Y-75635628D02*
X57033667Y-75635628D01*
X57053333Y-69149580D02*
X57005714Y-69197200D01*
X57005714Y-69197200D02*
X56862857Y-69244819D01*
X56862857Y-69244819D02*
X56767619Y-69244819D01*
X56767619Y-69244819D02*
X56624762Y-69197200D01*
X56624762Y-69197200D02*
X56529524Y-69101961D01*
X56529524Y-69101961D02*
X56481905Y-69006723D01*
X56481905Y-69006723D02*
X56434286Y-68816247D01*
X56434286Y-68816247D02*
X56434286Y-68673390D01*
X56434286Y-68673390D02*
X56481905Y-68482914D01*
X56481905Y-68482914D02*
X56529524Y-68387676D01*
X56529524Y-68387676D02*
X56624762Y-68292438D01*
X56624762Y-68292438D02*
X56767619Y-68244819D01*
X56767619Y-68244819D02*
X56862857Y-68244819D01*
X56862857Y-68244819D02*
X57005714Y-68292438D01*
X57005714Y-68292438D02*
X57053333Y-68340057D01*
X57624762Y-68673390D02*
X57529524Y-68625771D01*
X57529524Y-68625771D02*
X57481905Y-68578152D01*
X57481905Y-68578152D02*
X57434286Y-68482914D01*
X57434286Y-68482914D02*
X57434286Y-68435295D01*
X57434286Y-68435295D02*
X57481905Y-68340057D01*
X57481905Y-68340057D02*
X57529524Y-68292438D01*
X57529524Y-68292438D02*
X57624762Y-68244819D01*
X57624762Y-68244819D02*
X57815238Y-68244819D01*
X57815238Y-68244819D02*
X57910476Y-68292438D01*
X57910476Y-68292438D02*
X57958095Y-68340057D01*
X57958095Y-68340057D02*
X58005714Y-68435295D01*
X58005714Y-68435295D02*
X58005714Y-68482914D01*
X58005714Y-68482914D02*
X57958095Y-68578152D01*
X57958095Y-68578152D02*
X57910476Y-68625771D01*
X57910476Y-68625771D02*
X57815238Y-68673390D01*
X57815238Y-68673390D02*
X57624762Y-68673390D01*
X57624762Y-68673390D02*
X57529524Y-68721009D01*
X57529524Y-68721009D02*
X57481905Y-68768628D01*
X57481905Y-68768628D02*
X57434286Y-68863866D01*
X57434286Y-68863866D02*
X57434286Y-69054342D01*
X57434286Y-69054342D02*
X57481905Y-69149580D01*
X57481905Y-69149580D02*
X57529524Y-69197200D01*
X57529524Y-69197200D02*
X57624762Y-69244819D01*
X57624762Y-69244819D02*
X57815238Y-69244819D01*
X57815238Y-69244819D02*
X57910476Y-69197200D01*
X57910476Y-69197200D02*
X57958095Y-69149580D01*
X57958095Y-69149580D02*
X58005714Y-69054342D01*
X58005714Y-69054342D02*
X58005714Y-68863866D01*
X58005714Y-68863866D02*
X57958095Y-68768628D01*
X57958095Y-68768628D02*
X57910476Y-68721009D01*
X57910476Y-68721009D02*
X57815238Y-68673390D01*
X74586666Y-52141009D02*
X74253333Y-52141009D01*
X74253333Y-52664819D02*
X74253333Y-51664819D01*
X74253333Y-51664819D02*
X74729523Y-51664819D01*
X75634285Y-52664819D02*
X75062857Y-52664819D01*
X75348571Y-52664819D02*
X75348571Y-51664819D01*
X75348571Y-51664819D02*
X75253333Y-51807676D01*
X75253333Y-51807676D02*
X75158095Y-51902914D01*
X75158095Y-51902914D02*
X75062857Y-51950533D01*
X85752142Y-102689580D02*
X85704523Y-102737200D01*
X85704523Y-102737200D02*
X85561666Y-102784819D01*
X85561666Y-102784819D02*
X85466428Y-102784819D01*
X85466428Y-102784819D02*
X85323571Y-102737200D01*
X85323571Y-102737200D02*
X85228333Y-102641961D01*
X85228333Y-102641961D02*
X85180714Y-102546723D01*
X85180714Y-102546723D02*
X85133095Y-102356247D01*
X85133095Y-102356247D02*
X85133095Y-102213390D01*
X85133095Y-102213390D02*
X85180714Y-102022914D01*
X85180714Y-102022914D02*
X85228333Y-101927676D01*
X85228333Y-101927676D02*
X85323571Y-101832438D01*
X85323571Y-101832438D02*
X85466428Y-101784819D01*
X85466428Y-101784819D02*
X85561666Y-101784819D01*
X85561666Y-101784819D02*
X85704523Y-101832438D01*
X85704523Y-101832438D02*
X85752142Y-101880057D01*
X86704523Y-102784819D02*
X86133095Y-102784819D01*
X86418809Y-102784819D02*
X86418809Y-101784819D01*
X86418809Y-101784819D02*
X86323571Y-101927676D01*
X86323571Y-101927676D02*
X86228333Y-102022914D01*
X86228333Y-102022914D02*
X86133095Y-102070533D01*
X87656904Y-102784819D02*
X87085476Y-102784819D01*
X87371190Y-102784819D02*
X87371190Y-101784819D01*
X87371190Y-101784819D02*
X87275952Y-101927676D01*
X87275952Y-101927676D02*
X87180714Y-102022914D01*
X87180714Y-102022914D02*
X87085476Y-102070533D01*
X48037142Y-86659580D02*
X47989523Y-86707200D01*
X47989523Y-86707200D02*
X47846666Y-86754819D01*
X47846666Y-86754819D02*
X47751428Y-86754819D01*
X47751428Y-86754819D02*
X47608571Y-86707200D01*
X47608571Y-86707200D02*
X47513333Y-86611961D01*
X47513333Y-86611961D02*
X47465714Y-86516723D01*
X47465714Y-86516723D02*
X47418095Y-86326247D01*
X47418095Y-86326247D02*
X47418095Y-86183390D01*
X47418095Y-86183390D02*
X47465714Y-85992914D01*
X47465714Y-85992914D02*
X47513333Y-85897676D01*
X47513333Y-85897676D02*
X47608571Y-85802438D01*
X47608571Y-85802438D02*
X47751428Y-85754819D01*
X47751428Y-85754819D02*
X47846666Y-85754819D01*
X47846666Y-85754819D02*
X47989523Y-85802438D01*
X47989523Y-85802438D02*
X48037142Y-85850057D01*
X48418095Y-85850057D02*
X48465714Y-85802438D01*
X48465714Y-85802438D02*
X48560952Y-85754819D01*
X48560952Y-85754819D02*
X48799047Y-85754819D01*
X48799047Y-85754819D02*
X48894285Y-85802438D01*
X48894285Y-85802438D02*
X48941904Y-85850057D01*
X48941904Y-85850057D02*
X48989523Y-85945295D01*
X48989523Y-85945295D02*
X48989523Y-86040533D01*
X48989523Y-86040533D02*
X48941904Y-86183390D01*
X48941904Y-86183390D02*
X48370476Y-86754819D01*
X48370476Y-86754819D02*
X48989523Y-86754819D01*
X49608571Y-85754819D02*
X49703809Y-85754819D01*
X49703809Y-85754819D02*
X49799047Y-85802438D01*
X49799047Y-85802438D02*
X49846666Y-85850057D01*
X49846666Y-85850057D02*
X49894285Y-85945295D01*
X49894285Y-85945295D02*
X49941904Y-86135771D01*
X49941904Y-86135771D02*
X49941904Y-86373866D01*
X49941904Y-86373866D02*
X49894285Y-86564342D01*
X49894285Y-86564342D02*
X49846666Y-86659580D01*
X49846666Y-86659580D02*
X49799047Y-86707200D01*
X49799047Y-86707200D02*
X49703809Y-86754819D01*
X49703809Y-86754819D02*
X49608571Y-86754819D01*
X49608571Y-86754819D02*
X49513333Y-86707200D01*
X49513333Y-86707200D02*
X49465714Y-86659580D01*
X49465714Y-86659580D02*
X49418095Y-86564342D01*
X49418095Y-86564342D02*
X49370476Y-86373866D01*
X49370476Y-86373866D02*
X49370476Y-86135771D01*
X49370476Y-86135771D02*
X49418095Y-85945295D01*
X49418095Y-85945295D02*
X49465714Y-85850057D01*
X49465714Y-85850057D02*
X49513333Y-85802438D01*
X49513333Y-85802438D02*
X49608571Y-85754819D01*
X81547142Y-60064819D02*
X81213809Y-59588628D01*
X80975714Y-60064819D02*
X80975714Y-59064819D01*
X80975714Y-59064819D02*
X81356666Y-59064819D01*
X81356666Y-59064819D02*
X81451904Y-59112438D01*
X81451904Y-59112438D02*
X81499523Y-59160057D01*
X81499523Y-59160057D02*
X81547142Y-59255295D01*
X81547142Y-59255295D02*
X81547142Y-59398152D01*
X81547142Y-59398152D02*
X81499523Y-59493390D01*
X81499523Y-59493390D02*
X81451904Y-59541009D01*
X81451904Y-59541009D02*
X81356666Y-59588628D01*
X81356666Y-59588628D02*
X80975714Y-59588628D01*
X82499523Y-60064819D02*
X81928095Y-60064819D01*
X82213809Y-60064819D02*
X82213809Y-59064819D01*
X82213809Y-59064819D02*
X82118571Y-59207676D01*
X82118571Y-59207676D02*
X82023333Y-59302914D01*
X82023333Y-59302914D02*
X81928095Y-59350533D01*
X83356666Y-59398152D02*
X83356666Y-60064819D01*
X83118571Y-59017200D02*
X82880476Y-59731485D01*
X82880476Y-59731485D02*
X83499523Y-59731485D01*
X29873333Y-58559580D02*
X29825714Y-58607200D01*
X29825714Y-58607200D02*
X29682857Y-58654819D01*
X29682857Y-58654819D02*
X29587619Y-58654819D01*
X29587619Y-58654819D02*
X29444762Y-58607200D01*
X29444762Y-58607200D02*
X29349524Y-58511961D01*
X29349524Y-58511961D02*
X29301905Y-58416723D01*
X29301905Y-58416723D02*
X29254286Y-58226247D01*
X29254286Y-58226247D02*
X29254286Y-58083390D01*
X29254286Y-58083390D02*
X29301905Y-57892914D01*
X29301905Y-57892914D02*
X29349524Y-57797676D01*
X29349524Y-57797676D02*
X29444762Y-57702438D01*
X29444762Y-57702438D02*
X29587619Y-57654819D01*
X29587619Y-57654819D02*
X29682857Y-57654819D01*
X29682857Y-57654819D02*
X29825714Y-57702438D01*
X29825714Y-57702438D02*
X29873333Y-57750057D01*
X30254286Y-57750057D02*
X30301905Y-57702438D01*
X30301905Y-57702438D02*
X30397143Y-57654819D01*
X30397143Y-57654819D02*
X30635238Y-57654819D01*
X30635238Y-57654819D02*
X30730476Y-57702438D01*
X30730476Y-57702438D02*
X30778095Y-57750057D01*
X30778095Y-57750057D02*
X30825714Y-57845295D01*
X30825714Y-57845295D02*
X30825714Y-57940533D01*
X30825714Y-57940533D02*
X30778095Y-58083390D01*
X30778095Y-58083390D02*
X30206667Y-58654819D01*
X30206667Y-58654819D02*
X30825714Y-58654819D01*
X21585180Y-127797395D02*
X20775657Y-127797395D01*
X20775657Y-127797395D02*
X20680419Y-127845014D01*
X20680419Y-127845014D02*
X20632800Y-127892633D01*
X20632800Y-127892633D02*
X20585180Y-127987871D01*
X20585180Y-127987871D02*
X20585180Y-128178347D01*
X20585180Y-128178347D02*
X20632800Y-128273585D01*
X20632800Y-128273585D02*
X20680419Y-128321204D01*
X20680419Y-128321204D02*
X20775657Y-128368823D01*
X20775657Y-128368823D02*
X21585180Y-128368823D01*
X21585180Y-129321204D02*
X21585180Y-128845014D01*
X21585180Y-128845014D02*
X21108990Y-128797395D01*
X21108990Y-128797395D02*
X21156609Y-128845014D01*
X21156609Y-128845014D02*
X21204228Y-128940252D01*
X21204228Y-128940252D02*
X21204228Y-129178347D01*
X21204228Y-129178347D02*
X21156609Y-129273585D01*
X21156609Y-129273585D02*
X21108990Y-129321204D01*
X21108990Y-129321204D02*
X21013752Y-129368823D01*
X21013752Y-129368823D02*
X20775657Y-129368823D01*
X20775657Y-129368823D02*
X20680419Y-129321204D01*
X20680419Y-129321204D02*
X20632800Y-129273585D01*
X20632800Y-129273585D02*
X20585180Y-129178347D01*
X20585180Y-129178347D02*
X20585180Y-128940252D01*
X20585180Y-128940252D02*
X20632800Y-128845014D01*
X20632800Y-128845014D02*
X20680419Y-128797395D01*
X89524819Y-32011666D02*
X89048628Y-32344999D01*
X89524819Y-32583094D02*
X88524819Y-32583094D01*
X88524819Y-32583094D02*
X88524819Y-32202142D01*
X88524819Y-32202142D02*
X88572438Y-32106904D01*
X88572438Y-32106904D02*
X88620057Y-32059285D01*
X88620057Y-32059285D02*
X88715295Y-32011666D01*
X88715295Y-32011666D02*
X88858152Y-32011666D01*
X88858152Y-32011666D02*
X88953390Y-32059285D01*
X88953390Y-32059285D02*
X89001009Y-32106904D01*
X89001009Y-32106904D02*
X89048628Y-32202142D01*
X89048628Y-32202142D02*
X89048628Y-32583094D01*
X88858152Y-31154523D02*
X89524819Y-31154523D01*
X88477200Y-31392618D02*
X89191485Y-31630713D01*
X89191485Y-31630713D02*
X89191485Y-31011666D01*
X27178333Y-52434819D02*
X26845000Y-51958628D01*
X26606905Y-52434819D02*
X26606905Y-51434819D01*
X26606905Y-51434819D02*
X26987857Y-51434819D01*
X26987857Y-51434819D02*
X27083095Y-51482438D01*
X27083095Y-51482438D02*
X27130714Y-51530057D01*
X27130714Y-51530057D02*
X27178333Y-51625295D01*
X27178333Y-51625295D02*
X27178333Y-51768152D01*
X27178333Y-51768152D02*
X27130714Y-51863390D01*
X27130714Y-51863390D02*
X27083095Y-51911009D01*
X27083095Y-51911009D02*
X26987857Y-51958628D01*
X26987857Y-51958628D02*
X26606905Y-51958628D01*
X28083095Y-51434819D02*
X27606905Y-51434819D01*
X27606905Y-51434819D02*
X27559286Y-51911009D01*
X27559286Y-51911009D02*
X27606905Y-51863390D01*
X27606905Y-51863390D02*
X27702143Y-51815771D01*
X27702143Y-51815771D02*
X27940238Y-51815771D01*
X27940238Y-51815771D02*
X28035476Y-51863390D01*
X28035476Y-51863390D02*
X28083095Y-51911009D01*
X28083095Y-51911009D02*
X28130714Y-52006247D01*
X28130714Y-52006247D02*
X28130714Y-52244342D01*
X28130714Y-52244342D02*
X28083095Y-52339580D01*
X28083095Y-52339580D02*
X28035476Y-52387200D01*
X28035476Y-52387200D02*
X27940238Y-52434819D01*
X27940238Y-52434819D02*
X27702143Y-52434819D01*
X27702143Y-52434819D02*
X27606905Y-52387200D01*
X27606905Y-52387200D02*
X27559286Y-52339580D01*
X76728095Y-49267319D02*
X76728095Y-50076842D01*
X76728095Y-50076842D02*
X76775714Y-50172080D01*
X76775714Y-50172080D02*
X76823333Y-50219700D01*
X76823333Y-50219700D02*
X76918571Y-50267319D01*
X76918571Y-50267319D02*
X77109047Y-50267319D01*
X77109047Y-50267319D02*
X77204285Y-50219700D01*
X77204285Y-50219700D02*
X77251904Y-50172080D01*
X77251904Y-50172080D02*
X77299523Y-50076842D01*
X77299523Y-50076842D02*
X77299523Y-49267319D01*
X77680476Y-49267319D02*
X78299523Y-49267319D01*
X78299523Y-49267319D02*
X77966190Y-49648271D01*
X77966190Y-49648271D02*
X78109047Y-49648271D01*
X78109047Y-49648271D02*
X78204285Y-49695890D01*
X78204285Y-49695890D02*
X78251904Y-49743509D01*
X78251904Y-49743509D02*
X78299523Y-49838747D01*
X78299523Y-49838747D02*
X78299523Y-50076842D01*
X78299523Y-50076842D02*
X78251904Y-50172080D01*
X78251904Y-50172080D02*
X78204285Y-50219700D01*
X78204285Y-50219700D02*
X78109047Y-50267319D01*
X78109047Y-50267319D02*
X77823333Y-50267319D01*
X77823333Y-50267319D02*
X77728095Y-50219700D01*
X77728095Y-50219700D02*
X77680476Y-50172080D01*
D10*
X21194895Y-127222381D02*
X20394895Y-127222381D01*
X20394895Y-127222381D02*
X21194895Y-126765238D01*
X21194895Y-126765238D02*
X20394895Y-126765238D01*
X20394895Y-126498572D02*
X20394895Y-126041429D01*
X21194895Y-126270001D02*
X20394895Y-126270001D01*
X21118704Y-125317619D02*
X21156800Y-125355715D01*
X21156800Y-125355715D02*
X21194895Y-125470000D01*
X21194895Y-125470000D02*
X21194895Y-125546191D01*
X21194895Y-125546191D02*
X21156800Y-125660477D01*
X21156800Y-125660477D02*
X21080609Y-125736667D01*
X21080609Y-125736667D02*
X21004419Y-125774762D01*
X21004419Y-125774762D02*
X20852038Y-125812858D01*
X20852038Y-125812858D02*
X20737752Y-125812858D01*
X20737752Y-125812858D02*
X20585371Y-125774762D01*
X20585371Y-125774762D02*
X20509180Y-125736667D01*
X20509180Y-125736667D02*
X20432990Y-125660477D01*
X20432990Y-125660477D02*
X20394895Y-125546191D01*
X20394895Y-125546191D02*
X20394895Y-125470000D01*
X20394895Y-125470000D02*
X20432990Y-125355715D01*
X20432990Y-125355715D02*
X20471085Y-125317619D01*
X20432990Y-124555715D02*
X20394895Y-124631905D01*
X20394895Y-124631905D02*
X20394895Y-124746191D01*
X20394895Y-124746191D02*
X20432990Y-124860477D01*
X20432990Y-124860477D02*
X20509180Y-124936667D01*
X20509180Y-124936667D02*
X20585371Y-124974762D01*
X20585371Y-124974762D02*
X20737752Y-125012858D01*
X20737752Y-125012858D02*
X20852038Y-125012858D01*
X20852038Y-125012858D02*
X21004419Y-124974762D01*
X21004419Y-124974762D02*
X21080609Y-124936667D01*
X21080609Y-124936667D02*
X21156800Y-124860477D01*
X21156800Y-124860477D02*
X21194895Y-124746191D01*
X21194895Y-124746191D02*
X21194895Y-124670000D01*
X21194895Y-124670000D02*
X21156800Y-124555715D01*
X21156800Y-124555715D02*
X21118704Y-124517619D01*
X21118704Y-124517619D02*
X20852038Y-124517619D01*
X20852038Y-124517619D02*
X20852038Y-124670000D01*
X21194895Y-123755715D02*
X21194895Y-124212858D01*
X21194895Y-123984286D02*
X20394895Y-123984286D01*
X20394895Y-123984286D02*
X20509180Y-124060477D01*
X20509180Y-124060477D02*
X20585371Y-124136667D01*
X20585371Y-124136667D02*
X20623466Y-124212858D01*
X20394895Y-123260476D02*
X20394895Y-123184286D01*
X20394895Y-123184286D02*
X20432990Y-123108095D01*
X20432990Y-123108095D02*
X20471085Y-123070000D01*
X20471085Y-123070000D02*
X20547276Y-123031905D01*
X20547276Y-123031905D02*
X20699657Y-122993810D01*
X20699657Y-122993810D02*
X20890133Y-122993810D01*
X20890133Y-122993810D02*
X21042514Y-123031905D01*
X21042514Y-123031905D02*
X21118704Y-123070000D01*
X21118704Y-123070000D02*
X21156800Y-123108095D01*
X21156800Y-123108095D02*
X21194895Y-123184286D01*
X21194895Y-123184286D02*
X21194895Y-123260476D01*
X21194895Y-123260476D02*
X21156800Y-123336667D01*
X21156800Y-123336667D02*
X21118704Y-123374762D01*
X21118704Y-123374762D02*
X21042514Y-123412857D01*
X21042514Y-123412857D02*
X20890133Y-123450953D01*
X20890133Y-123450953D02*
X20699657Y-123450953D01*
X20699657Y-123450953D02*
X20547276Y-123412857D01*
X20547276Y-123412857D02*
X20471085Y-123374762D01*
X20471085Y-123374762D02*
X20432990Y-123336667D01*
X20432990Y-123336667D02*
X20394895Y-123260476D01*
X20394895Y-122727143D02*
X20394895Y-122231905D01*
X20394895Y-122231905D02*
X20699657Y-122498571D01*
X20699657Y-122498571D02*
X20699657Y-122384286D01*
X20699657Y-122384286D02*
X20737752Y-122308095D01*
X20737752Y-122308095D02*
X20775847Y-122270000D01*
X20775847Y-122270000D02*
X20852038Y-122231905D01*
X20852038Y-122231905D02*
X21042514Y-122231905D01*
X21042514Y-122231905D02*
X21118704Y-122270000D01*
X21118704Y-122270000D02*
X21156800Y-122308095D01*
X21156800Y-122308095D02*
X21194895Y-122384286D01*
X21194895Y-122384286D02*
X21194895Y-122612857D01*
X21194895Y-122612857D02*
X21156800Y-122689048D01*
X21156800Y-122689048D02*
X21118704Y-122727143D01*
X20394895Y-121660476D02*
X20966323Y-121660476D01*
X20966323Y-121660476D02*
X21080609Y-121698571D01*
X21080609Y-121698571D02*
X21156800Y-121774762D01*
X21156800Y-121774762D02*
X21194895Y-121889047D01*
X21194895Y-121889047D02*
X21194895Y-121965238D01*
X20394895Y-121355714D02*
X21194895Y-120822380D01*
X20394895Y-120822380D02*
X21194895Y-121355714D01*
X21194895Y-120098571D02*
X21194895Y-120555714D01*
X21194895Y-120327142D02*
X20394895Y-120327142D01*
X20394895Y-120327142D02*
X20509180Y-120403333D01*
X20509180Y-120403333D02*
X20585371Y-120479523D01*
X20585371Y-120479523D02*
X20623466Y-120555714D01*
X20394895Y-119603332D02*
X20394895Y-119527142D01*
X20394895Y-119527142D02*
X20432990Y-119450951D01*
X20432990Y-119450951D02*
X20471085Y-119412856D01*
X20471085Y-119412856D02*
X20547276Y-119374761D01*
X20547276Y-119374761D02*
X20699657Y-119336666D01*
X20699657Y-119336666D02*
X20890133Y-119336666D01*
X20890133Y-119336666D02*
X21042514Y-119374761D01*
X21042514Y-119374761D02*
X21118704Y-119412856D01*
X21118704Y-119412856D02*
X21156800Y-119450951D01*
X21156800Y-119450951D02*
X21194895Y-119527142D01*
X21194895Y-119527142D02*
X21194895Y-119603332D01*
X21194895Y-119603332D02*
X21156800Y-119679523D01*
X21156800Y-119679523D02*
X21118704Y-119717618D01*
X21118704Y-119717618D02*
X21042514Y-119755713D01*
X21042514Y-119755713D02*
X20890133Y-119793809D01*
X20890133Y-119793809D02*
X20699657Y-119793809D01*
X20699657Y-119793809D02*
X20547276Y-119755713D01*
X20547276Y-119755713D02*
X20471085Y-119717618D01*
X20471085Y-119717618D02*
X20432990Y-119679523D01*
X20432990Y-119679523D02*
X20394895Y-119603332D01*
X20394895Y-119069999D02*
X20394895Y-118574761D01*
X20394895Y-118574761D02*
X20699657Y-118841427D01*
X20699657Y-118841427D02*
X20699657Y-118727142D01*
X20699657Y-118727142D02*
X20737752Y-118650951D01*
X20737752Y-118650951D02*
X20775847Y-118612856D01*
X20775847Y-118612856D02*
X20852038Y-118574761D01*
X20852038Y-118574761D02*
X21042514Y-118574761D01*
X21042514Y-118574761D02*
X21118704Y-118612856D01*
X21118704Y-118612856D02*
X21156800Y-118650951D01*
X21156800Y-118650951D02*
X21194895Y-118727142D01*
X21194895Y-118727142D02*
X21194895Y-118955713D01*
X21194895Y-118955713D02*
X21156800Y-119031904D01*
X21156800Y-119031904D02*
X21118704Y-119069999D01*
X21194895Y-118231903D02*
X20394895Y-118231903D01*
X20394895Y-118231903D02*
X20394895Y-118041427D01*
X20394895Y-118041427D02*
X20432990Y-117927141D01*
X20432990Y-117927141D02*
X20509180Y-117850951D01*
X20509180Y-117850951D02*
X20585371Y-117812856D01*
X20585371Y-117812856D02*
X20737752Y-117774760D01*
X20737752Y-117774760D02*
X20852038Y-117774760D01*
X20852038Y-117774760D02*
X21004419Y-117812856D01*
X21004419Y-117812856D02*
X21080609Y-117850951D01*
X21080609Y-117850951D02*
X21156800Y-117927141D01*
X21156800Y-117927141D02*
X21194895Y-118041427D01*
X21194895Y-118041427D02*
X21194895Y-118231903D01*
X20394895Y-117546189D02*
X20394895Y-117089046D01*
X21194895Y-117317618D02*
X20394895Y-117317618D01*
X21194895Y-116403332D02*
X21194895Y-116860475D01*
X21194895Y-116631903D02*
X20394895Y-116631903D01*
X20394895Y-116631903D02*
X20509180Y-116708094D01*
X20509180Y-116708094D02*
X20585371Y-116784284D01*
X20585371Y-116784284D02*
X20623466Y-116860475D01*
X21156800Y-116098570D02*
X21194895Y-115984284D01*
X21194895Y-115984284D02*
X21194895Y-115793808D01*
X21194895Y-115793808D02*
X21156800Y-115717617D01*
X21156800Y-115717617D02*
X21118704Y-115679522D01*
X21118704Y-115679522D02*
X21042514Y-115641427D01*
X21042514Y-115641427D02*
X20966323Y-115641427D01*
X20966323Y-115641427D02*
X20890133Y-115679522D01*
X20890133Y-115679522D02*
X20852038Y-115717617D01*
X20852038Y-115717617D02*
X20813942Y-115793808D01*
X20813942Y-115793808D02*
X20775847Y-115946189D01*
X20775847Y-115946189D02*
X20737752Y-116022379D01*
X20737752Y-116022379D02*
X20699657Y-116060474D01*
X20699657Y-116060474D02*
X20623466Y-116098570D01*
X20623466Y-116098570D02*
X20547276Y-116098570D01*
X20547276Y-116098570D02*
X20471085Y-116060474D01*
X20471085Y-116060474D02*
X20432990Y-116022379D01*
X20432990Y-116022379D02*
X20394895Y-115946189D01*
X20394895Y-115946189D02*
X20394895Y-115755712D01*
X20394895Y-115755712D02*
X20432990Y-115641427D01*
X21194895Y-114879522D02*
X21194895Y-115336665D01*
X21194895Y-115108093D02*
X20394895Y-115108093D01*
X20394895Y-115108093D02*
X20509180Y-115184284D01*
X20509180Y-115184284D02*
X20585371Y-115260474D01*
X20585371Y-115260474D02*
X20623466Y-115336665D01*
D11*
X85772142Y-105229580D02*
X85724523Y-105277200D01*
X85724523Y-105277200D02*
X85581666Y-105324819D01*
X85581666Y-105324819D02*
X85486428Y-105324819D01*
X85486428Y-105324819D02*
X85343571Y-105277200D01*
X85343571Y-105277200D02*
X85248333Y-105181961D01*
X85248333Y-105181961D02*
X85200714Y-105086723D01*
X85200714Y-105086723D02*
X85153095Y-104896247D01*
X85153095Y-104896247D02*
X85153095Y-104753390D01*
X85153095Y-104753390D02*
X85200714Y-104562914D01*
X85200714Y-104562914D02*
X85248333Y-104467676D01*
X85248333Y-104467676D02*
X85343571Y-104372438D01*
X85343571Y-104372438D02*
X85486428Y-104324819D01*
X85486428Y-104324819D02*
X85581666Y-104324819D01*
X85581666Y-104324819D02*
X85724523Y-104372438D01*
X85724523Y-104372438D02*
X85772142Y-104420057D01*
X86724523Y-105324819D02*
X86153095Y-105324819D01*
X86438809Y-105324819D02*
X86438809Y-104324819D01*
X86438809Y-104324819D02*
X86343571Y-104467676D01*
X86343571Y-104467676D02*
X86248333Y-104562914D01*
X86248333Y-104562914D02*
X86153095Y-104610533D01*
X87105476Y-104420057D02*
X87153095Y-104372438D01*
X87153095Y-104372438D02*
X87248333Y-104324819D01*
X87248333Y-104324819D02*
X87486428Y-104324819D01*
X87486428Y-104324819D02*
X87581666Y-104372438D01*
X87581666Y-104372438D02*
X87629285Y-104420057D01*
X87629285Y-104420057D02*
X87676904Y-104515295D01*
X87676904Y-104515295D02*
X87676904Y-104610533D01*
X87676904Y-104610533D02*
X87629285Y-104753390D01*
X87629285Y-104753390D02*
X87057857Y-105324819D01*
X87057857Y-105324819D02*
X87676904Y-105324819D01*
X71097142Y-61629580D02*
X71049523Y-61677200D01*
X71049523Y-61677200D02*
X70906666Y-61724819D01*
X70906666Y-61724819D02*
X70811428Y-61724819D01*
X70811428Y-61724819D02*
X70668571Y-61677200D01*
X70668571Y-61677200D02*
X70573333Y-61581961D01*
X70573333Y-61581961D02*
X70525714Y-61486723D01*
X70525714Y-61486723D02*
X70478095Y-61296247D01*
X70478095Y-61296247D02*
X70478095Y-61153390D01*
X70478095Y-61153390D02*
X70525714Y-60962914D01*
X70525714Y-60962914D02*
X70573333Y-60867676D01*
X70573333Y-60867676D02*
X70668571Y-60772438D01*
X70668571Y-60772438D02*
X70811428Y-60724819D01*
X70811428Y-60724819D02*
X70906666Y-60724819D01*
X70906666Y-60724819D02*
X71049523Y-60772438D01*
X71049523Y-60772438D02*
X71097142Y-60820057D01*
X72049523Y-61724819D02*
X71478095Y-61724819D01*
X71763809Y-61724819D02*
X71763809Y-60724819D01*
X71763809Y-60724819D02*
X71668571Y-60867676D01*
X71668571Y-60867676D02*
X71573333Y-60962914D01*
X71573333Y-60962914D02*
X71478095Y-61010533D01*
X72382857Y-60724819D02*
X73001904Y-60724819D01*
X73001904Y-60724819D02*
X72668571Y-61105771D01*
X72668571Y-61105771D02*
X72811428Y-61105771D01*
X72811428Y-61105771D02*
X72906666Y-61153390D01*
X72906666Y-61153390D02*
X72954285Y-61201009D01*
X72954285Y-61201009D02*
X73001904Y-61296247D01*
X73001904Y-61296247D02*
X73001904Y-61534342D01*
X73001904Y-61534342D02*
X72954285Y-61629580D01*
X72954285Y-61629580D02*
X72906666Y-61677200D01*
X72906666Y-61677200D02*
X72811428Y-61724819D01*
X72811428Y-61724819D02*
X72525714Y-61724819D01*
X72525714Y-61724819D02*
X72430476Y-61677200D01*
X72430476Y-61677200D02*
X72382857Y-61629580D01*
X66074819Y-48349404D02*
X66884342Y-48349404D01*
X66884342Y-48349404D02*
X66979580Y-48301785D01*
X66979580Y-48301785D02*
X67027200Y-48254166D01*
X67027200Y-48254166D02*
X67074819Y-48158928D01*
X67074819Y-48158928D02*
X67074819Y-47968452D01*
X67074819Y-47968452D02*
X67027200Y-47873214D01*
X67027200Y-47873214D02*
X66979580Y-47825595D01*
X66979580Y-47825595D02*
X66884342Y-47777976D01*
X66884342Y-47777976D02*
X66074819Y-47777976D01*
X66170057Y-47349404D02*
X66122438Y-47301785D01*
X66122438Y-47301785D02*
X66074819Y-47206547D01*
X66074819Y-47206547D02*
X66074819Y-46968452D01*
X66074819Y-46968452D02*
X66122438Y-46873214D01*
X66122438Y-46873214D02*
X66170057Y-46825595D01*
X66170057Y-46825595D02*
X66265295Y-46777976D01*
X66265295Y-46777976D02*
X66360533Y-46777976D01*
X66360533Y-46777976D02*
X66503390Y-46825595D01*
X66503390Y-46825595D02*
X67074819Y-47397023D01*
X67074819Y-47397023D02*
X67074819Y-46777976D01*
X71575057Y-54095238D02*
X71527438Y-54190476D01*
X71527438Y-54190476D02*
X71432200Y-54285714D01*
X71432200Y-54285714D02*
X71289342Y-54428571D01*
X71289342Y-54428571D02*
X71241723Y-54523809D01*
X71241723Y-54523809D02*
X71241723Y-54619047D01*
X71479819Y-54571428D02*
X71432200Y-54666666D01*
X71432200Y-54666666D02*
X71336961Y-54761904D01*
X71336961Y-54761904D02*
X71146485Y-54809523D01*
X71146485Y-54809523D02*
X70813152Y-54809523D01*
X70813152Y-54809523D02*
X70622676Y-54761904D01*
X70622676Y-54761904D02*
X70527438Y-54666666D01*
X70527438Y-54666666D02*
X70479819Y-54571428D01*
X70479819Y-54571428D02*
X70479819Y-54380952D01*
X70479819Y-54380952D02*
X70527438Y-54285714D01*
X70527438Y-54285714D02*
X70622676Y-54190476D01*
X70622676Y-54190476D02*
X70813152Y-54142857D01*
X70813152Y-54142857D02*
X71146485Y-54142857D01*
X71146485Y-54142857D02*
X71336961Y-54190476D01*
X71336961Y-54190476D02*
X71432200Y-54285714D01*
X71432200Y-54285714D02*
X71479819Y-54380952D01*
X71479819Y-54380952D02*
X71479819Y-54571428D01*
X71479819Y-53190476D02*
X71479819Y-53761904D01*
X71479819Y-53476190D02*
X70479819Y-53476190D01*
X70479819Y-53476190D02*
X70622676Y-53571428D01*
X70622676Y-53571428D02*
X70717914Y-53666666D01*
X70717914Y-53666666D02*
X70765533Y-53761904D01*
X29998333Y-56859580D02*
X29950714Y-56907200D01*
X29950714Y-56907200D02*
X29807857Y-56954819D01*
X29807857Y-56954819D02*
X29712619Y-56954819D01*
X29712619Y-56954819D02*
X29569762Y-56907200D01*
X29569762Y-56907200D02*
X29474524Y-56811961D01*
X29474524Y-56811961D02*
X29426905Y-56716723D01*
X29426905Y-56716723D02*
X29379286Y-56526247D01*
X29379286Y-56526247D02*
X29379286Y-56383390D01*
X29379286Y-56383390D02*
X29426905Y-56192914D01*
X29426905Y-56192914D02*
X29474524Y-56097676D01*
X29474524Y-56097676D02*
X29569762Y-56002438D01*
X29569762Y-56002438D02*
X29712619Y-55954819D01*
X29712619Y-55954819D02*
X29807857Y-55954819D01*
X29807857Y-55954819D02*
X29950714Y-56002438D01*
X29950714Y-56002438D02*
X29998333Y-56050057D01*
X30950714Y-56954819D02*
X30379286Y-56954819D01*
X30665000Y-56954819D02*
X30665000Y-55954819D01*
X30665000Y-55954819D02*
X30569762Y-56097676D01*
X30569762Y-56097676D02*
X30474524Y-56192914D01*
X30474524Y-56192914D02*
X30379286Y-56240533D01*
D10*
X22364895Y-119720475D02*
X21564895Y-119720475D01*
X21564895Y-119720475D02*
X21564895Y-119529999D01*
X21564895Y-119529999D02*
X21602990Y-119415713D01*
X21602990Y-119415713D02*
X21679180Y-119339523D01*
X21679180Y-119339523D02*
X21755371Y-119301428D01*
X21755371Y-119301428D02*
X21907752Y-119263332D01*
X21907752Y-119263332D02*
X22022038Y-119263332D01*
X22022038Y-119263332D02*
X22174419Y-119301428D01*
X22174419Y-119301428D02*
X22250609Y-119339523D01*
X22250609Y-119339523D02*
X22326800Y-119415713D01*
X22326800Y-119415713D02*
X22364895Y-119529999D01*
X22364895Y-119529999D02*
X22364895Y-119720475D01*
X21564895Y-118996666D02*
X21564895Y-118463332D01*
X21564895Y-118463332D02*
X22364895Y-118806190D01*
D11*
X90176667Y-20606104D02*
X90138571Y-20644200D01*
X90138571Y-20644200D02*
X90024286Y-20682295D01*
X90024286Y-20682295D02*
X89948095Y-20682295D01*
X89948095Y-20682295D02*
X89833809Y-20644200D01*
X89833809Y-20644200D02*
X89757619Y-20568009D01*
X89757619Y-20568009D02*
X89719524Y-20491819D01*
X89719524Y-20491819D02*
X89681428Y-20339438D01*
X89681428Y-20339438D02*
X89681428Y-20225152D01*
X89681428Y-20225152D02*
X89719524Y-20072771D01*
X89719524Y-20072771D02*
X89757619Y-19996580D01*
X89757619Y-19996580D02*
X89833809Y-19920390D01*
X89833809Y-19920390D02*
X89948095Y-19882295D01*
X89948095Y-19882295D02*
X90024286Y-19882295D01*
X90024286Y-19882295D02*
X90138571Y-19920390D01*
X90138571Y-19920390D02*
X90176667Y-19958485D01*
X90443333Y-19882295D02*
X90938571Y-19882295D01*
X90938571Y-19882295D02*
X90671905Y-20187057D01*
X90671905Y-20187057D02*
X90786190Y-20187057D01*
X90786190Y-20187057D02*
X90862381Y-20225152D01*
X90862381Y-20225152D02*
X90900476Y-20263247D01*
X90900476Y-20263247D02*
X90938571Y-20339438D01*
X90938571Y-20339438D02*
X90938571Y-20529914D01*
X90938571Y-20529914D02*
X90900476Y-20606104D01*
X90900476Y-20606104D02*
X90862381Y-20644200D01*
X90862381Y-20644200D02*
X90786190Y-20682295D01*
X90786190Y-20682295D02*
X90557619Y-20682295D01*
X90557619Y-20682295D02*
X90481428Y-20644200D01*
X90481428Y-20644200D02*
X90443333Y-20606104D01*
X85864819Y-32101666D02*
X85388628Y-32434999D01*
X85864819Y-32673094D02*
X84864819Y-32673094D01*
X84864819Y-32673094D02*
X84864819Y-32292142D01*
X84864819Y-32292142D02*
X84912438Y-32196904D01*
X84912438Y-32196904D02*
X84960057Y-32149285D01*
X84960057Y-32149285D02*
X85055295Y-32101666D01*
X85055295Y-32101666D02*
X85198152Y-32101666D01*
X85198152Y-32101666D02*
X85293390Y-32149285D01*
X85293390Y-32149285D02*
X85341009Y-32196904D01*
X85341009Y-32196904D02*
X85388628Y-32292142D01*
X85388628Y-32292142D02*
X85388628Y-32673094D01*
X84960057Y-31720713D02*
X84912438Y-31673094D01*
X84912438Y-31673094D02*
X84864819Y-31577856D01*
X84864819Y-31577856D02*
X84864819Y-31339761D01*
X84864819Y-31339761D02*
X84912438Y-31244523D01*
X84912438Y-31244523D02*
X84960057Y-31196904D01*
X84960057Y-31196904D02*
X85055295Y-31149285D01*
X85055295Y-31149285D02*
X85150533Y-31149285D01*
X85150533Y-31149285D02*
X85293390Y-31196904D01*
X85293390Y-31196904D02*
X85864819Y-31768332D01*
X85864819Y-31768332D02*
X85864819Y-31149285D01*
X50683333Y-67059580D02*
X50635714Y-67107200D01*
X50635714Y-67107200D02*
X50492857Y-67154819D01*
X50492857Y-67154819D02*
X50397619Y-67154819D01*
X50397619Y-67154819D02*
X50254762Y-67107200D01*
X50254762Y-67107200D02*
X50159524Y-67011961D01*
X50159524Y-67011961D02*
X50111905Y-66916723D01*
X50111905Y-66916723D02*
X50064286Y-66726247D01*
X50064286Y-66726247D02*
X50064286Y-66583390D01*
X50064286Y-66583390D02*
X50111905Y-66392914D01*
X50111905Y-66392914D02*
X50159524Y-66297676D01*
X50159524Y-66297676D02*
X50254762Y-66202438D01*
X50254762Y-66202438D02*
X50397619Y-66154819D01*
X50397619Y-66154819D02*
X50492857Y-66154819D01*
X50492857Y-66154819D02*
X50635714Y-66202438D01*
X50635714Y-66202438D02*
X50683333Y-66250057D01*
X51016667Y-66154819D02*
X51683333Y-66154819D01*
X51683333Y-66154819D02*
X51254762Y-67154819D01*
X71057142Y-59649580D02*
X71009523Y-59697200D01*
X71009523Y-59697200D02*
X70866666Y-59744819D01*
X70866666Y-59744819D02*
X70771428Y-59744819D01*
X70771428Y-59744819D02*
X70628571Y-59697200D01*
X70628571Y-59697200D02*
X70533333Y-59601961D01*
X70533333Y-59601961D02*
X70485714Y-59506723D01*
X70485714Y-59506723D02*
X70438095Y-59316247D01*
X70438095Y-59316247D02*
X70438095Y-59173390D01*
X70438095Y-59173390D02*
X70485714Y-58982914D01*
X70485714Y-58982914D02*
X70533333Y-58887676D01*
X70533333Y-58887676D02*
X70628571Y-58792438D01*
X70628571Y-58792438D02*
X70771428Y-58744819D01*
X70771428Y-58744819D02*
X70866666Y-58744819D01*
X70866666Y-58744819D02*
X71009523Y-58792438D01*
X71009523Y-58792438D02*
X71057142Y-58840057D01*
X72009523Y-59744819D02*
X71438095Y-59744819D01*
X71723809Y-59744819D02*
X71723809Y-58744819D01*
X71723809Y-58744819D02*
X71628571Y-58887676D01*
X71628571Y-58887676D02*
X71533333Y-58982914D01*
X71533333Y-58982914D02*
X71438095Y-59030533D01*
X72866666Y-58744819D02*
X72676190Y-58744819D01*
X72676190Y-58744819D02*
X72580952Y-58792438D01*
X72580952Y-58792438D02*
X72533333Y-58840057D01*
X72533333Y-58840057D02*
X72438095Y-58982914D01*
X72438095Y-58982914D02*
X72390476Y-59173390D01*
X72390476Y-59173390D02*
X72390476Y-59554342D01*
X72390476Y-59554342D02*
X72438095Y-59649580D01*
X72438095Y-59649580D02*
X72485714Y-59697200D01*
X72485714Y-59697200D02*
X72580952Y-59744819D01*
X72580952Y-59744819D02*
X72771428Y-59744819D01*
X72771428Y-59744819D02*
X72866666Y-59697200D01*
X72866666Y-59697200D02*
X72914285Y-59649580D01*
X72914285Y-59649580D02*
X72961904Y-59554342D01*
X72961904Y-59554342D02*
X72961904Y-59316247D01*
X72961904Y-59316247D02*
X72914285Y-59221009D01*
X72914285Y-59221009D02*
X72866666Y-59173390D01*
X72866666Y-59173390D02*
X72771428Y-59125771D01*
X72771428Y-59125771D02*
X72580952Y-59125771D01*
X72580952Y-59125771D02*
X72485714Y-59173390D01*
X72485714Y-59173390D02*
X72438095Y-59221009D01*
X72438095Y-59221009D02*
X72390476Y-59316247D01*
X53297142Y-63459580D02*
X53249523Y-63507200D01*
X53249523Y-63507200D02*
X53106666Y-63554819D01*
X53106666Y-63554819D02*
X53011428Y-63554819D01*
X53011428Y-63554819D02*
X52868571Y-63507200D01*
X52868571Y-63507200D02*
X52773333Y-63411961D01*
X52773333Y-63411961D02*
X52725714Y-63316723D01*
X52725714Y-63316723D02*
X52678095Y-63126247D01*
X52678095Y-63126247D02*
X52678095Y-62983390D01*
X52678095Y-62983390D02*
X52725714Y-62792914D01*
X52725714Y-62792914D02*
X52773333Y-62697676D01*
X52773333Y-62697676D02*
X52868571Y-62602438D01*
X52868571Y-62602438D02*
X53011428Y-62554819D01*
X53011428Y-62554819D02*
X53106666Y-62554819D01*
X53106666Y-62554819D02*
X53249523Y-62602438D01*
X53249523Y-62602438D02*
X53297142Y-62650057D01*
X53678095Y-62650057D02*
X53725714Y-62602438D01*
X53725714Y-62602438D02*
X53820952Y-62554819D01*
X53820952Y-62554819D02*
X54059047Y-62554819D01*
X54059047Y-62554819D02*
X54154285Y-62602438D01*
X54154285Y-62602438D02*
X54201904Y-62650057D01*
X54201904Y-62650057D02*
X54249523Y-62745295D01*
X54249523Y-62745295D02*
X54249523Y-62840533D01*
X54249523Y-62840533D02*
X54201904Y-62983390D01*
X54201904Y-62983390D02*
X53630476Y-63554819D01*
X53630476Y-63554819D02*
X54249523Y-63554819D01*
X55201904Y-63554819D02*
X54630476Y-63554819D01*
X54916190Y-63554819D02*
X54916190Y-62554819D01*
X54916190Y-62554819D02*
X54820952Y-62697676D01*
X54820952Y-62697676D02*
X54725714Y-62792914D01*
X54725714Y-62792914D02*
X54630476Y-62840533D01*
X86364819Y-20493333D02*
X87079104Y-20493333D01*
X87079104Y-20493333D02*
X87221961Y-20540952D01*
X87221961Y-20540952D02*
X87317200Y-20636190D01*
X87317200Y-20636190D02*
X87364819Y-20779047D01*
X87364819Y-20779047D02*
X87364819Y-20874285D01*
X87364819Y-19493333D02*
X87364819Y-20064761D01*
X87364819Y-19779047D02*
X86364819Y-19779047D01*
X86364819Y-19779047D02*
X86507676Y-19874285D01*
X86507676Y-19874285D02*
X86602914Y-19969523D01*
X86602914Y-19969523D02*
X86650533Y-20064761D01*
X75246104Y-112824285D02*
X75284200Y-112862381D01*
X75284200Y-112862381D02*
X75322295Y-112976666D01*
X75322295Y-112976666D02*
X75322295Y-113052857D01*
X75322295Y-113052857D02*
X75284200Y-113167143D01*
X75284200Y-113167143D02*
X75208009Y-113243333D01*
X75208009Y-113243333D02*
X75131819Y-113281428D01*
X75131819Y-113281428D02*
X74979438Y-113319524D01*
X74979438Y-113319524D02*
X74865152Y-113319524D01*
X74865152Y-113319524D02*
X74712771Y-113281428D01*
X74712771Y-113281428D02*
X74636580Y-113243333D01*
X74636580Y-113243333D02*
X74560390Y-113167143D01*
X74560390Y-113167143D02*
X74522295Y-113052857D01*
X74522295Y-113052857D02*
X74522295Y-112976666D01*
X74522295Y-112976666D02*
X74560390Y-112862381D01*
X74560390Y-112862381D02*
X74598485Y-112824285D01*
X75322295Y-112062381D02*
X75322295Y-112519524D01*
X75322295Y-112290952D02*
X74522295Y-112290952D01*
X74522295Y-112290952D02*
X74636580Y-112367143D01*
X74636580Y-112367143D02*
X74712771Y-112443333D01*
X74712771Y-112443333D02*
X74750866Y-112519524D01*
X74522295Y-111567142D02*
X74522295Y-111490952D01*
X74522295Y-111490952D02*
X74560390Y-111414761D01*
X74560390Y-111414761D02*
X74598485Y-111376666D01*
X74598485Y-111376666D02*
X74674676Y-111338571D01*
X74674676Y-111338571D02*
X74827057Y-111300476D01*
X74827057Y-111300476D02*
X75017533Y-111300476D01*
X75017533Y-111300476D02*
X75169914Y-111338571D01*
X75169914Y-111338571D02*
X75246104Y-111376666D01*
X75246104Y-111376666D02*
X75284200Y-111414761D01*
X75284200Y-111414761D02*
X75322295Y-111490952D01*
X75322295Y-111490952D02*
X75322295Y-111567142D01*
X75322295Y-111567142D02*
X75284200Y-111643333D01*
X75284200Y-111643333D02*
X75246104Y-111681428D01*
X75246104Y-111681428D02*
X75169914Y-111719523D01*
X75169914Y-111719523D02*
X75017533Y-111757619D01*
X75017533Y-111757619D02*
X74827057Y-111757619D01*
X74827057Y-111757619D02*
X74674676Y-111719523D01*
X74674676Y-111719523D02*
X74598485Y-111681428D01*
X74598485Y-111681428D02*
X74560390Y-111643333D01*
X74560390Y-111643333D02*
X74522295Y-111567142D01*
X71007142Y-63479580D02*
X70959523Y-63527200D01*
X70959523Y-63527200D02*
X70816666Y-63574819D01*
X70816666Y-63574819D02*
X70721428Y-63574819D01*
X70721428Y-63574819D02*
X70578571Y-63527200D01*
X70578571Y-63527200D02*
X70483333Y-63431961D01*
X70483333Y-63431961D02*
X70435714Y-63336723D01*
X70435714Y-63336723D02*
X70388095Y-63146247D01*
X70388095Y-63146247D02*
X70388095Y-63003390D01*
X70388095Y-63003390D02*
X70435714Y-62812914D01*
X70435714Y-62812914D02*
X70483333Y-62717676D01*
X70483333Y-62717676D02*
X70578571Y-62622438D01*
X70578571Y-62622438D02*
X70721428Y-62574819D01*
X70721428Y-62574819D02*
X70816666Y-62574819D01*
X70816666Y-62574819D02*
X70959523Y-62622438D01*
X70959523Y-62622438D02*
X71007142Y-62670057D01*
X71959523Y-63574819D02*
X71388095Y-63574819D01*
X71673809Y-63574819D02*
X71673809Y-62574819D01*
X71673809Y-62574819D02*
X71578571Y-62717676D01*
X71578571Y-62717676D02*
X71483333Y-62812914D01*
X71483333Y-62812914D02*
X71388095Y-62860533D01*
X72816666Y-62908152D02*
X72816666Y-63574819D01*
X72578571Y-62527200D02*
X72340476Y-63241485D01*
X72340476Y-63241485D02*
X72959523Y-63241485D01*
X64408333Y-59674819D02*
X64075000Y-59198628D01*
X63836905Y-59674819D02*
X63836905Y-58674819D01*
X63836905Y-58674819D02*
X64217857Y-58674819D01*
X64217857Y-58674819D02*
X64313095Y-58722438D01*
X64313095Y-58722438D02*
X64360714Y-58770057D01*
X64360714Y-58770057D02*
X64408333Y-58865295D01*
X64408333Y-58865295D02*
X64408333Y-59008152D01*
X64408333Y-59008152D02*
X64360714Y-59103390D01*
X64360714Y-59103390D02*
X64313095Y-59151009D01*
X64313095Y-59151009D02*
X64217857Y-59198628D01*
X64217857Y-59198628D02*
X63836905Y-59198628D01*
X64979762Y-59103390D02*
X64884524Y-59055771D01*
X64884524Y-59055771D02*
X64836905Y-59008152D01*
X64836905Y-59008152D02*
X64789286Y-58912914D01*
X64789286Y-58912914D02*
X64789286Y-58865295D01*
X64789286Y-58865295D02*
X64836905Y-58770057D01*
X64836905Y-58770057D02*
X64884524Y-58722438D01*
X64884524Y-58722438D02*
X64979762Y-58674819D01*
X64979762Y-58674819D02*
X65170238Y-58674819D01*
X65170238Y-58674819D02*
X65265476Y-58722438D01*
X65265476Y-58722438D02*
X65313095Y-58770057D01*
X65313095Y-58770057D02*
X65360714Y-58865295D01*
X65360714Y-58865295D02*
X65360714Y-58912914D01*
X65360714Y-58912914D02*
X65313095Y-59008152D01*
X65313095Y-59008152D02*
X65265476Y-59055771D01*
X65265476Y-59055771D02*
X65170238Y-59103390D01*
X65170238Y-59103390D02*
X64979762Y-59103390D01*
X64979762Y-59103390D02*
X64884524Y-59151009D01*
X64884524Y-59151009D02*
X64836905Y-59198628D01*
X64836905Y-59198628D02*
X64789286Y-59293866D01*
X64789286Y-59293866D02*
X64789286Y-59484342D01*
X64789286Y-59484342D02*
X64836905Y-59579580D01*
X64836905Y-59579580D02*
X64884524Y-59627200D01*
X64884524Y-59627200D02*
X64979762Y-59674819D01*
X64979762Y-59674819D02*
X65170238Y-59674819D01*
X65170238Y-59674819D02*
X65265476Y-59627200D01*
X65265476Y-59627200D02*
X65313095Y-59579580D01*
X65313095Y-59579580D02*
X65360714Y-59484342D01*
X65360714Y-59484342D02*
X65360714Y-59293866D01*
X65360714Y-59293866D02*
X65313095Y-59198628D01*
X65313095Y-59198628D02*
X65265476Y-59151009D01*
X65265476Y-59151009D02*
X65170238Y-59103390D01*
X64140333Y-57792019D02*
X63807000Y-57315828D01*
X63568905Y-57792019D02*
X63568905Y-56792019D01*
X63568905Y-56792019D02*
X63949857Y-56792019D01*
X63949857Y-56792019D02*
X64045095Y-56839638D01*
X64045095Y-56839638D02*
X64092714Y-56887257D01*
X64092714Y-56887257D02*
X64140333Y-56982495D01*
X64140333Y-56982495D02*
X64140333Y-57125352D01*
X64140333Y-57125352D02*
X64092714Y-57220590D01*
X64092714Y-57220590D02*
X64045095Y-57268209D01*
X64045095Y-57268209D02*
X63949857Y-57315828D01*
X63949857Y-57315828D02*
X63568905Y-57315828D01*
X64616524Y-57792019D02*
X64807000Y-57792019D01*
X64807000Y-57792019D02*
X64902238Y-57744400D01*
X64902238Y-57744400D02*
X64949857Y-57696780D01*
X64949857Y-57696780D02*
X65045095Y-57553923D01*
X65045095Y-57553923D02*
X65092714Y-57363447D01*
X65092714Y-57363447D02*
X65092714Y-56982495D01*
X65092714Y-56982495D02*
X65045095Y-56887257D01*
X65045095Y-56887257D02*
X64997476Y-56839638D01*
X64997476Y-56839638D02*
X64902238Y-56792019D01*
X64902238Y-56792019D02*
X64711762Y-56792019D01*
X64711762Y-56792019D02*
X64616524Y-56839638D01*
X64616524Y-56839638D02*
X64568905Y-56887257D01*
X64568905Y-56887257D02*
X64521286Y-56982495D01*
X64521286Y-56982495D02*
X64521286Y-57220590D01*
X64521286Y-57220590D02*
X64568905Y-57315828D01*
X64568905Y-57315828D02*
X64616524Y-57363447D01*
X64616524Y-57363447D02*
X64711762Y-57411066D01*
X64711762Y-57411066D02*
X64902238Y-57411066D01*
X64902238Y-57411066D02*
X64997476Y-57363447D01*
X64997476Y-57363447D02*
X65045095Y-57315828D01*
X65045095Y-57315828D02*
X65092714Y-57220590D01*
D10*
X22364895Y-125660475D02*
X21564895Y-125660475D01*
X21564895Y-125660475D02*
X21564895Y-125469999D01*
X21564895Y-125469999D02*
X21602990Y-125355713D01*
X21602990Y-125355713D02*
X21679180Y-125279523D01*
X21679180Y-125279523D02*
X21755371Y-125241428D01*
X21755371Y-125241428D02*
X21907752Y-125203332D01*
X21907752Y-125203332D02*
X22022038Y-125203332D01*
X22022038Y-125203332D02*
X22174419Y-125241428D01*
X22174419Y-125241428D02*
X22250609Y-125279523D01*
X22250609Y-125279523D02*
X22326800Y-125355713D01*
X22326800Y-125355713D02*
X22364895Y-125469999D01*
X22364895Y-125469999D02*
X22364895Y-125660475D01*
X21564895Y-124517618D02*
X21564895Y-124669999D01*
X21564895Y-124669999D02*
X21602990Y-124746190D01*
X21602990Y-124746190D02*
X21641085Y-124784285D01*
X21641085Y-124784285D02*
X21755371Y-124860475D01*
X21755371Y-124860475D02*
X21907752Y-124898571D01*
X21907752Y-124898571D02*
X22212514Y-124898571D01*
X22212514Y-124898571D02*
X22288704Y-124860475D01*
X22288704Y-124860475D02*
X22326800Y-124822380D01*
X22326800Y-124822380D02*
X22364895Y-124746190D01*
X22364895Y-124746190D02*
X22364895Y-124593809D01*
X22364895Y-124593809D02*
X22326800Y-124517618D01*
X22326800Y-124517618D02*
X22288704Y-124479523D01*
X22288704Y-124479523D02*
X22212514Y-124441428D01*
X22212514Y-124441428D02*
X22022038Y-124441428D01*
X22022038Y-124441428D02*
X21945847Y-124479523D01*
X21945847Y-124479523D02*
X21907752Y-124517618D01*
X21907752Y-124517618D02*
X21869657Y-124593809D01*
X21869657Y-124593809D02*
X21869657Y-124746190D01*
X21869657Y-124746190D02*
X21907752Y-124822380D01*
X21907752Y-124822380D02*
X21945847Y-124860475D01*
X21945847Y-124860475D02*
X22022038Y-124898571D01*
D11*
X80204819Y-49971428D02*
X81014342Y-49971428D01*
X81014342Y-49971428D02*
X81109580Y-49923809D01*
X81109580Y-49923809D02*
X81157200Y-49876190D01*
X81157200Y-49876190D02*
X81204819Y-49780952D01*
X81204819Y-49780952D02*
X81204819Y-49590476D01*
X81204819Y-49590476D02*
X81157200Y-49495238D01*
X81157200Y-49495238D02*
X81109580Y-49447619D01*
X81109580Y-49447619D02*
X81014342Y-49400000D01*
X81014342Y-49400000D02*
X80204819Y-49400000D01*
X80919104Y-48971428D02*
X80919104Y-48495238D01*
X81204819Y-49066666D02*
X80204819Y-48733333D01*
X80204819Y-48733333D02*
X81204819Y-48400000D01*
X81204819Y-47495238D02*
X80728628Y-47828571D01*
X81204819Y-48066666D02*
X80204819Y-48066666D01*
X80204819Y-48066666D02*
X80204819Y-47685714D01*
X80204819Y-47685714D02*
X80252438Y-47590476D01*
X80252438Y-47590476D02*
X80300057Y-47542857D01*
X80300057Y-47542857D02*
X80395295Y-47495238D01*
X80395295Y-47495238D02*
X80538152Y-47495238D01*
X80538152Y-47495238D02*
X80633390Y-47542857D01*
X80633390Y-47542857D02*
X80681009Y-47590476D01*
X80681009Y-47590476D02*
X80728628Y-47685714D01*
X80728628Y-47685714D02*
X80728628Y-48066666D01*
X80204819Y-47209523D02*
X80204819Y-46638095D01*
X81204819Y-46923809D02*
X80204819Y-46923809D01*
X81204819Y-45780952D02*
X81204819Y-46352380D01*
X81204819Y-46066666D02*
X80204819Y-46066666D01*
X80204819Y-46066666D02*
X80347676Y-46161904D01*
X80347676Y-46161904D02*
X80442914Y-46257142D01*
X80442914Y-46257142D02*
X80490533Y-46352380D01*
X90136667Y-27216104D02*
X90098571Y-27254200D01*
X90098571Y-27254200D02*
X89984286Y-27292295D01*
X89984286Y-27292295D02*
X89908095Y-27292295D01*
X89908095Y-27292295D02*
X89793809Y-27254200D01*
X89793809Y-27254200D02*
X89717619Y-27178009D01*
X89717619Y-27178009D02*
X89679524Y-27101819D01*
X89679524Y-27101819D02*
X89641428Y-26949438D01*
X89641428Y-26949438D02*
X89641428Y-26835152D01*
X89641428Y-26835152D02*
X89679524Y-26682771D01*
X89679524Y-26682771D02*
X89717619Y-26606580D01*
X89717619Y-26606580D02*
X89793809Y-26530390D01*
X89793809Y-26530390D02*
X89908095Y-26492295D01*
X89908095Y-26492295D02*
X89984286Y-26492295D01*
X89984286Y-26492295D02*
X90098571Y-26530390D01*
X90098571Y-26530390D02*
X90136667Y-26568485D01*
X90822381Y-26492295D02*
X90670000Y-26492295D01*
X90670000Y-26492295D02*
X90593809Y-26530390D01*
X90593809Y-26530390D02*
X90555714Y-26568485D01*
X90555714Y-26568485D02*
X90479524Y-26682771D01*
X90479524Y-26682771D02*
X90441428Y-26835152D01*
X90441428Y-26835152D02*
X90441428Y-27139914D01*
X90441428Y-27139914D02*
X90479524Y-27216104D01*
X90479524Y-27216104D02*
X90517619Y-27254200D01*
X90517619Y-27254200D02*
X90593809Y-27292295D01*
X90593809Y-27292295D02*
X90746190Y-27292295D01*
X90746190Y-27292295D02*
X90822381Y-27254200D01*
X90822381Y-27254200D02*
X90860476Y-27216104D01*
X90860476Y-27216104D02*
X90898571Y-27139914D01*
X90898571Y-27139914D02*
X90898571Y-26949438D01*
X90898571Y-26949438D02*
X90860476Y-26873247D01*
X90860476Y-26873247D02*
X90822381Y-26835152D01*
X90822381Y-26835152D02*
X90746190Y-26797057D01*
X90746190Y-26797057D02*
X90593809Y-26797057D01*
X90593809Y-26797057D02*
X90517619Y-26835152D01*
X90517619Y-26835152D02*
X90479524Y-26873247D01*
X90479524Y-26873247D02*
X90441428Y-26949438D01*
X24352200Y-46255404D02*
X24399819Y-46112547D01*
X24399819Y-46112547D02*
X24399819Y-45874452D01*
X24399819Y-45874452D02*
X24352200Y-45779214D01*
X24352200Y-45779214D02*
X24304580Y-45731595D01*
X24304580Y-45731595D02*
X24209342Y-45683976D01*
X24209342Y-45683976D02*
X24114104Y-45683976D01*
X24114104Y-45683976D02*
X24018866Y-45731595D01*
X24018866Y-45731595D02*
X23971247Y-45779214D01*
X23971247Y-45779214D02*
X23923628Y-45874452D01*
X23923628Y-45874452D02*
X23876009Y-46064928D01*
X23876009Y-46064928D02*
X23828390Y-46160166D01*
X23828390Y-46160166D02*
X23780771Y-46207785D01*
X23780771Y-46207785D02*
X23685533Y-46255404D01*
X23685533Y-46255404D02*
X23590295Y-46255404D01*
X23590295Y-46255404D02*
X23495057Y-46207785D01*
X23495057Y-46207785D02*
X23447438Y-46160166D01*
X23447438Y-46160166D02*
X23399819Y-46064928D01*
X23399819Y-46064928D02*
X23399819Y-45826833D01*
X23399819Y-45826833D02*
X23447438Y-45683976D01*
X24399819Y-44731595D02*
X24399819Y-45303023D01*
X24399819Y-45017309D02*
X23399819Y-45017309D01*
X23399819Y-45017309D02*
X23542676Y-45112547D01*
X23542676Y-45112547D02*
X23637914Y-45207785D01*
X23637914Y-45207785D02*
X23685533Y-45303023D01*
X87406666Y-108934819D02*
X87406666Y-109649104D01*
X87406666Y-109649104D02*
X87359047Y-109791961D01*
X87359047Y-109791961D02*
X87263809Y-109887200D01*
X87263809Y-109887200D02*
X87120952Y-109934819D01*
X87120952Y-109934819D02*
X87025714Y-109934819D01*
X87835238Y-109030057D02*
X87882857Y-108982438D01*
X87882857Y-108982438D02*
X87978095Y-108934819D01*
X87978095Y-108934819D02*
X88216190Y-108934819D01*
X88216190Y-108934819D02*
X88311428Y-108982438D01*
X88311428Y-108982438D02*
X88359047Y-109030057D01*
X88359047Y-109030057D02*
X88406666Y-109125295D01*
X88406666Y-109125295D02*
X88406666Y-109220533D01*
X88406666Y-109220533D02*
X88359047Y-109363390D01*
X88359047Y-109363390D02*
X87787619Y-109934819D01*
X87787619Y-109934819D02*
X88406666Y-109934819D01*
X87724819Y-32021666D02*
X87248628Y-32354999D01*
X87724819Y-32593094D02*
X86724819Y-32593094D01*
X86724819Y-32593094D02*
X86724819Y-32212142D01*
X86724819Y-32212142D02*
X86772438Y-32116904D01*
X86772438Y-32116904D02*
X86820057Y-32069285D01*
X86820057Y-32069285D02*
X86915295Y-32021666D01*
X86915295Y-32021666D02*
X87058152Y-32021666D01*
X87058152Y-32021666D02*
X87153390Y-32069285D01*
X87153390Y-32069285D02*
X87201009Y-32116904D01*
X87201009Y-32116904D02*
X87248628Y-32212142D01*
X87248628Y-32212142D02*
X87248628Y-32593094D01*
X86724819Y-31688332D02*
X86724819Y-31069285D01*
X86724819Y-31069285D02*
X87105771Y-31402618D01*
X87105771Y-31402618D02*
X87105771Y-31259761D01*
X87105771Y-31259761D02*
X87153390Y-31164523D01*
X87153390Y-31164523D02*
X87201009Y-31116904D01*
X87201009Y-31116904D02*
X87296247Y-31069285D01*
X87296247Y-31069285D02*
X87534342Y-31069285D01*
X87534342Y-31069285D02*
X87629580Y-31116904D01*
X87629580Y-31116904D02*
X87677200Y-31164523D01*
X87677200Y-31164523D02*
X87724819Y-31259761D01*
X87724819Y-31259761D02*
X87724819Y-31545475D01*
X87724819Y-31545475D02*
X87677200Y-31640713D01*
X87677200Y-31640713D02*
X87629580Y-31688332D01*
X80256104Y-112243332D02*
X80294200Y-112281428D01*
X80294200Y-112281428D02*
X80332295Y-112395713D01*
X80332295Y-112395713D02*
X80332295Y-112471904D01*
X80332295Y-112471904D02*
X80294200Y-112586190D01*
X80294200Y-112586190D02*
X80218009Y-112662380D01*
X80218009Y-112662380D02*
X80141819Y-112700475D01*
X80141819Y-112700475D02*
X79989438Y-112738571D01*
X79989438Y-112738571D02*
X79875152Y-112738571D01*
X79875152Y-112738571D02*
X79722771Y-112700475D01*
X79722771Y-112700475D02*
X79646580Y-112662380D01*
X79646580Y-112662380D02*
X79570390Y-112586190D01*
X79570390Y-112586190D02*
X79532295Y-112471904D01*
X79532295Y-112471904D02*
X79532295Y-112395713D01*
X79532295Y-112395713D02*
X79570390Y-112281428D01*
X79570390Y-112281428D02*
X79608485Y-112243332D01*
X80332295Y-111862380D02*
X80332295Y-111709999D01*
X80332295Y-111709999D02*
X80294200Y-111633809D01*
X80294200Y-111633809D02*
X80256104Y-111595713D01*
X80256104Y-111595713D02*
X80141819Y-111519523D01*
X80141819Y-111519523D02*
X79989438Y-111481428D01*
X79989438Y-111481428D02*
X79684676Y-111481428D01*
X79684676Y-111481428D02*
X79608485Y-111519523D01*
X79608485Y-111519523D02*
X79570390Y-111557618D01*
X79570390Y-111557618D02*
X79532295Y-111633809D01*
X79532295Y-111633809D02*
X79532295Y-111786190D01*
X79532295Y-111786190D02*
X79570390Y-111862380D01*
X79570390Y-111862380D02*
X79608485Y-111900475D01*
X79608485Y-111900475D02*
X79684676Y-111938571D01*
X79684676Y-111938571D02*
X79875152Y-111938571D01*
X79875152Y-111938571D02*
X79951342Y-111900475D01*
X79951342Y-111900475D02*
X79989438Y-111862380D01*
X79989438Y-111862380D02*
X80027533Y-111786190D01*
X80027533Y-111786190D02*
X80027533Y-111633809D01*
X80027533Y-111633809D02*
X79989438Y-111557618D01*
X79989438Y-111557618D02*
X79951342Y-111519523D01*
X79951342Y-111519523D02*
X79875152Y-111481428D01*
X39144819Y-61151120D02*
X39954342Y-61151120D01*
X39954342Y-61151120D02*
X40049580Y-61103501D01*
X40049580Y-61103501D02*
X40097200Y-61055882D01*
X40097200Y-61055882D02*
X40144819Y-60960644D01*
X40144819Y-60960644D02*
X40144819Y-60770168D01*
X40144819Y-60770168D02*
X40097200Y-60674930D01*
X40097200Y-60674930D02*
X40049580Y-60627311D01*
X40049580Y-60627311D02*
X39954342Y-60579692D01*
X39954342Y-60579692D02*
X39144819Y-60579692D01*
X40144819Y-59579692D02*
X40144819Y-60151120D01*
X40144819Y-59865406D02*
X39144819Y-59865406D01*
X39144819Y-59865406D02*
X39287676Y-59960644D01*
X39287676Y-59960644D02*
X39382914Y-60055882D01*
X39382914Y-60055882D02*
X39430533Y-60151120D01*
X81547142Y-61314819D02*
X81213809Y-60838628D01*
X80975714Y-61314819D02*
X80975714Y-60314819D01*
X80975714Y-60314819D02*
X81356666Y-60314819D01*
X81356666Y-60314819D02*
X81451904Y-60362438D01*
X81451904Y-60362438D02*
X81499523Y-60410057D01*
X81499523Y-60410057D02*
X81547142Y-60505295D01*
X81547142Y-60505295D02*
X81547142Y-60648152D01*
X81547142Y-60648152D02*
X81499523Y-60743390D01*
X81499523Y-60743390D02*
X81451904Y-60791009D01*
X81451904Y-60791009D02*
X81356666Y-60838628D01*
X81356666Y-60838628D02*
X80975714Y-60838628D01*
X82499523Y-61314819D02*
X81928095Y-61314819D01*
X82213809Y-61314819D02*
X82213809Y-60314819D01*
X82213809Y-60314819D02*
X82118571Y-60457676D01*
X82118571Y-60457676D02*
X82023333Y-60552914D01*
X82023333Y-60552914D02*
X81928095Y-60600533D01*
X83404285Y-60314819D02*
X82928095Y-60314819D01*
X82928095Y-60314819D02*
X82880476Y-60791009D01*
X82880476Y-60791009D02*
X82928095Y-60743390D01*
X82928095Y-60743390D02*
X83023333Y-60695771D01*
X83023333Y-60695771D02*
X83261428Y-60695771D01*
X83261428Y-60695771D02*
X83356666Y-60743390D01*
X83356666Y-60743390D02*
X83404285Y-60791009D01*
X83404285Y-60791009D02*
X83451904Y-60886247D01*
X83451904Y-60886247D02*
X83451904Y-61124342D01*
X83451904Y-61124342D02*
X83404285Y-61219580D01*
X83404285Y-61219580D02*
X83356666Y-61267200D01*
X83356666Y-61267200D02*
X83261428Y-61314819D01*
X83261428Y-61314819D02*
X83023333Y-61314819D01*
X83023333Y-61314819D02*
X82928095Y-61267200D01*
X82928095Y-61267200D02*
X82880476Y-61219580D01*
X84204819Y-32211666D02*
X83728628Y-32544999D01*
X84204819Y-32783094D02*
X83204819Y-32783094D01*
X83204819Y-32783094D02*
X83204819Y-32402142D01*
X83204819Y-32402142D02*
X83252438Y-32306904D01*
X83252438Y-32306904D02*
X83300057Y-32259285D01*
X83300057Y-32259285D02*
X83395295Y-32211666D01*
X83395295Y-32211666D02*
X83538152Y-32211666D01*
X83538152Y-32211666D02*
X83633390Y-32259285D01*
X83633390Y-32259285D02*
X83681009Y-32306904D01*
X83681009Y-32306904D02*
X83728628Y-32402142D01*
X83728628Y-32402142D02*
X83728628Y-32783094D01*
X84204819Y-31259285D02*
X84204819Y-31830713D01*
X84204819Y-31544999D02*
X83204819Y-31544999D01*
X83204819Y-31544999D02*
X83347676Y-31640237D01*
X83347676Y-31640237D02*
X83442914Y-31735475D01*
X83442914Y-31735475D02*
X83490533Y-31830713D01*
X47258095Y-69272719D02*
X47258095Y-70082242D01*
X47258095Y-70082242D02*
X47305714Y-70177480D01*
X47305714Y-70177480D02*
X47353333Y-70225100D01*
X47353333Y-70225100D02*
X47448571Y-70272719D01*
X47448571Y-70272719D02*
X47639047Y-70272719D01*
X47639047Y-70272719D02*
X47734285Y-70225100D01*
X47734285Y-70225100D02*
X47781904Y-70177480D01*
X47781904Y-70177480D02*
X47829523Y-70082242D01*
X47829523Y-70082242D02*
X47829523Y-69272719D01*
X48734285Y-69606052D02*
X48734285Y-70272719D01*
X48496190Y-69225100D02*
X48258095Y-69939385D01*
X48258095Y-69939385D02*
X48877142Y-69939385D01*
X88852295Y-97726666D02*
X89423723Y-97726666D01*
X89423723Y-97726666D02*
X89538009Y-97764761D01*
X89538009Y-97764761D02*
X89614200Y-97840952D01*
X89614200Y-97840952D02*
X89652295Y-97955237D01*
X89652295Y-97955237D02*
X89652295Y-98031428D01*
X88852295Y-97421904D02*
X88852295Y-96926666D01*
X88852295Y-96926666D02*
X89157057Y-97193332D01*
X89157057Y-97193332D02*
X89157057Y-97079047D01*
X89157057Y-97079047D02*
X89195152Y-97002856D01*
X89195152Y-97002856D02*
X89233247Y-96964761D01*
X89233247Y-96964761D02*
X89309438Y-96926666D01*
X89309438Y-96926666D02*
X89499914Y-96926666D01*
X89499914Y-96926666D02*
X89576104Y-96964761D01*
X89576104Y-96964761D02*
X89614200Y-97002856D01*
X89614200Y-97002856D02*
X89652295Y-97079047D01*
X89652295Y-97079047D02*
X89652295Y-97307618D01*
X89652295Y-97307618D02*
X89614200Y-97383809D01*
X89614200Y-97383809D02*
X89576104Y-97421904D01*
X29708333Y-55114819D02*
X29375000Y-54638628D01*
X29136905Y-55114819D02*
X29136905Y-54114819D01*
X29136905Y-54114819D02*
X29517857Y-54114819D01*
X29517857Y-54114819D02*
X29613095Y-54162438D01*
X29613095Y-54162438D02*
X29660714Y-54210057D01*
X29660714Y-54210057D02*
X29708333Y-54305295D01*
X29708333Y-54305295D02*
X29708333Y-54448152D01*
X29708333Y-54448152D02*
X29660714Y-54543390D01*
X29660714Y-54543390D02*
X29613095Y-54591009D01*
X29613095Y-54591009D02*
X29517857Y-54638628D01*
X29517857Y-54638628D02*
X29136905Y-54638628D01*
X30565476Y-54114819D02*
X30375000Y-54114819D01*
X30375000Y-54114819D02*
X30279762Y-54162438D01*
X30279762Y-54162438D02*
X30232143Y-54210057D01*
X30232143Y-54210057D02*
X30136905Y-54352914D01*
X30136905Y-54352914D02*
X30089286Y-54543390D01*
X30089286Y-54543390D02*
X30089286Y-54924342D01*
X30089286Y-54924342D02*
X30136905Y-55019580D01*
X30136905Y-55019580D02*
X30184524Y-55067200D01*
X30184524Y-55067200D02*
X30279762Y-55114819D01*
X30279762Y-55114819D02*
X30470238Y-55114819D01*
X30470238Y-55114819D02*
X30565476Y-55067200D01*
X30565476Y-55067200D02*
X30613095Y-55019580D01*
X30613095Y-55019580D02*
X30660714Y-54924342D01*
X30660714Y-54924342D02*
X30660714Y-54686247D01*
X30660714Y-54686247D02*
X30613095Y-54591009D01*
X30613095Y-54591009D02*
X30565476Y-54543390D01*
X30565476Y-54543390D02*
X30470238Y-54495771D01*
X30470238Y-54495771D02*
X30279762Y-54495771D01*
X30279762Y-54495771D02*
X30184524Y-54543390D01*
X30184524Y-54543390D02*
X30136905Y-54591009D01*
X30136905Y-54591009D02*
X30089286Y-54686247D01*
D14*
%TO.C,C18*%
X70349420Y-42710000D02*
X70630580Y-42710000D01*
X70349420Y-43730000D02*
X70630580Y-43730000D01*
%TO.C,R7*%
X79017500Y-105922258D02*
X79017500Y-105447742D01*
X80062500Y-105922258D02*
X80062500Y-105447742D01*
%TO.C,R17*%
X19140000Y-121753641D02*
X19140000Y-121446359D01*
X18380000Y-121753641D02*
X18380000Y-121446359D01*
D15*
%TO.C,D1*%
X33479500Y-77682949D02*
X33479500Y-80058500D01*
X33479500Y-80058500D02*
X38153100Y-80058500D01*
X35740100Y-80541100D02*
X35740100Y-83436700D01*
X36679900Y-80541100D02*
X36679900Y-83436700D01*
X38153100Y-80058500D02*
X38153100Y-81811100D01*
X38153100Y-81811100D02*
X39346900Y-81811100D01*
X39346900Y-80058500D02*
X44020500Y-80058500D01*
X39346900Y-81811100D02*
X39346900Y-80058500D01*
X40820100Y-80541100D02*
X40820100Y-83436700D01*
X41759900Y-80541100D02*
X41759900Y-83436700D01*
X44020500Y-80058500D02*
X44020500Y-77682949D01*
D16*
%TO.C,D2*%
X59185000Y-76420400D02*
X59276500Y-76420400D01*
X59185000Y-79220400D02*
X59185000Y-76420400D01*
X59276500Y-79220400D02*
X59185000Y-79220400D01*
X60893500Y-76420400D02*
X60985000Y-76420400D01*
X60985000Y-76420400D02*
X60985000Y-79220400D01*
X60985000Y-79220400D02*
X60893500Y-79220400D01*
D17*
X60185000Y-80570400D02*
G75*
G02*
X59985000Y-80570400I-100000J0D01*
G01*
X59985000Y-80570400D02*
G75*
G02*
X60185000Y-80570400I100000J0D01*
G01*
D14*
%TO.C,C17*%
X74899420Y-55330000D02*
X75180580Y-55330000D01*
X74899420Y-56350000D02*
X75180580Y-56350000D01*
%TO.C,C15*%
X75170580Y-56910000D02*
X74889420Y-56910000D01*
X75170580Y-57930000D02*
X74889420Y-57930000D01*
D16*
%TO.C,D3*%
X54757500Y-80742900D02*
X57557500Y-80742900D01*
X54757500Y-80834400D02*
X54757500Y-80742900D01*
X54757500Y-82542900D02*
X54757500Y-82451400D01*
X57557500Y-80742900D02*
X57557500Y-80834400D01*
X57557500Y-82451400D02*
X57557500Y-82542900D01*
X57557500Y-82542900D02*
X54757500Y-82542900D01*
D17*
X53507500Y-81642900D02*
G75*
G02*
X53307500Y-81642900I-100000J0D01*
G01*
X53307500Y-81642900D02*
G75*
G02*
X53507500Y-81642900I100000J0D01*
G01*
D14*
%TO.C,R13*%
X78962742Y-57577500D02*
X79437258Y-57577500D01*
X78962742Y-58622500D02*
X79437258Y-58622500D01*
%TO.C,R10*%
X76797500Y-105922258D02*
X76797500Y-105447742D01*
X77842500Y-105922258D02*
X77842500Y-105447742D01*
D10*
%TO.C,C19*%
X63690000Y-79900000D02*
X63690000Y-79900000D01*
X63790000Y-79900000D02*
X63790000Y-79900000D01*
D17*
X66040000Y-76400000D02*
X66040000Y-77900000D01*
X66040000Y-81900000D02*
X66040000Y-83400000D01*
X66040000Y-83400000D02*
X68990000Y-86350000D01*
X68990000Y-73450000D02*
X66040000Y-76400000D01*
X68990000Y-86350000D02*
X69490000Y-86350000D01*
X69490000Y-73450000D02*
X68990000Y-73450000D01*
X75490000Y-86350000D02*
X78940000Y-86350000D01*
X78940000Y-73450000D02*
X75990000Y-73450000D01*
X78940000Y-77900000D02*
X78940000Y-73450000D01*
X78940000Y-86350000D02*
X78940000Y-81900000D01*
D10*
X63690000Y-79900000D02*
G75*
G02*
X63790000Y-79900000I50000J0D01*
G01*
X63790000Y-79900000D02*
G75*
G02*
X63690000Y-79900000I-50000J0D01*
G01*
%TO.C,3.3v_ON1*%
X44060000Y-65270000D02*
G75*
G02*
X43960000Y-65270000I-50000J0D01*
G01*
X43960000Y-65270000D02*
G75*
G02*
X44060000Y-65270000I50000J0D01*
G01*
D16*
%TO.C,D5*%
X51235000Y-76392900D02*
X51326500Y-76392900D01*
X51235000Y-79192900D02*
X51235000Y-76392900D01*
X51326500Y-79192900D02*
X51235000Y-79192900D01*
X52943500Y-76392900D02*
X53035000Y-76392900D01*
X53035000Y-76392900D02*
X53035000Y-79192900D01*
X53035000Y-79192900D02*
X52943500Y-79192900D01*
D17*
X52235000Y-80542900D02*
G75*
G02*
X52035000Y-80542900I-100000J0D01*
G01*
X52035000Y-80542900D02*
G75*
G02*
X52235000Y-80542900I100000J0D01*
G01*
D14*
%TO.C,R11*%
X64036359Y-46250000D02*
X64343641Y-46250000D01*
X64036359Y-47010000D02*
X64343641Y-47010000D01*
%TO.C,R16*%
X44840000Y-65903641D02*
X44840000Y-65596359D01*
X45600000Y-65903641D02*
X45600000Y-65596359D01*
D17*
%TO.C,J4*%
X29200000Y-116950000D02*
X29200000Y-129850000D01*
X26460000Y-116950000D02*
X29200000Y-116950000D01*
X29200000Y-129850000D02*
X26460000Y-129850000D01*
X26460000Y-129850000D02*
X26460000Y-116950000D01*
X27030000Y-117400000D02*
G75*
G02*
X26830000Y-117400000I-100000J0D01*
G01*
X26830000Y-117400000D02*
G75*
G02*
X27030000Y-117400000I100000J0D01*
G01*
D14*
%TO.C,R12*%
X64036359Y-47380000D02*
X64343641Y-47380000D01*
X64036359Y-48140000D02*
X64343641Y-48140000D01*
D16*
%TO.C,D4*%
X54735000Y-72842900D02*
X57535000Y-72842900D01*
X54735000Y-72934400D02*
X54735000Y-72842900D01*
X54735000Y-74642900D02*
X54735000Y-74551400D01*
X57535000Y-72842900D02*
X57535000Y-72934400D01*
X57535000Y-74551400D02*
X57535000Y-74642900D01*
X57535000Y-74642900D02*
X54735000Y-74642900D01*
D17*
X53485000Y-73742900D02*
G75*
G02*
X53285000Y-73742900I-100000J0D01*
G01*
X53285000Y-73742900D02*
G75*
G02*
X53485000Y-73742900I100000J0D01*
G01*
D14*
%TO.C,C8*%
X53798748Y-68055000D02*
X54321252Y-68055000D01*
X53798748Y-69525000D02*
X54321252Y-69525000D01*
%TO.C,F1*%
X74682742Y-53117500D02*
X75157258Y-53117500D01*
X74682742Y-54162500D02*
X75157258Y-54162500D01*
%TO.C,C11*%
X83069420Y-101800000D02*
X83350580Y-101800000D01*
X83069420Y-102820000D02*
X83350580Y-102820000D01*
%TO.C,C20*%
X46279420Y-87690000D02*
X46560580Y-87690000D01*
X46279420Y-88710000D02*
X46560580Y-88710000D01*
%TO.C,R14*%
X79006359Y-59120000D02*
X79313641Y-59120000D01*
X79006359Y-59880000D02*
X79313641Y-59880000D01*
%TO.C,C2*%
X27485580Y-57700000D02*
X27204420Y-57700000D01*
X27485580Y-58720000D02*
X27204420Y-58720000D01*
D15*
%TO.C,U5*%
X18322899Y-127632200D02*
X18322899Y-129486400D01*
X20177099Y-129486400D02*
X20177099Y-127632200D01*
X19751599Y-126603600D02*
G75*
G02*
X19548399Y-126603600I-101600J0D01*
G01*
X19548399Y-126603600D02*
G75*
G02*
X19751599Y-126603600I101600J0D01*
G01*
D14*
%TO.C,R4*%
X88427500Y-34932258D02*
X88427500Y-34457742D01*
X89472500Y-34932258D02*
X89472500Y-34457742D01*
%TO.C,R5*%
X27191359Y-52770000D02*
X27498641Y-52770000D01*
X27191359Y-53530000D02*
X27498641Y-53530000D01*
%TO.C,U3*%
X76840000Y-46822500D02*
X78140000Y-46822500D01*
X76840000Y-48802500D02*
X77890000Y-48802500D01*
X78260000Y-49082500D02*
X78260000Y-48802500D01*
X78540000Y-48802500D01*
X78260000Y-49082500D01*
G36*
X78260000Y-49082500D02*
G01*
X78260000Y-48802500D01*
X78540000Y-48802500D01*
X78260000Y-49082500D01*
G37*
%TO.C,NTCG103JX103DT1S1*%
X19100000Y-118813641D02*
X19100000Y-118506359D01*
X18340000Y-118813641D02*
X18340000Y-118506359D01*
%TO.C,C12*%
X83069420Y-104310000D02*
X83350580Y-104310000D01*
X83069420Y-105330000D02*
X83350580Y-105330000D01*
%TO.C,C13*%
X75230580Y-60730000D02*
X74949420Y-60730000D01*
X75230580Y-61750000D02*
X74949420Y-61750000D01*
%TO.C,U2*%
X67810000Y-45477500D02*
X68285000Y-45477500D01*
X67810000Y-45952500D02*
X67810000Y-45477500D01*
X67810000Y-49222500D02*
X67810000Y-49397500D01*
X68285000Y-49697500D02*
X68050000Y-49697500D01*
X72030000Y-45477500D02*
X71555000Y-45477500D01*
X72030000Y-45952500D02*
X72030000Y-45477500D01*
X72030000Y-49222500D02*
X72030000Y-49697500D01*
X72030000Y-49697500D02*
X71555000Y-49697500D01*
X67810000Y-49697500D02*
X67480000Y-49937500D01*
X67480000Y-49457500D01*
X67810000Y-49697500D01*
G36*
X67810000Y-49697500D02*
G01*
X67480000Y-49937500D01*
X67480000Y-49457500D01*
X67810000Y-49697500D01*
G37*
%TO.C,Q1*%
X67615000Y-53300000D02*
X67615000Y-54700000D01*
X69935000Y-53290000D02*
X69935000Y-54700000D01*
X70215000Y-53160000D02*
X69885000Y-52920000D01*
X70215000Y-52680000D01*
X70215000Y-53160000D01*
G36*
X70215000Y-53160000D02*
G01*
X69885000Y-52920000D01*
X70215000Y-52680000D01*
X70215000Y-53160000D01*
G37*
%TO.C,C1*%
X27234420Y-55960000D02*
X27515580Y-55960000D01*
X27234420Y-56980000D02*
X27515580Y-56980000D01*
D16*
%TO.C,D7*%
X24710000Y-117680000D02*
X24710000Y-120480000D01*
X24618500Y-117680000D02*
X24710000Y-117680000D01*
X22910000Y-117680000D02*
X23001500Y-117680000D01*
X24710000Y-120480000D02*
X24618500Y-120480000D01*
X23001500Y-120480000D02*
X22910000Y-120480000D01*
X22910000Y-120480000D02*
X22910000Y-117680000D01*
D17*
X23910000Y-116330000D02*
G75*
G02*
X23710000Y-116330000I-100000J0D01*
G01*
X23710000Y-116330000D02*
G75*
G02*
X23910000Y-116330000I100000J0D01*
G01*
D14*
%TO.C,R2*%
X84897500Y-34932258D02*
X84897500Y-34457742D01*
X85942500Y-34932258D02*
X85942500Y-34457742D01*
%TO.C,C7*%
X53804420Y-66010000D02*
X54085580Y-66010000D01*
X53804420Y-67030000D02*
X54085580Y-67030000D01*
%TO.C,C16*%
X75321252Y-58635000D02*
X74798748Y-58635000D01*
X75321252Y-60105000D02*
X74798748Y-60105000D01*
%TO.C,C21*%
X53799420Y-64020000D02*
X54080580Y-64020000D01*
X53799420Y-65040000D02*
X54080580Y-65040000D01*
D16*
%TO.C,J1*%
X84965000Y-21315000D02*
X85185000Y-21315000D01*
X84965000Y-27665000D02*
X84965000Y-21315000D01*
X84965000Y-27665000D02*
X85185000Y-27665000D01*
X88145000Y-21315000D02*
X88365000Y-21315000D01*
X88365000Y-21315000D02*
X88365000Y-27665000D01*
X88365000Y-27665000D02*
X88145000Y-27665000D01*
D17*
X86130000Y-20740000D02*
G75*
G02*
X85930000Y-20740000I-100000J0D01*
G01*
X85930000Y-20740000D02*
G75*
G02*
X86130000Y-20740000I100000J0D01*
G01*
D14*
%TO.C,C14*%
X74778748Y-62385000D02*
X75301252Y-62385000D01*
X74778748Y-63855000D02*
X75301252Y-63855000D01*
%TO.C,R8*%
X67430258Y-58630300D02*
X66955742Y-58630300D01*
X67430258Y-59675300D02*
X66955742Y-59675300D01*
%TO.C,R9*%
X67382258Y-56927500D02*
X66907742Y-56927500D01*
X67382258Y-57972500D02*
X66907742Y-57972500D01*
D16*
%TO.C,D6*%
X24740000Y-123610000D02*
X24740000Y-126410000D01*
X24648500Y-123610000D02*
X24740000Y-123610000D01*
X22940000Y-123610000D02*
X23031500Y-123610000D01*
X24740000Y-126410000D02*
X24648500Y-126410000D01*
X23031500Y-126410000D02*
X22940000Y-126410000D01*
X22940000Y-126410000D02*
X22940000Y-123610000D01*
D17*
X23940000Y-122260000D02*
G75*
G02*
X23740000Y-122260000I-100000J0D01*
G01*
X23740000Y-122260000D02*
G75*
G02*
X23940000Y-122260000I100000J0D01*
G01*
D16*
%TO.C,UART1*%
X84970000Y-43430000D02*
X86560000Y-43430000D01*
X84970000Y-52370000D02*
X86560000Y-52370000D01*
X90380000Y-43430000D02*
X89000000Y-43430000D01*
X90380000Y-43430000D02*
X90380000Y-52370000D01*
X90380000Y-52370000D02*
X89000000Y-52370000D01*
%TO.C,S1*%
X25830000Y-47048500D02*
X25830000Y-44588500D01*
X29030000Y-47048500D02*
X29030000Y-44588500D01*
D17*
X26400000Y-49036500D02*
G75*
G02*
X26200000Y-49036500I-100000J0D01*
G01*
X26200000Y-49036500D02*
G75*
G02*
X26400000Y-49036500I100000J0D01*
G01*
%TO.C,J2*%
X75910000Y-110694500D02*
X75910000Y-108205500D01*
X86070000Y-108205500D02*
X75910000Y-108205500D01*
X86070000Y-108205500D02*
X86070000Y-110694500D01*
X86070000Y-110694500D02*
X75910000Y-110694500D01*
X86820000Y-109450000D02*
G75*
G02*
X86620000Y-109450000I-100000J0D01*
G01*
X86620000Y-109450000D02*
G75*
G02*
X86820000Y-109450000I100000J0D01*
G01*
D14*
%TO.C,R3*%
X86667500Y-34932258D02*
X86667500Y-34457742D01*
X87712500Y-34932258D02*
X87712500Y-34457742D01*
%TO.C,U1*%
X40990000Y-60937900D02*
X40990000Y-59987900D01*
X42390000Y-60937900D02*
X40990000Y-60937900D01*
X57990000Y-60937900D02*
X59390000Y-60937900D01*
X59390000Y-60937900D02*
X59390000Y-59987900D01*
X40990000Y-41987900D02*
X40490000Y-41987900D01*
X40990000Y-41487900D01*
X40990000Y-41987900D01*
G36*
X40990000Y-41987900D02*
G01*
X40490000Y-41987900D01*
X40990000Y-41487900D01*
X40990000Y-41987900D01*
G37*
%TO.C,R15*%
X79021359Y-60445000D02*
X79328641Y-60445000D01*
X79021359Y-61205000D02*
X79328641Y-61205000D01*
%TO.C,R1*%
X83157500Y-34972258D02*
X83157500Y-34497742D01*
X84202500Y-34972258D02*
X84202500Y-34497742D01*
%TO.C,U4*%
X46800000Y-70957900D02*
X49380000Y-70957900D01*
X49380000Y-71937900D02*
X49380000Y-70957900D01*
X49380000Y-74697900D02*
X49380000Y-75677900D01*
X49380000Y-75677900D02*
X46660000Y-75677900D01*
X46250000Y-71107900D02*
X46010000Y-70777900D01*
X46490000Y-70777900D01*
X46250000Y-71107900D01*
G36*
X46250000Y-71107900D02*
G01*
X46010000Y-70777900D01*
X46490000Y-70777900D01*
X46250000Y-71107900D01*
G37*
D17*
%TO.C,J3*%
X87720000Y-83600000D02*
X90460000Y-83600000D01*
X87720000Y-96500000D02*
X87720000Y-83600000D01*
X90460000Y-83600000D02*
X90460000Y-96500000D01*
X90460000Y-96500000D02*
X87720000Y-96500000D01*
X90090000Y-96050000D02*
G75*
G02*
X89890000Y-96050000I-100000J0D01*
G01*
X89890000Y-96050000D02*
G75*
G02*
X90090000Y-96050000I100000J0D01*
G01*
D14*
%TO.C,R6*%
X27137742Y-54107500D02*
X27612258Y-54107500D01*
X27137742Y-55152500D02*
X27612258Y-55152500D01*
%TD*%
M02*
