%TF.GenerationSoftware,KiCad,Pcbnew,9.0.0*%
%TF.CreationDate,2025-09-02T15:48:47+09:00*%
%TF.ProjectId,MistFarm_PCB,4d697374-4661-4726-9d5f-5043422e6b69,rev?*%
%TF.SameCoordinates,Original*%
%TF.FileFunction,Soldermask,Top*%
%TF.FilePolarity,Negative*%
%FSLAX46Y46*%
G04 Gerber Fmt 4.6, Leading zero omitted, Abs format (unit mm)*
G04 Created by KiCad (PCBNEW 9.0.0) date 2025-09-02 15:48:47*
%MOMM*%
%LPD*%
G01*
G04 APERTURE LIST*
G04 Aperture macros list*
%AMRoundRect*
0 Rectangle with rounded corners*
0 $1 Rounding radius*
0 $2 $3 $4 $5 $6 $7 $8 $9 X,Y pos of 4 corners*
0 Add a 4 corners polygon primitive as box body*
4,1,4,$2,$3,$4,$5,$6,$7,$8,$9,$2,$3,0*
0 Add four circle primitives for the rounded corners*
1,1,$1+$1,$2,$3*
1,1,$1+$1,$4,$5*
1,1,$1+$1,$6,$7*
1,1,$1+$1,$8,$9*
0 Add four rect primitives between the rounded corners*
20,1,$1+$1,$2,$3,$4,$5,0*
20,1,$1+$1,$4,$5,$6,$7,0*
20,1,$1+$1,$6,$7,$8,$9,0*
20,1,$1+$1,$8,$9,$2,$3,0*%
%AMFreePoly0*
4,1,9,3.862500,-0.866500,0.737500,-0.866500,0.737500,-0.450000,-0.737500,-0.450000,-0.737500,0.450000,0.737500,0.450000,0.737500,0.866500,3.862500,0.866500,3.862500,-0.866500,3.862500,-0.866500,$1*%
G04 Aperture macros list end*
%ADD10C,2.850000*%
%ADD11C,1.450000*%
%ADD12RoundRect,0.225000X-0.225000X-0.250000X0.225000X-0.250000X0.225000X0.250000X-0.225000X0.250000X0*%
%ADD13RoundRect,0.102000X-0.570000X-0.735000X0.570000X-0.735000X0.570000X0.735000X-0.570000X0.735000X0*%
%ADD14RoundRect,0.200000X0.275000X-0.200000X0.275000X0.200000X-0.275000X0.200000X-0.275000X-0.200000X0*%
%ADD15RoundRect,0.135000X0.185000X-0.135000X0.185000X0.135000X-0.185000X0.135000X-0.185000X-0.135000X0*%
%ADD16R,0.990600X2.997200*%
%ADD17R,10.337800X8.712200*%
%ADD18RoundRect,0.102000X-0.245000X-0.300000X0.245000X-0.300000X0.245000X0.300000X-0.245000X0.300000X0*%
%ADD19RoundRect,0.102000X0.495000X-0.560000X0.495000X0.560000X-0.495000X0.560000X-0.495000X-0.560000X0*%
%ADD20RoundRect,0.225000X0.225000X0.250000X-0.225000X0.250000X-0.225000X-0.250000X0.225000X-0.250000X0*%
%ADD21RoundRect,0.102000X-0.560000X-0.495000X0.560000X-0.495000X0.560000X0.495000X-0.560000X0.495000X0*%
%ADD22RoundRect,0.200000X-0.200000X-0.275000X0.200000X-0.275000X0.200000X0.275000X-0.200000X0.275000X0*%
%ADD23R,6.300000X2.500000*%
%ADD24R,5.000000X4.200000*%
%ADD25RoundRect,0.100000X-0.100000X0.130000X-0.100000X-0.130000X0.100000X-0.130000X0.100000X0.130000X0*%
%ADD26RoundRect,0.135000X-0.135000X-0.185000X0.135000X-0.185000X0.135000X0.185000X-0.135000X0.185000X0*%
%ADD27C,1.854000*%
%ADD28RoundRect,0.250000X-0.250000X-0.475000X0.250000X-0.475000X0.250000X0.475000X-0.250000X0.475000X0*%
%ADD29R,0.304800X0.711200*%
%ADD30R,1.092200X0.508000*%
%ADD31RoundRect,0.093750X0.156250X0.093750X-0.156250X0.093750X-0.156250X-0.093750X0.156250X-0.093750X0*%
%ADD32RoundRect,0.075000X0.250000X0.075000X-0.250000X0.075000X-0.250000X-0.075000X0.250000X-0.075000X0*%
%ADD33RoundRect,0.062500X0.062500X-0.350000X0.062500X0.350000X-0.062500X0.350000X-0.062500X-0.350000X0*%
%ADD34RoundRect,0.062500X0.350000X-0.062500X0.350000X0.062500X-0.350000X0.062500X-0.350000X-0.062500X0*%
%ADD35R,2.600000X2.600000*%
%ADD36RoundRect,0.100000X-0.100000X0.225000X-0.100000X-0.225000X0.100000X-0.225000X0.100000X0.225000X0*%
%ADD37RoundRect,0.102000X-0.495000X0.560000X-0.495000X-0.560000X0.495000X-0.560000X0.495000X0.560000X0*%
%ADD38RoundRect,0.250000X0.250000X0.475000X-0.250000X0.475000X-0.250000X-0.475000X0.250000X-0.475000X0*%
%ADD39RoundRect,0.102000X-0.525000X0.525000X-0.525000X-0.525000X0.525000X-0.525000X0.525000X0.525000X0*%
%ADD40C,1.254000*%
%ADD41RoundRect,0.102000X-0.300000X0.245000X-0.300000X-0.245000X0.300000X-0.245000X0.300000X0.245000X0*%
%ADD42RoundRect,0.200000X0.200000X0.275000X-0.200000X0.275000X-0.200000X-0.275000X0.200000X-0.275000X0*%
%ADD43C,0.650000*%
%ADD44C,0.600000*%
%ADD45RoundRect,0.097000X0.490000X-0.300000X0.490000X0.300000X-0.490000X0.300000X-0.490000X-0.300000X0*%
%ADD46RoundRect,0.095000X0.500000X-0.300000X0.500000X0.300000X-0.500000X0.300000X-0.500000X-0.300000X0*%
%ADD47RoundRect,0.095000X0.570000X-0.150000X0.570000X0.150000X-0.570000X0.150000X-0.570000X-0.150000X0*%
%ADD48RoundRect,0.095000X0.500000X-0.275000X0.500000X0.275000X-0.500000X0.275000X-0.500000X-0.275000X0*%
%ADD49RoundRect,0.095000X0.550000X-0.300000X0.550000X0.300000X-0.550000X0.300000X-0.550000X-0.300000X0*%
%ADD50O,2.304000X1.254000*%
%ADD51O,2.004000X1.104000*%
%ADD52RoundRect,0.102000X0.325000X-0.525000X0.325000X0.525000X-0.325000X0.525000X-0.325000X-0.525000X0*%
%ADD53RoundRect,0.102000X-0.685000X-0.685000X0.685000X-0.685000X0.685000X0.685000X-0.685000X0.685000X0*%
%ADD54C,1.574000*%
%ADD55R,1.500000X0.900000*%
%ADD56R,0.900000X1.500000*%
%ADD57R,0.900000X0.900000*%
%ADD58RoundRect,0.225000X-0.425000X-0.225000X0.425000X-0.225000X0.425000X0.225000X-0.425000X0.225000X0*%
%ADD59FreePoly0,0.000000*%
G04 APERTURE END LIST*
D10*
X22175000Y-44107900D02*
G75*
G02*
X19325000Y-44107900I-1425000J0D01*
G01*
X19325000Y-44107900D02*
G75*
G02*
X22175000Y-44107900I1425000J0D01*
G01*
X61625000Y-102057900D02*
G75*
G02*
X58775000Y-102057900I-1425000J0D01*
G01*
X58775000Y-102057900D02*
G75*
G02*
X61625000Y-102057900I1425000J0D01*
G01*
X31175000Y-85510000D02*
G75*
G02*
X28325000Y-85510000I-1425000J0D01*
G01*
X28325000Y-85510000D02*
G75*
G02*
X31175000Y-85510000I1425000J0D01*
G01*
D11*
X60975000Y-90157900D02*
G75*
G02*
X59525000Y-90157900I-725000J0D01*
G01*
X59525000Y-90157900D02*
G75*
G02*
X60975000Y-90157900I725000J0D01*
G01*
X52675000Y-90157900D02*
G75*
G02*
X51225000Y-90157900I-725000J0D01*
G01*
X51225000Y-90157900D02*
G75*
G02*
X52675000Y-90157900I725000J0D01*
G01*
D10*
X40175000Y-105910000D02*
G75*
G02*
X37325000Y-105910000I-1425000J0D01*
G01*
X37325000Y-105910000D02*
G75*
G02*
X40175000Y-105910000I1425000J0D01*
G01*
X53175000Y-102107900D02*
G75*
G02*
X50325000Y-102107900I-1425000J0D01*
G01*
X50325000Y-102107900D02*
G75*
G02*
X53175000Y-102107900I1425000J0D01*
G01*
X22175000Y-106107900D02*
G75*
G02*
X19325000Y-106107900I-1425000J0D01*
G01*
X19325000Y-106107900D02*
G75*
G02*
X22175000Y-106107900I1425000J0D01*
G01*
D12*
%TO.C,C18*%
X69715000Y-43220000D03*
X71265000Y-43220000D03*
%TD*%
D13*
%TO.C,FL1*%
X77650000Y-53540000D03*
X79430000Y-53540000D03*
%TD*%
D14*
%TO.C,R7*%
X79540000Y-106510000D03*
X79540000Y-104860000D03*
%TD*%
D15*
%TO.C,R17*%
X18760000Y-122110000D03*
X18760000Y-121090000D03*
%TD*%
D16*
%TO.C,D1*%
X36210000Y-85290900D03*
D17*
X38750000Y-73010000D03*
D16*
X41290000Y-85290900D03*
%TD*%
D18*
%TO.C,C4*%
X89843000Y-23670000D03*
X90757000Y-23670000D03*
%TD*%
D19*
%TO.C,D2*%
X60085000Y-79390400D03*
X60085000Y-76250400D03*
%TD*%
D12*
%TO.C,C17*%
X74265000Y-55840000D03*
X75815000Y-55840000D03*
%TD*%
D20*
%TO.C,C15*%
X75805000Y-57420000D03*
X74255000Y-57420000D03*
%TD*%
D21*
%TO.C,D3*%
X54587500Y-81642900D03*
X57727500Y-81642900D03*
%TD*%
D22*
%TO.C,R13*%
X78375000Y-58100000D03*
X80025000Y-58100000D03*
%TD*%
D14*
%TO.C,R10*%
X77320000Y-106510000D03*
X77320000Y-104860000D03*
%TD*%
D23*
%TO.C,C19*%
X67340000Y-79900000D03*
X77640000Y-79900000D03*
D24*
X72490000Y-75000000D03*
X72490000Y-84800000D03*
%TD*%
D25*
%TO.C,3.3v_ON1*%
X44010000Y-65810000D03*
X44010000Y-66450000D03*
%TD*%
D18*
%TO.C,C5*%
X89843000Y-25820000D03*
X90757000Y-25820000D03*
%TD*%
D19*
%TO.C,D5*%
X52135000Y-79362900D03*
X52135000Y-76222900D03*
%TD*%
D26*
%TO.C,R11*%
X63680000Y-46630000D03*
X64700000Y-46630000D03*
%TD*%
D15*
%TO.C,R16*%
X45220000Y-66260000D03*
X45220000Y-65240000D03*
%TD*%
D27*
%TO.C,J4*%
X27830000Y-118320000D03*
X27830000Y-120860000D03*
X27830000Y-123400000D03*
X27830000Y-125940000D03*
X27830000Y-128480000D03*
%TD*%
D26*
%TO.C,R12*%
X63680000Y-47760000D03*
X64700000Y-47760000D03*
%TD*%
D21*
%TO.C,D4*%
X54565000Y-73742900D03*
X57705000Y-73742900D03*
%TD*%
D28*
%TO.C,C8*%
X53110000Y-68790000D03*
X55010000Y-68790000D03*
%TD*%
D22*
%TO.C,F1*%
X74095000Y-53640000D03*
X75745000Y-53640000D03*
%TD*%
D12*
%TO.C,C11*%
X82435000Y-102310000D03*
X83985000Y-102310000D03*
%TD*%
%TO.C,C20*%
X45645000Y-88200000D03*
X47195000Y-88200000D03*
%TD*%
D26*
%TO.C,R14*%
X78650000Y-59500000D03*
X79670000Y-59500000D03*
%TD*%
D20*
%TO.C,C2*%
X28120000Y-58210000D03*
X26570000Y-58210000D03*
%TD*%
D29*
%TO.C,U5*%
X19649998Y-127810000D03*
X18850000Y-127810000D03*
X18850000Y-129308600D03*
X19649998Y-129308600D03*
D30*
X19249999Y-128559300D03*
%TD*%
D14*
%TO.C,R4*%
X88950000Y-35520000D03*
X88950000Y-33870000D03*
%TD*%
D26*
%TO.C,R5*%
X26835000Y-53150000D03*
X27855000Y-53150000D03*
%TD*%
D31*
%TO.C,U3*%
X78340000Y-48350000D03*
D32*
X78415000Y-47812500D03*
D31*
X78340000Y-47275000D03*
X76640000Y-47275000D03*
D32*
X76565000Y-47812500D03*
D31*
X76640000Y-48350000D03*
%TD*%
D15*
%TO.C,NTCG103JX103DT1S1*%
X18720000Y-119170000D03*
X18720000Y-118150000D03*
%TD*%
D12*
%TO.C,C12*%
X82435000Y-104820000D03*
X83985000Y-104820000D03*
%TD*%
D20*
%TO.C,C13*%
X75865000Y-61240000D03*
X74315000Y-61240000D03*
%TD*%
D33*
%TO.C,U2*%
X68670000Y-49525000D03*
X69170000Y-49525000D03*
X69670000Y-49525000D03*
X70170000Y-49525000D03*
X70670000Y-49525000D03*
X71170000Y-49525000D03*
D34*
X71857500Y-48837500D03*
X71857500Y-48337500D03*
X71857500Y-47837500D03*
X71857500Y-47337500D03*
X71857500Y-46837500D03*
X71857500Y-46337500D03*
D33*
X71170000Y-45650000D03*
X70670000Y-45650000D03*
X70170000Y-45650000D03*
X69670000Y-45650000D03*
X69170000Y-45650000D03*
X68670000Y-45650000D03*
D34*
X67982500Y-46337500D03*
X67982500Y-46837500D03*
X67982500Y-47337500D03*
X67982500Y-47837500D03*
X67982500Y-48337500D03*
X67982500Y-48837500D03*
D35*
X69920000Y-47587500D03*
%TD*%
D36*
%TO.C,Q1*%
X69425000Y-53050000D03*
X68775000Y-53050000D03*
X68125000Y-53050000D03*
X68125000Y-54950000D03*
X68775000Y-54950000D03*
X69425000Y-54950000D03*
%TD*%
D12*
%TO.C,C1*%
X26600000Y-56470000D03*
X28150000Y-56470000D03*
%TD*%
D37*
%TO.C,D7*%
X23810000Y-117510000D03*
X23810000Y-120650000D03*
%TD*%
D18*
%TO.C,C3*%
X89843000Y-21450000D03*
X90757000Y-21450000D03*
%TD*%
D14*
%TO.C,R2*%
X85420000Y-35520000D03*
X85420000Y-33870000D03*
%TD*%
D12*
%TO.C,C7*%
X53170000Y-66520000D03*
X54720000Y-66520000D03*
%TD*%
D38*
%TO.C,C16*%
X76010000Y-59370000D03*
X74110000Y-59370000D03*
%TD*%
D12*
%TO.C,C21*%
X53165000Y-64530000D03*
X54715000Y-64530000D03*
%TD*%
D39*
%TO.C,J1*%
X86030000Y-21950000D03*
D40*
X87300000Y-21950000D03*
X86030000Y-23220000D03*
X87300000Y-23220000D03*
X86030000Y-24490000D03*
X87300000Y-24490000D03*
X86030000Y-25760000D03*
X87300000Y-25760000D03*
X86030000Y-27030000D03*
X87300000Y-27030000D03*
%TD*%
D41*
%TO.C,C10*%
X76540000Y-111690000D03*
X76540000Y-112604000D03*
%TD*%
D28*
%TO.C,C14*%
X74090000Y-63120000D03*
X75990000Y-63120000D03*
%TD*%
D42*
%TO.C,R8*%
X68018000Y-59152800D03*
X66368000Y-59152800D03*
%TD*%
%TO.C,R9*%
X67970000Y-57450000D03*
X66320000Y-57450000D03*
%TD*%
D37*
%TO.C,D6*%
X23840000Y-123440000D03*
X23840000Y-126580000D03*
%TD*%
D43*
%TO.C,UART1*%
X84100000Y-50790000D03*
D44*
X84100000Y-45010000D03*
D45*
X83030000Y-51100000D03*
D46*
X83030000Y-50300000D03*
D47*
X83030000Y-49150000D03*
X83030000Y-48150000D03*
X83030000Y-47650000D03*
X83030000Y-46650000D03*
D48*
X83030000Y-44700000D03*
D49*
X83030000Y-45500000D03*
D47*
X83030000Y-46150000D03*
X83030000Y-47150000D03*
X83030000Y-48650000D03*
X83030000Y-49650000D03*
D50*
X83600000Y-52220000D03*
X83600000Y-43580000D03*
D51*
X87780000Y-52220000D03*
X87780000Y-43580000D03*
%TD*%
D18*
%TO.C,C6*%
X89843000Y-27970000D03*
X90757000Y-27970000D03*
%TD*%
D52*
%TO.C,S1*%
X26355000Y-47893500D03*
X26355000Y-43743500D03*
X28505000Y-47893500D03*
X28505000Y-43743500D03*
%TD*%
D53*
%TO.C,J2*%
X84800000Y-109450000D03*
D54*
X82260000Y-109450000D03*
X79720000Y-109450000D03*
X77180000Y-109450000D03*
%TD*%
D14*
%TO.C,R3*%
X87190000Y-35520000D03*
X87190000Y-33870000D03*
%TD*%
D41*
%TO.C,C9*%
X78690000Y-111690000D03*
X78690000Y-112604000D03*
%TD*%
D55*
%TO.C,U1*%
X41440000Y-42727900D03*
X41440000Y-43997900D03*
X41440000Y-45267900D03*
X41440000Y-46537900D03*
X41440000Y-47807900D03*
X41440000Y-49077900D03*
X41440000Y-50347900D03*
X41440000Y-51617900D03*
X41440000Y-52887900D03*
X41440000Y-54157900D03*
X41440000Y-55427900D03*
X41440000Y-56697900D03*
X41440000Y-57967900D03*
X41440000Y-59237900D03*
D56*
X44475000Y-60487900D03*
X45745000Y-60487900D03*
X47015000Y-60487900D03*
X48285000Y-60487900D03*
X49555000Y-60487900D03*
X50825000Y-60487900D03*
X52095000Y-60487900D03*
X53365000Y-60487900D03*
X54635000Y-60487900D03*
X55905000Y-60487900D03*
D55*
X58940000Y-59237900D03*
X58940000Y-57967900D03*
X58940000Y-56697900D03*
X58940000Y-55427900D03*
X58940000Y-54157900D03*
X58940000Y-52887900D03*
X58940000Y-51617900D03*
X58940000Y-50347900D03*
X58940000Y-49077900D03*
X58940000Y-47807900D03*
X58940000Y-46537900D03*
X58940000Y-45267900D03*
X58940000Y-43997900D03*
X58940000Y-42727900D03*
D57*
X47290000Y-49047900D03*
D44*
X47290000Y-49747900D03*
D57*
X47290000Y-50447900D03*
D44*
X47290000Y-51147900D03*
D57*
X47290000Y-51847900D03*
D44*
X47990000Y-49047900D03*
X47990000Y-50447900D03*
X47990000Y-51847900D03*
D57*
X48690000Y-49047900D03*
D44*
X48690000Y-49747900D03*
D57*
X48690000Y-50447900D03*
D44*
X48690000Y-51147900D03*
D57*
X48690000Y-51847900D03*
D44*
X49390000Y-49047900D03*
X49390000Y-50447900D03*
X49390000Y-51847900D03*
D57*
X50090000Y-49047900D03*
D44*
X50090000Y-49747900D03*
D57*
X50090000Y-50447900D03*
D44*
X50090000Y-51147900D03*
D57*
X50090000Y-51847900D03*
%TD*%
D26*
%TO.C,R15*%
X78665000Y-60825000D03*
X79685000Y-60825000D03*
%TD*%
D14*
%TO.C,R1*%
X83680000Y-35560000D03*
X83680000Y-33910000D03*
%TD*%
D58*
%TO.C,U4*%
X46070000Y-71817900D03*
D59*
X46157500Y-73317900D03*
D58*
X46070000Y-74817900D03*
%TD*%
D27*
%TO.C,J3*%
X89090000Y-95130000D03*
X89090000Y-92590000D03*
X89090000Y-90050000D03*
X89090000Y-87510000D03*
X89090000Y-84970000D03*
%TD*%
D22*
%TO.C,R6*%
X26550000Y-54630000D03*
X28200000Y-54630000D03*
%TD*%
M02*
